<svg width="25" height="24" viewBox="0 0 25 24" fill="none" xmlns="http://www.w3.org/2000/svg">
<path d="M18.5098 8C18.5098 6.4087 17.8776 4.88258 16.7524 3.75736C15.6272 2.63214 14.1011 2 12.5098 2C10.9185 2 9.39234 2.63214 8.26713 3.75736C7.14191 4.88258 6.50977 6.4087 6.50977 8C6.50977 15 3.50977 17 3.50977 17H21.5098C21.5098 17 18.5098 15 18.5098 8Z" stroke="#33322C" stroke-width="2" stroke-linecap="round" stroke-linejoin="round"/>
<path d="M14.2398 21C14.064 21.3031 13.8116 21.5547 13.508 21.7295C13.2044 21.9044 12.8602 21.9965 12.5098 21.9965C12.1594 21.9965 11.8152 21.9044 11.5116 21.7295C11.2079 21.5547 10.9556 21.3031 10.7798 21" stroke="#33322C" stroke-width="2" stroke-linecap="round" stroke-linejoin="round"/>
</svg>
