<svg width="18" height="15" viewBox="0 0 18 15" fill="none" xmlns="http://www.w3.org/2000/svg">
<path d="M13.565 14.1734C13.2644 13.5134 12.9647 12.8532 12.6658 12.1927C12.5765 11.9275 12.531 11.6496 12.5309 11.3697C12.4014 10.1271 12.2795 8.88377 12.1546 7.64045C12.0683 6.78313 11.9831 5.92582 11.8938 5.06883C11.887 5.02434 11.8916 4.97884 11.9071 4.93659C11.9226 4.89433 11.9485 4.8567 11.9824 4.82717C12.3884 4.43718 12.79 4.04251 13.194 3.65019C13.6311 3.23481 14.0427 2.79321 14.4262 2.32786C14.7223 1.96166 14.9143 1.52236 14.9821 1.05619C14.9897 1.00719 14.9764 0.953857 15.0294 0.917191C15.4299 0.597634 15.929 0.427286 16.4411 0.435223C16.936 0.468556 17.1765 0.756534 17.1738 1.32486C17.1016 1.93974 16.8101 2.50789 16.3529 2.92485C15.6342 3.64396 14.9105 4.35816 14.1818 5.06749C14.133 5.10925 14.0957 5.16281 14.0734 5.22308C14.0512 5.28335 14.0447 5.34831 14.0546 5.4118C14.2164 6.938 14.3754 8.46444 14.5315 9.99109C14.6371 11.0124 14.738 12.0347 14.8472 13.0557C14.8575 13.1197 14.8509 13.1853 14.8283 13.2461C14.8056 13.3068 14.7676 13.3607 14.718 13.4024C14.4332 13.669 14.1605 13.9494 13.8817 14.223C13.8081 14.2954 13.7552 14.3327 13.7106 14.3327C13.6546 14.333 13.614 14.2807 13.565 14.1734ZM10.9776 13.7454C10.3373 12.3381 9.69745 10.9305 9.05802 9.52275L8.31435 7.88711C7.99863 8.19944 7.69257 8.50045 7.3885 8.80311C7.06847 9.14958 6.71282 9.46127 6.32745 9.73307C6.30267 9.74593 6.28276 9.76654 6.27074 9.79175C6.25872 9.81695 6.25525 9.8454 6.26084 9.87276C6.33644 10.5938 6.40338 11.3151 6.48298 12.0354C6.50116 12.1181 6.49606 12.2042 6.46825 12.2842C6.44044 12.3642 6.39101 12.4348 6.32545 12.4884C6.11997 12.6624 5.93813 12.8641 5.74563 13.055C5.57345 13.2244 5.51684 13.2144 5.41259 12.9904C5.01994 12.1411 4.6263 11.2921 4.23931 10.4404C4.21852 10.3912 4.18822 10.3466 4.15015 10.3092C4.11209 10.2718 4.06701 10.2423 4.0175 10.2224C3.15161 9.83663 2.28571 9.44775 1.41981 9.05575C1.21699 8.96409 1.207 8.90411 1.36453 8.74745C1.58866 8.52479 1.81579 8.30479 2.0376 8.08079C2.06619 8.04903 2.10222 8.02485 2.14244 8.01048C2.18267 7.99611 2.22583 7.99197 2.26806 7.99844C3.01473 8.07543 3.76206 8.14612 4.5084 8.22512C4.56031 8.23727 4.61476 8.2322 4.66354 8.21067C4.71231 8.18915 4.75278 8.15233 4.77882 8.10577C5.07754 7.70549 5.41646 7.33689 5.79026 7.00577C6.05336 6.74211 6.31979 6.48214 6.6032 6.20248C6.23686 6.03948 5.88684 5.88449 5.53748 5.73016C3.92891 5.01683 2.32012 4.30339 0.711108 3.58984C0.46566 3.48085 0.458 3.43383 0.650829 3.24349C0.932578 2.9645 1.21699 2.68818 1.49508 2.40618C1.5268 2.36972 1.56711 2.34174 1.61235 2.32481C1.65759 2.30787 1.70634 2.30251 1.75418 2.30918C3.30502 2.46762 4.85609 2.62385 6.40738 2.77784C7.45311 2.88218 8.49885 2.98316 9.54425 3.09083C9.6053 3.10029 9.66775 3.09433 9.72591 3.07349C9.78408 3.05265 9.83611 3.01762 9.87729 2.97153C10.5915 2.25642 11.31 1.54531 12.0327 0.838213C12.4344 0.419664 12.9559 0.1362 13.5254 0.0269035C13.6909 -0.00463957 13.8611 -0.000692367 14.0249 0.0385407C14.1696 0.0671564 14.301 0.142252 14.3992 0.252405C14.4973 0.362558 14.5569 0.501769 14.5688 0.648884C14.5999 0.992172 14.5326 1.33723 14.3746 1.64354C14.2136 1.97988 13.9938 2.28466 13.7255 2.54351C13.0058 3.25384 12.2888 3.96685 11.5655 4.67284C11.5241 4.7098 11.4932 4.75689 11.4757 4.80951C11.4581 4.86213 11.4546 4.91842 11.4655 4.9728C11.6031 6.27812 11.732 7.58413 11.8652 8.88978C11.986 10.0698 12.1081 11.2496 12.2315 12.4294C12.2409 12.5204 12.2405 12.6127 12.2568 12.7021C12.2654 12.7439 12.2622 12.7873 12.2478 12.8275C12.2333 12.8677 12.2081 12.9032 12.1749 12.9301C11.8752 13.2227 11.5784 13.5197 11.279 13.8134C11.2404 13.8627 11.1851 13.8961 11.1235 13.9074C11.0699 13.9024 11.0259 13.851 10.9776 13.745V13.7454Z" fill="#B4B4B4"/>
</svg>
