<?xml version="1.0" encoding="utf-8"?>
<!-- Generator: Adobe Illustrator 25.2.1, SVG Export Plug-In . SVG Version: 6.00 Build 0)  -->
<svg version="1.1" id="Calque_1" xmlns="http://www.w3.org/2000/svg" xmlns:xlink="http://www.w3.org/1999/xlink" x="0px" y="0px"
	 viewBox="0 0 115 89" style="enable-background:new 0 0 115 89;" xml:space="preserve">
<style type="text/css">
	.st0{fill:#FFFFFF;}
</style>
<g id="Groupe_2" transform="translate(-376 -1178.651)">
	<path id="book_air_logo_icon" class="st0" d="M457.9,1120.7c-0.1,1.2-0.7,2.3-1.5,3.2c-0.7,0.8-2.4,1.5-2.3,1.4
		c1.4-0.9,2.3-2.5,2.3-4.2c0-0.3,0-0.6-0.1-0.9c-0.5-3.7-5.7-4-5.8-4l0.1,0.3c0.2,1,0.4,1.9,0.6,2.9c0,0.1,0,0.2-0.1,0.1
		c-0.2,0-0.4-0.1-0.7-0.1c-0.1,0-0.1,0-0.1-0.1c-0.4-0.8-0.9-1.5-1.3-2.3c-0.3-0.5-0.6-1-0.9-1.5c0-0.1-0.1-0.1-0.2-0.1
		c-0.6-0.1-1.1-0.2-1.7-0.3c-0.3,0-0.6-0.2-0.9-0.4c-0.1-0.1-0.1-0.1-0.2-0.2c-0.1-0.2,0-0.3,0.1-0.4c0.2-0.1,0.3-0.2,0.5-0.2
		c0.2,0,0.4,0,0.6,0c0.6,0.1,1.1,0.2,1.7,0.3c0.1,0,0.1,0,0.2-0.1c0.6-0.5,1.1-1,1.7-1.5c0.5-0.4,1-0.9,1.5-1.3c0,0,0.1-0.1,0.1-0.1
		c0,0,0.1,0,0.1,0c0.2,0,0.5,0.1,0.7,0.1c0.1,0,0.1,0.1,0.1,0.2c-0.5,0.8-0.9,1.5-1.4,2.3l-0.3,0.5c0,0,0,0,0,0
		c0.6,0.2,1.2,0.3,1.8,0.5c0.3,0.1,0.5,0.1,0.8,0.2c0.3,0.1,0.6,0.2,0.9,0.3h0c1.1,0.4,2,1.2,2.7,2.2
		C457.7,1118.4,458,1119.6,457.9,1120.7L457.9,1120.7z"/>
	
		<text transform="matrix(1 0 0 1 407.5957 1128.8008)" class="st0" style="font-family:'HelveticaNeue-UltraLight'; font-size:10.8645px;">EDEL</text>
	
		<text transform="matrix(1 0 0 1 434.1372 1128.8008)" class="st0" style="font-family:'HelveticaNeue-Bold'; font-size:10.8645px;">FLY</text>
</g>
</svg>
