<svg width="17" height="18" viewBox="0 0 17 18" fill="none" xmlns="http://www.w3.org/2000/svg">
<path d="M8.80503 0.833008C7.19127 0.83347 5.61388 1.31287 4.27234 2.2106C2.93079 3.10833 1.88534 4.38406 1.26819 5.87647C0.651042 7.36888 0.489906 9.01095 0.805164 10.595C1.12042 12.1791 1.89791 13.634 3.03932 14.7758C4.18073 15.9176 5.63479 16.695 7.21763 17.0097C8.80047 17.3244 10.441 17.1623 11.9318 16.5438C13.4225 15.9253 14.6966 14.8782 15.5928 13.535C16.489 12.1918 16.9672 10.6128 16.9668 8.99762C16.9665 7.92514 16.7552 6.86322 16.3449 5.87248C15.9346 4.88174 15.3333 3.98157 14.5754 3.22341C13.8175 2.46525 12.9178 1.86396 11.9278 1.45381C10.9377 1.04366 9.87657 0.832702 8.80503 0.833008ZM10.5035 13.4906C10.0822 13.6572 9.7482 13.7809 9.49875 13.8682C9.2183 13.9616 8.92405 14.0067 8.62853 14.0016C8.20009 14.0284 7.77701 13.8947 7.44158 13.6266C7.30508 13.5107 7.19635 13.3655 7.12343 13.2019C7.05051 13.0383 7.01526 12.8604 7.02029 12.6813C7.02073 12.529 7.03085 12.3769 7.05059 12.2259C7.07514 12.0498 7.10849 11.875 7.15051 11.7023L7.67704 9.84295C7.72366 9.66395 7.76429 9.49561 7.7946 9.33994C7.82409 9.19542 7.83992 9.04843 7.84189 8.90094C7.85112 8.81254 7.84274 8.72318 7.81725 8.63804C7.79175 8.55291 7.74964 8.47367 7.69336 8.40493C7.52973 8.29258 7.33094 8.24345 7.13385 8.26663C6.99218 8.2674 6.8513 8.28782 6.71523 8.32729C6.57369 8.37129 6.45279 8.41196 6.35188 8.44896L6.49009 7.87861C6.83379 7.73694 7.16416 7.61861 7.47755 7.51761C7.76469 7.42042 8.06533 7.36915 8.36842 7.36563C8.78901 7.33852 9.20459 7.46923 9.53405 7.73229C9.66861 7.85061 9.77532 7.99725 9.84655 8.16173C9.91778 8.32621 9.95175 8.50444 9.94602 8.68361C9.94602 8.76495 9.9357 8.90661 9.91838 9.10894C9.90209 9.2988 9.86718 9.4866 9.81414 9.66961L9.29194 11.5223C9.24798 11.6709 9.21068 11.8429 9.17371 12.0319C9.14533 12.1748 9.12862 12.3197 9.12375 12.4652C9.11311 12.5562 9.12251 12.6483 9.15128 12.7352C9.18005 12.8221 9.22749 12.9017 9.29027 12.9682C9.46143 13.0747 9.66292 13.1216 9.86343 13.1016C10.0101 13.0986 10.1556 13.0762 10.2964 13.0349C10.4159 13.0044 10.533 12.9651 10.6467 12.9173L10.5035 13.4906ZM10.4129 5.97062C10.1707 6.1897 9.85586 6.31099 9.52939 6.31099C9.20292 6.31099 8.88807 6.1897 8.64584 5.97062C8.52934 5.86694 8.43637 5.73949 8.37318 5.59685C8.30999 5.4542 8.27805 5.29967 8.2795 5.14364C8.27868 4.98761 8.3109 4.83318 8.37405 4.69052C8.43719 4.54786 8.52983 4.4202 8.64584 4.31597C8.88807 4.09689 9.20292 3.9756 9.52939 3.9756C9.85586 3.9756 10.1707 4.09689 10.4129 4.31597C10.5288 4.4202 10.6212 4.54791 10.684 4.6906C10.7468 4.8333 10.7786 4.98772 10.7773 5.14364C10.7792 5.29955 10.7476 5.45406 10.6848 5.59672C10.6219 5.73939 10.5292 5.86688 10.4129 5.97062Z" fill="#B4B4B4"/>
</svg>
