<svg width="168" height="62" viewBox="0 0 168 62" fill="none" xmlns="http://www.w3.org/2000/svg">
<path d="M9.97363 59L8.87988 55.9785H4.7373L3.64355 59H2.65234L6.34375 49.1357H7.27344L10.958 59H9.97363ZM6.78809 50.291L5.01758 55.1719H8.59961L6.8291 50.291H6.78809ZM14.4102 59.1162C13.5078 59.1162 12.7741 58.779 12.209 58.1045C11.6484 57.43 11.3682 56.5436 11.3682 55.4453C11.3682 54.3424 11.6462 53.4561 12.2021 52.7861C12.7627 52.1117 13.4919 51.7744 14.3896 51.7744C14.9502 51.7744 15.4469 51.9202 15.8799 52.2119C16.3174 52.499 16.6318 52.8796 16.8232 53.3535H16.8438V49.1357H17.7529V59H16.8916V57.4961H16.8711C16.666 57.9837 16.3447 58.3757 15.9072 58.6719C15.4697 58.9681 14.9707 59.1162 14.4102 59.1162ZM14.5674 52.5742C13.8838 52.5742 13.3346 52.8363 12.9199 53.3604C12.5052 53.8844 12.2979 54.5794 12.2979 55.4453C12.2979 56.3112 12.5052 57.0062 12.9199 57.5303C13.3346 58.0544 13.8838 58.3164 14.5674 58.3164C15.2464 58.3164 15.7956 58.0521 16.2148 57.5234C16.6387 56.9948 16.8506 56.3021 16.8506 55.4453C16.8506 54.5885 16.6387 53.8958 16.2148 53.3672C15.7956 52.8385 15.2464 52.5742 14.5674 52.5742ZM22.0664 59.1162C21.1641 59.1162 20.4303 58.779 19.8652 58.1045C19.3047 57.43 19.0244 56.5436 19.0244 55.4453C19.0244 54.3424 19.3024 53.4561 19.8584 52.7861C20.4189 52.1117 21.1481 51.7744 22.0459 51.7744C22.6064 51.7744 23.1032 51.9202 23.5361 52.2119C23.9736 52.499 24.2881 52.8796 24.4795 53.3535H24.5V49.1357H25.4092V59H24.5479V57.4961H24.5273C24.3223 57.9837 24.001 58.3757 23.5635 58.6719C23.126 58.9681 22.627 59.1162 22.0664 59.1162ZM22.2236 52.5742C21.54 52.5742 20.9909 52.8363 20.5762 53.3604C20.1615 53.8844 19.9541 54.5794 19.9541 55.4453C19.9541 56.3112 20.1615 57.0062 20.5762 57.5303C20.9909 58.0544 21.54 58.3164 22.2236 58.3164C22.9027 58.3164 23.4518 58.0521 23.8711 57.5234C24.2949 56.9948 24.5068 56.3021 24.5068 55.4453C24.5068 54.5885 24.2949 53.8958 23.8711 53.3672C23.4518 52.8385 22.9027 52.5742 22.2236 52.5742ZM29.7637 53.791C29.7637 53.2031 30.0007 52.7201 30.4746 52.3418C30.9531 51.9635 31.5684 51.7744 32.3203 51.7744C33.0449 51.7744 33.6442 51.9704 34.1182 52.3623C34.5967 52.7497 34.8587 53.2555 34.9043 53.8799H34.0361C33.9814 53.4561 33.7992 53.1234 33.4893 52.8818C33.1839 52.6403 32.7852 52.5195 32.293 52.5195C31.8099 52.5195 31.4157 52.6357 31.1104 52.8682C30.8096 53.096 30.6592 53.3877 30.6592 53.7432C30.6592 54.0348 30.7686 54.2741 30.9873 54.4609C31.2061 54.6432 31.5524 54.7936 32.0264 54.9121L33.0791 55.165C33.79 55.3428 34.2936 55.5752 34.5898 55.8623C34.8861 56.1494 35.0342 56.5482 35.0342 57.0586C35.0342 57.6602 34.779 58.1546 34.2686 58.542C33.7581 58.9248 33.1019 59.1162 32.2998 59.1162C31.5387 59.1162 30.9053 58.9225 30.3994 58.5352C29.8981 58.1478 29.6178 57.6396 29.5586 57.0107H30.4609C30.5247 57.4346 30.723 57.7673 31.0557 58.0088C31.3929 58.2503 31.8258 58.3711 32.3545 58.3711C32.8877 58.3711 33.3161 58.2572 33.6396 58.0293C33.9632 57.8014 34.125 57.5007 34.125 57.127C34.125 56.8171 34.0247 56.5732 33.8242 56.3955C33.6283 56.2132 33.2933 56.0651 32.8193 55.9512L31.6641 55.6641C31.0215 55.5046 30.543 55.2721 30.2285 54.9668C29.9186 54.6569 29.7637 54.265 29.7637 53.791ZM42.0342 54.1396H41.1455C41.0452 53.6794 40.8151 53.3034 40.4551 53.0117C40.0996 52.7201 39.653 52.5742 39.1152 52.5742C38.418 52.5742 37.8597 52.834 37.4404 53.3535C37.0257 53.873 36.8184 54.5703 36.8184 55.4453C36.8184 56.3294 37.028 57.029 37.4473 57.5439C37.8665 58.0589 38.4248 58.3164 39.1221 58.3164C39.6507 58.3164 40.0928 58.1797 40.4482 57.9062C40.8083 57.6328 41.0407 57.2637 41.1455 56.7988H42.041C41.9408 57.4824 41.6217 58.0407 41.084 58.4736C40.5508 58.902 39.8945 59.1162 39.1152 59.1162C38.14 59.1162 37.3584 58.7881 36.7705 58.1318C36.1872 57.471 35.8955 56.5755 35.8955 55.4453C35.8955 54.3288 36.1872 53.4378 36.7705 52.7725C37.3584 52.1071 38.1377 51.7744 39.1084 51.7744C39.915 51.7744 40.5804 52.0023 41.1045 52.458C41.6331 52.9137 41.943 53.4743 42.0342 54.1396ZM43.1689 59V51.8906H44.0234V53.1553H44.0439C44.1761 52.7223 44.3994 52.3851 44.7139 52.1436C45.0283 51.8975 45.4043 51.7744 45.8418 51.7744C46.015 51.7744 46.2018 51.7995 46.4023 51.8496V52.7383C46.2565 52.6699 46.0309 52.6357 45.7256 52.6357C45.2243 52.6357 44.8232 52.8135 44.5225 53.1689C44.2217 53.5244 44.0713 53.9915 44.0713 54.5703V59H43.1689ZM49.7793 52.5674C49.1458 52.5674 48.624 52.7884 48.2139 53.2305C47.8083 53.668 47.5872 54.2399 47.5508 54.9463H51.9395C51.9303 54.2399 51.7275 53.668 51.3311 53.2305C50.9346 52.7884 50.4173 52.5674 49.7793 52.5674ZM51.8848 56.9834H52.7803C52.6709 57.6077 52.3473 58.1204 51.8096 58.5215C51.2764 58.918 50.6224 59.1162 49.8477 59.1162C48.8496 59.1162 48.0612 58.7904 47.4824 58.1387C46.9036 57.4824 46.6143 56.5915 46.6143 55.4658C46.6143 54.3584 46.9036 53.4674 47.4824 52.793C48.0612 52.1139 48.8314 51.7744 49.793 51.7744C50.7318 51.7744 51.4792 52.0934 52.0352 52.7314C52.5911 53.3695 52.8691 54.2194 52.8691 55.2812V55.6641H47.5439V55.7188C47.5439 56.5208 47.7536 57.1566 48.1729 57.626C48.5921 58.0908 49.1572 58.3232 49.8682 58.3232C50.3923 58.3232 50.8343 58.2002 51.1943 57.9541C51.5544 57.708 51.7845 57.3844 51.8848 56.9834ZM56.8887 52.5674C56.2552 52.5674 55.7334 52.7884 55.3232 53.2305C54.9176 53.668 54.6966 54.2399 54.6602 54.9463H59.0488C59.0397 54.2399 58.8369 53.668 58.4404 53.2305C58.0439 52.7884 57.5267 52.5674 56.8887 52.5674ZM58.9941 56.9834H59.8896C59.7803 57.6077 59.4567 58.1204 58.9189 58.5215C58.3857 58.918 57.7318 59.1162 56.957 59.1162C55.959 59.1162 55.1706 58.7904 54.5918 58.1387C54.013 57.4824 53.7236 56.5915 53.7236 55.4658C53.7236 54.3584 54.013 53.4674 54.5918 52.793C55.1706 52.1139 55.9408 51.7744 56.9023 51.7744C57.8411 51.7744 58.5885 52.0934 59.1445 52.7314C59.7005 53.3695 59.9785 54.2194 59.9785 55.2812V55.6641H54.6533V55.7188C54.6533 56.5208 54.863 57.1566 55.2822 57.626C55.7015 58.0908 56.2666 58.3232 56.9775 58.3232C57.5016 58.3232 57.9437 58.2002 58.3037 57.9541C58.6637 57.708 58.8939 57.3844 58.9941 56.9834ZM61.1885 59V51.8906H62.043V53.2031H62.0635C62.2503 52.7611 62.5465 52.4124 62.9521 52.1572C63.3623 51.902 63.8477 51.7744 64.4082 51.7744C65.1875 51.7744 65.8005 52.0091 66.2471 52.4785C66.6982 52.9479 66.9238 53.5859 66.9238 54.3926V59H66.0215V54.5361C66.0215 53.9163 65.8574 53.4355 65.5293 53.0938C65.2057 52.752 64.7454 52.5811 64.1484 52.5811C63.5332 52.5811 63.0365 52.7839 62.6582 53.1895C62.2799 53.5951 62.0908 54.1283 62.0908 54.7891V59H61.1885ZM68.3047 53.791C68.3047 53.2031 68.5417 52.7201 69.0156 52.3418C69.4941 51.9635 70.1094 51.7744 70.8613 51.7744C71.5859 51.7744 72.1852 51.9704 72.6592 52.3623C73.1377 52.7497 73.3997 53.2555 73.4453 53.8799H72.5771C72.5225 53.4561 72.3402 53.1234 72.0303 52.8818C71.7249 52.6403 71.3262 52.5195 70.834 52.5195C70.3509 52.5195 69.9567 52.6357 69.6514 52.8682C69.3506 53.096 69.2002 53.3877 69.2002 53.7432C69.2002 54.0348 69.3096 54.2741 69.5283 54.4609C69.7471 54.6432 70.0934 54.7936 70.5674 54.9121L71.6201 55.165C72.3311 55.3428 72.8346 55.5752 73.1309 55.8623C73.4271 56.1494 73.5752 56.5482 73.5752 57.0586C73.5752 57.6602 73.32 58.1546 72.8096 58.542C72.2992 58.9248 71.6429 59.1162 70.8408 59.1162C70.0798 59.1162 69.4463 58.9225 68.9404 58.5352C68.4391 58.1478 68.1589 57.6396 68.0996 57.0107H69.002C69.0658 57.4346 69.264 57.7673 69.5967 58.0088C69.9339 58.2503 70.3669 58.3711 70.8955 58.3711C71.4287 58.3711 71.8571 58.2572 72.1807 58.0293C72.5042 57.8014 72.666 57.5007 72.666 57.127C72.666 56.8171 72.5658 56.5732 72.3652 56.3955C72.1693 56.2132 71.8343 56.0651 71.3604 55.9512L70.2051 55.6641C69.5625 55.5046 69.084 55.2721 68.7695 54.9668C68.4596 54.6569 68.3047 54.265 68.3047 53.791ZM74.8535 59V49.1357H75.7627V53.2031H75.7832C75.9655 52.7611 76.2617 52.4124 76.6719 52.1572C77.082 51.902 77.5674 51.7744 78.1279 51.7744C78.9027 51.7744 79.5202 52.0137 79.9805 52.4922C80.4408 52.9707 80.6709 53.6087 80.6709 54.4062V59H79.7617V54.5566C79.7617 53.9368 79.5954 53.4538 79.2627 53.1074C78.93 52.7565 78.4652 52.5811 77.8682 52.5811C77.2301 52.5811 76.7197 52.7861 76.3369 53.1963C75.9541 53.6064 75.7627 54.1465 75.7627 54.8164V59H74.8535ZM87.4248 58.125C86.8324 58.7858 86.0485 59.1162 85.0732 59.1162C84.098 59.1162 83.3141 58.7858 82.7217 58.125C82.1292 57.4596 81.833 56.5664 81.833 55.4453C81.833 54.3242 82.1292 53.4333 82.7217 52.7725C83.3187 52.1071 84.1025 51.7744 85.0732 51.7744C86.0485 51.7744 86.8324 52.1071 87.4248 52.7725C88.0173 53.4333 88.3135 54.3242 88.3135 55.4453C88.3135 56.5664 88.0173 57.4596 87.4248 58.125ZM83.3848 57.5508C83.804 58.0612 84.3669 58.3164 85.0732 58.3164C85.7796 58.3164 86.3424 58.0612 86.7617 57.5508C87.1855 57.0404 87.3975 56.3385 87.3975 55.4453C87.3975 54.5521 87.1855 53.8503 86.7617 53.3398C86.3424 52.8294 85.7796 52.5742 85.0732 52.5742C84.3669 52.5742 83.804 52.8294 83.3848 53.3398C82.9655 53.8503 82.7559 54.5521 82.7559 55.4453C82.7559 56.3385 82.9655 57.0404 83.3848 57.5508ZM89.9062 50.1133H90.8086V51.8906H92.21V52.6426H90.8086V57.209C90.8086 57.5736 90.8838 57.8402 91.0342 58.0088C91.1846 58.1729 91.4238 58.2549 91.752 58.2549C92.0072 58.2549 92.1712 58.2458 92.2441 58.2275V59C92.1165 59.0273 91.8932 59.041 91.5742 59.041C90.9772 59.041 90.5488 58.9043 90.2891 58.6309C90.0339 58.3529 89.9062 57.8926 89.9062 57.25V52.6426H88.8467V51.8906H89.9062V50.1133ZM96.4277 59V51.8906H97.3301V59H96.4277ZM96.8789 50.4551C96.7148 50.4551 96.5736 50.3981 96.4551 50.2842C96.3366 50.1657 96.2773 50.0221 96.2773 49.8535C96.2773 49.6895 96.3366 49.5505 96.4551 49.4365C96.5736 49.318 96.7148 49.2588 96.8789 49.2588C97.0475 49.2588 97.1911 49.318 97.3096 49.4365C97.4281 49.5505 97.4873 49.6895 97.4873 49.8535C97.4873 50.0221 97.4281 50.1657 97.3096 50.2842C97.1911 50.3981 97.0475 50.4551 96.8789 50.4551ZM98.9502 59V51.8906H99.8047V53.2031H99.8252C99.9847 52.7702 100.244 52.4238 100.604 52.1641C100.965 51.9043 101.395 51.7744 101.896 51.7744C102.407 51.7744 102.842 51.9111 103.202 52.1846C103.567 52.4535 103.817 52.8158 103.954 53.2715H103.975C104.148 52.8249 104.433 52.4648 104.829 52.1914C105.23 51.9134 105.693 51.7744 106.217 51.7744C106.91 51.7744 107.465 51.9909 107.885 52.4238C108.304 52.8522 108.514 53.4242 108.514 54.1396V59H107.611V54.3447C107.611 53.7933 107.465 53.3626 107.174 53.0527C106.882 52.7383 106.479 52.5811 105.964 52.5811C105.44 52.5811 105.011 52.7633 104.679 53.1279C104.351 53.488 104.187 53.9528 104.187 54.5225V59H103.277V54.2627C103.277 53.7568 103.127 53.3512 102.826 53.0459C102.53 52.736 102.138 52.5811 101.65 52.5811C101.126 52.5811 100.696 52.7725 100.358 53.1553C100.021 53.5381 99.8525 54.0303 99.8525 54.6318V59H98.9502ZM112.328 58.3369C112.952 58.3369 113.479 58.1432 113.907 57.7559C114.336 57.3685 114.55 56.8923 114.55 56.3271V55.541L112.444 55.6846C111.884 55.721 111.453 55.8577 111.152 56.0947C110.852 56.3271 110.701 56.6393 110.701 57.0312C110.701 57.4186 110.852 57.7331 111.152 57.9746C111.453 58.2161 111.845 58.3369 112.328 58.3369ZM112.144 59.1162C111.442 59.1162 110.872 58.9248 110.435 58.542C110.002 58.1546 109.785 57.651 109.785 57.0312C109.785 56.4206 110.004 55.9375 110.441 55.582C110.883 55.2266 111.515 55.0215 112.335 54.9668L114.55 54.8301V54.2148C114.55 53.6999 114.395 53.2988 114.085 53.0117C113.775 52.7201 113.344 52.5742 112.793 52.5742C112.273 52.5742 111.85 52.695 111.521 52.9365C111.198 53.1781 110.997 53.5153 110.92 53.9482H110.045C110.095 53.3011 110.368 52.777 110.865 52.376C111.367 51.9749 112.016 51.7744 112.813 51.7744C113.625 51.7744 114.267 51.9863 114.741 52.4102C115.215 52.834 115.452 53.4082 115.452 54.1328V59H114.591V57.6465H114.57C114.374 58.0885 114.053 58.444 113.606 58.7129C113.16 58.9818 112.672 59.1162 112.144 59.1162ZM119.779 58.2686C120.463 58.2686 121.014 58.0088 121.434 57.4893C121.857 56.9652 122.069 56.277 122.069 55.4248C122.069 54.5726 121.857 53.8844 121.434 53.3604C121.014 52.8363 120.463 52.5742 119.779 52.5742C119.109 52.5742 118.569 52.8363 118.159 53.3604C117.749 53.8799 117.544 54.5703 117.544 55.4316C117.544 56.2884 117.749 56.9766 118.159 57.4961C118.569 58.0111 119.109 58.2686 119.779 58.2686ZM119.868 61.6318C119.103 61.6318 118.449 61.445 117.906 61.0713C117.368 60.6976 117.049 60.2259 116.949 59.6562H117.886C118.004 60.0117 118.243 60.2988 118.604 60.5176C118.968 60.7409 119.403 60.8525 119.909 60.8525C120.57 60.8525 121.094 60.6748 121.481 60.3193C121.873 59.9684 122.069 59.5013 122.069 58.918V57.4893H122.049C121.853 57.9587 121.536 58.3392 121.099 58.6309C120.666 58.9225 120.171 59.0684 119.615 59.0684C118.713 59.0684 117.986 58.7357 117.435 58.0703C116.888 57.4049 116.614 56.5231 116.614 55.4248C116.614 54.3219 116.89 53.4378 117.441 52.7725C117.993 52.1071 118.724 51.7744 119.636 51.7744C120.192 51.7744 120.686 51.9225 121.119 52.2188C121.557 52.5104 121.882 52.9023 122.097 53.3945H122.117V51.8906H122.979V58.8838C122.979 59.7132 122.696 60.3786 122.131 60.8799C121.57 61.3812 120.816 61.6318 119.868 61.6318ZM127.354 52.5674C126.72 52.5674 126.198 52.7884 125.788 53.2305C125.382 53.668 125.161 54.2399 125.125 54.9463H129.514C129.505 54.2399 129.302 53.668 128.905 53.2305C128.509 52.7884 127.992 52.5674 127.354 52.5674ZM129.459 56.9834H130.354C130.245 57.6077 129.922 58.1204 129.384 58.5215C128.851 58.918 128.197 59.1162 127.422 59.1162C126.424 59.1162 125.635 58.7904 125.057 58.1387C124.478 57.4824 124.188 56.5915 124.188 55.4658C124.188 54.3584 124.478 53.4674 125.057 52.793C125.635 52.1139 126.406 51.7744 127.367 51.7744C128.306 51.7744 129.053 52.0934 129.609 52.7314C130.165 53.3695 130.443 54.2194 130.443 55.2812V55.6641H125.118V55.7188C125.118 56.5208 125.328 57.1566 125.747 57.626C126.166 58.0908 126.731 58.3232 127.442 58.3232C127.966 58.3232 128.409 58.2002 128.769 57.9541C129.129 57.708 129.359 57.3844 129.459 56.9834ZM131.51 53.791C131.51 53.2031 131.747 52.7201 132.221 52.3418C132.699 51.9635 133.314 51.7744 134.066 51.7744C134.791 51.7744 135.39 51.9704 135.864 52.3623C136.343 52.7497 136.605 53.2555 136.65 53.8799H135.782C135.728 53.4561 135.545 53.1234 135.235 52.8818C134.93 52.6403 134.531 52.5195 134.039 52.5195C133.556 52.5195 133.162 52.6357 132.856 52.8682C132.556 53.096 132.405 53.3877 132.405 53.7432C132.405 54.0348 132.515 54.2741 132.733 54.4609C132.952 54.6432 133.299 54.7936 133.772 54.9121L134.825 55.165C135.536 55.3428 136.04 55.5752 136.336 55.8623C136.632 56.1494 136.78 56.5482 136.78 57.0586C136.78 57.6602 136.525 58.1546 136.015 58.542C135.504 58.9248 134.848 59.1162 134.046 59.1162C133.285 59.1162 132.651 58.9225 132.146 58.5352C131.644 58.1478 131.364 57.6396 131.305 57.0107H132.207C132.271 57.4346 132.469 57.7673 132.802 58.0088C133.139 58.2503 133.572 58.3711 134.101 58.3711C134.634 58.3711 135.062 58.2572 135.386 58.0293C135.709 57.8014 135.871 57.5007 135.871 57.127C135.871 56.8171 135.771 56.5732 135.57 56.3955C135.374 56.2132 135.039 56.0651 134.565 55.9512L133.41 55.6641C132.768 55.5046 132.289 55.2721 131.975 54.9668C131.665 54.6569 131.51 54.265 131.51 53.791ZM140.93 59V49.1357H141.839V53.2031H141.859C142.042 52.7611 142.338 52.4124 142.748 52.1572C143.158 51.902 143.644 51.7744 144.204 51.7744C144.979 51.7744 145.596 52.0137 146.057 52.4922C146.517 52.9707 146.747 53.6087 146.747 54.4062V59H145.838V54.5566C145.838 53.9368 145.672 53.4538 145.339 53.1074C145.006 52.7565 144.541 52.5811 143.944 52.5811C143.306 52.5811 142.796 52.7861 142.413 53.1963C142.03 53.6064 141.839 54.1465 141.839 54.8164V59H140.93ZM151.074 52.5674C150.441 52.5674 149.919 52.7884 149.509 53.2305C149.103 53.668 148.882 54.2399 148.846 54.9463H153.234C153.225 54.2399 153.022 53.668 152.626 53.2305C152.229 52.7884 151.712 52.5674 151.074 52.5674ZM153.18 56.9834H154.075C153.966 57.6077 153.642 58.1204 153.104 58.5215C152.571 58.918 151.917 59.1162 151.143 59.1162C150.145 59.1162 149.356 58.7904 148.777 58.1387C148.199 57.4824 147.909 56.5915 147.909 55.4658C147.909 54.3584 148.199 53.4674 148.777 52.793C149.356 52.1139 150.126 51.7744 151.088 51.7744C152.027 51.7744 152.774 52.0934 153.33 52.7314C153.886 53.3695 154.164 54.2194 154.164 55.2812V55.6641H148.839V55.7188C148.839 56.5208 149.049 57.1566 149.468 57.626C149.887 58.0908 150.452 58.3232 151.163 58.3232C151.687 58.3232 152.129 58.2002 152.489 57.9541C152.849 57.708 153.079 57.3844 153.18 56.9834ZM155.374 59V51.8906H156.229V53.1553H156.249C156.381 52.7223 156.604 52.3851 156.919 52.1436C157.233 51.8975 157.609 51.7744 158.047 51.7744C158.22 51.7744 158.407 51.7995 158.607 51.8496V52.7383C158.462 52.6699 158.236 52.6357 157.931 52.6357C157.429 52.6357 157.028 52.8135 156.728 53.1689C156.427 53.5244 156.276 53.9915 156.276 54.5703V59H155.374ZM161.984 52.5674C161.351 52.5674 160.829 52.7884 160.419 53.2305C160.013 53.668 159.792 54.2399 159.756 54.9463H164.145C164.135 54.2399 163.933 53.668 163.536 53.2305C163.14 52.7884 162.622 52.5674 161.984 52.5674ZM164.09 56.9834H164.985C164.876 57.6077 164.552 58.1204 164.015 58.5215C163.481 58.918 162.827 59.1162 162.053 59.1162C161.055 59.1162 160.266 58.7904 159.688 58.1387C159.109 57.4824 158.819 56.5915 158.819 55.4658C158.819 54.3584 159.109 53.4674 159.688 52.793C160.266 52.1139 161.036 51.7744 161.998 51.7744C162.937 51.7744 163.684 52.0934 164.24 52.7314C164.796 53.3695 165.074 54.2194 165.074 55.2812V55.6641H159.749V55.7188C159.749 56.5208 159.959 57.1566 160.378 57.626C160.797 58.0908 161.362 58.3232 162.073 58.3232C162.597 58.3232 163.039 58.2002 163.399 57.9541C163.759 57.708 163.99 57.3844 164.09 56.9834Z" fill="#9E9E9E"/>
<path d="M84.2607 26.4185V34.5664H80.6836V26.4185H73.0957V22.8955H80.6836V14.9102H84.2607V22.8955H91.8486V26.4185H84.2607Z" fill="#9E9E9E"/>
</svg>
