<svg width="23" height="24" viewBox="0 0 23 24" fill="none" xmlns="http://www.w3.org/2000/svg">
<g clip-path="url(#clip0)">
<path d="M15.8863 0.22998C15.9393 0.22998 15.9923 0.22998 16.0483 0.22998C16.1783 1.83598 15.5653 3.03598 14.8203 3.90498C14.0893 4.76798 13.0883 5.60498 11.4693 5.47798C11.3613 3.89498 11.9753 2.78398 12.7193 1.91698C13.4093 1.10898 14.6743 0.38998 15.8863 0.22998Z" fill="white"/>
<path d="M20.7873 16.9462C20.7873 16.9622 20.7873 16.9762 20.7873 16.9912C20.3323 18.3692 19.6833 19.5502 18.8913 20.6462C18.1683 21.6412 17.2823 22.9802 15.7003 22.9802C14.3333 22.9802 13.4253 22.1012 12.0243 22.0772C10.5423 22.0532 9.72734 22.8122 8.37234 23.0032C8.21734 23.0032 8.06234 23.0032 7.91034 23.0032C6.91534 22.8592 6.11234 22.0712 5.52734 21.3612C3.80234 19.2632 2.46934 16.5532 2.22134 13.0852C2.22134 12.7452 2.22134 12.4062 2.22134 12.0662C2.32634 9.58418 3.53234 7.56618 5.13534 6.58818C5.98134 6.06818 7.14434 5.62518 8.43934 5.82318C8.99434 5.90918 9.56134 6.09918 10.0583 6.28718C10.5293 6.46818 11.1183 6.78918 11.6763 6.77218C12.0543 6.76118 12.4303 6.56418 12.8113 6.42518C13.9273 6.02218 15.0213 5.56018 16.4633 5.77718C18.1963 6.03918 19.4263 6.80918 20.1863 7.99718C18.7203 8.93018 17.5613 10.3362 17.7593 12.7372C17.9353 14.9182 19.2033 16.1942 20.7873 16.9462Z" fill="white"/>
</g>
<defs>
<clipPath id="clip0">
<rect width="22.773" height="22.773" fill="white" transform="translate(0.11734 0.22998)"/>
</clipPath>
</defs>
</svg>
