<svg width="49" height="42" viewBox="0 0 49 42" fill="none" xmlns="http://www.w3.org/2000/svg">
<path d="M4.87585 32.4044L4.46461 32.6888L4.87585 32.4044C4.13646 31.3353 3.50152 30.1924 2.9887 29.008C1.9218 26.5438 1.38086 23.9268 1.38086 21.2272C1.38086 18.5276 1.9218 15.9106 2.98871 13.4464C3.50152 12.262 4.13646 11.1191 4.87585 10.05L4.46461 9.76559L4.87585 10.05C5.60824 8.99094 6.44966 7.99465 7.37653 7.0892L7.37653 7.0892C8.30338 6.18374 9.32354 5.36146 10.4083 4.64552L10.1329 4.22821L10.4083 4.64551C11.5035 3.92274 12.6744 3.30184 13.8883 2.80026C16.414 1.75666 19.0973 1.22723 21.8655 1.22723H48.8333V41.2272H21.8655C19.0973 41.2272 16.414 40.6978 13.8883 39.6542C12.6744 39.1526 11.5035 38.5317 10.4083 37.8089C9.32354 37.093 8.30338 36.2707 7.37653 35.3652L7.02713 35.7229L7.37653 35.3652C6.44966 34.4598 5.60824 33.4635 4.87585 32.4044Z" fill="#EA3646" stroke="#8F1D26"/>
<path d="M26.2661 21.2277L32.0213 15.467C32.2307 15.2575 32.3483 14.9733 32.3483 14.677C32.3483 14.3807 32.2307 14.0965 32.0213 13.887C31.812 13.6775 31.5281 13.5598 31.232 13.5598C30.936 13.5598 30.6521 13.6775 30.4427 13.887L24.6892 19.6467L18.934 13.886C18.8303 13.7823 18.7073 13.7 18.5718 13.6438C18.4364 13.5877 18.2913 13.5588 18.1447 13.5588C17.9981 13.5588 17.853 13.5877 17.7175 13.6438C17.5821 13.7 17.459 13.7823 17.3554 13.886C17.2517 13.9898 17.1695 14.1129 17.1134 14.2485C17.0573 14.384 17.0284 14.5293 17.0284 14.676C17.0284 14.8227 17.0573 14.968 17.1134 15.1036C17.1695 15.2391 17.2517 15.3623 17.3554 15.466L23.1093 21.2277L17.354 26.9883C17.2504 27.0921 17.1682 27.2152 17.1121 27.3508C17.056 27.4863 17.0271 27.6316 17.0271 27.7783C17.0271 27.9251 17.056 28.0703 17.1121 28.2059C17.1682 28.3414 17.2504 28.4646 17.354 28.5683C17.4577 28.6721 17.5808 28.7544 17.7162 28.8105C17.8516 28.8667 17.9967 28.8956 18.1433 28.8956C18.2899 28.8956 18.4351 28.8667 18.5705 28.8105C18.706 28.7544 18.829 28.6721 18.9326 28.5683L24.6892 22.8067L30.4444 28.5673C30.6537 28.7769 30.9377 28.8946 31.2337 28.8946C31.3803 28.8946 31.5254 28.8657 31.6609 28.8095C31.7963 28.7534 31.9194 28.6711 32.023 28.5673C32.1267 28.4636 32.2089 28.3404 32.265 28.2049C32.3211 28.0693 32.3499 27.9241 32.3499 27.7773C32.3499 27.6306 32.3211 27.4853 32.265 27.3498C32.2089 27.2142 32.1267 27.0911 32.023 26.9873L26.2661 21.2277Z" fill="white"/>
</svg>
