<svg width="48" height="43" viewBox="0 0 48 43" fill="none" xmlns="http://www.w3.org/2000/svg">
<path d="M0.0608058 1.16675H26.7038C29.3935 1.16675 32.0569 1.697 34.5418 2.72722C37.0268 3.75744 39.2847 5.26746 41.1866 7.17106C43.0885 9.07466 44.5972 11.3346 45.6265 13.8217C46.6558 16.3089 47.1856 18.9747 47.1856 21.6667C47.1856 24.3588 46.6558 27.0246 45.6265 29.5118C44.5972 31.9989 43.0885 34.2588 41.1866 36.1624C39.2847 38.066 37.0268 39.5761 34.5418 40.6063C32.0569 41.6365 29.3935 42.1668 26.7038 42.1668H0.0608058C0.0166423 42.1668 -0.0257124 42.1492 -0.0569407 42.1179C-0.088169 42.0867 -0.105713 42.0443 -0.105713 42.0001V1.33341C-0.105713 1.28921 -0.088169 1.24682 -0.0569407 1.21556C-0.0257124 1.18431 0.0166423 1.16675 0.0608058 1.16675Z" fill="#EA3646" stroke="#8F1D26" stroke-linejoin="round"/>
<path d="M27.394 29.3334C27.2652 29.3335 27.1376 29.3074 27.019 29.2569C26.9005 29.2064 26.7933 29.1324 26.704 29.0394L19.7102 21.8334L26.704 14.6258C26.7931 14.5329 26.9 14.459 27.0183 14.4085C27.1366 14.3581 27.2639 14.332 27.3925 14.332C27.5212 14.332 27.6485 14.3581 27.7668 14.4085C27.8851 14.459 27.992 14.5329 28.0811 14.6258C28.2641 14.8165 28.3663 15.0707 28.3663 15.3351C28.3663 15.5995 28.2641 15.8537 28.0811 16.0444L22.4638 21.8334L28.0828 27.6218C28.2658 27.8125 28.368 28.0667 28.368 28.3311C28.368 28.5955 28.2658 28.8497 28.0828 29.0404C27.9935 29.1331 27.8865 29.2068 27.7682 29.2571C27.6499 29.3075 27.5226 29.3334 27.394 29.3334Z" fill="white"/>
</svg>
