<svg width="9" height="7" viewBox="0 0 9 7" fill="none" xmlns="http://www.w3.org/2000/svg">
<path d="M0.75 7C0.551088 7 0.360322 6.92624 0.219669 6.79496C0.0790171 6.66369 0 6.48565 0 6.3V3.84545C0 3.81295 0.00969579 3.78109 0.0280023 3.75344C0.0463087 3.7258 0.0725029 3.70346 0.103648 3.68893C0.134793 3.67439 0.169658 3.66824 0.204339 3.67115C0.239019 3.67407 0.272143 3.68594 0.3 3.70544C0.428864 3.79854 0.587042 3.84936 0.75 3.85H3.75V4.375C3.75 4.42141 3.76975 4.46593 3.80492 4.49875C3.84008 4.53157 3.88777 4.55 3.9375 4.55H5.0625C5.11223 4.55 5.15992 4.53157 5.19508 4.49875C5.23025 4.46593 5.25 4.42141 5.25 4.375V3.85H8.25C8.41287 3.84953 8.57103 3.79897 8.7 3.70615C8.72786 3.68665 8.76098 3.67478 8.79566 3.67186C8.83034 3.66894 8.86521 3.6751 8.89635 3.68963C8.9275 3.70417 8.95369 3.7265 8.972 3.75415C8.9903 3.78179 9 3.81366 9 3.84615V6.3C9 6.48565 8.92098 6.66369 8.78033 6.79496C8.63968 6.92624 8.44891 7 8.25 7H0.75ZM5.25 3.5V3.325C5.25 3.27859 5.23025 3.23407 5.19508 3.20125C5.15992 3.16843 5.11223 3.15 5.0625 3.15H3.9375C3.88777 3.15 3.84008 3.16843 3.80492 3.20125C3.76975 3.23407 3.75 3.27859 3.75 3.325V3.5H0.75C0.551088 3.5 0.360322 3.42624 0.219669 3.29496C0.0790171 3.16369 0 2.98565 0 2.8V1.75C0 1.56435 0.0790171 1.38631 0.219669 1.25504C0.360322 1.12376 0.551088 1.05 0.75 1.05H2.625V0.7C2.625 0.514348 2.70402 0.336311 2.84467 0.205035C2.98532 0.0737599 3.17609 0 3.375 0H5.625C5.82391 0 6.01468 0.0737599 6.15533 0.205035C6.29598 0.336311 6.375 0.514348 6.375 0.7V1.05H8.25C8.44891 1.05 8.63968 1.12376 8.78033 1.25504C8.92098 1.38631 9 1.56435 9 1.75V2.8C9 2.98565 8.92098 3.16369 8.78033 3.29496C8.63968 3.42624 8.44891 3.5 8.25 3.5H5.25ZM3.375 1.05H5.625V0.7H3.375V1.05Z" fill="#EA3646"/>
</svg>
