<svg width="16" height="15" viewBox="0 0 16 15" fill="none" xmlns="http://www.w3.org/2000/svg">
<path d="M0.852295 14.1123V7.33333C0.852295 5.38841 1.62422 3.52313 2.99827 2.14787C4.37231 0.772601 6.23592 0 8.17911 0C10.1223 0 11.9859 0.772601 13.36 2.14787C14.734 3.52313 15.5059 5.38841 15.5059 7.33333V14.1123H0.852295ZM4.44643 5.00195V9.4646C4.44986 9.89641 4.62452 10.3092 4.93199 10.6121C5.23945 10.9151 5.65455 11.0834 6.08597 11.08H10.2723C10.7037 11.0834 11.1188 10.9151 11.4262 10.6121C11.7337 10.3092 11.9084 9.89641 11.9118 9.4646V5.00195C11.9084 4.57012 11.7337 4.15731 11.4263 3.85433C11.1188 3.55135 10.7037 3.38303 10.2723 3.38631H6.08597C5.65452 3.38303 5.23942 3.55135 4.93197 3.85433C4.62451 4.15731 4.44986 4.57012 4.44643 5.00195ZM8.05122 8.47363C7.25571 8.47976 6.49036 8.16934 5.9235 7.61068C5.35665 7.05201 5.03474 6.29085 5.02858 5.49463V5.00496C5.02932 4.90758 5.04922 4.81128 5.08715 4.7216C5.12508 4.63192 5.18029 4.55066 5.24963 4.48234C5.31897 4.41402 5.40108 4.36003 5.49127 4.32349C5.58146 4.28694 5.67795 4.2685 5.77525 4.26929H10.7235C10.8208 4.2685 10.9173 4.28694 11.0075 4.32349C11.0977 4.36003 11.1798 4.41402 11.2491 4.48234C11.3185 4.55066 11.3737 4.63192 11.4116 4.7216C11.4495 4.81128 11.4694 4.90758 11.4702 5.00496V5.49463C11.464 6.29085 11.1421 7.05201 10.5753 7.61068C10.0084 8.16934 9.24305 8.47976 8.44754 8.47363H8.05122Z" fill="#B4B4B4"/>
</svg>
