<svg width="17" height="16" viewBox="0 0 17 16" fill="none" xmlns="http://www.w3.org/2000/svg">
<path d="M8.49308 15.1667C12.5396 15.1667 15.8199 11.8834 15.8199 7.83333C15.8199 3.78324 12.5396 0.5 8.49308 0.5C4.44659 0.5 1.16626 3.78324 1.16626 7.83333C1.16626 11.8834 4.44659 15.1667 8.49308 15.1667Z" fill="#EEEEEE" stroke="#B4B4B4" stroke-linejoin="round"/>
<path d="M9.13832 7.83383L11.5119 5.45451C11.5547 5.41172 11.5887 5.36091 11.6119 5.30497C11.6351 5.24904 11.647 5.18906 11.6471 5.1285C11.6471 5.06794 11.6352 5.00799 11.6121 4.95203C11.589 4.89606 11.5551 4.84518 11.5124 4.80233C11.4696 4.75947 11.4189 4.72545 11.363 4.70223C11.3071 4.67901 11.2472 4.66704 11.1867 4.66699C11.1262 4.66695 11.0663 4.67885 11.0104 4.70199C10.9544 4.72512 10.9036 4.75905 10.8608 4.80184L8.48723 7.18116L6.11368 4.80184C6.02721 4.71542 5.90998 4.6669 5.78778 4.66699C5.66558 4.66709 5.54842 4.71578 5.46208 4.80233C5.37574 4.88888 5.3273 5.0062 5.32739 5.1285C5.32749 5.25081 5.37612 5.36809 5.46259 5.45451L7.83615 7.83383L5.46259 10.2132C5.41977 10.2559 5.3858 10.3068 5.3626 10.3627C5.3394 10.4186 5.32744 10.4786 5.32739 10.5392C5.32735 10.5997 5.33922 10.6597 5.36233 10.7156C5.38545 10.7716 5.41933 10.8225 5.46208 10.8653C5.50483 10.9082 5.5556 10.9422 5.61148 10.9654C5.66737 10.9887 5.72727 11.0006 5.78778 11.0007C5.84828 11.0007 5.9082 10.9888 5.96412 10.9657C6.02003 10.9425 6.07087 10.9086 6.11368 10.8658L8.48723 8.4865L10.8608 10.8658C10.9036 10.9086 10.9544 10.9425 11.0104 10.9657C11.0663 10.9888 11.1262 11.0007 11.1867 11.0007C11.2472 11.0006 11.3071 10.9887 11.363 10.9654C11.4189 10.9422 11.4696 10.9082 11.5124 10.8653C11.5551 10.8225 11.589 10.7716 11.6121 10.7156C11.6352 10.6597 11.6471 10.5997 11.6471 10.5392C11.647 10.4786 11.6351 10.4186 11.6119 10.3627C11.5887 10.3068 11.5547 10.2559 11.5119 10.2132L9.13832 7.83383Z" fill="#B4B4B4"/>
</svg>
