<svg width="4" height="148" viewBox="0 0 4 148" fill="none" xmlns="http://www.w3.org/2000/svg">
<path d="M1.67978 147.657C1.3253 147.656 0.985832 147.514 0.736021 147.262C0.48621 147.01 0.346513 146.669 0.347663 146.315V135.575C0.347663 135.222 0.48801 134.882 0.73783 134.632C0.98765 134.382 1.32648 134.242 1.67978 134.242C2.03308 134.242 2.37191 134.382 2.62173 134.632C2.87155 134.882 3.01189 135.222 3.01189 135.575V146.315C3.01305 146.669 2.87335 147.01 2.62354 147.262C2.37373 147.514 2.03426 147.656 1.67978 147.657ZM1.67978 120.809C1.3253 120.807 0.985832 120.665 0.736021 120.414C0.48621 120.162 0.346513 119.821 0.347663 119.466V108.727C0.347663 108.373 0.48801 108.034 0.73783 107.784C0.98765 107.534 1.32648 107.394 1.67978 107.394C2.03308 107.394 2.37191 107.534 2.62173 107.784C2.87155 108.034 3.01189 108.373 3.01189 108.727V119.466C3.01296 119.821 2.87322 120.162 2.62342 120.413C2.37361 120.665 2.0342 120.807 1.67978 120.808V120.809ZM1.67978 93.9603C1.3253 93.959 0.985832 93.8169 0.736021 93.5652C0.48621 93.3134 0.346513 92.9727 0.347663 92.6179V81.8786C0.347663 81.525 0.48801 81.1858 0.73783 80.9358C0.98765 80.6857 1.32648 80.5453 1.67978 80.5453C2.03308 80.5453 2.37191 80.6857 2.62173 80.9358C2.87155 81.1858 3.01189 81.525 3.01189 81.8786V92.6179C3.01296 92.9727 2.87322 93.3133 2.62342 93.565C2.37361 93.8166 2.0342 93.9587 1.67978 93.9599V93.9603ZM1.67978 67.1119C1.3253 67.1107 0.985832 66.9686 0.736021 66.7169C0.48621 66.4651 0.346513 66.1244 0.347663 65.7696V55.0303C0.347663 54.6767 0.48801 54.3375 0.73783 54.0875C0.98765 53.8374 1.32648 53.6969 1.67978 53.6969C2.03308 53.6969 2.37191 53.8374 2.62173 54.0875C2.87155 54.3375 3.01189 54.6767 3.01189 55.0303V65.7696C3.01296 66.1244 2.87322 66.465 2.62342 66.7167C2.37361 66.9683 2.0342 67.1104 1.67978 67.1116V67.1119ZM1.67978 40.2633C1.3253 40.262 0.985832 40.1199 0.736021 39.8682C0.48621 39.6165 0.346513 39.2758 0.347663 38.921V28.1816C0.347663 27.828 0.48801 27.4889 0.73783 27.2388C0.98765 26.9888 1.32648 26.8483 1.67978 26.8483C2.03308 26.8483 2.37191 26.9888 2.62173 27.2388C2.87155 27.4889 3.01189 27.828 3.01189 28.1816V38.921C3.01296 39.2757 2.87322 39.6164 2.62342 39.868C2.37361 40.1197 2.0342 40.2617 1.67978 40.263V40.2633ZM1.67978 13.415C1.3253 13.4138 0.985832 13.2716 0.736021 13.0199C0.48621 12.7682 0.346513 12.4274 0.347663 12.0726V1.33333C0.347663 0.979711 0.48801 0.640551 0.73783 0.390503C0.98765 0.140454 1.32648 0 1.67978 0C2.03308 0 2.37191 0.140454 2.62173 0.390503C2.87155 0.640551 3.01189 0.979711 3.01189 1.33333V12.0726C3.01296 12.4274 2.87322 12.768 2.62342 13.0197C2.37361 13.2713 2.0342 13.4134 1.67978 13.4146V13.415Z" fill="#E0E0E0"/>
</svg>
