<svg width="4" height="95" viewBox="0 0 4 95" fill="none" xmlns="http://www.w3.org/2000/svg">
<path d="M1.67978 94.2933C1.3253 94.292 0.985832 94.1499 0.736021 93.8982C0.48621 93.6465 0.346513 93.3058 0.347663 92.951V82.2116C0.347663 81.858 0.48801 81.5188 0.73783 81.2688C0.98765 81.0187 1.32648 80.8783 1.67978 80.8783C2.03308 80.8783 2.37191 81.0187 2.62173 81.2688C2.87155 81.5188 3.01189 81.858 3.01189 82.2116V92.951C3.01296 93.3057 2.87322 93.6463 2.62342 93.898C2.37361 94.1496 2.0342 94.292 1.67978 94.2933ZM1.67978 67.4449C1.3253 67.4437 0.985832 67.3016 0.736021 67.0499C0.48621 66.7982 0.346513 66.4574 0.347663 66.1026V55.3633C0.347663 55.0097 0.48801 54.6706 0.73783 54.4205C0.98765 54.1705 1.32648 54.03 1.67978 54.03C2.03308 54.03 2.37191 54.1705 2.62173 54.4205C2.87155 54.6706 3.01189 55.0097 3.01189 55.3633V66.1026C3.01296 66.4574 2.87322 66.798 2.62342 67.0497C2.37361 67.3013 2.0342 67.4437 1.67978 67.4449ZM1.67978 40.5963C1.3253 40.5951 0.985832 40.453 0.736021 40.2012C0.48621 39.9495 0.346513 39.6088 0.347663 39.254V28.5146C0.347663 28.161 0.48801 27.8219 0.73783 27.5718C0.98765 27.3218 1.32648 27.1813 1.67978 27.1813C2.03308 27.1813 2.37191 27.3218 2.62173 27.5718C2.87155 27.8219 3.01189 28.161 3.01189 28.5146V39.254C3.01296 39.6087 2.87322 39.9494 2.62342 40.201C2.37361 40.4527 2.0342 40.5951 1.67978 40.5963ZM1.67978 13.748C1.3253 13.7468 0.985832 13.6046 0.736021 13.3529C0.48621 13.1012 0.346513 12.7604 0.347663 12.4056V1.66634C0.347663 1.31272 0.48801 0.973559 0.73783 0.723511C0.98765 0.473462 1.32648 0.333008 1.67978 0.333008C2.03308 0.333008 2.37191 0.473462 2.62173 0.723511C2.87155 0.973559 3.01189 1.31272 3.01189 1.66634V12.4056C3.01296 12.7604 2.87322 13.101 2.62342 13.3527C2.37361 13.6043 2.0342 13.7468 1.67978 13.748Z" fill="#E0E0E0"/>
</svg>
