<svg width="17" height="16" viewBox="0 0 17 16" fill="none" xmlns="http://www.w3.org/2000/svg">
<path d="M8.02457 15.6664L8.00525 15.6621L7.96295 15.6514C7.94855 15.647 7.93387 15.6437 7.91899 15.6414C6.98083 15.5789 6.06417 15.332 5.22139 14.9148C4.11411 14.3916 3.14923 13.6088 2.40859 12.6329C1.66794 11.657 1.17337 10.5167 0.966838 9.3087C0.930537 9.1207 0.907223 8.93003 0.884577 8.74603C0.874253 8.66103 0.863929 8.57605 0.851274 8.49205L0.849609 8.48V7.51337L0.853271 7.49636C0.856268 7.48069 0.859933 7.46539 0.86393 7.44973C0.869139 7.43012 0.873032 7.41012 0.875585 7.38999C0.9298 6.57624 1.12533 5.7782 1.4534 5.03167C1.94761 3.8445 2.73386 2.80175 3.73896 2.00049C4.74406 1.19924 5.93536 0.66551 7.20196 0.448975C7.38946 0.411975 7.58029 0.388707 7.76413 0.366374C7.84772 0.35604 7.93365 0.345675 8.01757 0.333008H8.02956H8.99837L9.01868 0.337646L9.05365 0.347005C9.06898 0.351521 9.08454 0.355179 9.10028 0.357992C9.21151 0.374325 9.32607 0.389313 9.43664 0.403646C9.66977 0.433979 9.91089 0.465331 10.1477 0.513998C11.6299 0.844292 12.9814 1.606 14.0321 2.70329C15.0828 3.80059 15.7857 5.18445 16.0524 6.68068C16.0834 6.86968 16.1084 7.06167 16.1327 7.24733C16.144 7.334 16.1553 7.42068 16.166 7.50734V7.51939V8.48602L16.1627 8.50336C16.1593 8.51902 16.1557 8.53434 16.152 8.54934C16.1468 8.56873 16.1429 8.58844 16.1404 8.60834C16.0939 9.33751 15.9305 10.0545 15.6564 10.7317C15.1857 11.9771 14.3973 13.0773 13.3697 13.923C12.3421 14.7686 11.1111 15.3302 9.79932 15.5517C9.61482 15.588 9.42765 15.6107 9.24648 15.633C9.16455 15.643 9.07996 15.6531 8.9977 15.6648L8.98604 15.6664H8.02457ZM8.5058 13.2997C8.45138 13.2991 8.39741 13.3097 8.34721 13.3308C8.29701 13.3518 8.25164 13.3829 8.21388 13.4222C8.17612 13.4614 8.14676 13.508 8.12761 13.559C8.10845 13.6099 8.09991 13.6643 8.1025 13.7187C8.09883 13.927 8.09917 14.1357 8.1025 14.3384C8.09997 14.3929 8.10867 14.4473 8.12805 14.4982C8.14743 14.5492 8.17708 14.5957 8.21516 14.6347C8.25323 14.6737 8.29892 14.7045 8.34938 14.7251C8.39984 14.7456 8.45399 14.7556 8.50847 14.7544H8.5138C8.56796 14.7536 8.62143 14.7421 8.67116 14.7207C8.72088 14.6992 8.76589 14.668 8.8036 14.6291C8.84131 14.5902 8.87098 14.5443 8.89091 14.4939C8.91084 14.4434 8.92065 14.3896 8.91977 14.3354C8.9221 14.2614 8.92143 14.1874 8.91977 14.1161V13.8297C8.91977 13.79 8.91977 13.7497 8.91977 13.7071C8.92077 13.6532 8.91088 13.5996 8.8907 13.5497C8.87052 13.4997 8.84046 13.4543 8.80232 13.4163C8.76419 13.3783 8.71877 13.3484 8.66879 13.3283C8.6188 13.3083 8.56529 13.2985 8.51147 13.2997H8.5058ZM7.45241 8.40774C7.50386 8.55029 7.58299 8.6812 7.68525 8.79299C7.78751 8.90478 7.91087 8.99518 8.04821 9.05902C8.1921 9.12502 8.34853 9.15915 8.5068 9.15904C8.72763 9.15825 8.94347 9.09326 9.12806 8.97195C9.31266 8.85063 9.45805 8.67819 9.54655 8.47569C9.60925 8.33525 9.64316 8.18368 9.64625 8.02989C9.64933 7.87609 9.62155 7.72319 9.56453 7.58034C9.56075 7.57154 9.55785 7.56237 9.55587 7.553C9.56433 7.54201 9.57357 7.53165 9.58351 7.52199C10.5906 6.51799 11.3653 5.74234 12.3457 4.76067L12.6122 4.49399L12.6355 4.47104C12.6636 4.4446 12.6903 4.41668 12.7154 4.38738C12.7547 4.34027 12.7832 4.28507 12.799 4.22576C12.8147 4.16645 12.8174 4.10446 12.8066 4.04404C12.7967 3.98478 12.774 3.9284 12.74 3.87883C12.7061 3.82927 12.6618 3.78768 12.6102 3.75701C12.5476 3.72043 12.476 3.70234 12.4035 3.70476C12.3311 3.70718 12.2609 3.73001 12.2009 3.77068C12.1529 3.80227 12.1092 3.83977 12.0706 3.88233L12.0507 3.90268L11.5198 4.43369C10.6662 5.28769 9.92887 6.02539 9.01435 6.94273C9.00869 6.94873 9.00403 6.95306 9.00003 6.95672L8.9957 6.95469C8.78989 6.84763 8.55468 6.81103 8.32611 6.85052C8.09754 6.89002 7.8882 7.00343 7.73016 7.17336C7.64019 7.27466 7.56064 7.3848 7.4927 7.50205C7.47472 7.53039 7.45674 7.55972 7.43775 7.58872H4.64623C4.58186 7.58465 4.51737 7.59445 4.4571 7.61745C4.39683 7.64045 4.3422 7.67608 4.29688 7.72202C4.25895 7.765 4.23069 7.81568 4.21403 7.87054C4.19736 7.92541 4.19268 7.98322 4.2003 8.04006C4.21195 8.17739 4.28889 8.40839 4.67021 8.40839H4.9513C5.9544 8.40839 6.33007 8.40835 7.44375 8.40668L7.45241 8.40774ZM14.2011 7.59035C14.0929 7.59097 13.9894 7.63459 13.9133 7.71161C13.8372 7.78862 13.7948 7.8927 13.7954 8.001C13.7961 8.10929 13.8396 8.21294 13.9166 8.28908C13.9935 8.36522 14.0975 8.40762 14.2057 8.407C14.315 8.41 14.4252 8.41099 14.5351 8.41099C14.645 8.41099 14.7503 8.411 14.8572 8.407C14.9646 8.40534 15.067 8.36151 15.1424 8.28493C15.2178 8.20836 15.2601 8.10516 15.2601 7.99766C15.2615 7.94461 15.2522 7.89186 15.2328 7.84247C15.2134 7.79307 15.1843 7.74809 15.1472 7.71014C15.1101 7.6722 15.0658 7.64203 15.0169 7.62152C14.968 7.60101 14.9155 7.59053 14.8625 7.59068C14.7866 7.58701 14.7116 7.58805 14.639 7.58905H14.5478H14.335H14.2753C14.2514 7.58872 14.2267 7.58934 14.2014 7.59068L14.2011 7.59035ZM2.56575 8.40904H2.67532C2.71928 8.40904 2.76391 8.40901 2.80853 8.40668C2.91673 8.40668 3.0205 8.36371 3.09701 8.28713C3.17352 8.21055 3.2165 8.10669 3.2165 7.99839C3.2165 7.8901 3.17352 7.78623 3.09701 7.70965C3.0205 7.63308 2.91673 7.59003 2.80853 7.59003C2.58706 7.58536 2.36926 7.58536 2.16044 7.59003C2.05422 7.59172 1.95285 7.63484 1.87792 7.71022C1.803 7.78561 1.76044 7.88734 1.75932 7.99367C1.75819 8.1 1.79858 8.20252 1.87188 8.27948C1.94519 8.35644 2.04562 8.40175 2.15178 8.4057C2.22638 8.4097 2.29998 8.40874 2.37092 8.40774H2.46584L2.56575 8.40904ZM8.10483 1.62769C8.09817 1.84302 8.09817 2.07171 8.10483 2.30738C8.10478 2.35909 8.115 2.41029 8.13489 2.45801C8.15478 2.50574 8.18394 2.54903 8.22069 2.58537C8.25744 2.62172 8.30104 2.65034 8.34896 2.66968C8.39687 2.68902 8.44815 2.69867 8.49981 2.698H8.51147C8.61656 2.7006 8.71838 2.66138 8.79457 2.58887C8.87075 2.51637 8.91507 2.41655 8.91777 2.31137C8.92243 2.22703 8.92143 2.14472 8.9201 2.06405C8.9201 2.03072 8.9201 1.99731 8.9201 1.96631C8.9201 1.93531 8.9201 1.89803 8.9201 1.86369C8.9201 1.78503 8.92243 1.70402 8.91711 1.62069C8.91218 1.51712 8.86686 1.41962 8.79089 1.34912C8.71492 1.27863 8.61435 1.24074 8.5108 1.24365C8.4588 1.2416 8.40691 1.25 8.35819 1.26831C8.30947 1.28663 8.2649 1.31453 8.2271 1.35034C8.18931 1.38615 8.15905 1.42912 8.13811 1.47681C8.11717 1.5245 8.10596 1.57593 8.10516 1.62801L8.10483 1.62769ZM8.19708 7.99969C8.19493 7.9569 8.20128 7.91412 8.21575 7.8738C8.23022 7.83348 8.25253 7.79639 8.28139 7.76475C8.31025 7.7331 8.34509 7.70748 8.38389 7.68939C8.4227 7.6713 8.4647 7.66111 8.50747 7.65936C8.54797 7.65923 8.58809 7.66715 8.62549 7.68272C8.66289 7.69829 8.69681 7.72118 8.72528 7.75002C8.75828 7.78298 8.78443 7.82219 8.80221 7.86534C8.81999 7.90848 8.82904 7.95466 8.82885 8.00132C8.8312 8.08778 8.79947 8.17172 8.74053 8.23497C8.68158 8.29821 8.60014 8.33573 8.5138 8.33938C8.42783 8.33346 8.34731 8.29509 8.28852 8.23204C8.22973 8.16898 8.19704 8.08594 8.19708 7.99969Z" fill="#B4B4B4"/>
</svg>
