<svg width="20" height="20" viewBox="0 0 20 20" fill="none" xmlns="http://www.w3.org/2000/svg">
<path d="M6.03105 17.9597L6.03103 17.9596C4.96044 17.5065 3.99922 16.8579 3.17278 16.0307C2.34635 15.2035 1.69832 14.2414 1.24545 13.1697L0.786198 13.3638L1.24545 13.1697C0.776814 12.0608 0.539062 10.8829 0.539062 9.66655C0.539062 8.45024 0.776815 7.27233 1.24545 6.16341L1.24546 6.1634C1.69832 5.0917 2.34635 4.12956 3.17278 3.30238C3.99921 2.47521 4.96044 1.82668 6.03104 1.37345L6.03105 1.37344C7.1389 0.904421 8.31557 0.666504 9.53062 0.666504C10.7457 0.666504 11.9223 0.904421 13.0302 1.37344L13.0302 1.37345C14.1008 1.82668 15.062 2.47521 15.8884 3.30238L16.2421 2.94899L15.8884 3.30238C16.7149 4.12956 17.3629 5.0917 17.8157 6.1634L17.8158 6.16341C18.2844 7.27233 18.5221 8.45024 18.5221 9.66655C18.5221 10.8829 18.2844 12.0608 17.8158 13.1697L18.2763 13.3644L17.8157 13.1697C17.3629 14.2414 16.7149 15.2035 15.8884 16.0307L16.2421 16.3841L15.8884 16.0307C15.062 16.8579 14.1008 17.5065 13.0302 17.9596L13.0302 17.9597C11.9223 18.4287 10.7457 18.6666 9.53062 18.6666C8.31556 18.6666 7.1389 18.4287 6.03105 17.9597Z" fill="#EEEEEE" stroke="#E0E0E0"/>
<path d="M4.78278 11.2579C4.57888 10.1783 4.73374 9.06163 5.2237 8.07849C5.71366 7.09535 6.51176 6.29984 7.49603 5.81351C7.55775 5.77926 7.60505 5.72386 7.62924 5.6575C7.79976 5.14816 7.96495 4.63706 8.1248 4.12417C8.12743 4.10478 8.13393 4.08609 8.14392 4.06928C8.15391 4.05246 8.16717 4.03784 8.18293 4.02627C8.19869 4.0147 8.21661 4.00642 8.23564 4.00194C8.25466 3.99745 8.2744 3.99683 8.29366 4.00015C8.5894 4.00448 8.88546 4.00382 9.18153 4.00316C9.30176 4.00316 9.42232 4.00316 9.54255 4.00316C9.95451 4.00316 10.3668 4.00584 10.7788 4.00084C10.7961 3.99786 10.8139 3.99836 10.831 4.00238C10.8481 4.0064 10.8642 4.01385 10.8784 4.02423C10.8926 4.03462 10.9046 4.04774 10.9136 4.06285C10.9226 4.07795 10.9285 4.09473 10.931 4.11217C11.0915 4.62483 11.2593 5.13548 11.4209 5.64782C11.4315 5.6866 11.4506 5.72258 11.4767 5.75312C11.5028 5.78367 11.5354 5.80803 11.5721 5.82449C12.3181 6.18013 12.9613 6.72033 13.4407 7.394C13.9201 8.06766 14.22 8.85257 14.312 9.67452C14.5019 10.9629 14.1771 12.2743 13.4078 13.3247C12.6385 14.3751 11.4867 15.0798 10.202 15.2862C9.97891 15.3183 9.75388 15.3344 9.52855 15.3345C8.38478 15.3223 7.28196 14.9068 6.41396 14.1611C5.54597 13.4155 4.96839 12.3875 4.78278 11.2579ZM5.2204 10.3342C5.24533 11.1815 5.51913 12.0026 6.0076 12.6951C6.49607 13.3876 7.17756 13.9207 7.96694 14.2278C8.75633 14.5349 9.61863 14.6024 10.4461 14.4219C11.2736 14.2414 12.0296 13.8209 12.6197 13.2128C13.2099 12.6048 13.6079 11.8362 13.7642 11.0031C13.9205 10.17 13.828 9.30925 13.4984 8.5284C13.1688 7.74755 12.6167 7.0812 11.9109 6.61258C11.2052 6.14397 10.3771 5.89387 9.53022 5.8935H9.52589C8.36724 5.91237 7.26335 6.39032 6.45626 7.22257C5.64916 8.05482 5.20473 9.17345 5.2204 10.3332V10.3342ZM8.50713 4.64484C8.44386 4.85418 8.37392 5.06114 8.30731 5.26948C8.28067 5.35314 8.25568 5.43617 8.22505 5.53917C9.07613 5.29018 9.98065 5.29018 10.8317 5.53917C10.7268 5.21117 10.6319 4.90582 10.5273 4.60081C10.5155 4.58344 10.4996 4.56915 10.4812 4.55907C10.4627 4.54899 10.4421 4.54342 10.4211 4.54283C9.82629 4.5395 9.23182 4.54281 8.63701 4.53848C8.55642 4.53848 8.52878 4.57451 8.50713 4.64484ZM6.00602 10.3592C6.02591 9.66708 6.2489 8.99616 6.64719 8.43005C7.04547 7.86395 7.60144 7.42772 8.24576 7.17573C8.89008 6.92375 9.59425 6.86717 10.2705 7.01305C10.9467 7.15894 11.5651 7.50083 12.0485 7.99609C12.5319 8.49135 12.859 9.11808 12.9889 9.79814C13.1188 10.4782 13.0459 11.1815 12.7792 11.8203C12.5125 12.4592 12.0638 13.0053 11.489 13.3906C10.9143 13.776 10.239 13.9834 9.5472 13.9872H9.53588C8.58758 13.9731 7.68354 13.5834 7.02187 12.9033C6.36021 12.2232 5.9949 11.3084 6.00602 10.3592ZM8.24536 13.1802L9.2608 13.4658V11.4048L9.23982 11.3992L8.24536 13.1802ZM9.79698 11.4048V13.4322C10.1439 13.4008 10.4819 13.3047 10.7934 13.1489L9.81664 11.3995L9.79698 11.4048ZM8.35293 11.3552L7.04577 12.1358L7.79244 12.9059C8.16511 12.2392 8.51413 11.6158 8.85483 11.0058C8.77756 10.8685 8.70962 10.7482 8.63802 10.6205H6.53988C6.56985 10.9751 6.66161 11.3216 6.81098 11.6445L8.09117 10.8825L8.35293 11.3552ZM10.2676 11.1268L11.2494 12.8838C11.6095 12.6187 11.909 12.2797 12.1279 11.8895C12.3468 11.4994 12.4801 11.067 12.5189 10.6212H10.518L11.8771 11.4332L11.6164 11.8998L10.2842 11.1072L10.2676 11.1268ZM9.13957 10.3512C9.14028 10.4502 9.17771 10.5455 9.24458 10.6185C9.31146 10.6916 9.40304 10.7372 9.50158 10.7465C9.60793 10.749 9.71099 10.7095 9.78847 10.6365C9.86596 10.5636 9.91165 10.463 9.91568 10.3566C9.9197 10.2502 9.88173 10.1465 9.80998 10.0679C9.73823 9.9893 9.63846 9.94211 9.53222 9.93653H9.52889C9.47588 9.9375 9.42361 9.94906 9.37515 9.97058C9.3267 9.9921 9.28304 10.0231 9.24675 10.0618C9.21046 10.1005 9.18228 10.146 9.16388 10.1958C9.14547 10.2456 9.1372 10.2985 9.13957 10.3515V10.3512ZM6.54188 10.0619H8.49182L8.49748 10.0395L6.80765 9.03182C6.6604 9.35729 6.57092 9.70597 6.54321 10.0622L6.54188 10.0619ZM10.5237 10.0595H12.5469C12.4526 9.70382 12.364 9.36852 12.2711 9.01652L10.5237 10.0595ZM10.2669 9.55717L10.2865 9.57719L11.9814 8.56616C11.7844 8.27011 11.5349 8.01267 11.2454 7.80651L10.2669 9.55717ZM7.07308 8.56685L8.76424 9.57483L8.78422 9.55416C8.68164 9.36949 8.57907 9.18449 8.47283 8.99349L8.92276 8.72485L9.26046 9.32149V7.26651C8.91225 7.28301 8.57208 7.37694 8.26468 7.5415L8.6217 8.18518L8.1711 8.45182L7.80476 7.80448C7.5174 8.01233 7.26997 8.27049 7.07441 8.56649L7.07308 8.56685ZM9.79332 9.32585L10.7924 7.5345C10.4801 7.37894 10.141 7.28449 9.79332 7.25618V9.32585Z" fill="#9E9E9E"/>
</svg>
