<svg width="30" height="21" viewBox="0 0 30 21" fill="none" xmlns="http://www.w3.org/2000/svg">
<path d="M26.455 0.172852H2.55267C1.14442 0.172852 0.00384521 1.3205 0.00384521 2.72168V18.0146C0.00384521 19.4242 1.1528 20.5635 2.55267 20.5635H26.455C27.8515 20.5635 29.0038 19.429 29.0038 18.0146V2.72168C29.0038 1.323 27.8678 0.172852 26.455 0.172852ZM26.0981 1.87207C25.5773 2.39005 16.6156 11.3046 16.3062 11.6124C15.8247 12.0938 15.1847 12.3589 14.5038 12.3589C13.823 12.3589 13.183 12.0938 12.7 11.6108C12.4919 11.4038 3.62901 2.58767 2.90962 1.87207H26.0981ZM1.70306 17.6688V3.0686L9.04584 10.3727L1.70306 17.6688ZM2.9107 18.8643L10.2506 11.571L11.5 12.8139C12.3024 13.6163 13.3692 14.0581 14.5038 14.0581C15.6385 14.0581 16.7053 13.6163 17.5061 12.8155L18.7571 11.571L26.097 18.8643H2.9107ZM27.3046 17.6688L19.9618 10.3727L27.3046 3.0686V17.6688Z" fill="black"/>
</svg>
