<svg width="18" height="19" viewBox="0 0 18 19" fill="none" xmlns="http://www.w3.org/2000/svg">
<path d="M15.4279 7.05066H12.1974V3.04067C12.1967 2.45567 11.9644 1.8948 11.5512 1.48098C11.1381 1.06716 10.5779 0.834154 9.99341 0.833008H2.52105C1.93636 0.833714 1.37583 1.0665 0.962392 1.48031C0.548957 1.89411 0.316379 2.45514 0.315674 3.04035V8.04033C0.31632 8.53734 0.484283 9.01966 0.792453 9.40939C1.10062 9.79912 1.53102 10.0735 2.01416 10.1884V11.44C2.01415 11.5404 2.0439 11.6386 2.09963 11.7221C2.15536 11.8056 2.23458 11.8707 2.32727 11.9091C2.41996 11.9475 2.52195 11.9576 2.62035 11.938C2.71874 11.9184 2.80912 11.87 2.88006 11.799L4.42968 10.248H5.75018V14.258C5.75079 14.8433 5.98333 15.4044 6.39678 15.8183C6.81022 16.2322 7.37081 16.465 7.95555 16.4657H13.5196L15.0692 18.0167C15.1402 18.0877 15.2305 18.1361 15.3289 18.1556C15.4273 18.1752 15.5293 18.1652 15.622 18.1268C15.7147 18.0883 15.7939 18.0232 15.8497 17.9397C15.9054 17.8563 15.9351 17.7581 15.9351 17.6577V16.4067C16.4183 16.2917 16.8487 16.0172 17.1569 15.6274C17.4651 15.2375 17.633 14.7551 17.6336 14.258V9.25802C17.6329 8.67276 17.4003 8.11165 16.9868 7.69784C16.5733 7.28403 16.0127 7.05128 15.4279 7.05066ZM5.75084 9.233H4.21887C4.15226 9.23297 4.08629 9.2461 4.02475 9.27161C3.9632 9.29712 3.90728 9.33452 3.86019 9.38168L3.0276 10.215V9.74134C3.0276 9.6067 2.97416 9.47758 2.87904 9.38237C2.78392 9.28716 2.6549 9.23369 2.52038 9.23369C2.20469 9.23325 1.90206 9.10749 1.67886 8.88404C1.45567 8.66058 1.33012 8.35764 1.32977 8.04167V3.04167C1.33012 2.7257 1.45567 2.42278 1.67886 2.19932C1.90206 1.97586 2.20469 1.85011 2.52038 1.84967H9.99341C10.3092 1.85002 10.6119 1.97573 10.8351 2.1992C11.0584 2.42267 11.184 2.72564 11.1843 3.04167V7.05168H7.95555C7.37542 7.05242 6.8189 7.28166 6.40632 7.68986C5.99375 8.09806 5.75828 8.6524 5.75084 9.233ZM13.852 10.9153L11.4501 13.3193C11.403 13.3665 11.3471 13.4039 11.2855 13.4294C11.224 13.4549 11.158 13.4681 11.0914 13.4681C11.0248 13.4681 10.9589 13.4549 10.8973 13.4294C10.8358 13.4039 10.7798 13.3665 10.7327 13.3193L9.53182 12.1174C9.43664 12.0221 9.38316 11.893 9.38313 11.7583C9.3831 11.6236 9.43652 11.4944 9.53165 11.3992C9.62678 11.3039 9.75582 11.2504 9.89038 11.2504C10.0249 11.2503 10.154 11.3038 10.2492 11.399L11.0914 12.242L13.1346 10.197C13.2303 10.1042 13.3586 10.0528 13.4918 10.0538C13.6251 10.0548 13.7525 10.1083 13.8468 10.2026C13.941 10.2969 13.9944 10.4245 13.9954 10.5578C13.9964 10.6912 13.945 10.8196 13.8523 10.9153H13.852Z" fill="#B4B4B4"/>
</svg>
