<svg width="44" height="43" viewBox="0 0 44 43" fill="none" xmlns="http://www.w3.org/2000/svg">
<path d="M22.1237 42.3331C33.8137 42.3331 43.2903 32.8565 43.2903 21.1666C43.2903 9.47659 33.8137 0 22.1237 0C10.4337 0 0.957031 9.47659 0.957031 21.1666C0.957031 32.8565 10.4337 42.3331 22.1237 42.3331Z" fill="url(#paint0_linear)"/>
<path d="M27.064 27.5778H12.5617C12.4017 27.5778 12.2483 27.5143 12.1352 27.4012C12.0221 27.288 11.9585 27.1346 11.9585 26.9746C11.9585 26.8147 12.0221 26.6612 12.1352 26.5481C12.2483 26.435 12.4017 26.3715 12.5617 26.3715H27.0434C27.1802 25.805 27.5189 25.3078 27.996 24.973C28.473 24.6382 29.0557 24.4889 29.635 24.5528C30.2143 24.6167 30.7504 24.8895 31.143 25.3202C31.5356 25.7509 31.7578 26.3099 31.7679 26.8926C31.7781 27.4753 31.5755 28.0417 31.1981 28.4858C30.8207 28.9299 30.2944 29.2213 29.7177 29.3053C29.141 29.3893 28.5535 29.2602 28.0651 28.9423C27.5767 28.6243 27.2209 28.1392 27.0643 27.5778H27.064ZM27.9887 26.9345C27.9879 27.2091 28.0686 27.4778 28.2206 27.7065C28.3726 27.9352 28.5891 28.1137 28.8425 28.2194C29.096 28.325 29.3752 28.3531 29.6446 28.3C29.9141 28.2469 30.1617 28.115 30.3562 27.9211C30.5506 27.7272 30.6832 27.4799 30.7371 27.2106C30.7909 26.9414 30.7637 26.6622 30.6588 26.4084C30.5539 26.1546 30.376 25.9376 30.1477 25.7849C29.9194 25.6323 29.651 25.5508 29.3764 25.5508C29.009 25.5506 28.6565 25.6963 28.3963 25.9557C28.1362 26.2151 27.9896 26.5671 27.9887 26.9345ZM20.229 21.6678H12.8033C12.6434 21.6678 12.4899 21.6043 12.3768 21.4912C12.2637 21.378 12.2002 21.2246 12.2002 21.0646C12.2002 20.9047 12.2637 20.7512 12.3768 20.6381C12.4899 20.525 12.6434 20.4615 12.8033 20.4615H20.2087C20.3348 19.9376 20.6335 19.4714 21.0568 19.138C21.48 18.8045 22.0032 18.6232 22.542 18.6232C23.0808 18.6232 23.604 18.8045 24.0273 19.138C24.4505 19.4714 24.7492 19.9376 24.8754 20.4615H31.3534C31.5133 20.4615 31.6667 20.525 31.7799 20.6381C31.893 20.7512 31.9565 20.9047 31.9565 21.0646C31.9565 21.2246 31.893 21.378 31.7799 21.4912C31.6667 21.6043 31.5133 21.6678 31.3534 21.6678H24.8533C24.7118 22.1722 24.4093 22.6164 23.9918 22.9328C23.5743 23.2492 23.0648 23.4205 22.541 23.4205C22.0172 23.4205 21.5077 23.2492 21.0902 22.9328C20.6728 22.6164 20.3702 22.1722 20.2287 21.6678H20.229ZM21.1537 21.0241C21.1528 21.2988 21.2335 21.5675 21.3854 21.7963C21.5374 22.025 21.7538 22.2036 22.0073 22.3093C22.2608 22.415 22.5399 22.4431 22.8094 22.39C23.0789 22.337 23.3265 22.2052 23.521 22.0113C23.7155 21.8174 23.8481 21.5701 23.902 21.3008C23.9559 21.0315 23.9287 20.7523 23.8238 20.4985C23.7189 20.2447 23.541 20.0276 23.3127 19.8749C23.0844 19.7223 22.816 19.6408 22.5414 19.6408C22.1741 19.6408 21.8218 19.7865 21.5618 20.0458C21.3017 20.3051 21.1551 20.6569 21.154 21.0241H21.1537ZM12.0537 15.3955C12.0536 14.8075 12.2692 14.24 12.6595 13.8003C13.0499 13.3607 13.588 13.0795 14.1719 13.01C14.7557 12.9405 15.3447 13.0876 15.8274 13.4234C16.31 13.7591 16.6528 14.2603 16.7907 14.8318H31.2727C31.4327 14.8318 31.5861 14.8954 31.6992 15.0085C31.8123 15.1216 31.8759 15.275 31.8759 15.435C31.8759 15.5949 31.8123 15.7484 31.6992 15.8615C31.5861 15.9746 31.4327 16.0382 31.2727 16.0382H16.7687C16.6116 16.596 16.2581 17.0781 15.7734 17.3959C15.2887 17.7136 14.7056 17.8454 14.1314 17.767C13.5572 17.6886 13.0307 17.4054 12.6489 16.9693C12.2671 16.5333 12.0559 15.974 12.054 15.3945L12.0537 15.3955ZM13.069 15.3955C13.0682 15.6701 13.1488 15.9388 13.3008 16.1676C13.4527 16.3964 13.6691 16.5749 13.9226 16.6806C14.1761 16.7863 14.4553 16.8144 14.7247 16.7613C14.9942 16.7083 15.2419 16.5765 15.4364 16.3826C15.6309 16.1887 15.7635 15.9414 15.8173 15.6721C15.8712 15.4028 15.844 15.1236 15.7391 14.8698C15.6342 14.616 15.4564 14.399 15.2281 14.2463C14.9998 14.0937 14.7313 14.0122 14.4567 14.0122C14.0894 14.0122 13.737 14.1578 13.477 14.4172C13.2169 14.6766 13.0703 15.0285 13.0693 15.3958L13.069 15.3955Z" fill="white"/>
<defs>
<linearGradient id="paint0_linear" x1="0.957031" y1="36.5335" x2="43.2902" y2="5.79946" gradientUnits="userSpaceOnUse">
<stop stop-color="#F2404D"/>
<stop offset="1" stop-color="#DE253A"/>
</linearGradient>
</defs>
</svg>
