<svg width="58" height="6" viewBox="0 0 58 6" fill="none" xmlns="http://www.w3.org/2000/svg">
<path d="M29.173 4.76105C30.0927 4.76105 30.8382 4.01486 30.8382 3.09439C30.8382 2.17392 30.0927 1.42773 29.173 1.42773C28.2533 1.42773 27.5078 2.17392 27.5078 3.09439C27.5078 4.01486 28.2533 4.76105 29.173 4.76105Z" stroke="black" stroke-linejoin="round"/>
<path d="M29.1732 4.09473C29.725 4.09473 30.1723 3.64701 30.1723 3.09473C30.1723 2.54244 29.725 2.09473 29.1732 2.09473C28.6214 2.09473 28.1741 2.54244 28.1741 3.09473C28.1741 3.64701 28.6214 4.09473 29.1732 4.09473Z" fill="#E1E1E1" stroke="black" stroke-linejoin="round"/>
<path d="M1.37582 3.59415C1.60818 3.59415 1.79655 3.40562 1.79655 3.17305C1.79655 2.94048 1.60818 2.75195 1.37582 2.75195C1.14345 2.75195 0.955078 2.94048 0.955078 3.17305C0.955078 3.40562 1.14345 3.59415 1.37582 3.59415Z" fill="black"/>
<path d="M3.79402 3.59415C4.02638 3.59415 4.21475 3.40562 4.21475 3.17305C4.21475 2.94048 4.02638 2.75195 3.79402 2.75195C3.56166 2.75195 3.37329 2.94048 3.37329 3.17305C3.37329 3.40562 3.56166 3.59415 3.79402 3.59415Z" fill="black"/>
<path d="M6.21127 3.59415C6.44364 3.59415 6.63202 3.40562 6.63202 3.17305C6.63202 2.94048 6.44364 2.75195 6.21127 2.75195C5.9789 2.75195 5.79053 2.94048 5.79053 3.17305C5.79053 3.40562 5.9789 3.59415 6.21127 3.59415Z" fill="black"/>
<path d="M8.62826 3.59415C8.86063 3.59415 9.049 3.40562 9.049 3.17305C9.049 2.94048 8.86063 2.75195 8.62826 2.75195C8.39589 2.75195 8.20752 2.94048 8.20752 3.17305C8.20752 3.40562 8.39589 3.59415 8.62826 3.59415Z" fill="black"/>
<path d="M11.047 3.59415C11.2793 3.59415 11.4677 3.40562 11.4677 3.17305C11.4677 2.94048 11.2793 2.75195 11.047 2.75195C10.8146 2.75195 10.6262 2.94048 10.6262 3.17305C10.6262 3.40562 10.8146 3.59415 11.047 3.59415Z" fill="black"/>
<path d="M13.464 3.59415C13.6963 3.59415 13.8847 3.40562 13.8847 3.17305C13.8847 2.94048 13.6963 2.75195 13.464 2.75195C13.2316 2.75195 13.0432 2.94048 13.0432 3.17305C13.0432 3.40562 13.2316 3.59415 13.464 3.59415Z" fill="black"/>
<path d="M15.8822 3.59415C16.1145 3.59415 16.3029 3.40562 16.3029 3.17305C16.3029 2.94048 16.1145 2.75195 15.8822 2.75195C15.6498 2.75195 15.4614 2.94048 15.4614 3.17305C15.4614 3.40562 15.6498 3.59415 15.8822 3.59415Z" fill="black"/>
<path d="M18.2989 3.59415C18.5313 3.59415 18.7197 3.40562 18.7197 3.17305C18.7197 2.94048 18.5313 2.75195 18.2989 2.75195C18.0665 2.75195 17.8782 2.94048 17.8782 3.17305C17.8782 3.40562 18.0665 3.59415 18.2989 3.59415Z" fill="black"/>
<path d="M20.7176 3.59415C20.95 3.59415 21.1384 3.40562 21.1384 3.17305C21.1384 2.94048 20.95 2.75195 20.7176 2.75195C20.4852 2.75195 20.2969 2.94048 20.2969 3.17305C20.2969 3.40562 20.4852 3.59415 20.7176 3.59415Z" fill="black"/>
<path d="M23.1346 3.59415C23.367 3.59415 23.5553 3.40562 23.5553 3.17305C23.5553 2.94048 23.367 2.75195 23.1346 2.75195C22.9022 2.75195 22.7139 2.94048 22.7139 3.17305C22.7139 3.40562 22.9022 3.59415 23.1346 3.59415Z" fill="black"/>
<path d="M25.546 3.59415C25.7784 3.59415 25.9667 3.40562 25.9667 3.17305C25.9667 2.94048 25.7784 2.75195 25.546 2.75195C25.3136 2.75195 25.1252 2.94048 25.1252 3.17305C25.1252 3.40562 25.3136 3.59415 25.546 3.59415Z" fill="black"/>
<path d="M32.7996 3.59415C33.032 3.59415 33.2204 3.40562 33.2204 3.17305C33.2204 2.94048 33.032 2.75195 32.7996 2.75195C32.5673 2.75195 32.3789 2.94048 32.3789 3.17305C32.3789 3.40562 32.5673 3.59415 32.7996 3.59415Z" fill="black"/>
<path d="M35.2166 3.59415C35.449 3.59415 35.6374 3.40562 35.6374 3.17305C35.6374 2.94048 35.449 2.75195 35.2166 2.75195C34.9843 2.75195 34.7959 2.94048 34.7959 3.17305C34.7959 3.40562 34.9843 3.59415 35.2166 3.59415Z" fill="black"/>
<path d="M37.6349 3.59415C37.8672 3.59415 38.0556 3.40562 38.0556 3.17305C38.0556 2.94048 37.8672 2.75195 37.6349 2.75195C37.4025 2.75195 37.2141 2.94048 37.2141 3.17305C37.2141 3.40562 37.4025 3.59415 37.6349 3.59415Z" fill="black"/>
<path d="M40.0521 3.59415C40.2845 3.59415 40.4728 3.40562 40.4728 3.17305C40.4728 2.94048 40.2845 2.75195 40.0521 2.75195C39.8197 2.75195 39.6313 2.94048 39.6313 3.17305C39.6313 3.40562 39.8197 3.59415 40.0521 3.59415Z" fill="black"/>
<path d="M42.4698 3.59415C42.7022 3.59415 42.8905 3.40562 42.8905 3.17305C42.8905 2.94048 42.7022 2.75195 42.4698 2.75195C42.2374 2.75195 42.0491 2.94048 42.0491 3.17305C42.0491 3.40562 42.2374 3.59415 42.4698 3.59415Z" fill="black"/>
<path d="M44.8878 3.59415C45.1201 3.59415 45.3085 3.40562 45.3085 3.17305C45.3085 2.94048 45.1201 2.75195 44.8878 2.75195C44.6554 2.75195 44.467 2.94048 44.467 3.17305C44.467 3.40562 44.6554 3.59415 44.8878 3.59415Z" fill="black"/>
<path d="M47.3055 3.59415C47.5378 3.59415 47.7262 3.40562 47.7262 3.17305C47.7262 2.94048 47.5378 2.75195 47.3055 2.75195C47.0731 2.75195 46.8848 2.94048 46.8848 3.17305C46.8848 3.40562 47.0731 3.59415 47.3055 3.59415Z" fill="black"/>
<path d="M49.7232 3.59415C49.9556 3.59415 50.144 3.40562 50.144 3.17305C50.144 2.94048 49.9556 2.75195 49.7232 2.75195C49.4909 2.75195 49.3025 2.94048 49.3025 3.17305C49.3025 3.40562 49.4909 3.59415 49.7232 3.59415Z" fill="black"/>
<path d="M52.1409 3.59415C52.3733 3.59415 52.5616 3.40562 52.5616 3.17305C52.5616 2.94048 52.3733 2.75195 52.1409 2.75195C51.9086 2.75195 51.7202 2.94048 51.7202 3.17305C51.7202 3.40562 51.9086 3.59415 52.1409 3.59415Z" fill="black"/>
<path d="M54.5584 3.59415C54.7908 3.59415 54.9791 3.40562 54.9791 3.17305C54.9791 2.94048 54.7908 2.75195 54.5584 2.75195C54.3261 2.75195 54.1377 2.94048 54.1377 3.17305C54.1377 3.40562 54.3261 3.59415 54.5584 3.59415Z" fill="black"/>
<path d="M56.9693 3.59415C57.2017 3.59415 57.39 3.40562 57.39 3.17305C57.39 2.94048 57.2017 2.75195 56.9693 2.75195C56.737 2.75195 56.5486 2.94048 56.5486 3.17305C56.5486 3.40562 56.737 3.59415 56.9693 3.59415Z" fill="black"/>
</svg>
