<svg width="17" height="15" viewBox="0 0 17 15" fill="none" xmlns="http://www.w3.org/2000/svg">
<path d="M1.99936 9.43021H3.6429C4.0665 10.5632 4.82549 11.5398 5.81844 12.2295C6.81139 12.9192 7.991 13.2891 9.19963 13.2899C9.9675 13.3029 10.7303 13.1628 11.4435 12.8777C12.1567 12.5926 12.806 12.1683 13.3537 11.6294C13.9013 11.0905 14.3363 10.4478 14.6332 9.73891C14.9301 9.03001 15.083 8.26904 15.083 7.50037C15.083 6.73171 14.9301 5.97072 14.6332 5.26182C14.3363 4.55292 13.9013 3.91029 13.3537 3.37139C12.806 2.83249 12.1567 2.40811 11.4435 2.12302C10.7303 1.83792 9.9675 1.6978 9.19963 1.71084C8.10056 1.70872 7.02224 2.01035 6.08349 2.58245C5.14474 3.15455 4.38202 3.97492 3.87936 4.95319L6.07074 7.11453H0.981934V2.09685L2.78034 3.87219C3.42473 2.73928 4.35921 1.79879 5.48752 1.14757C6.61583 0.496341 7.89719 0.157922 9.19963 0.167177C10.5599 0.191705 11.8864 0.59481 13.0307 1.33135C14.175 2.06788 15.0918 3.10875 15.6784 4.33736C16.265 5.56596 16.4983 6.93377 16.352 8.28757C16.2058 9.64137 15.6859 10.9277 14.8505 12.0024C14.0151 13.0772 12.8972 13.8979 11.6221 14.3726C10.347 14.8473 8.96497 14.9573 7.63091 14.6903C6.29685 14.4233 5.06341 13.7898 4.06877 12.8608C3.07413 11.9317 2.35757 10.7438 1.99936 9.43021ZM8.02734 7.96353V4.02685H9.20096V7.26887L12.3315 9.12121L11.7054 10.1245L8.02734 7.96353Z" fill="#B4B4B4"/>
</svg>
