<svg width="17" height="17" viewBox="0 0 17 17" fill="none" xmlns="http://www.w3.org/2000/svg">
<path d="M9.25489 0.5H8.02798C6.15113 0.518167 4.35731 1.27715 3.03655 2.61194C1.71578 3.94672 0.974854 5.74938 0.974854 7.62799C0.974854 9.5066 1.71578 11.3093 3.03655 12.6441C4.35731 13.9788 6.15113 14.7378 8.02798 14.756H9.25489C9.85859 14.7558 10.4597 14.6774 11.0433 14.5227L12.8557 16.356C12.9231 16.4244 13.0094 16.4711 13.1036 16.49C13.1977 16.5089 13.2953 16.4991 13.3839 16.462C13.4729 16.4245 13.5488 16.3614 13.6022 16.2808C13.6555 16.2002 13.6838 16.1057 13.6836 16.009V13.1717C14.5038 12.5001 15.1642 11.6541 15.617 10.6952C16.0698 9.73636 16.3035 8.68858 16.3013 7.62799C16.3087 5.74828 15.5711 3.94233 14.2502 2.60612C12.9293 1.26991 11.1329 0.512517 9.25489 0.5ZM9.12001 11.4563C9.07517 11.5017 9.02179 11.5377 8.96297 11.5622C8.90415 11.5868 8.84105 11.5994 8.77731 11.5994C8.71358 11.5994 8.65048 11.5868 8.59166 11.5622C8.53284 11.5377 8.47946 11.5017 8.43462 11.4563C8.34354 11.3638 8.29249 11.2392 8.29249 11.1093C8.29249 10.9795 8.34354 10.8548 8.43462 10.7623C8.47937 10.7168 8.53271 10.6807 8.59155 10.656C8.65038 10.6314 8.71353 10.6187 8.77731 10.6187C8.8411 10.6187 8.90425 10.6314 8.96308 10.656C9.02192 10.6807 9.07526 10.7168 9.12001 10.7623C9.21101 10.8549 9.26201 10.9795 9.26201 11.1093C9.26201 11.2392 9.21101 11.3638 9.12001 11.4563ZM9.26188 8.03033V9.16933C9.26358 9.23411 9.2523 9.29858 9.2287 9.35892C9.2051 9.41927 9.16967 9.47429 9.12449 9.52071C9.07931 9.56713 9.0253 9.60402 8.96564 9.62921C8.90599 9.6544 8.8419 9.66738 8.77715 9.66738C8.7124 9.66738 8.64831 9.6544 8.58865 9.62921C8.529 9.60402 8.47499 9.56713 8.42981 9.52071C8.38463 9.47429 8.34919 9.41927 8.3256 9.35892C8.302 9.29858 8.29072 9.23411 8.29241 9.16933V7.99101C8.29102 7.77958 8.36195 7.57405 8.49342 7.40857C8.62489 7.24308 8.80899 7.12761 9.0151 7.08134C9.26918 7.02146 9.49358 6.87282 9.64794 6.66215C9.8023 6.45147 9.8765 6.19259 9.85719 5.93205C9.83788 5.67151 9.72634 5.4264 9.54261 5.24082C9.35888 5.05525 9.11503 4.94136 8.85491 4.91966C8.70599 4.90847 8.55638 4.92864 8.41573 4.97888C8.27508 5.02912 8.14651 5.1083 8.03831 5.21132C7.92905 5.31382 7.84209 5.43777 7.78284 5.57542C7.72359 5.71306 7.69333 5.86146 7.69394 6.01133C7.69564 6.07611 7.68436 6.14058 7.66076 6.20093C7.63716 6.26127 7.60173 6.31629 7.55655 6.36271C7.51137 6.40913 7.45736 6.44602 7.3977 6.47121C7.33805 6.4964 7.27396 6.50938 7.20921 6.50938C7.14446 6.50938 7.08037 6.4964 7.02071 6.47121C6.96106 6.44602 6.90705 6.40913 6.86187 6.36271C6.81669 6.31629 6.78125 6.26127 6.75766 6.20093C6.73406 6.14058 6.72278 6.07611 6.72447 6.01133C6.72463 5.72727 6.78252 5.4462 6.89462 5.18524C7.00672 4.92428 7.1707 4.68886 7.37656 4.49333C7.58117 4.29828 7.82431 4.1483 8.09034 4.053C8.35637 3.9577 8.63939 3.9192 8.92118 3.94C9.41133 3.9805 9.87124 4.19366 10.2191 4.5416C10.567 4.88954 10.7804 5.3497 10.8212 5.84025C10.862 6.3308 10.7277 6.81994 10.4421 7.2207C10.1566 7.62146 9.73824 7.90787 9.26155 8.02899L9.26188 8.03033Z" fill="#B4B4B4"/>
</svg>
