<svg width="249" height="172" viewBox="0 0 249 172" fill="none" xmlns="http://www.w3.org/2000/svg">
<path d="M127.953 171.593C175.107 171.593 213.333 133.354 213.333 86.1833C213.333 39.0127 175.107 0.773315 127.953 0.773315C80.7989 0.773315 42.573 39.0127 42.573 86.1833C42.573 133.354 80.7989 171.593 127.953 171.593Z" fill="#DA2E3D"/>
<path d="M47.2664 98.5886C47.1339 98.3267 46.903 98.128 46.6242 98.0361C46.3455 97.9443 46.0416 97.9668 45.7794 98.0986C45.3685 98.3056 44.8923 98.3411 44.4552 98.1973C44.0182 98.0536 43.6559 97.7424 43.4481 97.3319C43.3155 97.0701 43.0846 96.8715 42.8058 96.7797C42.527 96.6879 42.2233 96.7104 41.9611 96.8423L23.3497 106.232C23.0879 106.364 22.8893 106.595 22.7975 106.874C22.7057 107.153 22.7282 107.456 22.8601 107.719C23.0669 108.13 23.1024 108.606 22.9587 109.043C22.815 109.48 22.5038 109.842 22.0934 110.05C21.8315 110.183 21.6329 110.414 21.5411 110.693C21.4493 110.971 21.4718 111.275 21.6037 111.537L26.7251 121.69C26.8575 121.952 27.0885 122.151 27.3673 122.243C27.6461 122.334 27.9499 122.312 28.2121 122.18C28.623 121.973 29.0992 121.938 29.5363 122.081C29.9733 122.225 30.3355 122.536 30.5434 122.947C30.6759 123.209 30.9068 123.407 31.1856 123.499C31.4644 123.591 31.7682 123.568 32.0304 123.436L50.6417 114.046C50.9036 113.913 51.1022 113.682 51.194 113.404C51.2858 113.125 51.2633 112.821 51.1314 112.559C50.9244 112.148 50.8889 111.672 51.0326 111.235C51.1764 110.798 51.4876 110.435 51.8981 110.227C52.1599 110.095 52.3585 109.864 52.4503 109.585C52.5421 109.306 52.5196 109.002 52.3877 108.74L47.2664 98.5886ZM48.7957 112.498L31.8794 121.031C31.4254 120.548 30.8574 120.185 30.2274 119.978C29.5973 119.77 28.9253 119.724 28.2727 119.843L24.0061 111.386C24.4897 110.932 24.8518 110.364 25.0594 109.734C25.2669 109.104 25.3132 108.432 25.1941 107.779L42.1104 99.244C42.5644 99.7276 43.1324 100.09 43.7624 100.297C44.3925 100.505 45.0645 100.551 45.7171 100.432L49.9837 108.889C49.4998 109.344 49.1375 109.912 48.93 110.542C48.7224 111.173 48.6763 111.845 48.7957 112.498V112.498ZM52.8151 94.7016C52.5524 94.8341 52.2479 94.8569 51.9685 94.7648C51.689 94.6728 51.4576 94.4736 51.3251 94.211L50.3251 92.23C50.1926 91.9673 50.1698 91.6627 50.2618 91.3832C50.3538 91.1037 50.5531 90.8722 50.8157 90.7396C51.0784 90.6071 51.3829 90.5844 51.6623 90.6764C51.9418 90.7684 52.1732 90.9676 52.3057 91.2303L53.3057 93.2113C53.3714 93.3414 53.4109 93.4831 53.4218 93.6285C53.4327 93.7738 53.4148 93.9199 53.3693 94.0583C53.3237 94.1967 53.2513 94.3248 53.1562 94.4353C53.0611 94.5457 52.9452 94.6363 52.8151 94.702V94.7016ZM55.8131 100.645C55.5504 100.777 55.2459 100.8 54.9665 100.708C54.687 100.616 54.4556 100.417 54.3231 100.154L53.3231 98.173C53.2574 98.0429 53.218 97.9012 53.2071 97.7559C53.1962 97.6106 53.2141 97.4645 53.2596 97.3261C53.3052 97.1877 53.3775 97.0596 53.4726 96.9492C53.5676 96.8388 53.6835 96.7481 53.8136 96.6824C53.9436 96.6168 54.0854 96.5774 54.2307 96.5665C54.376 96.5556 54.522 96.5735 54.6604 96.619C54.7988 96.6646 54.9269 96.7369 55.0373 96.832C55.1478 96.927 55.2384 97.0429 55.3041 97.173L56.3041 99.1539C56.3698 99.2841 56.4092 99.4259 56.4201 99.5713C56.431 99.7166 56.4131 99.8627 56.3675 100.001C56.3219 100.14 56.2495 100.268 56.1543 100.378C56.0592 100.489 55.9432 100.579 55.8131 100.645V100.645ZM59.3017 105.098C59.3674 105.228 59.4068 105.369 59.4176 105.515C59.4285 105.66 59.4107 105.806 59.3651 105.944C59.3195 106.083 59.2472 106.211 59.1521 106.321C59.057 106.432 58.9412 106.522 58.8111 106.588C58.5484 106.72 58.2439 106.743 57.9645 106.651C57.685 106.559 57.4536 106.36 57.3211 106.097L56.3211 104.116C56.2554 103.986 56.216 103.845 56.2051 103.699C56.1942 103.554 56.212 103.408 56.2576 103.27C56.3031 103.131 56.3755 103.003 56.4705 102.893C56.5655 102.782 56.6813 102.692 56.8114 102.626C56.9415 102.56 57.0832 102.521 57.2284 102.51C57.3737 102.499 57.5197 102.517 57.6581 102.562C57.7965 102.608 57.9246 102.68 58.035 102.775C58.1454 102.87 58.2361 102.986 58.3017 103.116L59.3017 105.098ZM16.6784 116.662C16.4157 116.795 16.1112 116.818 15.8318 116.725C15.5524 116.633 15.3209 116.434 15.1884 116.172L14.1884 114.191C14.0558 113.928 14.033 113.623 14.125 113.344C14.2169 113.064 14.4162 112.833 14.6789 112.7C14.9416 112.568 15.2462 112.545 15.5257 112.637C15.8053 112.729 16.0368 112.928 16.1694 113.191L17.1694 115.172C17.2351 115.302 17.2745 115.443 17.2854 115.589C17.2963 115.734 17.2784 115.88 17.2328 116.019C17.1872 116.157 17.1148 116.285 17.0196 116.396C16.9245 116.506 16.8086 116.597 16.6784 116.662ZM19.6764 122.605C19.4137 122.738 19.1091 122.76 18.8297 122.668C18.5503 122.576 18.3189 122.377 18.1864 122.114L17.1864 120.133C17.1207 120.003 17.0813 119.861 17.0705 119.716C17.0596 119.571 17.0774 119.425 17.123 119.286C17.1685 119.148 17.2409 119.02 17.3359 118.91C17.431 118.799 17.5468 118.708 17.6769 118.643C17.807 118.577 17.9487 118.538 18.094 118.527C18.2393 118.516 18.3853 118.534 18.5237 118.579C18.6621 118.625 18.7902 118.697 18.9007 118.792C19.0111 118.887 19.1017 119.003 19.1674 119.133L20.1674 121.114C20.2332 121.244 20.2727 121.386 20.2836 121.532C20.2946 121.677 20.2767 121.823 20.2311 121.962C20.1855 122.1 20.113 122.228 20.0179 122.339C19.9227 122.449 19.8066 122.54 19.6764 122.606V122.605ZM23.1664 127.059C23.2321 127.189 23.2715 127.33 23.2824 127.476C23.2933 127.621 23.2754 127.767 23.2299 127.905C23.1844 128.044 23.112 128.172 23.017 128.282C22.922 128.393 22.8061 128.483 22.6761 128.549C22.546 128.615 22.4043 128.654 22.259 128.665C22.1137 128.676 21.9677 128.658 21.8294 128.612C21.691 128.567 21.5629 128.495 21.4525 128.4C21.342 128.305 21.2514 128.189 21.1857 128.059L20.1857 126.078C20.0532 125.815 20.0305 125.51 20.1225 125.231C20.2145 124.951 20.4137 124.72 20.6764 124.587C20.9391 124.455 21.2436 124.432 21.523 124.524C21.8024 124.616 22.0339 124.815 22.1664 125.078L23.1664 127.059ZM69.2057 100.1C69.0732 99.8373 68.8418 99.6381 68.5623 99.5461C68.2829 99.454 67.9784 99.4768 67.7157 99.6093C67.1954 99.8718 66.6285 100.029 66.0473 100.073C65.4662 100.116 64.8822 100.044 64.3287 99.8621C63.7751 99.6797 63.263 99.3902 62.8214 99.0099C62.3797 98.6296 62.0174 98.1661 61.7549 97.6458C61.4924 97.1255 61.335 96.5585 61.2916 95.9774C61.2483 95.3962 61.3198 94.8122 61.5021 94.2587C61.6845 93.7052 61.974 93.193 62.3543 92.7514C62.7346 92.3098 63.1981 91.9474 63.7184 91.685C63.8485 91.6193 63.9644 91.5287 64.0594 91.4183C64.1545 91.3079 64.2269 91.1798 64.2724 91.0414C64.318 90.903 64.3359 90.757 64.325 90.6117C64.3141 90.4664 64.2747 90.3247 64.2091 90.1946L61.1791 84.188C61.1884 84.1796 61.1987 84.1723 61.2077 84.164C61.5841 83.815 61.9574 83.458 62.3184 83.1026C63.6533 81.7921 64.9061 80.4006 66.0697 78.936C66.3359 78.5994 66.4575 78.171 66.4078 77.7448C66.3581 77.3186 66.1411 76.9296 65.8046 76.6634C65.468 76.3973 65.0396 76.2757 64.6134 76.3254C64.1872 76.3751 63.7982 76.5921 63.5321 76.9286C62.1886 78.614 60.7215 80.197 59.1431 81.6646C58.9963 81.6749 58.8531 81.7143 58.7217 81.7806L46.2551 88.07L43.4551 89.4833L40.3134 91.0683L37.5134 92.4816L18.5251 102.062L15.7251 103.475L12.5834 105.06L9.7834 106.474L1.27974 110.764C1.01708 110.897 0.817835 111.128 0.725822 111.408C0.633809 111.687 0.656559 111.992 0.78907 112.255L4.7864 120.179C4.91894 120.442 5.15037 120.641 5.4298 120.733C5.70922 120.825 6.01375 120.802 6.2764 120.67C7.32724 120.14 8.5456 120.049 9.66347 120.417C10.7813 120.785 11.7072 121.582 12.2372 122.633C12.7673 123.684 12.8582 124.902 12.49 126.02C12.1218 127.138 11.3246 128.064 10.2737 128.594C10.0111 128.727 9.81184 128.958 9.71982 129.238C9.62781 129.517 9.65056 129.822 9.78307 130.084L13.7804 138.008C13.9129 138.271 14.1443 138.47 14.4237 138.562C14.7031 138.654 15.0077 138.632 15.2704 138.499L72.7144 109.516C72.9771 109.383 73.1763 109.152 73.2683 108.872C73.3603 108.593 73.3376 108.288 73.2051 108.026L69.2057 100.1ZM62.7997 112.032L61.2997 109.06C61.2341 108.93 61.1434 108.814 61.033 108.719C60.9226 108.624 60.7945 108.552 60.6561 108.506C60.5177 108.461 60.3717 108.443 60.2264 108.454C60.0812 108.465 59.9394 108.504 59.8094 108.57C59.6793 108.635 59.5635 108.726 59.4685 108.836C59.3734 108.947 59.3011 109.075 59.2556 109.213C59.21 109.352 59.1922 109.498 59.2031 109.643C59.214 109.788 59.2534 109.93 59.3191 110.06L60.8191 113.032L25.1637 131.021C25.0312 130.758 24.7998 130.559 24.5203 130.467C24.2409 130.375 23.9364 130.397 23.6737 130.53C23.4111 130.663 23.2118 130.894 23.1198 131.174C23.0278 131.453 23.0506 131.758 23.1831 132.02L15.2597 136.018L12.2204 129.993C13.4887 129.06 14.3857 127.709 14.752 126.178C15.1184 124.647 14.9304 123.036 14.2215 121.631C13.5125 120.225 12.3286 119.117 10.8797 118.502C9.43085 117.886 7.81088 117.805 6.3074 118.271L3.26641 112.245L11.1897 108.248L12.1897 110.229C12.3222 110.491 12.5536 110.691 12.8331 110.783C13.1125 110.875 13.417 110.852 13.6797 110.72C13.9424 110.587 14.1416 110.356 14.2336 110.076C14.3257 109.797 14.3029 109.492 14.1704 109.229L13.1704 107.248L58.7294 84.2616L61.7687 90.287C60.5004 91.2192 59.6035 92.5706 59.2371 94.1014C58.8708 95.6323 59.0588 97.2434 59.7677 98.6487C60.4766 100.054 61.6606 101.163 63.1094 101.778C64.5583 102.393 66.1783 102.475 67.6817 102.009L70.7211 108.034L62.7997 112.032ZM98.1664 111.946C97.7983 111.941 97.4471 111.79 97.1888 111.528C96.9305 111.266 96.7857 110.912 96.7857 110.544C96.7857 110.176 96.9305 109.823 97.1888 109.56C97.4471 109.298 97.7983 109.148 98.1664 109.142H121.893C122.261 109.148 122.612 109.298 122.871 109.56C123.129 109.823 123.274 110.176 123.274 110.544C123.274 110.912 123.129 111.266 122.871 111.528C122.612 111.79 122.261 111.941 121.893 111.946H98.1664ZM125.129 120.683H78.9664C78.5983 120.677 78.2471 120.527 77.9888 120.265C77.7305 120.002 77.5857 119.649 77.5857 119.281C77.5857 118.913 77.7305 118.559 77.9888 118.297C78.2471 118.035 78.5983 117.884 78.9664 117.879H125.127C125.495 117.884 125.846 118.035 126.105 118.297C126.363 118.559 126.508 118.913 126.508 119.281C126.508 119.649 126.363 120.002 126.105 120.265C125.846 120.527 125.495 120.677 125.127 120.683H125.129ZM143.999 132.253C143.618 132.244 143.238 132.262 142.86 132.307L142.7 132.33L142.633 132.183C141.298 129.278 139.088 126.864 136.312 125.279C133.536 123.695 130.333 123.018 127.153 123.345C123.973 123.673 120.975 124.987 118.58 127.104C116.185 129.221 114.512 132.034 113.796 135.15L113.763 135.298L113.611 135.315C111.031 135.6 108.646 136.827 106.913 138.761C105.181 140.695 104.223 143.2 104.223 145.796C104.222 147.184 104.495 148.559 105.028 149.841C105.56 151.123 106.341 152.288 107.325 153.267C108.308 154.246 109.476 155.021 110.761 155.548C112.046 156.074 113.422 156.341 114.81 156.333H143.997C147.193 156.331 150.259 155.072 152.536 152.829C153.654 151.708 154.54 150.377 155.14 148.912C155.741 147.447 156.046 145.877 156.036 144.293C156.033 141.097 154.775 138.03 152.533 135.753C151.412 134.634 150.081 133.749 148.616 133.148C147.15 132.548 145.581 132.243 143.997 132.253H143.999ZM150.613 151.02C149.723 151.911 148.666 152.616 147.502 153.096C146.338 153.575 145.091 153.819 143.832 153.813H114.81C113.743 153.816 112.686 153.604 111.703 153.191C110.719 152.778 109.829 152.171 109.084 151.407C108.326 150.659 107.723 149.769 107.311 148.787C106.899 147.805 106.686 146.752 106.684 145.687C106.7 143.566 107.541 141.535 109.028 140.022C109.776 139.262 110.667 138.659 111.65 138.246C112.633 137.833 113.688 137.619 114.754 137.616C114.927 137.62 115.098 137.575 115.247 137.485L115.301 137.449H115.354C115.485 137.354 115.594 137.232 115.674 137.092C115.755 136.952 115.805 136.796 115.821 136.635C116.27 133.581 117.822 130.798 120.184 128.81C122.521 126.811 125.492 125.707 128.567 125.695C130.921 125.705 133.229 126.354 135.244 127.571C137.258 128.788 138.906 130.529 140.011 132.608L140.126 132.832L139.887 132.911C139.728 132.965 139.569 133.031 139.401 133.101C139.234 133.171 139.068 133.24 138.897 133.297C137.354 134.005 135.978 135.029 134.857 136.303C134.644 136.541 134.534 136.853 134.551 137.172C134.569 137.491 134.712 137.79 134.95 138.003C135.188 138.217 135.501 138.327 135.82 138.309C136.139 138.292 136.438 138.148 136.651 137.91C137.553 136.894 138.659 136.079 139.897 135.519C141.129 134.947 142.472 134.655 143.83 134.664C145.724 134.667 147.574 135.231 149.147 136.284C150.721 137.337 151.948 138.832 152.673 140.582C153.398 142.331 153.589 144.255 153.222 146.113C152.855 147.97 151.947 149.678 150.611 151.02H150.613ZM155.2 88.677C154.301 88.6768 153.423 88.9429 152.676 89.4418C151.929 89.9407 151.347 90.6499 151.003 91.4797C150.659 92.3095 150.569 93.2227 150.745 94.1037C150.92 94.9846 151.352 95.7939 151.987 96.4291C152.622 97.0644 153.431 97.497 154.312 97.6723C155.193 97.8476 156.107 97.7577 156.936 97.414C157.766 97.0703 158.476 96.4883 158.975 95.7414C159.474 94.9946 159.74 94.1165 159.74 93.2183C159.739 92.0144 159.26 90.8602 158.409 90.0089C157.558 89.1575 156.404 88.6785 155.2 88.677ZM155.2 94.9103C154.865 94.9104 154.538 94.8112 154.26 94.6253C153.981 94.4394 153.764 94.1752 153.636 93.866C153.508 93.5569 153.475 93.2166 153.54 92.8884C153.605 92.5602 153.766 92.2587 154.003 92.022C154.239 91.7853 154.541 91.6241 154.869 91.5588C155.197 91.4935 155.538 91.527 155.847 91.655C156.156 91.7831 156.42 92 156.606 92.2782C156.792 92.5565 156.891 92.8836 156.891 93.2183C156.891 93.6669 156.713 94.0969 156.395 94.4141C156.078 94.7313 155.648 94.9098 155.2 94.9103ZM168.744 88.2396C167.846 88.2395 166.968 88.5057 166.221 89.0047C165.474 89.5036 164.892 90.2128 164.548 91.0426C164.204 91.8724 164.114 92.7855 164.289 93.6665C164.464 94.5475 164.897 95.3567 165.532 95.9919C166.167 96.6271 166.976 97.0597 167.857 97.235C168.738 97.4103 169.651 97.3204 170.481 96.9767C171.311 96.633 172.02 96.0509 172.519 95.3041C173.018 94.5572 173.285 93.6792 173.285 92.781C173.283 91.5769 172.805 90.4225 171.953 89.5711C171.102 88.7197 169.947 88.2409 168.743 88.2396H168.744ZM168.744 94.473C168.409 94.473 168.082 94.3738 167.804 94.188C167.526 94.0021 167.309 93.7379 167.181 93.4287C167.053 93.1195 167.019 92.7793 167.084 92.4511C167.149 92.1228 167.311 91.8213 167.547 91.5847C167.784 91.348 168.085 91.1868 168.413 91.1215C168.742 91.0562 169.082 91.0897 169.391 91.2177C169.7 91.3458 169.965 91.5626 170.151 91.8409C170.336 92.1192 170.436 92.4463 170.436 92.781C170.435 93.2296 170.257 93.6597 169.939 93.9768C169.622 94.294 169.192 94.4723 168.743 94.4726L168.744 94.473ZM182.849 87.584C181.95 87.5838 181.072 87.8499 180.325 88.3489C179.578 88.8478 178.996 89.557 178.652 90.3868C178.308 91.2166 178.218 92.1298 178.394 93.0108C178.569 93.8918 179.001 94.7011 179.636 95.3363C180.271 95.9715 181.081 96.4041 181.962 96.5793C182.843 96.7546 183.756 96.6647 184.586 96.3209C185.415 95.9772 186.125 95.3951 186.624 94.6482C187.123 93.9013 187.389 93.0232 187.389 92.125C187.388 90.921 186.909 89.7666 186.058 88.9152C185.206 88.0639 184.052 87.5849 182.848 87.5836L182.849 87.584ZM182.849 93.8173C182.514 93.8174 182.187 93.7182 181.909 93.5323C181.63 93.3464 181.413 93.0822 181.285 92.773C181.157 92.4639 181.124 92.1236 181.189 91.7954C181.254 91.4672 181.415 91.1657 181.652 90.929C181.888 90.6923 182.19 90.5311 182.518 90.4658C182.846 90.4005 183.187 90.434 183.496 90.562C183.805 90.6901 184.069 90.907 184.255 91.1852C184.441 91.4635 184.54 91.7906 184.54 92.1253C184.54 92.5739 184.361 93.004 184.044 93.3211C183.727 93.6383 183.297 93.8166 182.848 93.817L182.849 93.8173ZM212.476 37.1533C212.362 37.0416 212.271 36.9082 212.21 36.7611C212.148 36.6139 212.116 36.4559 212.116 36.2963C212.116 36.1367 212.148 35.9787 212.21 35.8315C212.271 35.6844 212.362 35.551 212.476 35.4393C212.596 35.3213 212.738 35.2289 212.895 35.1675C213.052 35.1062 213.219 35.0772 213.387 35.0823C213.538 35.0833 213.688 35.1156 213.826 35.177C213.964 35.2384 214.088 35.3277 214.19 35.4393L217.274 38.524C217.496 38.7524 217.619 39.0588 217.616 39.3771C217.614 39.6953 217.486 39.9999 217.261 40.225C217.036 40.4501 216.732 40.5776 216.414 40.5801C216.095 40.5825 215.789 40.4596 215.56 40.2379L212.476 37.1533ZM82.2221 73.0666C82.0356 72.8607 81.9146 72.6039 81.8745 72.329C81.8345 72.0541 81.8771 71.7735 81.9969 71.5229C82.1168 71.2723 82.3085 71.063 82.5477 70.9217C82.7869 70.7803 83.0627 70.7134 83.3401 70.7293C85.7184 70.8672 88.0809 71.2053 90.4024 71.7399C90.7387 71.8161 91.0351 72.0135 91.235 72.2944C91.435 72.5754 91.5244 72.9201 91.4862 73.2628C91.4481 73.6054 91.285 73.9221 91.0282 74.1521C90.7714 74.3822 90.4389 74.5096 90.0941 74.51C89.9894 74.5103 89.885 74.4991 89.7827 74.4766C87.6156 73.9767 85.4103 73.6604 83.1901 73.531C83.006 73.5214 82.8257 73.4755 82.6595 73.3958C82.4934 73.3161 82.3447 73.2042 82.2221 73.0666ZM242.172 63.4233C242.394 63.6517 242.517 63.9581 242.514 64.2764C242.512 64.5947 242.384 64.8993 242.159 65.1243C241.934 65.3494 241.63 65.477 241.312 65.4794C240.993 65.4818 240.687 65.3589 240.458 65.1373L237.374 62.053C237.259 61.9411 237.167 61.8073 237.104 61.6596C237.041 61.5118 237.008 61.353 237.006 61.1923C237.005 61.0316 237.036 60.8723 237.097 60.7236C237.158 60.5749 237.248 60.4398 237.361 60.3261C237.475 60.2125 237.61 60.1226 237.759 60.0616C237.907 60.0007 238.067 59.9699 238.227 59.9711C238.388 59.9723 238.547 60.0054 238.695 60.0686C238.842 60.1317 238.976 60.2237 239.088 60.339L242.172 63.4233ZM248.333 50.3166C248.325 50.6435 248.191 50.9547 247.96 51.1859C247.729 51.4171 247.418 51.5507 247.091 51.559H242.773C242.444 51.559 242.128 51.4281 241.895 51.1951C241.662 50.9621 241.531 50.6461 241.531 50.3166C241.531 49.9871 241.662 49.6711 241.895 49.4382C242.128 49.2052 242.444 49.0743 242.773 49.0743H247.091C247.255 49.0726 247.417 49.1035 247.568 49.1653C247.72 49.2271 247.858 49.3186 247.973 49.4343C248.089 49.55 248.18 49.6877 248.242 49.8392C248.304 49.9907 248.335 50.153 248.333 50.3166ZM237.374 40.2376C237.26 40.1259 237.17 39.9925 237.108 39.8454C237.046 39.6982 237.014 39.5402 237.014 39.3806C237.014 39.221 237.046 39.063 237.108 38.9158C237.17 38.7687 237.26 38.6353 237.374 38.5236L240.458 35.439C240.686 35.2173 240.993 35.0944 241.311 35.0969C241.63 35.0993 241.934 35.2268 242.159 35.4519C242.384 35.677 242.512 35.9816 242.514 36.2998C242.516 36.6181 242.393 36.9246 242.172 37.1529L239.087 40.2373C238.976 40.3512 238.842 40.4417 238.695 40.5035C238.548 40.5653 238.39 40.5971 238.231 40.5971C238.071 40.5972 237.913 40.5654 237.766 40.5037C237.619 40.4419 237.486 40.3515 237.374 40.2376ZM77.5387 73.3153C77.4338 73.4667 77.3 73.5958 77.1449 73.6951C76.9897 73.7945 76.8165 73.862 76.6351 73.894C74.5013 74.2645 72.4343 74.9497 70.5017 75.9273C70.3379 76.0114 70.159 76.0624 69.9754 76.0772C69.7919 76.0921 69.6071 76.0706 69.4319 76.014C69.2566 75.9574 69.0943 75.8667 68.9541 75.7472C68.8139 75.6277 68.6987 75.4817 68.6151 75.3176C68.4461 74.9865 68.4154 74.6019 68.5296 74.2482C68.6439 73.8944 68.8937 73.6004 69.2244 73.4306C71.4042 72.3265 73.7358 71.5522 76.1431 71.1329C76.2255 71.1182 76.309 71.1107 76.3927 71.1106C76.6487 71.1113 76.8996 71.1821 77.1182 71.3152C77.3368 71.4483 77.5149 71.6388 77.633 71.8658C77.7512 72.0929 77.8049 72.348 77.7885 72.6034C77.772 72.8588 77.686 73.1049 77.5397 73.315L77.5387 73.3153ZM230.221 92.2763L218.104 88.5819L214.374 82.888C213.44 81.4591 212.136 80.3112 210.6 79.5671C209.064 78.8231 207.355 78.511 205.655 78.6643L175.653 81.3376L175.59 81.295L159.282 70.3C159.047 70.141 158.769 70.0563 158.486 70.0566H145.252C145.042 70.0526 144.833 70.0939 144.639 70.1778C144.446 70.2617 144.273 70.3863 144.132 70.543C143.925 70.7813 143.803 71.0813 143.784 71.3964C143.765 71.7114 143.851 72.0238 144.029 72.285L151.674 83.4753H151.663L151.689 83.5146L116.179 87.0146L112.286 76.84C112.183 76.5739 112.002 76.3451 111.768 76.1833C111.533 76.0216 111.254 75.9344 110.969 75.9333H102.661C102.574 75.9334 102.487 75.9406 102.402 75.955L102.335 75.9663L102.273 75.936C101.18 75.4026 99.4111 74.5926 97.1941 73.7719C96.8453 73.6429 96.4596 73.6576 96.1217 73.813C95.7838 73.9683 95.5215 74.2515 95.3924 74.6003C95.2633 74.9491 95.2781 75.3348 95.4334 75.6727C95.5888 76.0106 95.872 76.2729 96.2207 76.402C97.9127 77.0264 99.5716 77.7369 101.191 78.5306L101.304 78.5863L102.143 93.9C102.294 96.6293 103.484 99.1974 105.469 101.077C107.454 102.956 110.083 104.004 112.816 104.005L155.697 105.205L149.515 114.267C149.478 114.312 149.454 114.344 149.431 114.377L144.055 122.244C143.933 122.415 143.849 122.611 143.81 122.819C143.77 123.026 143.776 123.239 143.826 123.444C143.906 123.748 144.085 124.018 144.335 124.211C144.584 124.404 144.89 124.509 145.205 124.51H158.485C158.769 124.511 159.046 124.426 159.281 124.267L184.454 107.295H186.137C199.686 107.293 213.181 105.579 226.301 102.195L230.026 101.233C231.009 100.98 231.882 100.413 232.512 99.6174C233.142 98.8223 233.495 97.8431 233.517 96.8288C233.539 95.8145 233.229 94.8208 232.634 93.9989C232.039 93.1771 231.192 92.5722 230.222 92.2763H230.221ZM213.21 86.3113L215.269 89.4536L212.191 90.1573C211.209 90.3818 210.184 90.3423 209.222 90.0428C208.26 89.7432 207.395 89.1944 206.714 88.452L206.478 88.1933L213.21 86.3113ZM147.903 72.9063H158.05L171.15 81.7396L154.925 83.1856L147.903 72.9063ZM158.049 121.662H147.904L150.512 117.846C150.544 117.809 150.574 117.769 150.602 117.729L160.285 103.541H184.926L158.049 121.662ZM229.316 98.4753L225.59 99.4373C213.775 102.482 201.648 104.15 189.449 104.407L188.716 104.423L190.333 103.333C190.569 103.181 190.757 102.964 190.875 102.709C190.992 102.454 191.034 102.17 190.996 101.892C190.943 101.557 190.772 101.252 190.514 101.032C190.256 100.812 189.928 100.691 189.589 100.692H159.533C159.301 100.692 159.073 100.748 158.868 100.856C158.663 100.964 158.488 101.121 158.357 101.312L157.588 102.438L157.47 102.435L112.81 101.183C110.799 101.181 108.865 100.409 107.404 99.0257C105.944 97.6423 105.069 95.7524 104.958 93.744L104.136 78.7533H110L113.926 89.017C114.037 89.3026 114.237 89.5447 114.497 89.7069C114.757 89.8692 115.063 89.9428 115.368 89.9169L153.486 86.1676L153.489 86.1723L183.507 83.497H183.535L205.909 81.5016C206.904 81.4101 207.907 81.5482 208.84 81.9055C209.773 82.2627 210.612 82.8294 211.292 83.5619L211.534 83.8213L203.995 85.9283C203.751 85.9916 203.527 86.1152 203.343 86.2876C203.138 86.4862 202.998 86.7416 202.939 87.0209C202.881 87.3001 202.908 87.5905 203.017 87.8543C203.655 89.4212 204.746 90.7624 206.15 91.7062C207.554 92.65 209.208 93.1537 210.9 93.153C211.548 93.1524 212.193 93.0792 212.825 92.9346L218.418 91.656L229.389 95C229.766 95.1141 230.095 95.3485 230.326 95.6672C230.558 95.9859 230.678 96.3715 230.67 96.7652C230.661 97.1589 230.524 97.539 230.28 97.8476C230.035 98.1562 229.696 98.3763 229.315 98.4743L229.316 98.4753ZM226.11 34.894V30.5196C226.118 30.1977 226.253 29.8921 226.486 29.6698C226.719 29.4474 227.03 29.3264 227.352 29.3333C227.679 29.3416 227.99 29.4751 228.221 29.7063C228.453 29.9375 228.586 30.2487 228.594 30.5756V34.894C228.594 35.2234 228.464 35.5394 228.231 35.7724C227.998 36.0054 227.682 36.1363 227.352 36.1363C227.023 36.1363 226.707 36.0054 226.474 35.7724C226.241 35.5394 226.11 35.2234 226.11 34.894ZM234.604 42.9563C232.65 41.0004 230.004 39.8938 227.24 39.8766C225.344 39.8844 223.485 40.3969 221.853 41.3613C220.686 42.083 219.662 43.0145 218.833 44.1086L218.703 44.2813L218.531 44.152C218.418 44.067 218.291 43.9683 218.164 43.8693C218.038 43.7703 217.914 43.6746 217.803 43.5913C215.106 41.7166 211.861 40.7919 208.581 40.9627C205.3 41.1334 202.17 42.39 199.681 44.5346C197.298 46.6094 195.617 49.3727 194.87 52.4433L194.835 52.589L194.686 52.6063C192.092 52.9181 189.716 54.2078 188.041 56.2121C186.367 58.2165 185.52 60.7844 185.674 63.3917C185.829 65.9991 186.972 68.4493 188.871 70.2422C190.771 72.0352 193.283 73.0357 195.894 73.0396H224.1C225.645 73.0365 227.175 72.7287 228.601 72.1339C230.028 71.539 231.323 70.6688 232.413 69.573C233.5 68.4901 234.362 67.2023 234.948 65.7841C235.535 64.366 235.834 62.8455 235.828 61.3109C235.846 59.9587 235.604 58.6156 235.115 57.3546L235.065 57.2319L235.152 57.132C235.871 56.3223 236.446 55.3952 236.852 54.3909L236.855 54.3829C237.666 52.4719 237.884 50.3618 237.483 48.3253C237.081 46.2887 236.078 44.4193 234.604 42.9586V42.9563ZM230.533 68.079C229.675 68.9395 228.654 69.6212 227.531 70.0847C226.407 70.5481 225.203 70.7841 223.988 70.7789H195.983C193.908 70.5987 191.96 69.7048 190.47 68.2493C189.01 66.7972 188.181 64.828 188.164 62.769C188.162 61.7469 188.365 60.7347 188.762 59.7928C189.158 58.8508 189.74 57.9982 190.473 57.2856C191.924 55.8272 193.892 54.9997 195.95 54.9823C196.143 54.9863 196.333 54.9404 196.503 54.849C196.642 54.7598 196.761 54.6419 196.851 54.5031C196.942 54.3643 197.001 54.2079 197.026 54.0443C197.476 51.1174 198.953 48.4462 201.193 46.5093C203.287 44.7282 205.911 43.6896 208.657 43.5551C211.402 43.4207 214.115 44.198 216.373 45.7659C218.008 46.8911 219.341 48.401 220.255 50.1626L220.371 50.3866L220.132 50.4663C219.834 50.5576 219.547 50.6828 219.277 50.8393L219.254 50.8513C217.737 51.5245 216.385 52.5199 215.292 53.7683C215.077 54.008 214.966 54.3233 214.983 54.6448C215.001 54.9663 215.145 55.2677 215.385 55.4826C215.625 55.6976 215.94 55.8085 216.262 55.791C216.583 55.7735 216.884 55.629 217.099 55.3893C217.936 54.4494 218.955 53.6901 220.095 53.158C221.236 52.6259 222.472 52.3321 223.73 52.2946C224.987 52.2572 226.24 52.4769 227.409 52.9402C228.579 53.4035 229.642 54.1008 230.533 54.9893C232.261 56.7293 233.231 59.0825 233.231 61.5351C233.231 63.9878 232.261 66.3409 230.533 68.0809L230.533 68.079ZM234.674 53.3713V53.3743C234.506 53.7666 234.315 54.1485 234.102 54.518L233.933 54.8136L233.738 54.5349C233.36 54.0037 232.936 53.5067 232.471 53.0496C231.389 51.9628 230.102 51.1014 228.684 50.5154C227.266 49.9294 225.747 49.6304 224.213 49.6356C223.869 49.6264 223.524 49.6441 223.183 49.6886L223.016 49.7163L222.949 49.5619C222.385 48.3181 221.64 47.1644 220.739 46.138L220.636 46.0159L220.723 45.8826C221.367 44.9098 222.211 44.0851 223.198 43.4633C224.448 42.6986 225.887 42.2981 227.353 42.307C228.4 42.2965 229.439 42.4951 230.409 42.8912C231.379 43.2872 232.26 43.8728 233.001 44.6136C233.741 45.3544 234.327 46.2356 234.723 47.2054C235.119 48.1753 235.317 49.2144 235.307 50.262C235.301 51.3299 235.086 52.3864 234.673 53.3713H234.674Z" fill="white"/>
</svg>
