<svg width="227" height="186" viewBox="0 0 227 186" fill="none" xmlns="http://www.w3.org/2000/svg">
<path d="M127.953 175.593C175.107 175.593 213.333 137.354 213.333 90.1833C213.333 43.0127 175.107 4.77332 127.953 4.77332C80.7989 4.77332 42.573 43.0127 42.573 90.1833C42.573 137.354 80.7989 175.593 127.953 175.593Z" fill="#DA2E3D"/>
<path d="M134.938 84.3277C134.938 85.4029 135.256 86.454 135.854 87.3481C136.451 88.2422 137.3 88.9391 138.293 89.3507C139.287 89.7622 140.38 89.87 141.434 89.6603C142.489 89.4506 143.458 88.9329 144.218 88.1726C144.978 87.4124 145.496 86.4437 145.706 85.3892C145.916 84.3346 145.808 83.2415 145.397 82.2481C144.985 81.2547 144.289 80.4056 143.395 79.8082C142.501 79.2109 141.449 78.892 140.374 78.892C138.933 78.8935 137.551 79.4666 136.532 80.4857C135.513 81.5047 134.94 82.8864 134.938 84.3277ZM142.771 84.3277C142.771 84.8019 142.631 85.2655 142.367 85.6598C142.104 86.0542 141.729 86.3615 141.291 86.5431C140.853 86.7246 140.371 86.7721 139.906 86.6797C139.441 86.5872 139.014 86.3588 138.678 86.0235C138.343 85.6882 138.115 85.261 138.022 84.7959C137.929 84.3308 137.977 83.8487 138.158 83.4105C138.34 82.9724 138.647 82.5979 139.041 82.3344C139.436 82.071 139.899 81.9304 140.374 81.9304C141.009 81.9308 141.619 82.1834 142.068 82.6328C142.518 83.0822 142.771 83.6916 142.772 84.3273L142.771 84.3277ZM117.912 84.8777C117.911 85.9529 118.23 87.004 118.827 87.8981C119.425 88.7922 120.274 89.4891 121.267 89.9006C122.26 90.3122 123.353 90.42 124.408 90.2103C125.463 90.0007 126.431 89.483 127.192 88.7228C127.952 87.9625 128.47 86.9939 128.68 85.9394C128.89 84.8848 128.782 83.7917 128.371 82.7983C127.959 81.8049 127.262 80.9558 126.368 80.3584C125.475 79.761 124.423 79.4421 123.348 79.442C121.907 79.4436 120.525 80.0168 119.506 81.0358C118.487 82.0548 117.914 83.4365 117.912 84.8777H117.912ZM125.745 84.8777C125.745 85.3519 125.604 85.8155 125.341 86.2097C125.077 86.604 124.703 86.9114 124.265 87.0928C123.827 87.2743 123.345 87.3218 122.879 87.2293C122.414 87.1368 121.987 86.9084 121.652 86.5731C121.317 86.2378 121.088 85.8105 120.996 85.3454C120.903 84.8803 120.951 84.3982 121.132 83.9601C121.314 83.522 121.621 83.1475 122.015 82.8841C122.409 82.6206 122.873 82.48 123.347 82.48C123.983 82.4803 124.593 82.7329 125.043 83.1824C125.492 83.6318 125.746 84.2415 125.746 84.8773L125.745 84.8777ZM152.667 83.503C152.667 84.5782 152.986 85.6292 153.583 86.5232C154.181 87.4172 155.03 88.114 156.023 88.5255C157.016 88.937 158.109 89.0446 159.164 88.8349C160.219 88.6252 161.187 88.1075 161.948 87.3472C162.708 86.5869 163.226 85.6183 163.435 84.5638C163.645 83.5093 163.538 82.4162 163.126 81.4228C162.715 80.4295 162.018 79.5804 161.124 78.983C160.23 78.3856 159.179 78.0667 158.104 78.0667C156.662 78.0681 155.281 78.6413 154.261 79.6605C153.242 80.6797 152.669 82.0616 152.667 83.503ZM160.501 83.503C160.501 83.9772 160.36 84.4409 160.097 84.8353C159.833 85.2296 159.459 85.5371 159.021 85.7186C158.583 85.9002 158.101 85.9478 157.636 85.8554C157.17 85.7629 156.743 85.5346 156.408 85.1993C156.072 84.864 155.844 84.4368 155.751 83.9717C155.659 83.5066 155.706 83.0244 155.888 82.5863C156.069 82.1481 156.376 81.7736 156.771 81.5101C157.165 81.2467 157.629 81.106 158.103 81.106C158.738 81.1066 159.348 81.3594 159.797 81.8087C160.247 82.2581 160.5 82.8674 160.501 83.503ZM73.4736 121.5H1.89289C1.47951 121.5 1.08306 121.336 0.790751 121.043C0.498444 120.751 0.334229 120.355 0.334229 119.941C0.334229 119.528 0.498444 119.132 0.790751 118.839C1.08306 118.547 1.47951 118.383 1.89289 118.383H73.4736C73.8869 118.383 74.2834 118.547 74.5757 118.839C74.868 119.132 75.0322 119.528 75.0322 119.941C75.0322 120.355 74.868 120.751 74.5757 121.043C74.2834 121.336 73.8869 121.5 73.4736 121.5ZM222.513 163.07L198.196 138.758C196.644 137.204 194.725 136.068 192.617 135.456C190.508 134.844 188.279 134.776 186.137 135.258L185.687 135.358L170.614 120.288L170.894 119.912C170.965 119.817 171.014 119.749 171.041 119.712L171.071 119.672C185.424 100.236 183.353 72.688 166.252 55.5913C160.44 49.7773 153.265 45.5101 145.382 43.1783C137.498 40.8465 129.157 40.5243 121.117 42.2411C113.077 43.9579 105.595 47.6591 99.3512 53.0075C93.1078 58.3559 88.3019 65.1814 85.3712 72.8623L88.8652 72.518C92.0984 64.8175 97.3599 58.1383 104.089 53.1918C110.819 48.2454 118.764 45.2171 127.078 44.4294C135.393 43.6418 143.765 45.1244 151.304 48.7192C158.842 52.314 165.264 57.8864 169.886 64.8428C174.507 71.7992 177.155 79.8791 177.548 88.2215C177.94 96.564 176.062 104.857 172.114 112.216C168.165 119.576 162.295 125.726 155.127 130.013C147.959 134.299 139.763 136.561 131.411 136.557H131.407C121.184 136.57 111.248 133.183 103.161 126.93C95.074 120.677 89.296 111.912 86.7362 102.015L83.5029 101.925C85.4087 109.827 89.2389 117.136 94.6524 123.201C100.066 129.265 106.895 133.897 114.532 136.684C122.168 139.471 130.375 140.327 138.423 139.175C146.47 138.024 154.107 134.9 160.656 130.083C160.704 130.049 160.745 130.016 160.786 129.987L161.275 129.628L176.339 144.689L176.239 145.138C176.032 146.071 175.927 147.024 175.926 147.98C175.922 149.693 176.257 151.39 176.913 152.973C177.569 154.555 178.533 155.992 179.748 157.2L204.065 181.512C205.274 182.733 206.712 183.703 208.297 184.367C209.882 185.03 211.582 185.374 213.301 185.379C215.019 185.383 216.721 185.048 218.31 184.393C219.898 183.737 221.341 182.774 222.556 181.56C223.772 180.345 224.735 178.902 225.391 177.313C226.046 175.725 226.382 174.023 226.378 172.305C226.374 170.586 226.03 168.886 225.367 167.301C224.704 165.716 223.734 164.277 222.513 163.068V163.07ZM177.617 141.473L163.756 127.615L164.397 127.027C164.932 126.545 165.471 126.034 166.045 125.467C166.773 124.741 167.501 123.972 168.205 123.182L168.587 122.754L182.467 136.633L181.628 137.204C180.276 138.123 179.109 139.287 178.189 140.638L177.617 141.473ZM220.266 179.267C218.415 181.117 215.906 182.156 213.289 182.156C210.672 182.156 208.163 181.117 206.312 179.267L181.995 154.955C180.198 153.094 179.203 150.601 179.226 148.014C179.248 145.427 180.286 142.952 182.116 141.123C183.946 139.293 186.421 138.256 189.008 138.234C191.595 138.212 194.088 139.207 195.948 141.005L220.266 165.317C221.182 166.233 221.909 167.32 222.404 168.517C222.9 169.714 223.156 170.997 223.156 172.292C223.156 173.587 222.9 174.87 222.404 176.067C221.909 177.264 221.182 178.351 220.266 179.267V179.267ZM146.19 54.177C144.541 54.178 142.909 53.8519 141.387 53.2178C139.865 52.5837 138.484 51.654 137.324 50.4827C136.535 49.6952 135.855 48.8069 135.299 47.841C136.506 47.9493 137.712 48.1077 138.899 48.317C139.013 48.443 139.118 48.5533 139.221 48.6573C141.127 50.52 143.62 51.6644 146.275 51.8957L150.011 51.8987C151.422 52.5818 152.794 53.3425 154.121 54.1773L146.19 54.177ZM91.4769 141.829C91.0113 141.817 90.5455 141.839 90.0829 141.893L89.6829 141.95L89.5146 141.581C87.8594 137.982 85.1196 134.992 81.6791 133.028C78.2386 131.065 74.27 130.227 70.3295 130.633C66.3891 131.038 62.6743 132.667 59.7059 135.29C56.7375 137.913 54.6643 141.399 53.7769 145.26L53.6899 145.633L53.3089 145.675C50.8739 145.943 48.5643 146.894 46.6472 148.419C44.7301 149.944 43.2838 151.981 42.4754 154.293C41.667 156.606 41.5296 159.1 42.079 161.487C42.6284 163.875 43.8423 166.058 45.5802 167.784C48.0401 170.194 51.3459 171.544 54.7892 171.545H91.4769C95.423 171.542 99.2097 169.988 102.021 167.219C103.401 165.836 104.494 164.193 105.235 162.385C105.976 160.577 106.351 158.64 106.339 156.686C106.335 152.74 104.781 148.954 102.011 146.144C100.628 144.764 98.9843 143.673 97.1761 142.932C95.368 142.191 93.4309 141.816 91.4769 141.829ZM99.9822 165.331C98.8389 166.475 97.48 167.382 95.9841 167.998C94.4882 168.614 92.885 168.927 91.2672 168.919H54.7876C52.0151 168.894 49.3635 167.781 47.4028 165.821C45.4422 163.861 44.3291 161.209 44.3029 158.437C44.3234 155.701 45.4071 153.081 47.3249 151.131C48.2904 150.15 49.441 149.37 50.7099 148.837C51.9789 148.303 53.3411 148.027 54.7176 148.024C54.882 148.029 55.0445 147.988 55.1869 147.905L55.3236 147.814H55.3786C55.6135 147.617 55.7612 147.335 55.7899 147.029C56.3635 143.124 58.3476 139.565 61.3672 137.023C64.3541 134.469 68.151 133.059 72.0809 133.044C75.0894 133.057 78.0381 133.886 80.6134 135.441C83.1887 136.997 85.2944 139.221 86.7066 141.877L86.9966 142.44L86.3966 142.64C86.2052 142.704 86.0099 142.785 85.8032 142.871C85.5966 142.957 85.3846 143.045 85.1662 143.12C83.2673 143.993 81.5726 145.254 80.1916 146.823C80.0816 146.944 79.9967 147.086 79.9418 147.24C79.8868 147.394 79.8628 147.558 79.8712 147.721C79.8796 147.885 79.9203 148.045 79.9908 148.193C80.0613 148.341 80.1603 148.473 80.2821 148.582C80.4039 148.692 80.5461 148.776 80.7005 148.83C80.855 148.884 81.0186 148.908 81.1821 148.898C81.3455 148.889 81.5055 148.848 81.6529 148.777C81.8003 148.705 81.9321 148.606 82.0409 148.483C83.1995 147.178 84.6203 146.132 86.2106 145.413C87.794 144.678 89.5205 144.302 91.2662 144.313C93.6996 144.316 96.0775 145.04 98.1001 146.393C100.123 147.746 101.699 149.667 102.632 151.915C103.564 154.163 103.81 156.636 103.338 159.023C102.866 161.41 101.698 163.605 99.9816 165.329L99.9822 165.331ZM24.4652 108.964C24.4658 108.551 24.6302 108.155 24.9225 107.862C25.2147 107.57 25.611 107.406 26.0242 107.405H69.4062C69.8196 107.405 70.2161 107.57 70.5084 107.862C70.8007 108.154 70.9649 108.551 70.9649 108.964C70.9649 109.377 70.8007 109.774 70.5084 110.066C70.2161 110.358 69.8196 110.523 69.4062 110.523H26.0242C25.6107 110.522 25.2143 110.358 24.922 110.065C24.6297 109.773 24.4654 109.376 24.4652 108.963V108.964ZM70.0726 98.1604H70.0879L124.48 99.684L116.401 111.517C116.374 111.551 116.347 111.584 116.322 111.62L109.565 121.506C109.433 121.69 109.343 121.9 109.3 122.122C109.256 122.343 109.261 122.572 109.314 122.792C109.4 123.117 109.591 123.405 109.857 123.611C110.123 123.817 110.45 123.93 110.787 123.931H127.48C127.782 123.931 128.078 123.841 128.329 123.672L160.04 102.298H162.238C165.605 102.298 169.086 102.206 172.592 102.026C172.876 101.01 173.125 99.9763 173.333 98.9403C170.964 99.0737 168.637 99.1647 166.406 99.2117L164.563 99.2503L167.36 97.3653C167.614 97.203 167.816 96.9715 167.943 96.6981C168.07 96.4247 168.117 96.1208 168.077 95.822C168.02 95.465 167.838 95.1399 167.563 94.9053C167.288 94.6707 166.938 94.542 166.577 94.5424H128.797C128.549 94.5423 128.306 94.6026 128.087 94.7179C127.869 94.8333 127.682 95.0003 127.542 95.2043L126.492 96.7407L126.196 96.7324L70.0572 95.1573C67.4611 95.1537 64.9647 94.1566 63.0804 92.3708C61.1961 90.5849 60.0667 88.1456 59.9239 85.5533L58.8739 66.43H66.7169L71.7189 79.5C71.837 79.8043 72.0504 80.0622 72.3273 80.2351C72.6042 80.408 72.9296 80.4865 73.2549 80.459L121.324 75.7333L121.329 75.7403L158.916 72.3917H158.959L169.75 71.4297C169.262 70.449 168.729 69.4747 168.158 68.5217L148.989 70.227L148.829 70.1197L128.329 56.303C128.078 56.1336 127.782 56.0433 127.48 56.0437H110.845C110.619 56.0386 110.394 56.0823 110.187 56.1715C109.979 56.2608 109.793 56.3936 109.642 56.561C109.421 56.8152 109.29 57.1352 109.27 57.4714C109.25 57.8076 109.341 58.1409 109.53 58.4197L119.401 72.8617H119.383L119.414 72.908L74.1192 77.374L69.1526 64.3933C69.0433 64.1098 68.8509 63.8658 68.6007 63.6934C68.3505 63.5209 68.0541 63.428 67.7502 63.4267H57.3069C57.1011 63.4233 56.8969 63.4624 56.7069 63.5416C56.517 63.6208 56.3454 63.7384 56.203 63.887C56.0606 64.0355 55.9504 64.2119 55.8793 64.405C55.8082 64.5982 55.7778 64.8039 55.7899 65.0093L56.9269 85.716C57.1125 89.0772 58.5783 92.2398 61.0231 94.5539C63.468 96.868 66.7062 98.1579 70.0726 98.1587V98.1604ZM129.599 97.5787H161.604L127.014 120.89H113.664L117.249 115.65C117.283 115.61 117.315 115.568 117.345 115.524L129.599 97.5787ZM113.665 59.0837H127.017L144.188 70.6573L122.873 72.5573L113.665 59.0837ZM198.78 38.1437C198.676 38.0406 198.593 37.9179 198.536 37.7826C198.48 37.6473 198.451 37.5022 198.451 37.3555C198.451 37.2089 198.48 37.0637 198.536 36.9284C198.593 36.7931 198.676 36.6704 198.78 36.5673C198.992 36.3627 199.274 36.2482 199.569 36.2482C199.863 36.2482 200.146 36.3627 200.357 36.5673L203.938 40.1473C204.139 40.3579 204.251 40.6391 204.248 40.9308C204.245 41.2224 204.127 41.5012 203.921 41.7074C203.715 41.9137 203.436 42.0308 203.144 42.0339C202.853 42.0369 202.571 41.9256 202.361 41.7237L198.78 38.1437ZM198.78 12.825C198.676 12.722 198.593 12.5992 198.536 12.464C198.48 12.3287 198.451 12.1835 198.451 12.0368C198.451 11.8902 198.48 11.745 198.536 11.6097C198.593 11.4744 198.676 11.3517 198.78 11.2487L202.359 7.66667C202.462 7.55955 202.585 7.474 202.721 7.41504C202.857 7.35608 203.004 7.3249 203.152 7.32333C203.301 7.32175 203.448 7.34981 203.585 7.40587C203.723 7.46192 203.848 7.54484 203.952 7.64976C204.057 7.75468 204.14 7.8795 204.196 8.01689C204.253 8.15428 204.281 8.30147 204.279 8.44986C204.278 8.59825 204.246 8.74484 204.187 8.88103C204.129 9.01723 204.043 9.14029 203.936 9.243L200.355 12.823C200.144 13.0277 199.861 13.1422 199.567 13.1423C199.273 13.1424 198.99 13.0282 198.779 12.8237L198.78 12.825ZM204.842 23.5783H209.854C210.006 23.5767 210.156 23.6053 210.296 23.6625C210.437 23.7198 210.564 23.8044 210.671 23.9116C210.778 24.0187 210.863 24.1462 210.92 24.2865C210.978 24.4268 211.006 24.5771 211.005 24.7287C210.997 25.0313 210.873 25.3194 210.659 25.5335C210.445 25.7475 210.157 25.8711 209.854 25.8787H204.84C204.689 25.8787 204.54 25.8489 204.4 25.7911C204.261 25.7333 204.134 25.6486 204.027 25.5418C203.92 25.435 203.836 25.3083 203.778 25.1688C203.72 25.0292 203.69 24.8797 203.69 24.7287C203.69 24.5776 203.72 24.4281 203.778 24.2886C203.836 24.1491 203.92 24.0223 204.027 23.9155C204.134 23.8087 204.261 23.724 204.4 23.6662C204.54 23.6084 204.689 23.5787 204.84 23.5787L204.842 23.5783ZM185.787 6.82833V1.75167C185.797 1.45547 185.923 1.17502 186.138 0.971681C186.354 0.768344 186.641 0.658676 186.938 0.666668C187.24 0.674268 187.528 0.797901 187.743 1.012C187.957 1.22611 188.08 1.5143 188.088 1.817V6.82867C188.081 7.12887 187.956 7.41435 187.741 7.62412C187.527 7.83388 187.238 7.95132 186.938 7.95132C186.638 7.95132 186.349 7.83388 186.134 7.62412C185.919 7.41435 185.795 7.12887 185.788 6.82867L185.787 6.82833ZM169.874 9.24366C169.77 9.14061 169.687 9.01789 169.63 8.88259C169.574 8.7473 169.545 8.60212 169.545 8.4555C169.545 8.30887 169.574 8.16371 169.63 8.02841C169.687 7.89312 169.77 7.77039 169.874 7.66734C170.091 7.45469 170.383 7.33631 170.686 7.338H170.718C170.851 7.33788 170.984 7.36514 171.106 7.41811C171.229 7.47109 171.34 7.54864 171.431 7.646L175.031 11.246C175.136 11.349 175.218 11.4718 175.275 11.6071C175.331 11.7424 175.361 11.8875 175.361 12.0342C175.361 12.1808 175.331 12.326 175.275 12.4613C175.218 12.5966 175.136 12.7193 175.031 12.8223C174.82 13.0269 174.537 13.1413 174.243 13.1413C173.949 13.1413 173.666 13.0269 173.455 12.8223L169.874 9.24366ZM139.224 34.575C141.089 32.7022 143.617 31.6396 146.261 31.6173C146.526 31.6325 146.787 31.543 146.988 31.3682C147.188 31.1933 147.313 30.9469 147.334 30.6817C147.744 28.0368 148.82 25.5398 150.462 23.4256C152.103 21.3115 154.255 19.6497 156.716 18.5968C159.177 17.5439 161.865 17.1344 164.527 17.4068C167.19 17.6793 169.74 18.6248 171.936 20.1543C174.015 21.5851 175.711 23.5053 176.874 25.7457L177.164 26.3083L176.564 26.5083C176.211 26.6162 175.871 26.7642 175.551 26.9493L175.492 26.98C173.632 27.8043 171.975 29.0236 170.635 30.5533C170.415 30.7987 170.301 31.1217 170.318 31.4512C170.336 31.7807 170.483 32.0897 170.729 32.3103C170.974 32.531 171.297 32.6451 171.626 32.6275C171.956 32.61 172.265 32.4624 172.486 32.217C173.556 31.0149 174.86 30.0439 176.318 29.3634C177.777 28.6829 179.359 28.3072 180.968 28.2594C182.576 28.2116 184.178 28.4926 185.674 29.0852C187.171 29.6778 188.53 30.5696 189.67 31.706C191.328 33.3595 192.457 35.468 192.915 37.7643C193.373 40.0606 193.139 42.4412 192.242 44.6041C191.345 46.7671 189.826 48.615 187.878 49.9135C185.93 51.2121 183.639 51.9028 181.298 51.898H167.304C167.771 52.3313 168.221 52.7647 168.649 53.193C168.967 53.511 169.289 53.8414 169.607 54.1767H181.438C183.333 54.1726 185.209 53.7952 186.958 53.0659C188.707 52.3367 190.295 51.27 191.631 49.9267C192.965 48.5993 194.022 47.0204 194.742 45.2815C195.461 43.5426 195.828 41.6782 195.822 39.7963C195.844 38.1425 195.548 36.4998 194.951 34.9573L194.825 34.6487L195.043 34.397C195.922 33.4092 196.624 32.2779 197.12 31.0523C197.79 29.4747 198.135 27.7783 198.134 26.0643C198.138 24.3895 197.807 22.7309 197.161 21.1855C196.515 19.6401 195.568 18.239 194.374 17.0643C191.984 14.6703 188.745 13.3156 185.362 13.2943C183.042 13.3039 180.766 13.931 178.769 15.1113C177.341 15.9943 176.088 17.1337 175.074 18.472L174.749 18.9053L174.316 18.58C174.173 18.4733 174.013 18.3487 173.853 18.224C173.698 18.1033 173.542 17.9827 173.405 17.8793C170.083 15.5748 166.091 14.439 162.054 14.6501C158.017 14.8613 154.164 16.4076 151.102 19.046C148.165 21.6006 146.095 25.0036 145.175 28.7853L145.085 29.152L144.711 29.1953C141.916 29.5064 139.31 30.7615 137.324 32.7533C135.887 34.1831 134.815 35.9381 134.2 37.8697C135.104 37.9167 136.012 37.9867 136.91 38.079C137.415 36.7554 138.205 35.559 139.224 34.575ZM176.99 20.375C177.816 19.1272 178.898 18.0694 180.164 17.272L180.173 17.266C182.138 16.0832 184.439 15.5866 186.717 15.8543C188.994 16.1219 191.118 17.1386 192.755 18.7447C194.658 20.6769 195.722 23.2817 195.717 25.9937C195.71 27.3639 195.435 28.7196 194.905 29.9833C194.691 30.4855 194.447 30.9743 194.174 31.447L193.749 32.1897L193.259 31.4897C192.796 30.839 192.277 30.2302 191.708 29.6703C190.38 28.3378 188.801 27.2819 187.063 26.5635C185.325 25.8451 183.461 25.4787 181.58 25.4853C181.165 25.4741 180.749 25.4951 180.338 25.548L179.92 25.6177L179.751 25.2297C179.056 23.6999 178.139 22.281 177.031 21.0187L176.772 20.7117L176.99 20.375ZM197.507 72.0443C196.361 70.2896 194.758 68.88 192.872 67.9665C190.986 67.0529 188.886 66.67 186.799 66.8587L178.842 67.5667C179.309 68.5357 179.745 69.5183 180.146 70.5L187.067 69.8827C188.359 69.7642 189.661 69.9437 190.872 70.4073C192.084 70.8709 193.173 71.6064 194.056 72.557L194.665 73.209L184.758 75.9757C184.496 76.0429 184.255 76.175 184.057 76.3597C183.838 76.5715 183.687 76.8442 183.625 77.1423C183.563 77.4405 183.591 77.7505 183.707 78.0323C184.489 79.9525 185.826 81.5958 187.547 82.7522C189.267 83.9087 191.294 84.5257 193.367 84.5243C194.161 84.5239 194.953 84.4345 195.727 84.2577L202.827 82.635L216.686 86.8587C217.216 87.0194 217.679 87.3491 218.004 87.7975C218.329 88.2459 218.499 88.7884 218.487 89.3422C218.475 89.896 218.282 90.4308 217.938 90.8648C217.594 91.2989 217.117 91.6085 216.581 91.7463L211.898 92.9554C202.564 95.3585 193.068 97.0817 183.485 98.1113C183.332 99.1527 183.147 100.196 182.932 101.226C192.959 100.191 202.895 98.4098 212.656 95.8964L217.34 94.6873C218.517 94.3836 219.562 93.7036 220.317 92.7507C221.072 91.7979 221.495 90.6244 221.521 89.409C221.548 88.1937 221.176 87.003 220.464 86.0182C219.751 85.0335 218.736 84.3086 217.573 83.954L202.247 79.283L197.507 72.0443ZM195.05 81.2953C193.769 81.588 192.433 81.5363 191.178 81.1455C189.923 80.7547 188.794 80.0387 187.905 79.0703L187.311 78.42L196.39 75.8834L199.299 80.324L195.05 81.2953Z" fill="white"/>
</svg>
