<svg width="212" height="173" viewBox="0 0 212 173" fill="none" xmlns="http://www.w3.org/2000/svg">
<path d="M109.953 172.593C157.107 172.593 195.333 134.354 195.333 87.1833C195.333 40.0127 157.107 1.77332 109.953 1.77332C62.7989 1.77332 24.573 40.0127 24.573 87.1833C24.573 134.354 62.7989 172.593 109.953 172.593Z" fill="#DA2E3D"/>
<path d="M136.705 90.7567H139.25V135.785H136.705V90.7567ZM27.6701 135.102C27.8829 135.102 28.091 135.039 28.268 134.921C28.4449 134.803 28.5828 134.634 28.6642 134.438C28.7457 134.241 28.7669 134.025 28.7254 133.816C28.6838 133.607 28.5813 133.415 28.4307 133.265C28.2802 133.114 28.0884 133.012 27.8796 132.97C27.6708 132.929 27.4544 132.95 27.2578 133.032C27.0611 133.113 26.893 133.251 26.7748 133.428C26.6565 133.605 26.5934 133.813 26.5934 134.026C26.5938 134.311 26.7073 134.585 26.9092 134.787C27.111 134.989 27.3847 135.102 27.6701 135.102ZM32.2997 136.953C32.5852 136.953 32.8588 136.84 33.0607 136.638C33.2625 136.436 33.3761 136.162 33.3764 135.877C33.3754 135.641 33.2953 135.411 33.1491 135.226L32.9067 134.911L32.5324 134.828C32.3849 134.795 32.2321 134.794 32.084 134.824C31.9359 134.854 31.7959 134.915 31.673 135.003C31.5501 135.091 31.4471 135.204 31.3708 135.335C31.2944 135.465 31.2465 135.61 31.23 135.76C31.2135 135.911 31.2288 136.063 31.275 136.207C31.3212 136.35 31.3973 136.483 31.4981 136.595C31.599 136.708 31.7225 136.798 31.8605 136.86C31.9985 136.921 32.1479 136.953 32.2991 136.953L32.2997 136.953ZM58.3774 145.465C58.3745 146.673 58.0012 147.851 57.3078 148.84C56.6145 149.829 55.6345 150.581 54.5001 150.996C49.7401 152.729 44.713 153.615 39.6471 153.612H3.59541C2.81913 153.611 2.07483 153.303 1.52579 152.754C0.976747 152.205 0.667807 151.461 0.666748 150.685V149.978C0.669963 148.56 0.97685 147.16 1.56675 145.871L1.59408 145.811V143.482C1.58949 139.539 2.3909 135.637 3.94908 132.015C4.19707 131.439 4.61722 130.954 5.15195 130.625C5.68667 130.297 6.3098 130.142 6.93595 130.182C7.5621 130.222 8.16064 130.454 8.64952 130.848C9.1384 131.241 9.4937 131.776 9.66675 132.379L10.1584 134.098C10.3327 134.707 10.6677 135.257 11.1282 135.692C11.5888 136.126 12.1578 136.428 12.7756 136.567C13.3934 136.705 14.037 136.674 14.6388 136.478C15.2406 136.281 15.7783 135.926 16.1954 135.45L18.2144 133.144L17.4944 130.987C17.3884 130.665 17.334 130.327 17.3334 129.987V129.631C17.3335 129.044 17.4971 128.469 17.8057 127.97C18.1143 127.471 18.5557 127.068 19.0806 126.805C19.6055 126.543 20.1931 126.432 20.7775 126.485C21.3619 126.538 21.9201 126.752 22.3894 127.104L25.3011 129.287L25.4144 129.278C25.5988 129.263 25.8184 129.249 26.0478 129.249C27.917 129.248 29.747 129.785 31.3191 130.796L36.2704 133.978C40.0232 136.394 44.2214 138.036 48.6181 138.807L53.5111 139.67C54.8748 139.908 56.1107 140.62 57.0009 141.68C57.8912 142.74 58.3786 144.08 58.3774 145.465V145.465ZM44.2851 141.87C42.3291 142.65 40.1602 142.714 38.1617 142.05L36.6284 141.538L32.9667 147.393L33.4377 147.45C35.2114 147.663 36.9964 147.765 38.7827 147.757C45.1707 147.757 52.7924 145.491 55.7727 144.515L56.0747 144.415L55.9604 144.118C55.7291 143.521 55.3481 142.992 54.854 142.584C54.3598 142.176 53.7691 141.901 53.1384 141.787L48.2451 140.924C47.9651 140.875 47.6877 140.816 47.4117 140.757L47.1851 140.709L44.2851 141.87ZM27.4394 146.493L27.9061 146.566C28.5884 146.674 29.2324 146.785 29.8021 146.884C30.0204 146.923 30.2374 146.961 30.4541 146.998L30.6541 147.031L34.5281 140.837L31.8164 139.933L27.4394 146.493ZM29.6961 139.229L27.0397 138.344L22.1828 145.972L22.6974 146.001C23.4641 146.043 24.1954 146.101 24.8747 146.168L25.0554 146.186L29.6961 139.229ZM23.3977 131.883L23.5114 132.178C23.882 133.152 24.4643 134.031 25.2162 134.753C25.9682 135.474 26.871 136.019 27.8594 136.349L38.8411 140.007C40.1283 140.437 41.5154 140.469 42.8208 140.097L43.7487 139.834L42.8361 139.522C40.1187 138.593 37.5233 137.339 35.1061 135.788L30.1551 132.606C29.2088 131.995 28.1375 131.604 27.0201 131.462C25.9027 131.32 24.7676 131.43 23.6984 131.785L23.3977 131.883ZM19.4871 129.986C19.4868 130.095 19.5041 130.203 19.5381 130.306L19.9121 131.426L20.2454 131.177C20.8104 130.756 21.4195 130.398 22.0621 130.108L22.5287 129.899L21.0954 128.825C20.9459 128.713 20.7682 128.645 20.5822 128.628C20.3961 128.611 20.2091 128.647 20.042 128.73C19.875 128.814 19.7345 128.942 19.6363 129.101C19.5381 129.26 19.4861 129.443 19.4861 129.63L19.4871 129.986ZM3.74608 145.096L4.01675 145.124C6.83708 145.416 12.5781 145.907 19.3364 145.907L19.6698 145.911L25.1001 137.381L24.8614 137.214C23.4419 136.234 22.3253 134.875 21.6381 133.292L21.4781 132.923L21.1684 133.181C20.8697 133.429 20.5911 133.7 20.3351 133.991L17.8181 136.865C17.1461 137.633 16.2796 138.205 15.3099 138.522C14.3401 138.839 13.3029 138.889 12.3073 138.666C11.3117 138.443 10.3946 137.956 9.6524 137.256C8.91022 136.556 8.37041 135.669 8.08975 134.688L7.59808 132.969C7.54768 132.792 7.44394 132.636 7.30111 132.521C7.15828 132.406 6.98335 132.338 6.80036 132.327C6.61737 132.315 6.43529 132.36 6.2791 132.456C6.12292 132.553 6.0003 132.695 5.92808 132.863C4.48549 136.217 3.74352 139.83 3.74775 143.48L3.74608 145.096ZM56.0928 146.683L55.3487 146.916C51.7677 148.035 44.8538 149.911 38.7821 149.911C35.6436 149.912 32.5124 149.608 29.4324 149.005C26.1061 148.362 22.7249 148.046 19.3371 148.06C14.0741 148.052 8.81494 147.78 3.57942 147.243L3.34208 147.218L3.26275 147.443C2.97258 148.257 2.82301 149.115 2.82041 149.979V150.686C2.82077 150.891 2.90259 151.088 3.04793 151.233C3.19328 151.379 3.39029 151.46 3.59575 151.46H39.6481C44.463 151.463 49.2411 150.622 53.7657 148.975C54.5789 148.677 55.2625 148.104 55.6991 147.356L56.0928 146.683ZM75.0218 139.083C75.0189 140.29 74.6457 141.468 73.9526 142.457C73.2594 143.446 72.2797 144.199 71.1454 144.613C68.0036 145.757 64.7403 146.533 61.4204 146.928C61.5024 146.445 61.5441 145.956 61.5451 145.466C61.5451 145.24 61.5344 145.002 61.5117 144.746C64.5483 144.359 67.5326 143.637 70.4098 142.592C71.2229 142.294 71.9066 141.721 72.3431 140.973L72.7364 140.3L71.9924 140.534C68.4702 141.647 64.8688 142.491 61.2191 143.06C61.2046 143.004 61.1894 142.948 61.1734 142.893L61.1268 142.74C60.9365 142.135 60.6826 141.552 60.3694 141C64.4579 140.381 68.4875 139.421 72.4161 138.131L72.7181 138.031L72.6041 137.734C72.3728 137.137 71.9918 136.608 71.4976 136.2C71.0035 135.792 70.4128 135.517 69.7821 135.403L64.8891 134.54C64.6091 134.491 64.3317 134.432 64.0557 134.373L63.8291 134.325L60.9314 135.484C58.9754 136.264 56.8065 136.328 54.8081 135.664L53.2747 135.152L52.5674 136.284L50.2808 135.88L51.1741 134.452L48.4624 133.548L47.2987 135.292C46.5597 135.114 45.8284 134.91 45.1181 134.681L46.3441 132.843L43.6877 131.958L42.5604 133.728C41.9004 133.448 41.2407 133.139 40.5938 132.807L41.7478 130.995L41.5091 130.828C40.0895 129.848 38.973 128.489 38.2857 126.906L38.1258 126.537L37.8161 126.795C37.5174 127.043 37.2387 127.314 36.9827 127.605L35.2697 129.561L33.4388 128.385L34.8644 126.757L34.1444 124.6C34.0384 124.277 33.984 123.94 33.9834 123.6V123.247C33.9837 122.66 34.1473 122.085 34.4559 121.586C34.7645 121.087 35.206 120.684 35.7308 120.421C36.2557 120.159 36.8432 120.048 37.4275 120.101C38.0119 120.154 38.57 120.368 39.0394 120.72L41.9507 122.902L42.0644 122.893C42.2487 122.879 42.4684 122.864 42.6977 122.864C44.567 122.863 46.397 123.4 47.9691 124.412L52.9204 127.593C56.6732 130.01 60.8712 131.652 65.2678 132.422L70.1608 133.285C71.5238 133.525 72.7587 134.237 73.648 135.297C74.5373 136.358 75.0239 137.698 75.0221 139.082L75.0218 139.083ZM39.1744 123.516L37.7411 122.442C37.5916 122.33 37.4139 122.262 37.2278 122.245C37.0418 122.229 36.8548 122.264 36.6877 122.348C36.5206 122.431 36.3801 122.56 36.282 122.719C36.1838 122.878 36.1317 123.061 36.1317 123.247V123.604C36.1315 123.712 36.1487 123.821 36.1828 123.924L36.5568 125.044L36.8901 124.795C37.4551 124.374 38.0642 124.015 38.7067 123.726L39.1744 123.516ZM60.3934 133.451L59.4807 133.139C56.7634 132.21 54.168 130.956 51.7508 129.406L50.8271 128.812L46.8001 126.222C45.8538 125.611 44.7825 125.22 43.6651 125.078C42.5477 124.936 41.4126 125.046 40.3434 125.4L40.0434 125.5L40.1571 125.796C40.5275 126.77 41.1096 127.649 41.8614 128.37C42.6132 129.092 43.5158 129.637 44.5041 129.967L55.4857 133.625C56.7729 134.056 58.1601 134.087 59.4654 133.715L60.3934 133.451ZM87.1231 121.993C88.1295 121.984 89.1278 122.174 90.0605 122.553C90.9932 122.931 91.842 123.49 92.5579 124.197C93.2739 124.905 93.8429 125.746 94.2323 126.675C94.6217 127.603 94.8238 128.599 94.8269 129.605C94.83 130.612 94.6342 131.609 94.2505 132.539C93.8669 133.47 93.3031 134.315 92.5915 135.027C91.88 135.739 91.0347 136.303 90.1043 136.687C89.174 137.071 88.1769 137.267 87.1704 137.264H87.1468C85.1302 137.255 83.1993 136.447 81.7758 135.019C80.3522 133.591 79.5514 131.657 79.5483 129.641C79.5452 127.624 80.3399 125.688 81.7591 124.255C83.1782 122.823 85.1065 122.009 87.1231 121.993ZM87.1728 125.033C86.566 125.03 85.9646 125.146 85.4028 125.375C84.841 125.604 84.3298 125.941 83.8984 126.368C83.467 126.795 83.1239 127.302 82.8886 127.861C82.6533 128.421 82.5304 129.021 82.5271 129.627C82.5237 130.234 82.6399 130.836 82.8689 131.397C83.098 131.959 83.4355 132.47 83.8621 132.902C84.2887 133.333 84.7961 133.676 85.3554 133.912C85.9146 134.147 86.5147 134.27 87.1214 134.273L87.4247 134.25V134.241C88.5957 134.171 89.6962 133.658 90.503 132.806C91.3098 131.954 91.7625 130.828 91.7694 129.655C91.7663 128.434 91.2818 127.264 90.4212 126.399C89.5606 125.534 88.3934 125.043 87.1731 125.033L87.1728 125.033ZM81.5001 12.5374H92.8447C93.2447 12.5374 93.6282 12.3786 93.9109 12.0958C94.1937 11.813 94.3526 11.4295 94.3526 11.0296C94.3526 10.6297 94.1937 10.2461 93.9109 9.96337C93.6282 9.6806 93.2447 9.52174 92.8447 9.52174H81.5001C81.1002 9.52174 80.7167 9.6806 80.4339 9.96337C80.1511 10.2461 79.9922 10.6297 79.9922 11.0296C79.9922 11.4295 80.1511 11.813 80.4339 12.0958C80.7167 12.3786 81.1002 12.5374 81.5001 12.5374ZM208.59 145.318L208.308 145.526L208.557 145.774C209.233 146.447 209.712 147.294 209.939 148.221C210.167 149.148 210.136 150.12 209.849 151.03C209.562 151.94 209.03 152.754 208.311 153.383C207.593 154.011 206.715 154.43 205.775 154.594C204.834 154.757 203.867 154.659 202.979 154.31C202.09 153.961 201.315 153.374 200.737 152.614C200.16 151.854 199.802 150.95 199.704 150.001C199.605 149.051 199.77 148.093 200.179 147.23L200.384 146.799H165.304L165.509 147.231C165.842 147.927 166.014 148.689 166.013 149.461C166.013 150.842 165.464 152.167 164.487 153.144C163.511 154.121 162.186 154.669 160.804 154.669C159.423 154.669 158.098 154.121 157.122 153.144C156.145 152.167 155.596 150.842 155.596 149.461C155.595 148.689 155.767 147.927 156.099 147.231L156.305 146.799H152.709L152.915 147.231C153.248 147.927 153.42 148.689 153.418 149.461C153.418 150.842 152.87 152.167 151.893 153.144C150.916 154.121 149.591 154.669 148.21 154.669C146.829 154.669 145.504 154.121 144.527 153.144C143.55 152.167 143.002 150.842 143.002 149.461C143 148.689 143.172 147.927 143.505 147.23L143.71 146.799H129.095L129.301 147.231C129.634 147.927 129.806 148.689 129.804 149.461C129.805 150.318 129.595 151.163 129.191 151.919C128.787 152.676 128.203 153.321 127.49 153.797C126.777 154.273 125.958 154.566 125.105 154.65C124.251 154.734 123.391 154.606 122.599 154.277C121.807 153.948 121.109 153.429 120.566 152.766C120.023 152.102 119.652 151.315 119.486 150.474C119.32 149.632 119.365 148.763 119.615 147.943C119.866 147.124 120.316 146.378 120.923 145.774L121.172 145.526L120.89 145.318C119.939 144.613 119.166 143.696 118.632 142.64C118.097 141.583 117.817 140.417 117.813 139.233V88.8821C117.816 86.8755 118.614 84.952 120.034 83.5334C121.453 82.1148 123.377 81.3172 125.383 81.3154H135.13V69.6984H133.254C132.671 69.7035 132.092 69.5929 131.552 69.3731C131.011 69.1533 130.519 68.8287 130.105 68.4178C129.691 68.007 129.362 67.5181 129.137 66.9795C128.913 66.4409 128.797 65.8631 128.797 65.2796C128.797 64.696 128.913 64.1183 129.137 63.5796C129.362 63.041 129.691 62.5522 130.105 62.1413C130.519 61.7305 131.011 61.4058 131.552 61.186C132.092 60.9662 132.671 60.8557 133.254 60.8607H152.146C152.729 60.8557 153.308 60.9662 153.849 61.186C154.389 61.4058 154.881 61.7305 155.295 62.1413C155.71 62.5522 156.039 63.041 156.263 63.5796C156.488 64.1183 156.603 64.696 156.603 65.2796C156.603 65.8631 156.488 66.4409 156.263 66.9795C156.039 67.5181 155.71 68.007 155.295 68.4178C154.881 68.8287 154.389 69.1533 153.849 69.3731C153.308 69.5929 152.729 69.7035 152.146 69.6984H150.27V81.3161H160.017C161.793 81.3141 163.513 81.9378 164.876 83.0777C166.238 84.2175 167.155 85.8007 167.466 87.5494L167.522 87.8587L167.828 87.7921C168.365 87.6731 168.912 87.6129 169.462 87.6124H183.63C185.637 87.6142 187.561 88.4118 188.98 89.8304C190.399 91.249 191.198 93.1725 191.2 95.1791V100.201H204.096C206.102 100.203 208.026 101 209.445 102.417C210.864 103.835 211.663 105.758 211.667 107.764V139.233C211.663 140.417 211.383 141.583 210.849 142.64C210.314 143.696 209.541 144.613 208.59 145.318ZM197.498 122.428L197.73 122.484C198.026 122.554 198.317 122.636 198.592 122.726C199.36 122.977 200.098 123.312 200.792 123.726L201.248 123.998V102.741H197.498L197.498 122.428ZM164.438 95.1757V100.198H168.19V95.1757C168.191 94.8384 168.325 94.515 168.563 94.2765C168.802 94.0381 169.125 93.904 169.463 93.9037H183.631C183.969 93.904 184.292 94.0381 184.531 94.2765C184.769 94.515 184.904 94.8384 184.904 95.1757V100.198H188.656V95.1757C188.654 93.8439 188.124 92.5672 187.182 91.6257C186.24 90.6843 184.963 90.1549 183.631 90.1537H169.463C168.131 90.1549 166.854 90.6843 165.912 91.6257C164.97 92.5672 164.44 93.8439 164.438 95.1757ZM170.735 96.4474V100.197H182.358V96.4474H170.735ZM152.145 67.1541C152.643 67.1541 153.12 66.9565 153.471 66.6049C153.823 66.2533 154.02 65.7764 154.02 65.2791C154.02 64.7818 153.823 64.3049 153.471 63.9532C153.12 63.6016 152.643 63.4041 152.145 63.4041H133.254C132.757 63.4041 132.28 63.6016 131.929 63.9532C131.577 64.3049 131.379 64.7818 131.379 65.2791C131.379 65.7764 131.577 66.2533 131.929 66.6049C132.28 66.9565 132.757 67.1541 133.254 67.1541H152.145ZM137.675 69.6981V81.3158H147.724V69.6984L137.675 69.6981ZM120.358 108.953L131.618 103.951L129.408 98.4334L120.358 102.309V108.953ZM127.258 149.461C127.259 148.934 127.103 148.419 126.81 147.981C126.518 147.543 126.102 147.202 125.615 147C125.129 146.798 124.593 146.745 124.077 146.848C123.56 146.951 123.085 147.204 122.713 147.577C122.34 147.949 122.087 148.423 121.984 148.94C121.881 149.457 121.933 149.992 122.135 150.479C122.336 150.965 122.678 151.381 123.116 151.674C123.553 151.967 124.068 152.123 124.595 152.123C125.301 152.122 125.978 151.842 126.477 151.343C126.977 150.844 127.258 150.167 127.259 149.461H127.258ZM145.969 100.831L146.15 100.752V90.7567H148.695V100.198H155.595V90.7567H158.14V100.198H161.893V95.1757C161.89 94.0009 162.162 92.8416 162.688 91.7911C163.214 90.7406 163.979 89.8281 164.922 89.1271L165.042 89.0324V88.8821C165.04 87.5502 164.51 86.2734 163.568 85.3319C162.626 84.3903 161.349 83.8609 160.017 83.8597H125.384C124.052 83.8609 122.775 84.3903 121.833 85.3319C120.891 86.2734 120.361 87.5502 120.359 88.8821V99.5414L127.259 96.5854V90.7567H129.804V95.4761H130.104C130.272 95.476 130.438 95.5094 130.592 95.5741C130.749 95.6391 130.891 95.7346 131.01 95.8551C131.129 95.9755 131.223 96.1186 131.287 96.2757L134.435 104.142C134.558 104.448 134.557 104.788 134.434 105.093C134.31 105.398 134.072 105.643 133.772 105.776L128.623 108.067H129.804V135.786H127.259V108.671L120.359 111.738V139.233C120.361 140.565 120.891 141.842 121.833 142.783C122.775 143.725 124.052 144.254 125.384 144.255H143.31L142.946 143.772C141.958 142.466 141.424 140.872 141.428 139.233V107.763C141.43 106.292 141.86 104.852 142.667 103.621C143.473 102.39 144.621 101.421 145.97 100.831H145.969ZM151.843 102.742V119.488L155.595 121.676V102.742L151.843 102.742ZM148.996 102.742C147.665 102.743 146.388 103.272 145.446 104.214C144.504 105.155 143.974 106.432 143.972 107.764V114.9L149.298 118.005V102.741L148.996 102.742ZM148.996 144.256H149.298V128.939L143.972 125.745V139.233C143.974 140.565 144.504 141.842 145.446 142.784C146.388 143.726 147.665 144.255 148.997 144.256H148.996ZM150.872 149.461C150.873 148.934 150.717 148.419 150.424 147.981C150.132 147.543 149.716 147.202 149.229 147C148.743 146.798 148.207 146.745 147.691 146.848C147.174 146.951 146.699 147.204 146.327 147.577C145.954 147.949 145.701 148.423 145.598 148.94C145.495 149.457 145.547 149.992 145.749 150.479C145.95 150.965 146.292 151.381 146.73 151.674C147.168 151.967 147.682 152.123 148.209 152.123C148.915 152.122 149.592 151.842 150.092 151.343C150.591 150.844 150.872 150.167 150.873 149.461H150.872ZM156.472 133.241L151.844 130.467V144.257H155.596V133.241H156.472ZM157.918 131.141L159.918 127.143L143.972 117.846V122.78L157.918 131.141ZM163.467 149.461C163.467 148.934 163.311 148.419 163.018 147.981C162.726 147.543 162.31 147.202 161.824 147C161.337 146.798 160.801 146.745 160.285 146.848C159.768 146.951 159.294 147.204 158.921 147.577C158.549 147.949 158.295 148.424 158.192 148.94C158.089 149.457 158.142 149.992 158.343 150.479C158.545 150.966 158.886 151.382 159.324 151.674C159.762 151.967 160.277 152.123 160.804 152.123C161.51 152.122 162.186 151.841 162.685 151.342C163.185 150.843 163.466 150.167 163.467 149.461ZM194.952 137.394L194.722 137.339C194.444 137.272 194.166 137.193 193.897 137.105C191.704 136.421 189.806 135.016 188.513 133.117C187.253 131.197 186.913 129.054 187.559 127.083C188.459 124.321 191.251 122.407 194.668 122.209L194.952 122.193V102.741H158.141V123.159L162.233 125.545C162.511 125.709 162.717 125.972 162.81 126.282C162.902 126.591 162.874 126.924 162.73 127.214L159.582 133.507C159.476 133.719 159.314 133.897 159.113 134.021C158.911 134.145 158.68 134.211 158.443 134.211H158.141V144.255H194.953L194.952 137.394ZM201.249 136.781L200.833 136.952C199.861 137.347 198.83 137.575 197.783 137.626L197.497 137.642V144.255H201.249V136.781ZM202.511 131.961C203.368 129.331 201.254 126.274 197.799 125.145C196.963 124.87 196.088 124.728 195.208 124.726C192.747 124.726 190.751 125.872 190.051 127.664L189.975 127.872C189.575 129.093 189.812 130.46 190.639 131.722C191.616 133.138 193.042 134.183 194.686 134.688C195.523 134.964 196.399 135.107 197.28 135.11C198.046 135.115 198.807 134.993 199.533 134.751C201.033 134.24 202.092 133.25 202.512 131.961L202.511 131.961ZM207.547 149.461C207.547 148.934 207.391 148.419 207.098 147.981C206.806 147.543 206.39 147.201 205.904 147C205.417 146.798 204.882 146.745 204.365 146.848C203.848 146.95 203.374 147.204 203.001 147.576C202.629 147.949 202.375 148.423 202.272 148.94C202.169 149.456 202.222 149.992 202.423 150.478C202.625 150.965 202.966 151.381 203.404 151.674C203.842 151.966 204.357 152.123 204.883 152.123C205.589 152.122 206.266 151.841 206.766 151.343C207.265 150.844 207.546 150.167 207.547 149.461L207.547 149.461ZM209.121 139.233V107.763C209.119 106.432 208.589 105.155 207.647 104.213C206.705 103.272 205.428 102.743 204.096 102.741H203.795V126.467L203.848 126.544C205.191 128.488 205.587 130.75 204.934 132.75C204.697 133.47 204.334 134.142 203.86 134.734L203.794 134.817V144.256H204.095C205.428 144.255 206.705 143.726 207.647 142.784C208.59 141.843 209.12 140.566 209.122 139.233H209.121ZM110.825 140.617H78.0538C77.8668 141.68 77.4928 142.701 76.9491 143.633H110.826C112.363 143.642 113.896 143.481 115.396 143.152C115.023 142.21 114.786 141.219 114.693 140.21C113.423 140.489 112.126 140.626 110.826 140.617L110.825 140.617ZM49.5518 128.528L49.1774 128.445C48.9263 128.386 48.6624 128.417 48.4323 128.534C48.2022 128.65 48.0207 128.845 47.9198 129.082C47.8189 129.319 47.8052 129.585 47.8809 129.831C47.9567 130.078 48.1171 130.29 48.3339 130.43C48.5507 130.57 48.8099 130.628 49.0658 130.596C49.3217 130.563 49.5578 130.441 49.7324 130.251C49.907 130.061 50.009 129.816 50.0203 129.558C50.0316 129.3 49.9515 129.047 49.7941 128.842L49.5518 128.528ZM47.7184 16.3904C47.5878 14.2702 47.8861 12.1454 48.5954 10.143C49.3047 8.14068 50.4106 6.30194 51.8468 4.73674C53.3511 3.34847 55.1181 2.27539 57.0436 1.58074C58.9692 0.886094 61.0143 0.583932 63.0584 0.692071H110.825C118.427 0.692071 126.55 4.81474 126.55 16.3854V78.1494H125.384C124.756 78.1501 124.129 78.2059 123.511 78.3161V21.1257H50.7364V114.997H114.645V117.963H50.7364V122.428L49.6777 121.748C49.0555 121.351 48.4004 121.007 47.7194 120.722L47.7184 16.3904ZM50.7361 16.4094V18.1334H123.533V16.4084C123.533 4.94407 114.646 3.7064 110.825 3.7064H63.2481C61.5733 3.59071 59.8924 3.81125 58.3041 4.35504C56.7159 4.89882 55.2525 5.75484 54.0001 6.87274L53.9761 6.89674C52.8303 8.18702 51.9535 9.69301 51.3972 11.3265C50.8409 12.9599 50.6163 14.688 50.7364 16.4094H50.7361ZM85.9167 91.1857L85.9211 93.6857L91.5244 93.6761L91.5201 91.1761L85.9167 91.1857ZM95.2267 91.1701L95.2311 93.6701L100.834 93.6604L100.83 91.1604L95.2267 91.1701ZM120.064 45.1494C120.073 48.1757 118.903 51.0865 116.802 53.2646C114.701 55.4426 111.834 56.7165 108.809 56.8161L108.518 56.8267L108.618 107.905C108.618 108.069 108.586 108.231 108.523 108.383C108.461 108.535 108.369 108.673 108.253 108.789C108.137 108.905 108 108.997 107.848 109.06C107.697 109.123 107.534 109.156 107.37 109.156L94.9567 109.177H94.9548C94.6238 109.177 94.3064 109.045 94.0721 108.812C93.8378 108.578 93.7056 108.261 93.7044 107.93C93.7011 106.206 93.014 104.554 91.7938 103.337C90.5737 102.119 88.9202 101.435 87.1964 101.436H87.1851C86.3306 101.437 85.4847 101.606 84.6957 101.935C83.9067 102.263 83.1901 102.743 82.5867 103.348C81.9833 103.953 81.5051 104.671 81.1792 105.461C80.8533 106.251 80.6862 107.097 80.6874 107.952C80.6879 108.283 80.5567 108.601 80.3227 108.836C80.0887 109.07 79.7711 109.203 79.4398 109.203L67.0261 109.224H67.0238C66.6927 109.224 66.3752 109.093 66.1409 108.859C65.9066 108.625 65.7747 108.308 65.7741 107.977L65.6667 56.8284L65.3777 56.8167C62.3236 56.6924 59.44 55.3756 57.3459 53.1489C55.2518 50.9223 54.1142 47.9634 54.1772 44.9074C54.2403 41.8514 55.4991 38.9419 57.6833 36.8036C59.8675 34.6653 62.8031 33.4686 65.8598 33.4704H108.379C111.476 33.4731 114.446 34.7042 116.636 36.8938C118.827 39.0833 120.06 42.0524 120.064 45.1497L120.064 45.1494ZM106.115 106.661L106.093 93.6507L104.541 93.6534L104.537 91.1534L106.089 91.1507L105.994 46.7777L99.7834 46.7881V46.7777L68.1554 46.8307L68.2451 91.2144L72.9001 91.2067L72.9041 93.7067L68.2491 93.7144L68.2708 106.725L78.2667 106.708L78.3087 106.456C78.6601 104.356 79.7437 102.449 81.3676 101.072C82.9914 99.6947 85.0504 98.9372 87.1796 98.9337C89.3087 98.9301 91.3702 99.6807 92.9986 101.052C94.6271 102.424 95.7171 104.328 96.0754 106.427L96.1181 106.678L106.115 106.661ZM117.815 45.1494C117.811 42.6486 116.816 40.2512 115.047 38.4833C113.278 36.7154 110.881 35.7213 108.38 35.7191H65.8598C63.4021 35.717 61.0408 36.6745 59.2787 38.3877C57.5165 40.1008 56.4929 42.4343 56.4257 44.891C56.3585 47.3477 57.2531 49.7336 58.919 51.5405C60.5849 53.3474 62.8903 54.4325 65.3444 54.5647L65.6631 54.5821L65.6458 44.3387L108.526 44.2651L108.53 46.7631H108.497L108.512 54.5831L108.827 54.5681C111.25 54.4573 113.536 53.4162 115.21 51.6618C116.884 49.9074 117.817 47.5747 117.814 45.1497L117.815 45.1494ZM95.1051 82.7448L79.2001 82.7714H79.1981C78.868 82.7711 78.5515 82.64 78.3179 82.4068C78.0842 82.1737 77.9525 81.8575 77.9514 81.5274C77.9492 80.8048 77.6608 80.1126 77.1493 79.6021C76.6379 79.0917 75.945 78.8048 75.2224 78.8041H75.2154C74.8852 78.8038 74.5686 78.6727 74.3349 78.4395C74.1012 78.2063 73.9694 77.8899 73.9684 77.5598L73.9194 60.4784C73.9194 60.148 74.0504 59.8311 74.2838 59.5971C74.5171 59.3632 74.8337 59.2313 75.1641 59.2304C75.8876 59.2282 76.5807 58.9393 77.0915 58.4269C77.6022 57.9145 77.8891 57.2206 77.8891 56.4971C77.8891 56.1667 78.0201 55.8497 78.2534 55.6158C78.4868 55.3818 78.8033 55.25 79.1338 55.2491L95.0388 55.2224C95.3689 55.2242 95.6852 55.3548 95.9204 55.5864C96.0367 55.7016 96.1289 55.8386 96.1919 55.9897C96.2548 56.1407 96.2872 56.3028 96.2871 56.4664C96.2897 57.1889 96.5783 57.881 97.0898 58.3913C97.6012 58.9016 98.2939 59.1887 99.0164 59.1897H99.0231C99.3532 59.19 99.6698 59.3211 99.9035 59.5544C100.137 59.7876 100.269 60.1039 100.27 60.4341L100.319 77.5151C100.319 77.8455 100.188 78.1625 99.9548 78.3965C99.7214 78.6305 99.4049 78.7624 99.0744 78.7634C98.3508 78.7652 97.6574 79.054 97.1465 79.5664C96.6357 80.0789 96.349 80.7731 96.3494 81.4967C96.3494 81.8271 96.2184 82.144 95.9852 82.3779C95.7519 82.6119 95.4354 82.7438 95.1051 82.7448ZM97.6071 76.4824L97.8241 76.4181L97.7781 61.5401L97.5618 61.4767C96.7188 61.2326 95.951 60.78 95.3292 60.1607C94.7075 59.5414 94.2518 58.7754 94.0044 57.9334L93.9404 57.7171L80.2404 57.7401L80.1771 57.9567C79.9325 58.7996 79.4795 59.5672 78.8599 60.1887C78.2402 60.8102 77.4739 61.2654 76.6317 61.5124L76.4147 61.5767L76.4607 76.4548L76.6771 76.5181C77.5198 76.7623 78.2874 77.215 78.9089 77.8342C79.5305 78.4534 79.986 79.2193 80.2334 80.0611L80.2974 80.2774L93.9974 80.2544L94.0608 80.0377C94.3054 79.1948 94.7586 78.4272 95.3785 77.8058C95.9983 77.1844 96.7648 76.7292 97.6071 76.4824ZM76.6071 91.2014L76.6114 93.7014L82.2148 93.6917L82.2104 91.1917L76.6071 91.2014Z" fill="white"/>
</svg>
