<svg width="30" height="30" viewBox="0 0 30 30" fill="none" xmlns="http://www.w3.org/2000/svg">
<g clip-path="url(#clip0)">
<path d="M19.9413 0.804688H9.06635C4.06203 0.804688 0.00384521 4.86287 0.00384521 9.86719V20.7422C0.00384521 25.7465 4.06203 29.8047 9.06635 29.8047H19.9413C24.9457 29.8047 29.0038 25.7465 29.0038 20.7422V9.86719C29.0038 4.86287 24.9457 0.804688 19.9413 0.804688ZM26.2851 20.7422C26.2851 24.2403 23.4395 27.0859 19.9413 27.0859H9.06635C5.56822 27.0859 2.7226 24.2403 2.7226 20.7422V9.86719C2.7226 6.36906 5.56822 3.52344 9.06635 3.52344H19.9413C23.4395 3.52344 26.2851 6.36906 26.2851 9.86719V20.7422Z" fill="white"/>
<path d="M14.5038 8.05469C10.5 8.05469 7.25385 11.3009 7.25385 15.3047C7.25385 19.3085 10.5 22.5547 14.5038 22.5547C18.5077 22.5547 21.7538 19.3085 21.7538 15.3047C21.7538 11.3009 18.5077 8.05469 14.5038 8.05469ZM14.5038 19.8359C12.0062 19.8359 9.9726 17.8023 9.9726 15.3047C9.9726 12.8053 12.0062 10.7734 14.5038 10.7734C17.0015 10.7734 19.0351 12.8053 19.0351 15.3047C19.0351 17.8023 17.0015 19.8359 14.5038 19.8359Z" fill="white"/>
<path d="M22.2976 8.47704C22.8311 8.47704 23.2637 8.04452 23.2637 7.51098C23.2637 6.97744 22.8311 6.54492 22.2976 6.54492C21.7641 6.54492 21.3315 6.97744 21.3315 7.51098C21.3315 8.04452 21.7641 8.47704 22.2976 8.47704Z" fill="white"/>
</g>
<defs>
<clipPath id="clip0">
<rect width="29" height="29" fill="white" transform="translate(0.00384521 0.804688)"/>
</clipPath>
</defs>
</svg>
