<svg width="18" height="19" viewBox="0 0 18 19" fill="none" xmlns="http://www.w3.org/2000/svg">
<path d="M16.2259 17.9661C15.213 16.5408 14.1971 15.1179 13.1782 13.6974C13.1237 13.6132 13.04 13.5523 12.9431 13.5265C12.2997 13.4598 11.6546 13.4068 11.0095 13.3531C9.62806 13.2385 8.24528 13.1271 6.86551 13.0108C6.74161 13.0086 6.61947 12.9811 6.50655 12.93C6.39363 12.879 6.2923 12.8054 6.20876 12.7138C5.92245 12.4047 5.66129 12.0732 5.42779 11.7224C5.17307 11.284 4.95786 10.8237 4.78469 10.3471C4.53258 9.66876 4.30179 8.98045 4.11662 8.28045C4.04831 8.08115 4.03611 7.86688 4.08134 7.6611C4.12657 7.45532 4.22749 7.26598 4.37306 7.11378C4.62741 6.87735 4.96202 6.74647 5.30914 6.74765C5.65627 6.74882 5.98998 6.88198 6.24273 7.12012C6.38227 7.25946 6.52082 7.40075 6.65103 7.54875C7.48363 8.49642 8.31855 9.44345 9.14348 10.3984C9.18349 10.4659 9.24775 10.5155 9.32311 10.537C9.39846 10.5586 9.47921 10.5505 9.54879 10.5145C10.3224 10.2145 11.1031 9.93576 11.8801 9.64942C12.5202 9.41409 13.1592 9.17744 13.8003 8.94577C13.9786 8.86613 14.1773 8.84397 14.3687 8.88237C14.5601 8.92078 14.7349 9.01786 14.8687 9.16013C15.6549 10.1561 16.4349 11.1571 17.2087 12.1631C17.28 12.2603 17.3266 12.3735 17.3441 12.4929C17.3617 12.6122 17.3497 12.734 17.3093 12.8476C17.2689 12.9613 17.2013 13.0633 17.1124 13.1447C17.0235 13.2262 16.916 13.2846 16.7993 13.3148C16.6597 13.3549 16.5114 13.3534 16.3726 13.3106C16.2337 13.2678 16.1103 13.1855 16.0174 13.0738C15.3757 12.4196 14.7319 11.767 14.0858 11.1161C14.0351 11.0651 13.9339 11.0085 13.8803 11.0265C13.4766 11.1598 13.079 11.3141 12.6813 11.4614C12.6813 11.4744 12.684 11.4868 12.6853 11.4998C12.7365 11.513 12.7883 11.5234 12.8405 11.5308C13.0717 11.5504 13.3031 11.5754 13.5349 11.5828C13.7471 11.5813 13.9555 11.6394 14.1364 11.7505C14.3173 11.8616 14.4634 12.0211 14.5583 12.2111C14.9533 12.9111 15.3739 13.5958 15.7839 14.2868C16.3554 15.2508 16.9299 16.2131 17.4981 17.1788C17.5695 17.2848 17.6122 17.4075 17.6221 17.535C17.632 17.6625 17.6087 17.7904 17.5544 17.9061C17.5002 18.0219 17.417 18.1216 17.3128 18.1956C17.2085 18.2695 17.087 18.3152 16.9599 18.3281C16.9261 18.3325 16.892 18.3347 16.858 18.3348C16.7301 18.3314 16.6052 18.2959 16.4948 18.2314C16.3843 18.167 16.2918 18.0758 16.2259 17.9661ZM8.62128 16.0235H7.9339C7.50117 16.0235 7.06822 16.0235 6.63505 16.0235C5.8087 16.042 4.99625 15.8086 4.30542 15.3544C3.61458 14.9002 3.078 14.2465 2.76682 13.4801C2.05878 11.7681 1.38471 10.0414 0.706317 8.31743C0.642807 8.1538 0.619948 7.97721 0.639708 7.80278C0.666106 7.59779 0.760408 7.40757 0.907539 7.26254C1.05467 7.11751 1.24614 7.02606 1.45132 7.00277C1.65915 6.97132 1.87146 7.01282 2.05218 7.12025C2.23291 7.22767 2.37092 7.39438 2.44277 7.59209C3.11851 9.27176 3.78525 10.9551 4.46031 12.6351C4.62242 13.0678 4.91554 13.4389 5.2987 13.6967C5.68187 13.9544 6.13593 14.0859 6.59741 14.0728H8.04746C9.01415 14.0728 9.98085 14.0728 10.9475 14.0728C11.2056 14.0736 11.4527 14.1769 11.6345 14.3601C11.8164 14.5432 11.9181 14.7912 11.9174 15.0495C11.9166 15.3077 11.8133 15.555 11.6303 15.737C11.4473 15.9191 11.1996 16.0209 10.9416 16.0201C10.6261 16.0215 10.3106 16.022 9.99506 16.0218L8.62128 16.0235ZM11.2363 7.11309C10.4257 7.11022 9.64934 6.78555 9.07767 6.21033C8.50601 5.63512 8.18574 4.85638 8.18717 4.04505C8.18861 3.23372 8.51163 2.45609 9.08532 1.88289C9.65902 1.3097 10.4365 0.987793 11.2471 0.987793C12.0577 0.987793 12.8352 1.3097 13.4089 1.88289C13.9826 2.45609 14.3056 3.23372 14.3071 4.04505C14.3085 4.85638 13.9882 5.63512 13.4166 6.21033C12.8449 6.78555 12.0685 7.11022 11.2579 7.11309H11.2363ZM11.2546 1.65743C10.6184 1.65889 10.0088 1.91303 9.55976 2.36406C9.11068 2.81508 8.85884 3.42608 8.85957 4.06283C8.8603 4.69958 9.11353 5.31002 9.56364 5.76002C10.0138 6.21001 10.6239 6.46278 11.2601 6.46278C11.8963 6.46278 12.5065 6.21001 12.9566 5.76002C13.4067 5.31002 13.6599 4.69958 13.6606 4.06283C13.6614 3.42608 13.4095 2.81508 12.9604 2.36406C12.5114 1.91303 11.9018 1.65889 11.2656 1.65743H11.2546ZM3.88749 6.12842C3.30353 5.78225 2.8799 5.21915 2.70887 4.56177C2.613 4.1744 2.67115 3.76489 2.87107 3.4196C3.07098 3.07431 3.39703 2.82022 3.78049 2.71086C4.16396 2.6015 4.57486 2.64541 4.92659 2.83338C5.27832 3.02134 5.54338 3.33866 5.66591 3.71843C5.72562 3.96394 5.77121 4.21268 5.80245 4.46342C5.78594 4.87634 5.68661 5.28173 5.51038 5.65544C5.432 5.84848 5.29987 6.01494 5.12973 6.13502C4.95958 6.25509 4.75856 6.32372 4.55057 6.33277C4.31487 6.32615 4.08551 6.25488 3.88749 6.12676V6.12842ZM10.0064 4.06442C10.0064 3.88542 10.1396 3.8591 10.2878 3.86044C10.5389 3.8631 10.7904 3.86044 11.0558 3.86044C11.0601 3.7661 11.0661 3.69741 11.0661 3.62875C11.0672 3.1703 11.0672 2.71186 11.0661 2.25342C11.0661 2.10242 11.1114 1.97344 11.2826 1.97644C11.4411 1.97911 11.4824 2.10044 11.4807 2.24544C11.4781 2.83111 11.4771 3.41675 11.4807 4.00175C11.4807 4.19009 11.3951 4.27442 11.2143 4.27442C10.905 4.27442 10.5956 4.27442 10.2861 4.27442H10.2845C10.1389 4.27375 10.0074 4.23675 10.0064 4.06275V4.06442Z" fill="white"/>
</svg>
