<svg width="18" height="18" viewBox="0 0 18 18" fill="none" xmlns="http://www.w3.org/2000/svg">
<path d="M1.14551 17.5001C1.01371 17.4996 0.887459 17.4469 0.794263 17.3536C0.701066 17.2604 0.648475 17.134 0.647949 17.0021V16.4708C0.647949 16.2065 0.752827 15.9531 0.939509 15.7662C1.12619 15.5794 1.37939 15.4744 1.6434 15.4744V14.8791C1.64375 14.5 1.79435 14.1365 2.06214 13.8684C2.32993 13.6003 2.69304 13.4495 3.07179 13.4491H8.2412C8.61996 13.4495 8.98307 13.6003 9.25086 13.8684C9.51865 14.1365 9.66924 14.5 9.6696 14.8791V15.4744C9.80032 15.4744 9.92977 15.5002 10.0505 15.5503C10.1713 15.6003 10.2811 15.6737 10.3735 15.7662C10.4659 15.8588 10.5392 15.9686 10.5893 16.0895C10.6393 16.2104 10.665 16.3399 10.665 16.4708V17.0021C10.6645 17.1338 10.6121 17.26 10.5192 17.3532C10.4263 17.4464 10.3004 17.4992 10.1688 17.5001H1.14551ZM15.8431 15.9304L12.8484 11.9528L14.438 10.7528L17.4327 14.7301C17.5114 14.8345 17.5688 14.9535 17.6016 15.0802C17.6344 15.2068 17.6419 15.3387 17.6238 15.4683C17.6057 15.5979 17.5622 15.7226 17.4959 15.8354C17.4296 15.9482 17.3417 16.0468 17.2374 16.1256C17.133 16.2044 17.0141 16.2618 16.8876 16.2946C16.761 16.3275 16.6293 16.335 16.4998 16.3169C16.3703 16.2987 16.2457 16.2552 16.133 16.1889C16.0203 16.1225 15.9218 16.0346 15.8431 15.9301V15.9304ZM6.87575 11.4688L3.88074 7.49109C3.72175 7.28007 3.65303 7.01447 3.68969 6.75273C3.72636 6.49099 3.8654 6.25455 4.07624 6.09542C4.28707 5.93629 4.55243 5.86753 4.81394 5.90422C5.07544 5.94092 5.31168 6.08008 5.47066 6.2911L8.46533 10.2684C8.62432 10.4794 8.69306 10.745 8.65643 11.0067C8.6198 11.2684 8.4808 11.5048 8.27001 11.6639C8.05922 11.823 7.7939 11.8919 7.53242 11.8552C7.27095 11.8185 7.03474 11.6794 6.87575 11.4684V11.4688ZM11.6002 10.2954C12.1932 9.98677 12.7306 9.5812 13.1901 9.09542L13.8392 9.9574L12.2493 11.1574L11.6002 10.2954ZM6.02051 5.36674C6.40457 4.59233 6.96373 3.91822 7.6536 3.39791C8.34346 2.87761 9.14503 2.52547 9.99464 2.36943L13.4792 6.99777C13.0952 7.77224 12.5361 8.44641 11.8462 8.96672C11.1563 9.48704 10.3547 9.83914 9.50508 9.99508L6.02051 5.36674ZM14.0291 6.07308L11.0347 2.09542C10.956 1.99096 10.8986 1.87199 10.8658 1.74532C10.833 1.61866 10.8255 1.48677 10.8436 1.35718C10.8618 1.2276 10.9052 1.10285 10.9715 0.990075C11.0378 0.877302 11.1257 0.778706 11.23 0.699913C11.3344 0.62112 11.4533 0.563664 11.5798 0.530846C11.7064 0.498028 11.8382 0.490516 11.9676 0.50867C12.0971 0.526824 12.2217 0.570319 12.3344 0.636681C12.4471 0.703043 12.5456 0.790963 12.6243 0.895429L15.619 4.87309C15.778 5.08412 15.8467 5.34972 15.81 5.61146C15.7734 5.87319 15.6343 6.10963 15.4235 6.26876C15.2126 6.42789 14.9473 6.49666 14.6858 6.45997C14.4243 6.42327 14.188 6.28411 14.0291 6.07308Z" fill="#B4B4B4"/>
</svg>
