<svg width="236" height="236" viewBox="0 0 236 236" fill="none" xmlns="http://www.w3.org/2000/svg">
<path d="M212.645 27.4696C212.927 25.5896 210.248 24.0386 208.274 23.8976C207.334 23.8036 206.347 23.9446 205.454 23.6626C203.48 23.0046 202.728 20.4666 200.801 19.6676C199.391 19.0566 197.746 19.6206 196.383 20.2786C195.02 20.9836 193.657 21.8296 192.106 21.9236C190.743 22.0176 189.333 21.5006 188.158 22.1586C187.265 22.6286 186.842 23.6626 186.043 24.2266C185.244 24.7906 184.21 24.9316 183.27 24.9786C182.283 25.0256 181.296 25.0256 180.403 25.4486C179.51 25.8716 178.758 26.8116 178.946 27.7516L212.645 27.4696Z" fill="#EAEAEA"/>
<path d="M76.1568 29.6784C76.5798 26.7174 72.3968 24.3204 69.2948 24.0854C67.7908 23.9444 66.2868 24.1794 64.8768 23.7094C61.8218 22.6284 60.5998 18.6804 57.6388 17.4584C55.4298 16.5184 52.8448 17.3644 50.6828 18.4454C48.5208 19.5264 46.4058 20.8894 43.9618 21.0304C41.8468 21.1714 39.5908 20.3724 37.7578 21.4064C36.3948 22.1584 35.6898 23.7564 34.4208 24.6964C33.1988 25.5894 31.6008 25.7774 30.0498 25.8714C28.4988 25.9654 26.9478 25.9654 25.5378 26.6234C24.1278 27.2814 22.9998 28.7384 23.2818 30.2424L76.1568 29.6784Z" fill="#F5F5F5"/>
<path d="M184.116 46.3637C184.492 43.4967 180.45 41.1467 177.395 40.8647C175.938 40.7707 174.434 40.9587 173.071 40.4887C170.11 39.4547 168.888 35.6007 165.974 34.3787C163.812 33.4387 161.274 34.2847 159.206 35.3187C157.091 36.3997 155.023 37.7157 152.673 37.8567C150.605 37.9977 148.396 37.2457 146.61 38.2327C145.294 38.9847 144.589 40.5357 143.367 41.4287C142.145 42.3217 140.594 42.5097 139.09 42.6037C137.586 42.6977 136.035 42.6977 134.672 43.3087C133.309 43.9197 132.181 45.3767 132.463 46.8337L184.116 46.3637Z" fill="#F5F5F5"/>
<path d="M178.758 219.042C168.841 214.483 164.799 203.391 163.295 193.051C163.06 191.312 162.543 189.573 163.06 187.881C163.624 186.236 165.316 184.873 167.008 185.296C168.371 185.672 169.217 187.035 170.157 188.163C171.379 189.62 173.071 190.701 174.857 191.265C176.032 191.641 177.442 191.735 178.429 190.936C179.745 189.855 179.557 187.787 179.275 186.095C178.664 182.899 178.1 179.75 177.489 176.554C177.16 174.862 176.831 173.123 177.113 171.384C177.348 169.692 178.241 167.953 179.792 167.201C181.343 166.449 183.505 167.013 184.163 168.658C184.445 169.316 184.398 170.068 184.586 170.773C184.774 171.478 185.244 172.183 185.949 172.277C186.654 172.371 187.265 171.76 187.688 171.149C189.145 169.128 189.944 166.684 190.649 164.287C191.354 161.89 192.059 159.446 193.328 157.237C194.597 155.075 196.524 153.195 198.968 152.631C201.365 152.067 204.279 153.101 205.313 155.404C206.347 157.707 205.407 160.386 204.232 162.595C202.493 165.885 200.284 168.94 197.652 171.572C197.182 172.042 196.665 172.559 196.571 173.217C196.383 174.439 197.699 175.379 198.874 175.52C200.237 175.708 201.6 175.332 202.916 175.238C204.279 175.144 205.83 175.473 206.535 176.648C207.569 178.246 206.394 180.361 205.219 181.818C202.775 184.732 199.814 187.223 196.571 189.103C195.396 189.808 194.127 190.419 193.281 191.5C192.435 192.581 192.106 194.226 192.905 195.307C193.751 196.388 195.349 196.482 196.665 196.012C197.934 195.542 198.968 194.602 200.143 193.897C202.352 192.581 205.407 192.205 207.24 193.944C208.462 195.119 208.885 196.952 208.65 198.597C208.415 200.289 207.663 201.84 206.817 203.297C203.856 208.373 199.673 212.791 194.597 215.658C189.474 218.619 184.539 220.029 178.758 219.042Z" fill="#EAEAEA"/>
<path d="M180.262 212.133C180.826 206.681 182.001 200.759 183.364 194.602C183.74 193.051 184.069 191.547 184.398 190.043C184.727 188.539 185.103 187.082 185.526 185.625C186.372 182.758 187.406 180.079 188.44 177.541C189.474 175.003 190.602 172.653 191.636 170.444C192.67 168.235 193.704 166.214 194.691 164.428C196.665 160.809 198.639 158.083 200.049 156.25C200.754 155.357 201.318 154.652 201.694 154.182C201.882 153.947 202.023 153.806 202.164 153.665C202.258 153.571 202.305 153.477 202.305 153.477C202.305 153.477 202.258 153.524 202.164 153.665C202.07 153.806 201.929 153.994 201.741 154.229C201.365 154.699 200.801 155.404 200.143 156.344C198.78 158.177 196.853 160.903 194.879 164.569C193.892 166.355 192.905 168.423 191.871 170.585C190.837 172.794 189.756 175.144 188.722 177.682C187.688 180.22 186.654 182.899 185.808 185.719C185.385 187.129 185.056 188.633 184.68 190.09C184.351 191.594 183.975 193.098 183.646 194.649C182.236 200.806 181.108 206.728 180.497 212.18" fill="#E0E0E0"/>
<path d="M185.62 185.578C185.62 185.578 185.479 185.343 185.338 184.873C185.15 184.403 184.915 183.745 184.68 182.899C184.116 181.254 183.458 178.951 182.706 176.366C181.954 173.828 181.249 171.525 180.685 169.88C180.403 169.081 180.168 168.376 179.98 167.953C179.792 167.483 179.745 167.248 179.745 167.248C179.745 167.248 179.886 167.483 180.074 167.906C180.262 168.329 180.544 168.987 180.873 169.833C181.484 171.478 182.236 173.734 182.988 176.319C183.693 178.857 184.351 181.113 184.868 182.852C185.103 183.651 185.291 184.309 185.432 184.826C185.573 185.296 185.667 185.578 185.62 185.578Z" fill="#E0E0E0"/>
<path d="M206.817 177.54C206.817 177.54 206.535 177.634 205.971 177.822C205.407 177.963 204.608 178.198 203.621 178.48C201.647 179.044 198.968 179.937 196.007 181.065C193.093 182.193 190.461 183.321 188.628 184.167C187.688 184.59 186.936 184.966 186.419 185.201C185.902 185.436 185.62 185.577 185.62 185.577C185.62 185.577 185.902 185.389 186.372 185.107C186.889 184.825 187.594 184.402 188.534 183.979C190.367 183.039 192.999 181.911 195.913 180.783C198.874 179.655 201.553 178.809 203.574 178.292C204.561 178.01 205.36 177.822 205.924 177.728C206.535 177.54 206.817 177.493 206.817 177.54Z" fill="#E0E0E0"/>
<path d="M180.45 211.663C180.45 211.663 180.356 211.569 180.262 211.428C180.121 211.24 179.933 211.005 179.745 210.723C179.275 210.112 178.664 209.172 177.912 207.997C176.408 205.694 174.434 202.404 172.272 198.738C170.11 195.072 168.183 191.782 166.726 189.432C166.021 188.304 165.41 187.364 164.987 186.659C164.799 186.377 164.658 186.095 164.517 185.907C164.423 185.719 164.376 185.625 164.376 185.625C164.376 185.625 164.47 185.719 164.564 185.86C164.705 186.048 164.893 186.283 165.081 186.565C165.551 187.176 166.162 188.116 166.914 189.291C168.418 191.594 170.392 194.884 172.554 198.55C174.716 202.216 176.643 205.459 178.1 207.856C178.805 208.984 179.416 209.924 179.839 210.629C180.027 210.911 180.168 211.193 180.309 211.381C180.403 211.569 180.45 211.663 180.45 211.663Z" fill="#E0E0E0"/>
<path d="M207.898 197.045C207.898 197.045 207.804 197.092 207.616 197.233C207.381 197.327 207.146 197.515 206.817 197.656C206.065 198.032 205.078 198.596 203.856 199.207C201.365 200.523 197.981 202.403 194.221 204.471C190.461 206.539 187.03 208.372 184.539 209.688C183.27 210.346 182.283 210.816 181.531 211.192C181.202 211.333 180.92 211.474 180.685 211.568C180.497 211.662 180.403 211.709 180.403 211.662C180.403 211.662 180.497 211.615 180.685 211.474C180.92 211.38 181.155 211.192 181.484 211.051C182.236 210.675 183.223 210.111 184.445 209.5C186.936 208.184 190.32 206.304 194.08 204.236C197.84 202.168 201.271 200.335 203.762 199.019C205.031 198.361 206.018 197.891 206.77 197.515C207.099 197.374 207.381 197.233 207.616 197.139C207.804 197.045 207.898 197.045 207.898 197.045Z" fill="#E0E0E0"/>
<path d="M222.562 101.071L213.538 93.645L213.491 97.687L188.299 97.358L188.252 103.938L213.397 104.267L213.35 108.121L222.562 101.071Z" fill="#EAEAEA"/>
<path d="M209.12 111.74L203.292 106.946V109.531L187.03 109.343L186.983 113.573L203.245 113.761L203.198 116.252L209.12 111.74Z" fill="#EAEAEA"/>
<path d="M17.7827 52.0501C17.7827 52.0501 12.5187 53.6951 17.5007 64.9281C22.4357 76.2081 26.0077 81.8481 26.0077 81.8481C26.0077 81.8481 26.8537 84.4331 24.6917 84.7151C22.5297 84.9971 17.8767 83.9631 16.7487 86.5481C15.6207 89.2271 17.4067 91.8591 21.3077 94.3501C25.1617 96.8411 33.4337 102.575 34.1857 103.092C34.9377 103.609 35.5957 104.831 34.1857 105.254C32.7287 105.677 22.1067 106.194 22.6237 111.223C23.1407 116.252 35.0787 121.375 36.3477 121.986C37.6167 122.55 37.8987 123.161 37.7577 123.866C37.6167 124.571 33.9977 124.43 30.9897 124.665C27.9817 124.947 24.5037 125.746 25.0677 128.66C25.6317 131.527 32.4937 137.919 49.8837 140.645L58.0147 141.397L62.8557 134.77C72.3497 119.965 72.1147 110.565 70.3287 108.262C68.5427 105.959 65.6287 107.98 63.4197 110.048C61.2107 112.116 58.9547 114.936 58.3437 114.56C57.6857 114.184 57.4507 113.62 57.8737 112.257C58.2967 110.894 62.3387 98.5801 58.9077 94.8671C55.4767 91.1071 48.0507 98.7681 46.7817 99.5671C45.5127 100.366 45.0427 99.0501 45.1367 98.1571C45.2307 97.2641 46.4057 87.2531 47.1107 82.7411C47.8157 78.1821 47.0167 75.0801 44.2907 74.1871C41.6587 73.2941 39.3087 77.4771 37.6637 78.9341C36.0657 80.2031 34.6557 77.8531 34.6557 77.8531C34.6557 77.8531 32.7757 71.4611 27.6527 60.2751C22.4827 49.0891 17.6887 52.0501 17.6887 52.0501" fill="#EAEAEA"/>
<path d="M58.3438 143.23C54.5838 135.005 48.1448 120.294 42.5988 107.698C37.0058 95.1023 31.9768 83.6813 28.2638 75.4563C26.3838 71.3673 24.8798 68.0303 23.8458 65.7273C23.3288 64.5993 22.9058 63.7063 22.6708 63.0953C22.5298 62.8133 22.4358 62.5783 22.3888 62.3903C22.3418 62.2493 22.2948 62.1553 22.2948 62.1553C22.2948 62.1553 22.3418 62.2493 22.4358 62.3903C22.5298 62.5313 22.6238 62.7663 22.7648 63.0953C23.0468 63.7063 23.4698 64.5993 23.9868 65.7273C25.0678 68.0303 26.5718 71.3203 28.4518 75.4563C32.2118 83.6813 37.2878 95.0553 42.8808 107.651C48.4738 120.247 54.8658 135.005 58.5788 143.23" fill="#E0E0E0"/>
<path d="M23.2347 88.1934C23.2347 88.1934 23.4227 88.2404 23.7987 88.3814C24.1747 88.5224 24.6447 88.7104 25.3027 88.9924C26.5717 89.5094 28.2637 90.3084 30.0967 91.2484C31.9297 92.1414 33.5747 92.9404 34.8437 93.5984C35.4077 93.8804 35.8777 94.1154 36.3007 94.3034C36.6297 94.4444 36.8177 94.5854 36.8177 94.5854C36.8177 94.5854 36.6297 94.5384 36.2537 94.3974C35.8777 94.2564 35.4077 94.0684 34.7497 93.7864C33.5277 93.2224 31.8357 92.4234 29.9557 91.5304C28.1227 90.6374 26.4777 89.8384 25.1617 89.2274C24.5977 88.9454 24.0807 88.7104 23.7047 88.5224C23.4227 88.2874 23.2347 88.1934 23.2347 88.1934Z" fill="#E0E0E0"/>
<path d="M37.3818 94.0681C37.3348 94.0211 38.7918 90.4491 40.6718 86.0781C42.5519 81.7071 44.1499 78.1351 44.1969 78.1821C44.2439 78.2291 42.7869 81.8011 40.9068 86.1721C39.0268 90.5431 37.4758 94.0681 37.3818 94.0681Z" fill="#E0E0E0"/>
<path d="M45.0898 113.808C45.0898 113.808 45.1838 113.62 45.4658 113.338C45.7478 113.009 46.0768 112.586 46.4998 112.069C47.3928 110.988 48.5678 109.531 49.8368 107.839C51.1058 106.147 52.2338 104.596 52.9858 103.468C53.3618 102.951 53.6908 102.481 53.9258 102.105C54.1608 101.776 54.3018 101.635 54.3018 101.635C54.3018 101.635 54.2078 101.823 54.0198 102.152C53.8318 102.481 53.5498 102.951 53.1738 103.562C52.4218 104.737 51.3408 106.335 50.0718 107.98C48.8028 109.672 47.5808 111.129 46.6408 112.163C46.1708 112.68 45.7948 113.103 45.5128 113.385C45.2778 113.667 45.0898 113.808 45.0898 113.808Z" fill="#E0E0E0"/>
<path d="M31.1307 111.317C31.1307 111.317 31.3187 111.317 31.6947 111.364C32.1177 111.411 32.5877 111.505 33.1987 111.552C34.4677 111.74 36.2067 112.022 38.1337 112.351C40.0607 112.68 41.7997 112.962 43.0687 113.197C43.6327 113.291 44.1497 113.385 44.5727 113.479C44.9017 113.573 45.1367 113.62 45.0897 113.62C45.0897 113.62 44.9017 113.62 44.5257 113.573C44.1027 113.526 43.6327 113.432 43.0217 113.385C41.7527 113.197 40.0137 112.915 38.0867 112.586C36.1597 112.257 34.4207 111.975 33.1517 111.74C32.5877 111.646 32.0707 111.552 31.6477 111.458C31.3187 111.364 31.1307 111.317 31.1307 111.317Z" fill="#E0E0E0"/>
<path d="M35.6897 129.6C35.6897 129.6 35.9247 129.6 36.3947 129.647C36.9117 129.694 37.5227 129.788 38.3217 129.882C39.9667 130.117 42.1757 130.446 44.6667 130.822C47.1577 131.198 49.3667 131.574 51.0117 131.856C51.7637 131.997 52.4217 132.091 52.9387 132.185C53.4087 132.279 53.6437 132.326 53.6437 132.326C53.6437 132.326 53.4087 132.326 52.9387 132.279C52.4217 132.232 51.8107 132.138 51.0117 132.044C49.3667 131.809 47.1577 131.48 44.6667 131.104C42.1757 130.728 39.9667 130.352 38.3217 130.07C37.5697 129.929 36.9117 129.835 36.3947 129.741C35.9247 129.647 35.6897 129.6 35.6897 129.6Z" fill="#E0E0E0"/>
<path d="M53.2207 132.185C53.2207 132.185 53.3617 131.95 53.6437 131.574C53.9727 131.151 54.3957 130.587 54.9127 129.929C55.9937 128.519 57.4507 126.592 59.0017 124.43C60.5527 122.268 61.9157 120.247 62.9027 118.79C63.3727 118.085 63.7487 117.521 64.0777 117.051C64.3597 116.628 64.5007 116.44 64.5477 116.44C64.5477 116.44 64.4537 116.675 64.1717 117.098C63.9367 117.521 63.5607 118.132 63.0907 118.884C62.1507 120.388 60.8347 122.409 59.2367 124.571C57.6857 126.733 56.1817 128.66 55.1007 130.07C54.5367 130.775 54.1137 131.292 53.7847 131.668C53.4087 131.997 53.2207 132.185 53.2207 132.185Z" fill="#E0E0E0"/>
<path d="M174.951 199.536C175.891 199.912 176.643 200.758 177.019 201.698C177.395 202.638 177.442 203.719 177.395 204.753C177.254 206.727 176.173 208.748 174.998 210.393C173.306 208.983 172.836 206.492 172.695 205.176C172.413 203.155 173.212 199.301 174.951 199.536Z" fill="#FFBE17"/>
<path d="M177.019 213.588C176.737 212.46 177.16 211.238 177.959 210.439C178.805 209.64 179.98 209.311 181.108 209.358C181.625 209.405 182.236 209.499 182.518 209.922C182.8 210.298 182.8 210.909 182.565 211.332C182.33 211.802 181.954 212.131 181.531 212.413C180.168 213.353 178.664 214.011 177.019 213.588Z" fill="#FFBE17"/>
<path d="M175.045 219.699C175.045 219.699 175.045 219.558 175.092 219.276C175.139 218.994 175.186 218.618 175.28 218.195C175.421 217.255 175.609 215.939 176.314 214.67C176.972 213.401 177.912 212.414 178.758 211.944C179.181 211.709 179.51 211.521 179.792 211.474C179.933 211.427 180.027 211.427 180.074 211.38C180.121 211.38 180.168 211.38 180.168 211.38C180.168 211.427 179.604 211.521 178.805 212.038C178.006 212.555 177.113 213.495 176.455 214.764C175.797 216.033 175.609 217.349 175.421 218.242C175.327 218.712 175.28 219.088 175.186 219.323C175.092 219.558 175.092 219.699 175.045 219.699Z" fill="#263238"/>
<path d="M174.575 202.543C174.575 202.543 174.575 202.59 174.622 202.731C174.622 202.872 174.669 203.013 174.669 203.248C174.716 203.671 174.763 204.329 174.81 205.128C174.904 206.726 174.998 208.888 175.092 211.285C175.139 213.682 175.186 215.891 175.139 217.489C175.139 218.288 175.139 218.899 175.092 219.369C175.092 219.557 175.092 219.745 175.092 219.886C175.092 219.98 175.092 220.074 175.092 220.074C175.092 220.074 175.092 220.027 175.092 219.886C175.092 219.745 175.092 219.604 175.092 219.369C175.092 218.899 175.092 218.288 175.092 217.489C175.092 215.891 175.045 213.729 174.998 211.285C174.951 208.888 174.857 206.679 174.763 205.128C174.716 204.329 174.716 203.718 174.669 203.248C174.669 203.06 174.669 202.872 174.669 202.731C174.575 202.59 174.575 202.543 174.575 202.543Z" fill="#263238"/>
<path d="M174.152 214.904C173.682 212.507 172.037 210.439 169.828 209.452C169.264 209.217 168.512 209.029 168.089 209.499C167.666 209.922 167.76 210.674 167.995 211.238C168.982 213.588 171.567 215.233 174.105 215.092" fill="#FFBE17"/>
<path d="M170.157 211.286C170.157 211.286 170.298 211.333 170.533 211.427C170.627 211.474 170.768 211.521 170.956 211.615C171.097 211.709 171.285 211.803 171.473 211.897C171.661 212.038 171.849 212.132 172.084 212.32C172.319 212.461 172.507 212.649 172.742 212.884C173.165 213.307 173.588 213.777 173.964 214.341C174.34 214.905 174.622 215.516 174.81 216.08C174.904 216.362 174.998 216.644 175.045 216.879C175.092 217.114 175.139 217.396 175.186 217.584C175.233 217.819 175.233 218.007 175.233 218.195C175.233 218.383 175.233 218.524 175.233 218.665C175.233 218.9 175.233 219.041 175.186 219.041C175.139 219.041 175.186 218.477 175.092 217.631C175.045 217.396 175.045 217.161 174.951 216.926C174.904 216.691 174.81 216.409 174.716 216.127C174.528 215.563 174.246 214.999 173.87 214.435C173.494 213.871 173.071 213.401 172.695 212.978C172.507 212.79 172.272 212.602 172.084 212.414C171.896 212.226 171.708 212.132 171.52 211.991C170.627 211.521 170.157 211.333 170.157 211.286Z" fill="#263238"/>
<path d="M33.9037 208.043C34.3267 206.351 33.2457 204.659 31.9767 203.437C30.7547 202.215 29.2507 201.134 28.6397 199.489C27.6057 196.857 29.0157 193.473 27.2297 191.311C26.1957 190.042 24.3157 189.619 23.3757 188.209C22.9057 187.504 22.7177 186.611 22.5297 185.765C21.5427 181.441 19.3807 177.399 16.3257 174.203C16.0907 178.057 16.9837 181.958 18.7697 185.342C19.4747 186.705 20.3677 188.068 20.6027 189.572C20.9787 192.063 19.6157 194.601 20.2267 197.045C20.9317 199.818 24.0807 201.698 24.2217 204.565C24.3627 207.009 22.2477 209.124 22.3887 211.568C22.4357 212.602 22.9527 213.542 23.4697 214.435C25.3497 217.537 28.1227 219.699 32.3057 219.652L37.4287 219.84L33.9037 208.043Z" fill="#FFBE17"/>
<g opacity="0.3">
<g opacity="0.3">
<g opacity="0.3">
<g opacity="0.3">
<g opacity="0.3">
<path opacity="0.3" d="M33.9037 208.043C34.3267 206.351 33.2457 204.659 31.9767 203.437C30.7547 202.215 29.2507 201.134 28.6397 199.489C27.6057 196.857 29.0157 193.473 27.2297 191.311C26.1957 190.042 24.3157 189.619 23.3757 188.209C22.9057 187.504 22.7177 186.611 22.5297 185.765C21.5427 181.441 19.3807 177.399 16.3257 174.203C16.0907 178.057 16.9837 181.958 18.7697 185.342C19.4747 186.705 20.3677 188.068 20.6027 189.572C20.9787 192.063 19.6157 194.601 20.2267 197.045C20.9317 199.818 24.0807 201.698 24.2217 204.565C24.3627 207.009 22.2477 209.124 22.3887 211.568C22.4357 212.602 22.9527 213.542 23.4697 214.435C25.3497 217.537 28.1227 219.699 32.3057 219.652L37.4287 219.84L33.9037 208.043Z" fill="black"/>
</g>
</g>
</g>
</g>
</g>
<path d="M38.4627 220.028C38.4627 220.028 38.9327 220.122 39.8727 219.981C40.3427 219.934 40.9067 219.793 41.5177 219.558C42.1757 219.323 42.8807 218.994 43.5857 218.43C43.9147 218.148 44.2437 217.772 44.4317 217.302C44.6197 216.832 44.6197 216.315 44.6667 215.751C44.7137 215.234 44.7137 214.67 44.8077 214.106C44.9017 213.542 45.1367 212.978 45.4187 212.461C46.0297 211.38 47.0167 210.393 47.3457 208.936C47.6747 207.526 47.4397 205.975 47.2047 204.471C46.9697 202.92 46.7347 201.275 47.3457 199.677C47.9097 198.079 49.0377 196.622 49.6017 194.836C50.1657 193.003 49.8837 191.076 50.0247 189.102C50.0717 188.115 50.2597 187.175 50.6827 186.282C51.1057 185.389 51.6697 184.543 52.1397 183.556C53.0327 181.629 53.2207 179.42 53.4557 177.305C53.5967 176.224 53.6907 175.143 53.8317 174.015C53.9727 172.887 54.0667 171.806 54.3957 170.725C54.7247 169.644 55.1477 168.61 55.6177 167.576C55.8527 167.059 56.0877 166.495 56.2287 165.931C56.3227 165.32 56.3697 164.756 56.4167 164.192C56.4637 163.017 56.4167 161.842 56.2757 160.667C56.1347 159.492 55.9467 158.317 55.8057 157.142C55.8057 157.095 55.8057 157.001 55.8057 156.954L55.7587 156.719L55.5707 156.813C54.4897 157.377 53.5497 158.176 52.7977 159.116C52.0457 160.056 51.5287 161.137 51.1057 162.218C50.2597 164.427 49.9307 166.73 49.5077 168.939C49.0847 171.148 48.5207 173.31 47.3927 175.143C46.8287 176.036 46.1707 176.882 45.5597 177.775C44.9487 178.668 44.4317 179.608 44.2907 180.689C44.0087 182.851 45.1837 184.778 44.9487 186.658C44.8547 187.598 44.4787 188.491 44.0087 189.337C43.5387 190.136 42.9747 190.935 42.4577 191.687C41.9407 192.439 41.4237 193.238 41.0947 194.037C40.7187 194.883 40.5307 195.729 40.4837 196.622C40.3427 198.361 40.6247 200.006 40.4837 201.51C40.3897 203.061 39.8256 204.471 39.2146 205.74C38.6036 207.009 37.8986 208.137 37.3346 209.265C37.0526 209.829 36.7707 210.346 36.5357 210.91C36.3007 211.427 36.2067 211.991 36.0657 212.508C35.8777 213.589 35.9247 214.576 36.0187 215.422C36.2537 217.161 36.9117 218.43 37.4757 219.135C37.6167 219.323 37.7577 219.464 37.8987 219.605C38.0397 219.746 38.1337 219.84 38.2277 219.887C38.3687 219.981 38.4627 220.028 38.4627 220.028C38.4627 219.981 38.0397 219.746 37.4757 219.041C36.9117 218.336 36.3007 217.067 36.0657 215.328C35.9717 214.482 35.9717 213.495 36.1127 212.461C36.2067 211.944 36.3477 211.427 36.5827 210.863C36.8177 210.346 37.0527 209.782 37.3817 209.265C37.9457 208.184 38.6507 207.056 39.3087 205.787C39.9197 204.518 40.4837 203.108 40.6247 201.51C40.7657 199.912 40.5307 198.267 40.6717 196.622C40.7187 195.776 40.9067 194.93 41.2827 194.131C41.6587 193.332 42.1287 192.58 42.6457 191.828C43.1627 191.076 43.7267 190.324 44.1967 189.478C44.6667 188.632 45.0897 187.739 45.1837 186.705C45.4187 184.684 44.2437 182.757 44.5727 180.736C44.7137 179.749 45.2307 178.809 45.7947 177.963C46.3587 177.07 47.0637 176.271 47.6277 175.331C48.8027 173.451 49.3667 171.242 49.7897 169.033C50.2127 166.824 50.5417 164.521 51.3877 162.406C51.8107 161.325 52.3277 160.291 53.0327 159.351C53.7377 158.411 54.6307 157.659 55.6647 157.142L55.4297 157.001C55.4297 157.048 55.4297 157.142 55.4297 157.189C55.5707 158.364 55.7587 159.539 55.8997 160.714C56.0407 161.889 56.0877 163.064 56.0407 164.192C55.9937 164.756 55.9937 165.367 55.8997 165.884C55.7587 166.401 55.5237 166.965 55.3357 167.482C54.8657 168.516 54.4427 169.597 54.1137 170.678C53.7377 171.759 53.6437 172.934 53.5497 174.015C53.4087 175.096 53.3147 176.224 53.1737 177.305C52.9387 179.467 52.7507 181.629 51.9047 183.462C51.4817 184.402 50.9177 185.248 50.4947 186.188C50.0717 187.128 49.8367 188.162 49.7897 189.149C49.6957 191.123 49.9307 193.05 49.4137 194.789C48.8967 196.528 47.7687 197.985 47.2047 199.63C46.5937 201.322 46.8287 203.014 47.1107 204.565C47.3457 206.116 47.6277 207.62 47.2987 208.983C47.0167 210.346 46.0297 211.333 45.4187 212.461C45.0897 213.025 44.8547 213.589 44.7607 214.153C44.6667 214.717 44.6667 215.281 44.6667 215.845C44.6197 216.362 44.6197 216.879 44.4317 217.349C44.2907 217.772 43.9617 218.148 43.6327 218.43C42.9747 218.994 42.2697 219.323 41.6117 219.558C41.0007 219.793 40.4367 219.934 39.9667 219.981C39.4967 220.075 39.1677 220.075 38.9327 220.075C38.5567 220.028 38.4627 220.028 38.4627 220.028Z" fill="#263238"/>
<path d="M54.6306 159.727C54.6306 159.727 54.6306 159.774 54.5837 159.868C54.5366 160.009 54.5366 160.15 54.4896 160.338C54.3956 160.761 54.2547 161.372 54.0667 162.124C53.8787 162.876 53.4086 163.722 52.9856 164.803C52.5626 165.837 52.1397 167.059 51.7636 168.422C51.3877 169.785 51.0116 171.289 50.6826 172.934C50.3066 174.532 49.9306 176.271 49.0376 177.916C48.6146 178.762 48.1447 179.608 47.7687 180.501C47.3926 181.441 47.1577 182.428 47.0167 183.415C46.7817 185.436 46.4056 187.504 45.9356 189.619C44.9016 193.802 43.9147 197.797 43.0217 201.463C42.1287 205.082 41.2826 208.372 40.5776 211.098C39.9196 213.824 39.3556 216.033 38.9796 217.631C38.7916 218.383 38.6507 218.994 38.5567 219.417C38.5097 219.605 38.4626 219.746 38.4626 219.887C38.4626 219.981 38.4156 220.028 38.4156 220.028C38.4156 220.028 38.4626 219.981 38.4626 219.887C38.5096 219.746 38.5567 219.605 38.6037 219.417C38.6977 218.994 38.8857 218.383 39.0737 217.678C39.4967 216.127 40.0606 213.918 40.7656 211.192C41.4706 208.466 42.3167 205.176 43.2567 201.557C44.1497 197.938 45.1366 193.943 46.1706 189.713C46.6406 187.598 47.0167 185.53 47.2517 183.509C47.3927 182.522 47.5807 181.535 47.9567 180.642C48.3327 179.749 48.8026 178.903 49.2256 178.057C50.1186 176.365 50.4946 174.579 50.8706 172.981C51.1996 171.336 51.5756 169.832 51.9046 168.469C52.2806 167.106 52.6566 165.884 53.0796 164.85C53.4556 163.816 53.9256 162.923 54.1137 162.124C54.3017 161.325 54.3956 160.761 54.4896 160.338C54.5366 160.15 54.5366 160.009 54.5837 159.868C54.6306 159.774 54.6306 159.727 54.6306 159.727Z" fill="#263238"/>
<path d="M39.3556 220.075C42.6926 218.101 43.6796 212.038 42.2696 208.419C40.8596 204.8 38.4156 201.463 38.0396 197.609C37.7576 194.648 38.7446 191.593 38.0396 188.679C37.0996 184.731 33.2926 181.723 33.3396 177.681C33.3866 175.425 34.6556 173.31 34.5616 171.007C34.4206 168.234 32.3056 166.025 30.9896 163.581C28.9686 159.821 28.8276 155.403 28.1696 151.22C27.4646 147.037 25.8666 142.525 22.1536 140.457C21.5896 144.029 20.6496 146.473 20.9786 151.267C21.0726 153.006 23.0936 156.296 23.3756 160.103C23.5166 162.359 23.6576 164.662 23.7986 166.918C23.9396 169.127 24.0806 171.383 24.8796 173.451C25.4906 175.049 26.4776 176.459 26.9006 178.104C27.7466 181.159 26.6186 184.496 27.3236 187.645C27.8876 190.277 29.7206 192.58 30.0966 195.259C30.6136 199.019 28.1696 202.92 29.4386 206.539C30.0496 208.325 31.5066 209.735 31.9296 211.568C32.2586 212.978 31.8826 214.529 32.2116 215.939C32.6816 218.242 37.0996 220.028 39.4496 219.887" fill="#FFBE17"/>
<path d="M23.0466 143.982C23.0466 143.982 23.0466 144.029 23.0466 144.17C23.0466 144.311 23.0936 144.499 23.1406 144.734C23.2346 145.251 23.2816 146.003 23.4696 146.99C23.6576 147.977 24.1746 149.058 24.5506 150.421C24.9736 151.737 25.3966 153.288 25.7726 154.98C26.1486 156.672 26.4776 158.599 26.8066 160.62C27.1356 162.641 27.5116 164.897 28.4986 167.012C28.9686 168.093 29.4856 169.127 29.9086 170.302C30.3316 171.43 30.5196 172.652 30.6136 173.921C30.8016 176.459 31.1306 179.044 31.6006 181.723C32.6346 186.987 33.6216 192.016 34.4676 196.575C35.4076 201.134 36.2536 205.223 36.9586 208.701C37.6636 212.132 38.2746 214.905 38.6506 216.879C38.8386 217.819 39.0266 218.571 39.1206 219.088C39.1676 219.323 39.2146 219.511 39.2616 219.652C39.3086 219.793 39.3086 219.84 39.3086 219.84C39.3086 219.84 39.3086 219.793 39.3086 219.652C39.2616 219.511 39.2616 219.323 39.2146 219.088C39.1206 218.571 38.9796 217.819 38.7916 216.879C38.4156 214.905 37.8516 212.132 37.1936 208.701C36.4886 205.223 35.6896 201.134 34.7966 196.575C33.9036 192.016 32.9636 186.987 31.9296 181.723C31.4596 179.091 31.1306 176.506 30.9426 173.968C30.8486 172.699 30.6136 171.43 30.1906 170.302C29.7676 169.127 29.2506 168.046 28.7806 167.012C27.7936 164.897 27.4176 162.735 27.0416 160.714C26.7126 158.693 26.3836 156.766 25.9606 155.074C25.5846 153.335 25.1146 151.831 24.6916 150.468C24.2686 149.152 23.7516 148.024 23.5636 147.084C23.3756 146.144 23.2816 145.345 23.1876 144.875C23.1406 144.64 23.0936 144.452 23.0936 144.311C23.0466 144.076 23.0466 143.982 23.0466 143.982Z" fill="#263238"/>
<path d="M126.776 219.887H61.3516C53.4556 219.84 46.7816 213.119 46.7816 205.223L47.4866 40.4883C47.5336 32.5923 53.9726 26.2003 61.8686 26.2473L127.575 26.5293C135.471 26.5763 141.863 33.0153 141.816 40.9113L141.111 205.646C141.111 213.542 134.672 219.934 126.776 219.887Z" fill="#263238"/>
<path d="M127.669 32.7802L114.932 32.7332C113.24 32.7332 111.83 34.1902 111.83 35.9762V38.2792C111.83 40.0652 110.42 41.5222 108.728 41.5222L83.9119 41.4282C82.2199 41.4282 80.8099 39.9712 80.8099 38.1852V35.8822C80.8099 34.0962 79.4469 32.6392 77.7079 32.6392H73.2429L62.1039 32.5922C56.5579 32.5452 52.0459 37.0572 52.0459 42.5562L51.3879 203.343C51.3879 208.889 55.8529 213.401 61.3519 213.401L126.917 213.683C132.463 213.73 136.975 209.218 136.975 203.719L137.633 42.9322C137.633 37.3392 133.168 32.8272 127.669 32.7802Z" fill="#F5F5F5"/>
<path d="M99.7977 183.274C99.7037 185.201 99.6567 187.034 99.6097 188.538H109.01L107.835 182.757L99.7977 183.274Z" fill="#F5F5F5"/>
<path d="M61.5398 185.671L61.6338 188.538H98.6698C98.7168 186.94 98.8108 185.154 98.8578 183.321L61.5398 185.671Z" fill="#F5F5F5"/>
<path d="M108.352 182.71L109.527 188.538H126.87L126.682 181.535L108.352 182.71Z" fill="#F5F5F5"/>
<path d="M100.738 101.4L104.028 82.3654L95.4266 81.7544V101.4H100.738Z" fill="#F5F5F5"/>
<path d="M60.7407 175.096L51.4347 178.762L51.3877 185.389L61.0227 184.778L60.7407 175.096Z" fill="#F5F5F5"/>
<path d="M60.7408 173.639L60.2238 155.873H60.1768V149.622L51.5288 150.562L51.4348 177.258L60.6938 173.592L60.7408 173.639Z" fill="#F5F5F5"/>
<path d="M60.1767 135.663L51.6227 134.535L51.5287 149.152L60.1767 148.212V135.663Z" fill="#F5F5F5"/>
<path d="M124.191 149.904L123.862 154.98L113.71 156.061L114.509 160.103L126.024 159.21L125.836 153.476L126.729 149.622L124.191 149.904Z" fill="#F5F5F5"/>
<path d="M105.908 160.761L114.039 160.15L112.253 151.126L105.203 151.831L105.908 160.761Z" fill="#F5F5F5"/>
<path d="M106.002 161.654L106.613 169.221L107.741 179.514L108.164 181.77L126.635 180.595L126.024 160.15L106.002 161.654Z" fill="#F5F5F5"/>
<path d="M74.2297 126.122L74.9347 127.344L60.6467 135.663V155.403L75.6867 154.322L104.686 151.408L103.605 138.483L75.9217 134.864L76.1097 133.454L103.511 137.026L101.725 115.171L74.6057 117.756L74.5117 116.816L101.631 114.231L100.691 102.81H74.6057L51.7167 106.993L51.6227 133.125L60.2707 134.253L74.2297 126.122ZM62.1507 153.523C62.1507 153.523 62.2447 137.261 62.1507 136.65L73.7597 130.446L75.2637 152.677L62.1507 153.523Z" fill="#F5F5F5"/>
<path d="M123.251 149.998L112.723 151.079L113.522 155.168L122.969 154.134L123.251 149.998Z" fill="#F5F5F5"/>
<path d="M99.9387 179.796C99.8917 180.642 99.8917 181.488 99.8447 182.334L107.694 181.817L107.271 179.796H99.9387Z" fill="#F5F5F5"/>
<path d="M83.0657 101.4L84.4287 95.1492H94.9567V81.7072L62.0567 79.2632V91.9062L51.7637 94.2092L51.7167 105.536L74.5117 101.4H83.0657Z" fill="#F5F5F5"/>
<path d="M105.015 63.9882L104.733 62.8132L117.282 57.8312L109.104 41.4282C108.963 41.4282 108.822 41.4752 108.634 41.4752L94.8157 41.4282L95.1917 64.4112L105.015 63.9882Z" fill="#F5F5F5"/>
<path d="M124.097 55.1999V32.7809L114.932 32.7339C113.24 32.7339 111.83 34.1909 111.83 35.9769V38.2799C111.83 39.3609 111.313 40.3479 110.467 40.9119L118.645 57.3149L124.097 55.1999Z" fill="#F5F5F5"/>
<path d="M76.8147 56.139L75.7337 32.545H73.1957L63.2787 32.498L59.0487 53.601L76.8147 56.139ZM74.5587 34.942L74.8877 54.165L61.6807 52.238L64.5947 34.942H74.5587Z" fill="#F5F5F5"/>
<path d="M77.3317 56.2333V56.4213C77.3317 58.2543 77.3787 61.5913 77.4257 65.1163L94.7217 64.4113L94.3457 41.4283L83.8647 41.3813C82.1727 41.3813 80.7627 39.9243 80.7627 38.1383V35.8353C80.7627 34.0493 79.3997 32.5923 77.6607 32.5923H76.2037L77.3317 56.2333Z" fill="#F5F5F5"/>
<path d="M57.6387 53.4129L61.8217 32.5449C56.3697 32.6389 51.9987 37.0569 51.9987 42.5089L51.9517 52.9429L51.9987 52.6139L57.6387 53.4129Z" fill="#F5F5F5"/>
<path d="M60.6467 79.1692L51.8577 78.5112L51.8107 92.7522L60.6467 90.7782V79.1692Z" fill="#F5F5F5"/>
<path d="M57.5448 53.8356L51.9518 53.0366L51.8578 76.1606L53.0798 76.2546L57.5448 53.8356Z" fill="#F5F5F5"/>
<path d="M75.3576 173.357L75.4986 154.792L60.6936 155.873L61.2106 174.015L75.3576 173.357Z" fill="#F5F5F5"/>
<path d="M78.0837 169.08L99.0457 179.138C99.2807 172.558 99.5157 166.448 99.5157 166.025L99.9857 165.978L100.221 165.555C100.503 165.696 100.503 165.696 100.362 170.161C100.268 172.652 100.174 175.989 100.033 179.326H107.271L106.19 169.268L104.78 151.878L77.3787 154.651L78.0837 169.08Z" fill="#F5F5F5"/>
<path d="M129.455 138.295L129.22 135.851L104.122 138.483L105.156 151.361L126.87 149.152L129.455 138.295Z" fill="#F5F5F5"/>
<path d="M94.9567 96.5591H85.6037L84.5227 101.4H94.9567V96.5591Z" fill="#F5F5F5"/>
<path d="M125.601 98.2041L102.101 96.5591L101.161 102.105L102.148 114.184L126.964 111.787L125.601 98.2041ZM102.947 102.105L104.216 98.5801L124.661 99.8491L125.836 109.86L103.652 112.492L102.947 102.105Z" fill="#F5F5F5"/>
<path d="M128.045 123.396L127.011 112.727L102.195 115.124L103.135 126.451L128.045 123.396Z" fill="#F5F5F5"/>
<path d="M61.0697 185.718L51.4347 186.329L51.3877 185.671V188.538H61.1637L61.0697 185.718Z" fill="#F5F5F5"/>
<path d="M137.445 49.8877L137.586 50.2637L137.633 42.8847C137.633 37.3387 133.168 32.8267 127.669 32.8267H124.567V55.0577L137.445 49.8877Z" fill="#F5F5F5"/>
<path d="M98.9987 179.608L77.5667 169.362L76.8147 154.651L75.9217 154.745L75.7807 173.78L61.2107 174.485V174.908L61.4927 184.731L98.9047 182.381C98.9517 181.441 98.9987 180.548 98.9987 179.608ZM62.1507 175.707L82.5957 174.297L95.8967 180.454L62.1977 182.287V175.707H62.1507Z" fill="#F5F5F5"/>
<path d="M131.382 74.563L132.275 69.346C124.614 66.62 124.05 58.583 124.097 56.186L119.068 58.16L126.635 73.294L131.382 74.563Z" fill="#F5F5F5"/>
<path d="M103.981 137.073L114.415 135.992L112.347 126.733L103.229 127.861L103.981 137.073Z" fill="#F5F5F5"/>
<path d="M125.648 82.5056H106.143L104.498 82.4116L102.336 95.1486L125.46 96.7936L124.896 91.2006L127.199 83.0226L125.648 82.5056Z" fill="#F5F5F5"/>
<path d="M125.131 80.1558L125.366 74.0458L117.705 58.6768L105.814 63.3768L109.903 80.1558H125.131ZM117.282 60.5568L124.285 73.9048L123.251 78.0878L111.219 77.6178L108.211 64.9748L117.282 60.5568Z" fill="#F5F5F5"/>
<path d="M128.186 153.711L128.562 165.696L136.975 165.179L137.022 165.649L128.562 166.166L128.985 180.454L136.975 179.984L137.022 180.924L129.032 181.394L129.22 188.538H137.022L137.163 148.588L129.22 149.387L128.186 153.711Z" fill="#F5F5F5"/>
<path d="M76.8617 56.6094L58.9547 54.0244L54.4897 76.3024L76.9087 77.9474C77.0027 74.5634 76.9557 64.0354 76.8617 56.6094Z" fill="#F5F5F5"/>
<path d="M106.284 80.156H108.963L105.156 64.458L95.1917 64.834L95.4267 79.357L106.284 80.156Z" fill="#F5F5F5"/>
<path d="M77.3787 78.0413L94.9567 79.3573L94.7217 64.8813L77.4257 65.5863C77.4257 70.4743 77.4727 75.6913 77.3787 78.0413Z" fill="#F5F5F5"/>
<path d="M128.186 124.806L112.817 126.686L114.885 135.945L129.126 134.441L128.186 124.806Z" fill="#F5F5F5"/>
<path d="M132.322 68.8761L133.309 63.0481L137.539 63.3771L137.586 50.8281L124.52 55.9981C124.285 64.8341 129.831 67.9361 132.322 68.8761Z" fill="#F5F5F5"/>
<path d="M127.293 91.436L127.857 96.935L137.398 97.593L137.445 86.266L129.455 83.728L127.293 91.436Z" fill="#F5F5F5"/>
<path d="M131.852 138.483L129.361 148.917L137.21 148.118L137.257 137.167C134.86 136.556 132.745 136.039 131.617 135.804L131.852 138.483Z" fill="#F5F5F5"/>
<path d="M126.541 80.3442L137.445 83.7752L137.492 77.6182L126.776 74.8452L126.541 80.3442Z" fill="#F5F5F5"/>
<path d="M131.476 134.347C132.369 134.488 134.014 134.817 137.257 135.663L137.351 111.693L129.361 112.445L131.476 134.347Z" fill="#F5F5F5"/>
<path d="M129.267 111.552L137.351 110.8L137.398 99.0027L127.951 98.3447L129.267 111.552Z" fill="#F5F5F5"/>
<path d="M133.215 69.2052C134.766 69.6752 136.176 70.0511 137.492 70.2861L137.539 64.3172L134.108 64.0352L133.215 69.2052Z" fill="#F5F5F5"/>
<path d="M132.275 74.7978L137.492 76.1608V70.8028C136.129 70.5208 134.672 70.1448 133.121 69.6748L132.275 74.7978Z" fill="#F5F5F5"/>
<path d="M137.022 180.924L136.975 179.984L128.985 180.501L128.562 166.166L137.022 165.696L136.975 165.226L128.515 165.696L128.139 153.711L129.173 149.387L137.116 148.588V148.118L129.267 148.917L131.758 138.483L131.523 135.804C132.651 136.039 134.766 136.556 137.163 137.167V135.71C133.92 134.864 132.275 134.488 131.382 134.394L129.267 112.539L137.257 111.787V110.847L129.173 111.646L127.904 98.4394L137.304 99.0974V97.6874L127.716 97.0294L127.199 91.5304L129.361 83.8224L137.351 86.3604V83.9164L126.447 80.4854L126.682 74.9394L137.398 77.7124V76.2554L132.181 74.8924L133.027 69.7694C134.578 70.2394 136.035 70.6154 137.398 70.8974V70.4274C136.082 70.1454 134.625 69.8164 133.121 69.3464L133.967 64.2234L137.398 64.5054V63.5654L133.168 63.2364L132.181 69.0644C129.69 68.1244 124.144 65.0224 124.379 56.1864L137.445 51.0164V50.4054L137.304 50.0294L124.379 55.1524V32.9214H123.909V55.3404L118.457 57.5024L110.279 41.0994C109.903 41.3814 109.433 41.5694 108.963 41.6164L117.141 58.0194L104.733 62.8134L105.015 63.9884L95.1454 64.4114L94.8164 41.4284H94.3464L94.7224 64.4114L77.4264 65.1164C77.3794 61.5914 77.3794 58.2544 77.3324 56.4214V56.2334L76.2514 32.5924H75.7814L76.8624 56.1864L59.0964 53.6484L63.3264 32.5454H62.1044C62.0104 32.5454 61.9634 32.5454 61.8694 32.5454L57.6864 53.4134L52.0464 52.6144L51.9994 52.9434V53.0844L57.5924 53.8834L53.0804 76.2554L51.8584 76.1614V78.5114L60.6474 79.1694V90.7784L51.7644 92.7994V94.2564L62.0574 91.9534V79.2634L94.9574 81.7074V95.1494H84.4294L83.0664 101.4H74.5124L51.7644 105.536V106.993L74.6534 102.81H100.738L101.678 114.231L74.5594 116.816L74.6534 117.756L101.772 115.171L103.558 137.026L76.1574 133.454L75.9694 134.864L103.652 138.483L104.733 151.408L75.7344 154.322L60.6944 155.403V135.663L74.9354 127.344L74.2304 126.122L60.2714 134.253L51.6234 133.125V134.535L60.2244 135.663V148.212L51.5764 149.105V150.515L60.2244 149.575V155.873L60.7414 173.592L51.4824 177.211V178.715L60.8354 175.049L61.1174 184.731L51.4824 185.342V185.671L51.5294 186.282L61.1644 185.671L61.2584 188.491H61.7284L61.6344 185.624L98.9994 183.274C98.9054 185.107 98.8584 186.893 98.8114 188.491H99.7514C99.7984 186.987 99.8924 185.154 99.9394 183.227L108.023 182.71L109.198 188.491H109.668L108.493 182.663L126.823 181.488L127.011 188.444H129.361L137.022 180.924ZM99.8454 182.334C99.8924 181.488 99.8924 180.642 99.9394 179.796H107.271L107.694 181.817L99.8454 182.334ZM108.164 181.77L107.694 179.514L106.613 169.174L106.002 161.654L126.024 160.15L126.635 180.595L108.164 181.77ZM112.723 151.079L123.251 149.998L122.969 154.134L113.522 155.168L112.723 151.079ZM112.253 151.126L113.992 160.15L105.908 160.761L105.156 151.831L112.253 151.126ZM126.024 159.21L114.509 160.056L113.71 156.014L123.862 154.933L124.238 149.857L126.776 149.622L125.836 153.429L126.024 159.21ZM112.347 126.733L114.415 135.945L103.981 137.026L103.229 127.861L112.347 126.733ZM114.885 135.945L112.817 126.733L128.139 124.853L129.079 134.488L114.885 135.945ZM125.46 96.7944L102.336 95.1964L104.545 82.4124L106.143 82.5534H125.648L127.199 83.0704L124.943 91.2484L125.46 96.7944ZM124.05 56.1864C124.05 58.6304 124.567 66.6204 132.228 69.3464L131.335 74.5634L126.541 73.3414L118.974 58.2074L124.05 56.1864ZM117.752 58.7244L125.413 74.0934L125.178 80.2034H109.95L105.861 63.4244L117.752 58.7244ZM105.156 64.4584L108.963 80.2034H106.237L95.3804 79.4044L95.1454 64.8814L105.156 64.4584ZM94.7224 64.8814L94.9574 79.3574L77.3794 78.0414C77.4734 75.6914 77.4264 70.4744 77.3794 65.5864L94.7224 64.8814ZM58.9554 54.0714L76.8624 56.6564C76.9564 64.0824 77.0504 74.6104 76.9564 78.0414L54.5374 76.3964L58.9554 54.0714ZM104.028 82.3654L100.738 101.4H95.4274V81.7074L104.028 82.3654ZM85.6044 96.5594H95.0044V101.4H84.5234L85.6044 96.5594ZM101.114 102.105L102.054 96.5594L125.554 98.2044L126.87 111.787L102.054 114.184L101.114 102.105ZM127.011 112.727L128.045 123.396L103.135 126.451L102.195 115.077L127.011 112.727ZM104.122 138.483L129.267 135.851L129.502 138.295L126.87 149.152L105.156 151.361L104.122 138.483ZM106.143 169.268L107.224 179.326H99.9864C100.127 175.989 100.221 172.699 100.315 170.161C100.456 165.696 100.456 165.696 100.174 165.555L99.9394 165.978L99.4694 166.025C99.4694 166.401 99.2814 172.558 98.9994 179.138L78.0374 169.08L77.2854 154.651L104.686 151.878L106.143 169.268ZM75.4994 154.792L75.3584 173.357L61.2114 174.015L60.6944 155.826L75.4994 154.792ZM61.2114 174.908V174.485L75.7814 173.78L75.9224 154.745L76.8154 154.651L77.5674 169.362L98.9994 179.608C98.9524 180.501 98.9524 181.441 98.9054 182.334L61.4934 184.684L61.2114 174.908Z" fill="white"/>
<path d="M82.5486 174.25L62.1506 175.707V182.24L95.8496 180.454L82.5486 174.25Z" fill="#EBEBEB"/>
<path d="M124.614 99.896L104.216 98.627L102.947 102.105L103.652 112.586L125.836 109.954L124.614 99.896Z" fill="#EBEBEB"/>
<path d="M51.3877 182.334L51.3407 200.006V203.625C51.4817 209.031 55.8527 213.355 61.3047 213.402L126.87 213.684C132.416 213.731 136.928 209.218 136.928 203.719L136.975 182.381H51.3877V182.334Z" fill="#EBEBEB"/>
<path d="M74.8878 54.1649L74.5588 34.9419H64.5948L61.6808 52.2379L74.8878 54.1649Z" fill="#EBEBEB"/>
<path d="M123.298 78.0876L124.285 73.9516L117.282 60.5566L108.258 65.0216L111.266 77.6646L123.298 78.0876Z" fill="#EBEBEB"/>
<path d="M62.1506 136.65C62.2446 137.261 62.1506 153.523 62.1506 153.523L75.2636 152.677L73.7596 130.446L62.1506 136.65Z" fill="#EBEBEB"/>
<path d="M105.908 149.857L105.25 139.752L127.763 136.885V138.624L125.037 147.883L105.908 149.857Z" fill="#EBEBEB"/>
<path d="M126.917 175.519L126.635 168.939L106.848 169.879C106.331 169.926 105.814 169.785 105.344 169.55L77.2847 155.403C76.6267 155.074 76.2037 154.416 76.1567 153.711L72.3497 79.5922C72.3497 79.2162 72.4437 78.8872 72.7257 78.6522C72.9607 78.4172 73.3367 78.2762 73.6657 78.3232L85.6977 79.2161V66.0562H87.1077V79.4042C87.1077 79.7332 86.9667 80.0622 86.7317 80.2971C86.4967 80.5322 86.1207 80.6731 85.7917 80.6261L73.7597 79.7332L77.5667 153.664C77.5667 153.899 77.7077 154.087 77.8957 154.181L106.002 168.375C106.237 168.516 106.519 168.563 106.801 168.563L126.776 167.576C127.105 167.576 127.434 167.67 127.669 167.905C127.904 168.14 128.045 168.422 128.092 168.751L128.374 175.472L126.917 175.519Z" fill="white"/>
<path d="M121.136 57.9257C121.136 59.4297 119.914 60.6517 118.41 60.6517C116.906 60.6517 115.684 59.4297 115.684 57.9257C115.684 56.4217 116.906 55.1997 118.41 55.1997C119.867 55.1997 121.136 56.4217 121.136 57.9257Z" fill="#FFBE17"/>
<g opacity="0.6">
<path opacity="0.6" d="M119.8 60.2484C121.082 59.4586 121.48 57.7792 120.691 56.4974C119.901 55.2156 118.221 54.8168 116.94 55.6066C115.658 56.3964 115.259 58.0757 116.049 59.3575C116.839 60.6393 118.518 61.0382 119.8 60.2484Z" fill="white"/>
</g>
<path d="M120.196 57.831C120.196 58.818 119.397 59.664 118.363 59.664C117.376 59.664 116.53 58.865 116.53 57.831C116.53 56.844 117.329 55.998 118.363 55.998C119.397 55.998 120.196 56.844 120.196 57.831Z" fill="#FFBE17"/>
<path d="M127.528 176.506L127.199 168.798C127.199 168.704 127.152 168.563 127.058 168.516C126.964 168.422 126.87 168.422 126.776 168.422L106.096 169.503L103.605 138.201L100.503 102.152V102.105L104.028 82.8353C104.169 82.1303 104.78 81.5663 105.532 81.5663L124.191 81.5193C124.896 81.5193 125.46 80.9553 125.507 80.2503L125.836 75.0803C125.883 74.4223 125.742 73.7643 125.46 73.1533L118.175 57.9253L118.598 57.7373L125.883 72.9653C126.212 73.6233 126.353 74.3753 126.306 75.1273L125.977 80.2973C125.93 81.2373 125.131 81.9893 124.191 81.9893L105.532 82.0363C105.015 82.0363 104.592 82.4123 104.498 82.8823L100.973 102.105L104.075 138.107L106.519 168.986L126.729 167.952C126.964 167.952 127.199 167.999 127.387 168.187C127.575 168.328 127.669 168.563 127.669 168.798L127.998 176.506H127.528Z" fill="#FFBE17"/>
<path d="M128.797 175.896C128.797 176.554 128.28 177.071 127.622 177.071C126.964 177.071 126.447 176.554 126.447 175.896C126.447 175.238 126.964 174.721 127.622 174.721C128.28 174.721 128.797 175.238 128.797 175.896Z" fill="#FFBE17"/>
<path d="M106.19 154.181C106.237 154.792 105.767 155.309 105.156 155.356C104.545 155.403 104.028 154.933 103.981 154.322C103.934 153.711 104.404 153.194 105.015 153.147C105.626 153.147 106.143 153.617 106.19 154.181Z" fill="#FFBE17"/>
<path d="M105.203 155.122C104.122 155.216 103.276 156.156 103.37 157.237L107.318 156.955C107.224 155.874 106.284 155.075 105.203 155.122Z" fill="#FFBE17"/>
<path d="M120.854 142.525H111.078C110.279 142.525 109.574 143.183 109.574 144.029V150.139C109.574 150.938 110.232 151.643 111.078 151.643H111.266V153.1L112.958 151.643H120.807C121.653 151.643 122.311 150.985 122.311 150.139V144.029C122.358 143.183 121.7 142.525 120.854 142.525Z" fill="#FFBE17"/>
<g opacity="0.4">
<g opacity="0.4">
<path opacity="0.4" d="M120.854 142.525H111.078C110.279 142.525 109.574 143.183 109.574 144.029V150.139C109.574 150.938 110.232 151.643 111.078 151.643H111.266V153.1L112.958 151.643H120.807C121.653 151.643 122.311 150.985 122.311 150.139V144.029C122.358 143.183 121.7 142.525 120.854 142.525Z" fill="white"/>
</g>
</g>
<path d="M114.18 147.319V148.118H113.851V147.319L112.911 145.815H113.287L114.039 147.037L114.791 145.815H115.12L114.18 147.319Z" fill="white"/>
<path d="M115.026 147.272C115.026 146.755 115.402 146.379 115.919 146.379C116.436 146.379 116.812 146.755 116.812 147.272C116.812 147.789 116.436 148.165 115.919 148.165C115.449 148.165 115.026 147.789 115.026 147.272ZM116.53 147.272C116.53 146.896 116.295 146.661 115.919 146.661C115.59 146.661 115.308 146.896 115.308 147.272C115.308 147.648 115.543 147.883 115.919 147.883C116.295 147.883 116.53 147.648 116.53 147.272Z" fill="white"/>
<path d="M118.927 146.379V148.118H118.645V147.883C118.504 148.071 118.316 148.165 118.034 148.165C117.564 148.165 117.282 147.93 117.282 147.413V146.379H117.611V147.366C117.611 147.695 117.799 147.883 118.081 147.883C118.41 147.883 118.645 147.695 118.645 147.319V146.426H118.927V146.379Z" fill="white"/>
<path d="M62.9967 191.406C63.0746 191.406 63.1377 191.09 63.1377 190.701C63.1377 190.311 63.0746 189.996 62.9967 189.996C62.9188 189.996 62.8557 190.311 62.8557 190.701C62.8557 191.09 62.9188 191.406 62.9967 191.406Z" fill="#263238"/>
<path d="M62.9967 194.225C63.0746 194.225 63.1377 193.91 63.1377 193.52C63.1377 193.131 63.0746 192.815 62.9967 192.815C62.9188 192.815 62.8557 193.131 62.8557 193.52C62.8557 193.91 62.9188 194.225 62.9967 194.225Z" fill="#263238"/>
<path d="M62.9967 197.046C63.0746 197.046 63.1377 196.73 63.1377 196.341C63.1377 195.951 63.0746 195.636 62.9967 195.636C62.9188 195.636 62.8557 195.951 62.8557 196.341C62.8557 196.73 62.9188 197.046 62.9967 197.046Z" fill="#263238"/>
<path d="M62.9967 199.866C63.0746 199.866 63.1377 199.55 63.1377 199.161C63.1377 198.771 63.0746 198.456 62.9967 198.456C62.9188 198.456 62.8557 198.771 62.8557 199.161C62.8557 199.55 62.9188 199.866 62.9967 199.866Z" fill="#263238"/>
<path d="M62.9967 202.309C63.0746 202.309 63.1377 202.078 63.1377 201.792C63.1377 201.507 63.0746 201.275 62.9967 201.275C62.9188 201.275 62.8557 201.507 62.8557 201.792C62.8557 202.078 62.9188 202.309 62.9967 202.309Z" fill="#263238"/>
<path d="M65.0176 204.707C65.0176 203.485 63.8896 202.498 62.6206 202.733C61.8216 202.874 61.1636 203.532 61.0226 204.331C60.9286 204.848 61.0226 205.318 61.2576 205.694C61.3516 205.835 61.4456 205.929 61.5396 206.07L62.7146 207.621C62.8556 207.809 63.1376 207.809 63.2786 207.621L64.4066 206.117C64.4066 206.117 64.6416 205.882 64.6886 205.741C64.8766 205.412 65.0176 205.083 65.0176 204.707ZM62.9966 205.553C62.5266 205.553 62.1036 205.177 62.1036 204.66C62.1036 204.19 62.4796 203.767 62.9966 203.767C63.5136 203.767 63.8896 204.143 63.8896 204.66C63.8896 205.177 63.4666 205.553 62.9966 205.553Z" fill="#455A64"/>
<path d="M113.709 205.553C113.709 205.6 103.557 205.694 91.1025 205.694C78.6005 205.694 68.4955 205.647 68.4955 205.553C68.4955 205.506 78.6475 205.412 91.1025 205.412C103.557 205.459 113.709 205.506 113.709 205.553Z" fill="#263238"/>
<path d="M95.8496 203.578C95.8496 203.625 89.6926 203.719 82.1256 203.719C74.5586 203.719 68.4016 203.672 68.4016 203.578C68.4016 203.531 74.5586 203.438 82.1256 203.438C89.6926 203.438 95.8496 203.531 95.8496 203.578Z" fill="#FFBE17"/>
<path d="M75.8276 207.808C75.8276 207.855 74.1826 207.949 72.2086 207.949C70.1876 207.949 68.5896 207.902 68.5896 207.808C68.5896 207.761 70.2346 207.667 72.2086 207.667C74.2296 207.667 75.8276 207.761 75.8276 207.808Z" fill="#263238"/>
<path d="M65.0176 189.102C65.0176 187.88 63.8896 186.893 62.6206 187.128C61.8216 187.269 61.1636 187.927 61.0226 188.726C60.9286 189.243 61.0226 189.713 61.2576 190.089C61.3516 190.23 61.4456 190.324 61.5396 190.465L62.7146 192.016C62.8556 192.204 63.1376 192.204 63.2786 192.016L64.4066 190.512C64.4066 190.512 64.6416 190.277 64.6886 190.136C64.8766 189.807 65.0176 189.478 65.0176 189.102ZM62.9966 189.995C62.5266 189.995 62.1036 189.619 62.1036 189.102C62.1036 188.585 62.4796 188.209 62.9966 188.209C63.5136 188.209 63.8896 188.585 63.8896 189.102C63.8896 189.619 63.4666 189.995 62.9966 189.995Z" fill="#FFBE17"/>
<path d="M123.251 189.995C123.251 190.042 110.984 190.136 95.8496 190.136C80.7156 190.136 68.4486 190.089 68.4486 189.995C68.4486 189.948 80.7156 189.854 95.8496 189.854C110.984 189.854 123.251 189.901 123.251 189.995Z" fill="#263238"/>
<path d="M107.224 188.021C107.224 188.068 98.5286 188.162 87.8126 188.162C77.0966 188.162 68.4016 188.115 68.4016 188.021C68.4016 187.974 77.0966 187.88 87.8126 187.88C98.5286 187.88 107.224 187.927 107.224 188.021Z" fill="#FFBE17"/>
<path d="M89.8806 192.204C89.8806 192.251 85.1336 192.345 79.2586 192.345C73.3836 192.345 68.6366 192.298 68.6366 192.204C68.6366 192.157 73.3836 192.063 79.2586 192.063C85.0866 192.11 89.8806 192.157 89.8806 192.204Z" fill="#263238"/>
<path d="M201.694 77.1021L199.532 72.3551C197.37 72.1671 195.208 71.4151 193.328 70.052C187.923 66.057 186.748 58.443 190.696 53.038C194.691 47.633 202.305 46.458 207.71 50.406C213.115 54.401 214.29 62.015 210.342 67.4201C208.697 69.6761 206.394 71.18 203.903 71.9321L201.694 77.1021Z" fill="white"/>
<path d="M201.694 77.1012C201.835 76.7252 202.493 75.1272 203.856 71.8842L203.903 71.9782H203.433L203.903 71.8372C205.548 71.3672 207.569 70.3802 209.261 68.5942C209.684 68.1242 210.107 67.6542 210.436 67.0902C210.624 66.8082 210.812 66.5262 211 66.2442C211.141 65.9622 211.329 65.6332 211.47 65.3512C212.034 64.0822 212.457 62.6722 212.551 61.1682C212.786 58.1602 211.799 54.6822 209.449 52.0972C208.274 50.8282 206.77 49.7472 205.078 49.0422C203.386 48.3842 201.506 48.0082 199.579 48.1962C197.652 48.3842 195.772 48.9482 194.174 49.9822C192.576 50.9692 191.26 52.3322 190.32 53.8362C189.38 55.3402 188.769 57.0322 188.581 58.6772C188.346 60.3222 188.534 61.9672 188.91 63.4712C189.333 64.9752 189.991 66.2912 190.837 67.4192C191.683 68.5472 192.67 69.4402 193.657 70.1452C195.678 71.5552 197.84 72.1192 199.532 72.2602H199.579V72.3072C200.942 75.3152 201.553 76.7252 201.694 77.1012C201.506 76.7252 200.895 75.3152 199.485 72.3542L199.532 72.4012C197.84 72.2602 195.631 71.7432 193.563 70.2862C192.529 69.5342 191.542 68.6412 190.696 67.5132C189.85 66.3852 189.145 65.0222 188.722 63.5182C188.299 62.0142 188.158 60.3222 188.346 58.6302C188.534 56.9382 189.145 55.2462 190.132 53.6952C191.072 52.1442 192.435 50.7812 194.033 49.7942C195.631 48.7602 197.558 48.1492 199.532 48.0082C201.459 47.8202 203.386 48.1492 205.125 48.8542C206.864 49.5592 208.368 50.6402 209.59 51.9562C210.812 53.2722 211.658 54.8232 212.175 56.4212C212.692 58.0192 212.88 59.6642 212.739 61.2152C212.598 62.7662 212.222 64.2232 211.611 65.4922C211.47 65.8212 211.282 66.1032 211.141 66.4322C210.953 66.7142 210.765 66.9962 210.577 67.2782C210.201 67.8422 209.778 68.3122 209.355 68.7822C207.616 70.5682 205.595 71.5552 203.903 72.0252V71.8842H203.997L203.95 71.9782C202.587 75.1742 201.882 76.7252 201.694 77.1012Z" fill="#263238"/>
<path d="M205.736 59.7579C205.736 56.9379 203.198 54.7289 200.284 55.2459C198.451 55.5749 196.994 57.0789 196.665 58.9119C196.477 60.0399 196.712 61.1209 197.229 62.0139C197.417 62.2959 197.605 62.5309 197.84 62.8129L200.519 66.3379C200.848 66.7609 201.506 66.7609 201.835 66.3379L204.467 62.8599C204.467 62.8599 204.937 62.2959 205.125 61.9669C205.501 61.4029 205.736 60.6039 205.736 59.7579ZM201.13 61.7319C200.002 61.7319 199.109 60.8389 199.109 59.7109C199.109 58.5829 200.002 57.6899 201.13 57.6899C202.258 57.6899 203.151 58.5829 203.151 59.7109C203.151 60.8389 202.258 61.7319 201.13 61.7319Z" fill="#FFBE17"/>
<path d="M167.431 54.8228C167.854 53.2718 169.029 52.4728 170.58 51.9558C172.131 51.4388 173.917 51.7208 175.186 52.7078C176.032 53.3658 176.737 54.3058 177.771 54.6818C179.463 55.2458 181.437 54.0238 183.035 54.7758C183.975 55.2458 184.539 56.3738 184.304 57.4078C184.069 58.4418 182.988 59.1938 181.954 59.1468C183.035 59.5698 183.411 61.1208 182.753 62.1078C182.095 63.0948 180.779 63.4708 179.651 63.2358C178.476 63.0008 177.489 62.3428 176.643 61.5438C175.75 60.7448 174.998 59.8518 174.058 59.1468C173.118 58.4418 171.99 57.8778 170.815 57.9718C169.217 58.0658 167.854 59.2408 167.149 60.6978C166.444 62.1078 166.256 63.7528 166.209 65.3508C166.115 66.9488 166.115 68.5468 165.645 70.0508C165.598 70.2388 165.504 70.4268 165.316 70.4738C165.081 70.5678 164.846 70.2858 164.705 70.0508C163.248 67.3718 162.355 64.4108 162.026 61.4028C161.838 59.6638 161.885 57.9718 162.872 56.5148C163.765 54.9638 166.209 53.8828 167.431 54.8228Z" fill="#263238"/>
<path d="M164.376 62.2016L163.577 80.0146C163.436 83.0226 163.859 87.5346 168.653 87.5346C172.789 87.2056 174.058 83.3516 174.152 80.5316C174.199 79.2156 174.246 78.0876 174.293 77.9466C174.293 77.9466 178.852 77.7116 179.369 73.2466C179.604 71.0846 179.792 66.6196 179.886 62.5306C179.98 58.1596 176.737 54.4466 172.413 53.9766L171.99 53.9296C167.243 53.6476 164.47 57.5016 164.376 62.2016Z" fill="#FFBE9D"/>
<path d="M174.293 77.8058C174.293 77.8058 171.426 77.7118 168.653 75.5498C168.653 75.5498 169.687 78.9338 174.199 78.9808L174.293 77.8058Z" fill="#EB996E"/>
<path d="M178.711 65.774C178.664 66.103 178.382 66.385 178.006 66.338C177.63 66.338 177.395 66.009 177.395 65.68C177.442 65.351 177.724 65.069 178.1 65.116C178.476 65.163 178.758 65.445 178.711 65.774Z" fill="#263238"/>
<path d="M178.664 64.552C178.57 64.646 178.147 64.223 177.442 64.129C176.737 64.035 176.22 64.364 176.126 64.27C176.079 64.223 176.173 64.082 176.408 63.9409C176.643 63.7999 177.019 63.7059 177.442 63.7529C177.865 63.7999 178.194 63.9879 178.382 64.176C178.664 64.364 178.711 64.505 178.664 64.552Z" fill="#263238"/>
<path d="M171.943 65.3038C171.896 65.6328 171.614 65.9148 171.238 65.8678C170.862 65.8678 170.627 65.5388 170.627 65.2098C170.674 64.8808 170.956 64.5988 171.332 64.6458C171.708 64.6928 171.99 64.9748 171.943 65.3038Z" fill="#263238"/>
<path d="M171.896 63.9406C171.802 64.0346 171.379 63.6116 170.674 63.5176C169.969 63.4236 169.452 63.7526 169.358 63.6586C169.311 63.6116 169.405 63.4706 169.64 63.3296C169.875 63.1886 170.251 63.0946 170.674 63.1416C171.097 63.1886 171.426 63.3766 171.614 63.5646C171.896 63.7526 171.943 63.9406 171.896 63.9406Z" fill="#263238"/>
<path d="M173.87 69.2986C173.87 69.2516 174.293 69.2516 174.998 69.2046C175.186 69.2046 175.327 69.2046 175.374 69.0636C175.421 68.9226 175.374 68.7346 175.327 68.5466C175.186 68.1236 175.092 67.6536 174.951 67.1366C174.434 65.1626 174.058 63.5176 174.152 63.5176C174.246 63.5176 174.716 65.0686 175.233 67.0426C175.374 67.5126 175.468 67.9826 175.609 68.4526C175.656 68.6406 175.75 68.8756 175.609 69.1576C175.562 69.2986 175.421 69.3456 175.28 69.3926C175.186 69.3926 175.045 69.3926 174.998 69.3926C174.293 69.3926 173.87 69.3456 173.87 69.2986Z" fill="#263238"/>
<path d="M172.366 61.2615C172.272 61.4495 171.614 61.2615 170.768 61.3085C169.969 61.3085 169.264 61.4495 169.17 61.3085C169.123 61.2145 169.264 61.0735 169.546 60.8855C169.828 60.7445 170.251 60.6035 170.768 60.6035C171.238 60.6035 171.708 60.7445 171.99 60.8855C172.272 61.0265 172.413 61.2145 172.366 61.2615Z" fill="#263238"/>
<path d="M178.617 62.5301C178.476 62.6711 178.006 62.4831 177.442 62.3891C176.878 62.2951 176.361 62.3891 176.267 62.2011C176.22 62.1071 176.314 61.9661 176.549 61.8251C176.784 61.6841 177.113 61.6371 177.536 61.6841C177.912 61.7311 178.241 61.9191 178.429 62.1071C178.664 62.2951 178.711 62.4831 178.617 62.5301Z" fill="#263238"/>
<path d="M164.376 65.5391C164.282 65.4921 161.415 64.3171 161.18 67.3721C160.945 70.4271 164.094 70.0511 164.094 69.9571C164.094 69.8631 164.376 65.5391 164.376 65.5391Z" fill="#FFBE9D"/>
<path d="M163.248 68.6881C163.248 68.6881 163.201 68.7351 163.107 68.7351C163.013 68.7821 162.872 68.7821 162.684 68.7351C162.355 68.5941 162.12 68.0771 162.167 67.5131C162.167 67.2311 162.261 66.9491 162.355 66.7611C162.449 66.5261 162.637 66.3851 162.778 66.3851C162.966 66.3381 163.06 66.4791 163.06 66.5731C163.107 66.6671 163.06 66.7141 163.107 66.7141C163.107 66.7141 163.154 66.6671 163.154 66.5261C163.154 66.4791 163.107 66.3851 163.06 66.3381C163.013 66.2911 162.872 66.2441 162.778 66.2441C162.543 66.2441 162.308 66.4321 162.167 66.6671C162.026 66.9021 161.932 67.1841 161.932 67.5131C161.885 68.1241 162.167 68.7351 162.59 68.8761C162.825 68.9701 162.966 68.8761 163.107 68.8291C163.201 68.7821 163.248 68.7351 163.248 68.6881Z" fill="#EB996E"/>
<path d="M180.92 61.6379C178.899 61.9669 176.737 61.2149 175.327 59.7109C174.34 58.6769 173.635 57.2669 172.319 56.7029C171.426 56.3269 170.392 56.4209 169.499 56.7969C168.606 57.1729 167.854 57.8309 167.196 58.4889C167.807 60.8389 166.961 63.3299 166.115 65.6329C166.021 65.8679 165.927 66.1499 165.692 66.2909C165.316 66.5259 164.799 66.2439 164.517 65.9149C164.047 65.3509 163.953 64.5519 163.906 63.8469C163.765 62.1549 163.906 60.4629 164.47 58.9119C164.987 57.3139 165.974 55.8569 167.29 54.8229C168.935 53.5539 171.144 53.0369 173.212 53.2719C175.28 53.5069 177.254 54.5409 178.758 55.9509C179.463 56.6089 180.121 57.4079 180.403 58.3009" fill="#263238"/>
<path d="M174.058 71.274C173.964 71.556 173.823 71.838 173.682 72.073C173.494 72.308 173.259 72.496 172.93 72.496C172.601 72.496 172.319 72.308 172.131 72.073C171.943 71.838 171.896 71.509 171.896 71.18C171.896 70.898 172.037 70.569 172.319 70.522C172.413 70.522 172.554 70.569 172.648 70.616C173.118 70.804 173.635 70.992 174.105 71.227" fill="#EB996E"/>
<path d="M173.494 72.4478C173.494 72.4008 173.165 72.5418 172.695 72.3538C172.46 72.2598 172.225 72.0718 172.084 71.8368C171.943 71.5548 171.943 71.1788 172.084 70.8968C172.131 70.8028 172.178 70.7558 172.225 70.6618C172.272 70.6148 172.272 70.6148 172.319 70.6148C172.366 70.6148 172.46 70.6618 172.554 70.7088C172.648 70.7558 172.695 70.7558 172.789 70.8028C173.118 70.9438 173.4 71.0378 173.635 71.1318C174.105 71.3198 174.434 71.4138 174.434 71.3668C174.434 71.3198 174.152 71.1788 173.729 70.9438C173.494 70.8498 173.212 70.7088 172.93 70.5678C172.836 70.5208 172.789 70.5208 172.695 70.4738C172.601 70.4268 172.554 70.3798 172.413 70.3798C172.366 70.3798 172.272 70.3328 172.178 70.3798C172.084 70.4268 172.037 70.4738 172.037 70.5208C171.99 70.6148 171.896 70.7088 171.849 70.8028C171.661 71.2258 171.708 71.6488 171.896 71.9778C172.084 72.3068 172.366 72.4948 172.648 72.5888C172.93 72.6828 173.118 72.6358 173.306 72.6358C173.4 72.5418 173.494 72.4948 173.494 72.4478Z" fill="#263238"/>
<path d="M201.083 199.019L204.514 208.936C204.514 208.936 215.747 208.795 216.593 210.581L197.511 217.913L191.542 202.638L201.083 199.019Z" fill="#FFBE17"/>
<path d="M198.31 210.393C197.981 210.628 197.887 211.145 198.122 211.474C198.357 211.803 198.874 211.897 199.203 211.662C199.532 211.427 199.673 210.816 199.391 210.487C199.109 210.158 198.498 210.111 198.263 210.393" fill="#E0E0E0"/>
<g opacity="0.6">
<g opacity="0.6">
<g opacity="0.6">
<path opacity="0.6" d="M197.511 217.912L196.947 216.361L215.371 209.922C215.371 209.922 216.358 209.969 216.499 210.58L197.511 217.912Z" fill="white"/>
</g>
</g>
</g>
<path d="M204.749 208.748C204.796 208.842 204.326 209.077 203.997 209.547C203.621 210.017 203.574 210.487 203.48 210.487C203.386 210.487 203.292 209.876 203.715 209.312C204.138 208.748 204.749 208.654 204.749 208.748Z" fill="#263238"/>
<path d="M207.052 208.795C207.099 208.889 206.77 209.171 206.582 209.688C206.394 210.205 206.488 210.675 206.394 210.675C206.3 210.722 206.018 210.205 206.253 209.547C206.488 208.936 207.052 208.701 207.052 208.795Z" fill="#263238"/>
<path d="M209.12 210.722C209.026 210.769 208.744 210.346 208.791 209.782C208.838 209.171 209.167 208.795 209.261 208.889C209.355 208.936 209.167 209.312 209.12 209.829C209.073 210.299 209.214 210.675 209.12 210.722Z" fill="#263238"/>
<path d="M203.715 206.539C203.715 206.633 203.245 206.68 202.728 206.915C202.211 207.15 201.882 207.479 201.788 207.432C201.694 207.385 201.976 206.868 202.587 206.633C203.198 206.351 203.762 206.445 203.715 206.539Z" fill="#263238"/>
<path d="M131.241 197.703L131.006 197.985L126.87 203.343L121.747 206.821L128.562 219.981H136.082C136.082 219.981 135.518 218.195 131.899 217.255L131.664 210.017L138.15 202.873" fill="#FFBE17"/>
<g opacity="0.6">
<g opacity="0.6">
<path opacity="0.6" d="M121.841 206.868L128.656 220.028H136.176L135.33 218.9L129.22 218.524L122.922 206.116L121.841 206.868Z" fill="white"/>
</g>
</g>
<path d="M131.946 213.965C131.899 214.059 131.476 213.777 130.865 213.824C130.301 213.824 129.878 214.059 129.784 214.012C129.69 213.965 130.16 213.495 130.865 213.495C131.617 213.448 132.04 213.918 131.946 213.965Z" fill="#263238"/>
<path d="M131.852 212.179C131.758 212.226 131.429 211.803 130.865 211.662C130.254 211.521 129.784 211.803 129.737 211.756C129.69 211.709 129.784 211.615 130.019 211.474C130.207 211.38 130.583 211.286 130.959 211.333C131.335 211.427 131.617 211.615 131.758 211.803C131.852 211.991 131.899 212.132 131.852 212.179Z" fill="#263238"/>
<path d="M131.899 209.876C131.805 209.923 131.57 209.5 131.053 209.312C130.536 209.124 130.066 209.312 130.019 209.218C130.019 209.171 130.113 209.077 130.301 208.983C130.489 208.889 130.818 208.889 131.147 208.983C131.476 209.077 131.711 209.312 131.805 209.5C131.899 209.735 131.946 209.876 131.899 209.876Z" fill="#263238"/>
<path d="M133.92 208.09C133.826 208.137 133.638 207.714 133.168 207.385C132.698 207.056 132.228 207.056 132.228 206.962C132.181 206.868 132.792 206.727 133.356 207.15C133.873 207.479 134.014 208.09 133.92 208.09Z" fill="#263238"/>
<g opacity="0.6">
<g opacity="0.6">
<path opacity="0.6" d="M127.81 206.633C127.81 207.103 127.434 207.526 126.917 207.526C126.447 207.526 126.024 207.15 126.024 206.633C126.024 206.163 126.4 205.74 126.917 205.74C127.434 205.74 127.81 206.116 127.81 206.633Z" fill="white"/>
</g>
</g>
<path d="M156.292 143.559L179.557 177.634L192.106 207.432L202.775 201.745L192.012 171.9L176.173 140.551L156.292 143.559Z" fill="#263238"/>
<path d="M146.704 140.551L142.803 167.999L126.917 202.591L136.411 208.09L156.574 173.78L167.76 140.551H146.704Z" fill="#263238"/>
<path d="M136.411 208.089C136.411 208.089 136.458 208.042 136.505 207.901C136.552 207.807 136.646 207.619 136.787 207.431C137.022 207.008 137.398 206.397 137.821 205.598C138.714 204 140.03 201.744 141.675 198.971C144.918 193.378 149.43 185.623 154.412 177.069C155.211 175.659 156.01 174.296 156.809 172.98C159.582 164.661 162.026 157.282 163.765 151.971C164.658 149.339 165.363 147.224 165.88 145.72C166.115 145.015 166.303 144.451 166.444 144.028C166.491 143.84 166.538 143.699 166.585 143.605C166.632 143.511 166.632 143.464 166.632 143.464C166.632 143.464 166.632 143.511 166.585 143.605C166.538 143.699 166.491 143.84 166.444 144.028C166.303 144.404 166.115 145.015 165.927 145.72C165.457 147.177 164.752 149.339 163.906 151.971C162.167 157.282 159.723 164.661 156.997 173.027C156.245 174.343 155.446 175.706 154.647 177.116C149.665 185.623 145.153 193.378 141.863 198.971C140.218 201.744 138.902 204 137.962 205.598C137.492 206.35 137.163 206.961 136.881 207.384C136.74 207.572 136.646 207.713 136.599 207.854C136.411 208.042 136.411 208.089 136.411 208.089Z" fill="#455A64"/>
<path d="M177.677 125.699L176.878 113.902L173.917 86.1246L174.998 80.3436L163.248 75.6436L161.838 78.4636C154.788 79.5446 151.827 93.4565 151.827 93.4565L151.592 121.751L143.696 141.021L145.717 142.807C148.913 144.734 178.852 143.512 178.852 143.512L177.677 125.699Z" fill="#FFBE17"/>
<g opacity="0.3">
<g opacity="0.3">
<path opacity="0.3" d="M146.704 133.641C148.819 136.32 151.075 138.435 153.801 140.503C155.258 141.584 156.997 142.618 158.783 142.336C160.522 142.054 161.838 140.644 162.966 139.281C165.128 136.743 167.243 134.205 169.405 131.714C169.781 131.291 170.157 130.821 170.251 130.257C170.345 129.552 169.922 128.8 169.358 128.377C168.747 127.954 168.042 127.813 167.29 127.719C162.778 127.202 158.36 129.411 153.848 129.458C152.297 129.458 149.759 129.176 148.302 129.693L146.704 133.641Z" fill="black"/>
</g>
</g>
<path d="M170.909 115.171C173.306 117.521 173.682 121.281 171.755 124.054L167.76 129.929L161.932 137.543C160.24 139.752 157.044 139.94 155.07 138.013L128.468 117.521C126.776 116.205 126.4 113.808 127.669 112.069L138.479 96.8406C139.748 95.0546 142.239 94.6316 144.025 95.9006L170.909 115.171Z" fill="#455A64"/>
<path d="M157.138 139.141C157.138 139.141 157.138 139.094 157.232 139C157.279 138.906 157.373 138.765 157.467 138.577C157.702 138.248 157.984 137.731 158.407 137.073C159.253 135.757 160.475 133.924 162.026 131.621C163.577 129.318 165.41 126.639 167.431 123.584C167.901 122.832 168.465 122.033 168.841 121.187C169.029 120.764 169.17 120.294 169.123 119.824C169.123 119.354 168.888 118.931 168.606 118.555C167.995 117.803 167.149 117.286 166.303 116.675C165.457 116.064 164.611 115.5 163.765 114.889C156.903 110.001 150.699 105.583 146.187 102.34C143.978 100.742 142.145 99.4256 140.876 98.5326C140.265 98.0626 139.795 97.7336 139.419 97.4986C139.278 97.4046 139.137 97.3106 139.043 97.2166C138.949 97.1696 138.902 97.1226 138.902 97.1226C138.902 97.1226 138.949 97.1696 139.043 97.2166C139.137 97.2636 139.278 97.3576 139.419 97.4516C139.748 97.6866 140.265 98.0156 140.876 98.4856C142.145 99.3786 143.978 100.648 146.234 102.246C150.746 105.442 156.95 109.86 163.859 114.701C164.705 115.312 165.551 115.923 166.397 116.487C167.196 117.098 168.089 117.615 168.747 118.414C169.076 118.837 169.264 119.307 169.311 119.824C169.358 120.341 169.17 120.811 168.982 121.281C168.559 122.174 168.042 122.926 167.525 123.725C165.504 126.78 163.624 129.459 162.073 131.762C159.018 136.321 157.138 139.141 157.138 139.141Z" fill="#263238"/>
<path d="M167.243 79.451C167.243 79.451 159.676 75.456 148.302 93.551L150.323 95.901C150.323 95.901 159.864 79.169 166.162 81.19C172.46 83.211 163.201 109.625 163.201 109.625C163.201 109.625 177.019 83.305 167.243 79.451Z" fill="#263238"/>
<path d="M142.004 99.8014C138.808 103.091 138.197 108.167 140.688 111.974C140.782 112.115 140.876 112.256 140.97 112.35L151.216 128.283L159.817 122.972L151.498 107.932C151.498 107.932 155.352 103.937 159.582 99.4254C165.269 93.3624 171.285 85.9364 166.961 81.6594C166.961 81.6594 164 79.3094 159.488 82.8344C156.198 85.3724 146.892 94.7724 142.004 99.8014Z" fill="#FFBE17"/>
<path d="M196.101 88.4747L200.566 87.3467C200.566 87.3467 201.788 88.4277 201.13 89.5557C200.519 90.6837 199.438 93.5037 199.438 93.5037L195.96 94.6317L194.973 97.4517L189.004 94.9137L190.602 89.6497L193.939 85.5137L196.477 85.1377L198.169 86.5947C198.169 86.5947 196.759 87.6287 195.819 86.5007L194.644 86.9237L194.738 87.6287C194.926 88.2397 195.49 88.6157 196.101 88.4747Z" fill="#FFBE9D"/>
<path d="M200.566 87.5346L203.48 86.1246C203.48 86.1246 204.185 85.9366 204.561 86.3596L204.702 86.6416L201.177 88.9446L200.566 87.5346Z" fill="#FFBE9D"/>
<path d="M194.409 92.0938C194.362 92.0938 194.503 91.8118 194.691 91.3418C194.879 90.9188 195.161 90.2608 195.114 89.5558C195.114 89.1798 195.02 88.8508 194.879 88.5688C194.785 88.4278 194.738 88.2868 194.691 88.1458C194.644 88.0048 194.644 87.8168 194.644 87.7228C194.644 87.2058 194.691 86.9238 194.738 86.9238C194.785 86.9238 194.785 87.2528 194.832 87.7228C194.832 87.9578 194.926 88.1928 195.114 88.4748C195.302 88.7568 195.396 89.1328 195.396 89.5558C195.396 90.3548 195.114 91.0128 194.879 91.4358C194.597 91.8588 194.456 92.1408 194.409 92.0938Z" fill="#EB996E"/>
<path d="M207.663 81.4248C207.71 81.5188 208.321 82.4118 208.321 82.4118L194.973 92.2348L194.127 91.1538L207.663 81.4248Z" fill="#263238"/>
<path d="M199.438 93.3157C199.72 93.0337 199.532 92.5167 199.203 92.2817C198.874 92.0467 198.451 92.0467 198.028 91.9997C197.37 91.9997 196.712 91.9527 196.054 92.0937C195.866 92.1407 195.631 92.1877 195.443 92.3287C195.302 92.4697 195.161 92.7047 195.255 92.8927C195.349 93.1277 195.631 93.2217 195.913 93.2687C196.618 93.4097 197.323 93.4567 198.028 93.4567" fill="#FFBE9D"/>
<path d="M198.075 93.5034C198.075 93.5504 197.605 93.5974 196.806 93.5504C196.618 93.5504 196.383 93.5034 196.148 93.4564C195.913 93.4094 195.678 93.4094 195.396 93.2214C195.255 93.1274 195.161 92.9864 195.114 92.8454C195.114 92.6574 195.161 92.5164 195.255 92.3754C195.443 92.0934 195.819 91.9994 196.101 91.9524C196.712 91.8584 197.276 91.8584 197.793 91.8584C198.31 91.8584 198.78 91.9054 199.156 92.1404C199.532 92.3754 199.626 92.7514 199.579 92.9864C199.532 93.2214 199.391 93.3154 199.391 93.2684C199.391 93.2684 199.485 93.1744 199.485 92.9394C199.485 92.7514 199.391 92.4224 199.062 92.2344C198.733 92.0464 198.31 92.0464 197.793 92.0464C197.276 92.0464 196.712 92.0464 196.148 92.1404C195.866 92.1874 195.584 92.2814 195.443 92.4694C195.302 92.6574 195.302 92.8924 195.49 92.9864C195.678 93.1274 195.913 93.1274 196.148 93.1744C196.383 93.2214 196.571 93.2684 196.759 93.2684C197.605 93.5034 198.075 93.4564 198.075 93.5034Z" fill="#EB996E"/>
<path d="M200.566 90.5903C199.485 90.3083 198.733 90.2143 197.652 89.9793C197.323 89.8853 196.947 89.7913 196.618 89.9323C196.289 90.0733 196.101 90.5433 196.336 90.7783C196.43 90.8723 196.524 90.9192 196.665 90.9662C197.746 91.3892 198.78 91.8123 199.861 92.2353" fill="#FFBE9D"/>
<path d="M199.814 92.2348C199.814 92.2818 199.344 92.0938 198.592 91.8588C198.169 91.7178 197.746 91.5298 197.276 91.3888C197.041 91.2948 196.759 91.2008 196.477 91.1068C196.336 91.0598 196.148 90.9188 196.101 90.7308C196.054 90.5428 196.101 90.3548 196.195 90.2138C196.289 90.0728 196.43 89.9318 196.618 89.8848C196.759 89.8378 196.947 89.7908 197.088 89.8378C197.417 89.8378 197.652 89.9318 197.934 90.0258C198.451 90.1198 198.874 90.2608 199.297 90.3548C200.096 90.5428 200.566 90.6838 200.566 90.7308C200.566 90.7778 200.049 90.6838 199.297 90.5428C198.921 90.4958 198.451 90.4018 197.887 90.2608C197.605 90.2138 197.37 90.1198 197.088 90.1198C196.806 90.1198 196.571 90.1668 196.43 90.4018C196.383 90.4958 196.336 90.6368 196.383 90.7308C196.43 90.8248 196.477 90.9188 196.618 90.9658C196.9 91.0598 197.135 91.1538 197.37 91.2948C197.84 91.4828 198.263 91.6708 198.686 91.8588C199.391 91.9998 199.814 92.1878 199.814 92.2348Z" fill="#EB996E"/>
<path d="M201.224 88.9453C200.143 88.7573 199.438 88.6163 198.357 88.4283C198.028 88.3813 197.605 88.2873 197.323 88.4753C196.994 88.6163 196.806 89.1333 197.088 89.3683C197.182 89.4623 197.323 89.5092 197.417 89.5562C198.498 89.8852 199.579 90.2613 200.66 90.5902" fill="#FFBE9D"/>
<path d="M200.66 90.5427C200.66 90.5897 200.19 90.4487 199.391 90.2137C198.968 90.0727 198.545 89.9787 198.028 89.7907C197.793 89.6967 197.511 89.6497 197.229 89.5557C197.088 89.5087 196.9 89.4147 196.853 89.2267C196.806 89.0387 196.806 88.8507 196.9 88.7097C196.994 88.5687 197.135 88.4277 197.276 88.3337C197.417 88.2397 197.605 88.2397 197.746 88.2397C198.075 88.2397 198.357 88.2867 198.592 88.3337C199.109 88.4277 199.532 88.5217 199.955 88.6157C200.754 88.7567 201.224 88.8977 201.224 88.9447C201.224 88.9917 200.707 88.8977 199.908 88.8037C199.485 88.7567 199.015 88.6627 198.498 88.5687C198.216 88.5217 197.981 88.4747 197.699 88.4747C197.417 88.4747 197.182 88.5687 197.041 88.8037C196.712 89.3677 197.605 89.4147 198.028 89.6027C198.498 89.7437 198.968 89.9317 199.344 90.0727C200.19 90.3077 200.66 90.4957 200.66 90.5427Z" fill="#EB996E"/>
<path d="M195.396 97.0761L186.701 115.641C185.855 117.427 184.21 118.602 182.283 118.884C179.792 119.213 177.348 117.85 176.361 115.5L169.875 100.648L173.541 84.6211L182.236 103.327L189.38 93.2221L195.396 97.0761Z" fill="#FFBE17"/>
<path d="M179.698 109.578C179.651 109.531 180.121 108.074 180.826 106.288C181.531 104.502 182.095 103.092 182.189 103.092C182.236 103.139 181.766 104.596 181.061 106.382C180.356 108.168 179.745 109.578 179.698 109.578Z" fill="#263238"/>
<path d="M177.771 125.511C177.771 125.511 177.724 125.37 177.724 125.135C177.677 124.853 177.677 124.477 177.63 124.007C177.536 122.973 177.442 121.563 177.254 119.777C176.925 116.205 176.502 111.27 176.032 105.818C175.515 100.366 175.045 95.431 174.669 91.906C174.481 90.167 174.293 88.71 174.199 87.676C174.152 87.206 174.105 86.83 174.058 86.548C174.011 86.266 174.011 86.125 174.011 86.125C174.011 86.125 174.058 86.266 174.105 86.501C174.152 86.783 174.199 87.159 174.293 87.629C174.434 88.616 174.622 90.073 174.857 91.859C175.28 95.431 175.797 100.319 176.314 105.771C176.831 111.223 177.207 116.158 177.442 119.73C177.583 121.516 177.677 122.926 177.724 123.96C177.771 124.43 177.771 124.806 177.771 125.135C177.771 125.37 177.771 125.511 177.771 125.511Z" fill="#263238"/>
<path d="M157.984 124.101L159.112 126.451C159.112 126.451 161.368 126.733 162.308 127.156C163.248 127.579 166.585 130.493 166.585 130.493C166.585 130.493 166.162 131.339 165.316 131.104C164.94 131.01 163.201 129.694 163.201 129.694C162.402 129.835 161.979 130.728 162.449 131.433C163.107 132.42 163.859 133.595 163.953 133.783C164.047 133.971 165.504 134.582 166.632 135.052C167.29 135.334 167.243 136.368 166.538 136.462C166.444 136.462 166.397 136.462 166.35 136.462C166.35 136.462 166.867 137.59 164.94 137.261C164.94 137.261 163.671 138.154 162.637 137.59C162.637 137.59 160.804 138.013 160.005 137.731C159.206 137.449 155.822 132.702 155.822 132.702L152.908 127.391L157.984 124.101Z" fill="#FFBE9D"/>
<path d="M161.039 132.607C160.992 132.607 161.133 132.983 161.415 133.547C161.697 134.111 162.12 134.91 162.919 135.474C163.718 136.038 164.611 136.179 165.222 136.226C165.833 136.273 166.209 136.273 166.209 136.226C166.209 136.179 165.833 136.132 165.222 136.038C164.611 135.944 163.765 135.756 163.013 135.239C162.261 134.675 161.838 133.923 161.509 133.406C161.274 132.936 161.086 132.607 161.039 132.607Z" fill="#EB996E"/>
<path d="M160.099 133.735C160.052 133.735 160.146 134.111 160.381 134.628C160.522 134.863 160.71 135.192 160.898 135.474C161.133 135.756 161.368 136.132 161.791 136.367C162.167 136.602 162.59 136.696 162.966 136.79C163.295 136.884 163.624 136.978 163.906 137.025C164.47 137.166 164.799 137.213 164.799 137.213C164.799 137.166 164.47 137.025 163.953 136.884C163.671 136.79 163.389 136.696 163.013 136.555C162.684 136.461 162.261 136.32 161.932 136.132C161.603 135.944 161.321 135.615 161.086 135.333C160.851 135.051 160.663 134.769 160.522 134.534C160.24 134.017 160.146 133.688 160.099 133.735Z" fill="#EB996E"/>
<path d="M159.065 135.052C158.971 135.099 159.582 135.945 160.381 136.932C160.522 137.12 160.663 137.167 160.804 137.214C160.945 137.261 161.086 137.308 161.227 137.355C161.509 137.449 161.744 137.496 161.932 137.496C162.355 137.543 162.59 137.496 162.59 137.449C162.59 137.402 162.355 137.402 161.932 137.308C161.744 137.261 161.509 137.214 161.274 137.12C161.133 137.073 161.039 137.026 160.898 136.979C160.757 136.932 160.663 136.838 160.569 136.744C160.193 136.227 159.817 135.804 159.535 135.522C159.253 135.24 159.112 135.052 159.065 135.052Z" fill="#EB996E"/>
<path d="M172.836 79.6387C172.883 79.6387 172.695 80.6727 172.507 81.9417C172.272 83.2107 172.131 84.2447 172.037 84.2447C171.99 84.2447 172.037 83.1637 172.225 81.8947C172.46 80.6257 172.742 79.6387 172.836 79.6387Z" fill="#263238"/>
<path d="M169.217 81.0959C169.17 81.0959 169.264 80.4849 169.499 79.7799C169.734 79.0749 169.969 78.5109 170.016 78.5579C170.063 78.5579 169.969 79.1689 169.734 79.8739C169.499 80.5319 169.264 81.0959 169.217 81.0959Z" fill="#263238"/>
<path d="M166.538 79.7799C166.491 79.7329 166.679 79.2159 167.008 78.6049C167.337 77.9939 167.619 77.5239 167.666 77.5239C167.713 77.5709 167.525 78.0879 167.196 78.6989C166.914 79.3099 166.632 79.7799 166.538 79.7799Z" fill="#263238"/>
<path d="M163.06 79.357C163.013 79.31 163.436 78.699 164 77.947C164.564 77.195 165.081 76.631 165.128 76.678C165.175 76.725 164.752 77.336 164.188 78.088C163.624 78.84 163.107 79.404 163.06 79.357Z" fill="#263238"/>
<path d="M151.498 108.074C151.451 108.121 151.216 107.839 150.699 107.51C150.229 107.181 149.477 106.758 148.631 106.523C147.785 106.288 146.939 106.194 146.375 106.241C145.764 106.241 145.435 106.335 145.435 106.288C145.435 106.241 145.764 106.147 146.375 106.053C146.986 106.006 147.832 106.006 148.725 106.288C149.618 106.57 150.37 106.993 150.84 107.369C151.31 107.745 151.545 108.074 151.498 108.074Z" fill="#263238"/>
<path d="M149.007 102.058C149.007 102.058 149.336 102.246 149.759 102.716C150.182 103.186 150.699 103.891 151.075 104.737C151.451 105.63 151.639 106.476 151.733 107.087C151.78 107.698 151.733 108.074 151.733 108.074C151.639 108.074 151.639 106.523 150.887 104.831C150.088 103.186 148.913 102.152 149.007 102.058Z" fill="#263238"/>
<path d="M159.864 122.926C159.864 122.926 159.817 122.832 159.676 122.644C159.535 122.456 159.394 122.174 159.206 121.798C158.783 121.046 158.172 119.965 157.42 118.649C155.916 115.97 153.801 112.257 151.451 108.027L151.404 107.933L151.451 107.886C152.015 107.275 152.673 106.617 153.284 105.959C157.044 102.011 160.428 98.4393 162.919 95.8543C164.141 94.5853 165.128 93.5513 165.88 92.7993C166.209 92.4703 166.491 92.1883 166.679 92.0003C166.867 91.8123 166.961 91.7183 166.961 91.7183C166.961 91.7183 166.867 91.8123 166.679 92.0473C166.491 92.2353 166.209 92.5643 165.88 92.8933C165.175 93.6453 164.188 94.6793 163.013 95.9953C160.522 98.6273 157.138 102.199 153.425 106.147C152.814 106.805 152.203 107.463 151.592 108.074V107.933C153.942 112.163 155.963 115.876 157.467 118.602C158.172 119.918 158.783 120.999 159.206 121.798C159.394 122.174 159.535 122.456 159.676 122.644C159.817 122.832 159.864 122.926 159.864 122.926Z" fill="#263238"/>
<g opacity="0.3">
<g opacity="0.3">
<path opacity="0.3" d="M155.352 103.985L158.689 106.382C159.065 106.241 159.676 105.677 159.911 105.348C162.449 101.823 164.282 97.828 165.363 93.645L155.352 103.985Z" fill="black"/>
</g>
</g>
<path d="M160.193 98.6737C160.146 98.6737 160.24 97.9217 159.629 96.8877C159.347 96.3707 158.924 95.8537 158.313 95.3837C157.702 94.9137 156.95 94.5377 156.151 94.2087C155.305 93.8797 154.506 93.6447 153.754 93.3627C153.002 93.0807 152.391 92.6577 152.015 92.2347C151.592 91.7647 151.451 91.2947 151.357 90.9657C151.31 90.6367 151.357 90.4487 151.357 90.4487C151.357 90.4487 151.357 90.6367 151.451 90.9657C151.545 91.2947 151.733 91.7177 152.109 92.1407C152.485 92.5637 153.096 92.9397 153.801 93.1747C154.506 93.4567 155.352 93.6917 156.198 94.0207C157.044 94.3497 157.796 94.7727 158.454 95.2427C159.065 95.7597 159.535 96.3237 159.817 96.8407C160.099 97.3577 160.193 97.8747 160.24 98.2037C160.24 98.4857 160.193 98.6737 160.193 98.6737Z" fill="#F5F5F5"/>
<path d="M175.562 100.789C175.562 100.789 175.327 100.789 174.951 100.742C174.528 100.695 173.964 100.695 173.259 100.742C172.554 100.789 171.708 100.93 170.768 101.071C169.828 101.212 168.794 101.353 167.666 101.353C166.538 101.353 165.457 101.165 164.611 100.742C163.718 100.319 163.06 99.7082 162.637 99.0972C162.214 98.4862 162.073 97.8752 162.026 97.4992C162.026 97.3112 162.026 97.1232 162.026 97.0292C162.026 96.9352 162.026 96.8882 162.073 96.8882C162.12 96.8882 162.073 97.1232 162.12 97.4992C162.167 97.8752 162.355 98.4392 162.778 99.0502C163.201 99.6142 163.859 100.225 164.705 100.601C165.551 100.977 166.585 101.165 167.666 101.165C168.747 101.165 169.781 101.024 170.721 100.883C171.661 100.742 172.507 100.648 173.259 100.601C173.964 100.554 174.575 100.601 174.998 100.648C175.327 100.695 175.562 100.789 175.562 100.789Z" fill="#F5F5F5"/>
<path d="M178.711 96.4181C178.758 96.4651 178.288 97.3111 177.301 98.0631C176.314 98.8151 175.327 99.0031 175.327 98.9561C175.28 98.8621 176.22 98.5801 177.16 97.8751C178.1 97.1231 178.664 96.3711 178.711 96.4181Z" fill="#F5F5F5"/>
<path d="M180.074 99.5666C180.121 99.6136 179.463 100.695 178.194 101.588C176.925 102.481 175.703 102.763 175.656 102.716C175.609 102.622 176.831 102.293 178.053 101.4C179.275 100.507 179.98 99.5196 180.074 99.5666Z" fill="#F5F5F5"/>
<path d="M176.173 106.053C176.173 106.1 175.233 105.395 173.447 105.207C172.554 105.113 171.52 105.16 170.298 105.207C169.123 105.301 167.807 105.348 166.444 105.16C163.671 104.878 161.321 103.891 159.77 102.998C158.971 102.575 158.407 102.105 157.984 101.823C157.608 101.494 157.373 101.306 157.373 101.306C157.373 101.306 157.608 101.447 158.031 101.729C158.454 102.011 159.065 102.434 159.817 102.857C161.368 103.703 163.718 104.643 166.444 104.925C167.807 105.066 169.076 105.019 170.298 104.972C171.473 104.925 172.554 104.878 173.447 105.019C174.34 105.113 175.045 105.395 175.515 105.63C175.75 105.724 175.891 105.865 176.032 105.912C176.126 106.006 176.173 106.053 176.173 106.053Z" fill="#F5F5F5"/>
<path d="M158.266 100.272C158.266 100.272 158.266 100.366 158.172 100.601L158.125 100.695L158.078 100.601C157.937 100.225 157.467 99.5669 156.574 99.0499C156.104 98.8149 155.587 98.5799 154.976 98.3919C154.365 98.2039 153.707 98.0629 153.002 97.8279C151.31 97.2169 150.041 96.1359 149.289 95.2429C148.913 94.7729 148.631 94.3969 148.49 94.1149C148.349 93.8329 148.255 93.6449 148.255 93.6449C148.302 93.5979 148.631 94.2559 149.43 95.1019C150.182 95.9479 151.451 96.9819 153.096 97.5929C153.754 97.8279 154.412 97.9689 155.023 98.2039C155.634 98.3919 156.198 98.6269 156.668 98.9089C157.608 99.4729 158.031 100.225 158.172 100.601H158.125C158.219 100.366 158.266 100.272 158.266 100.272Z" fill="#F5F5F5"/>
<path d="M225.053 220.028C225.053 220.075 176.643 220.169 116.906 220.169C57.1687 220.169 8.75867 220.122 8.75867 220.028C8.75867 219.981 57.1687 219.887 116.906 219.887C176.596 219.887 225.053 219.934 225.053 220.028Z" fill="#263238"/>
</svg>
