<?xml version="1.0" encoding="utf-8"?>
<!-- Generator: Adobe Illustrator 25.2.1, SVG Export Plug-In . SVG Version: 6.00 Build 0)  -->
<svg version="1.1" id="Calque_1" xmlns="http://www.w3.org/2000/svg" xmlns:xlink="http://www.w3.org/1999/xlink" x="0px" y="0px"
	 viewBox="0 0 1024 1024" style="enable-background:new 0 0 1024 1024;" xml:space="preserve">
<style type="text/css">
	.st0{fill:#FFFFFF;}
	.st1{fill:url(#SVGID_1_);}
	.st2{font-family:'HelveticaNeue-UltraLight';}
	.st3{font-size:86px;}
	.st4{letter-spacing:5;}
	.st5{font-family:'HelveticaNeue-Bold';}
</style>
<path class="st0" d="M177,0h670c97.8,0,177,79.2,177,177v670c0,97.8-79.2,177-177,177H177C79.2,1024,0,944.8,0,847V177
	C0,79.2,79.2,0,177,0z"/>
<linearGradient id="SVGID_1_" gradientUnits="userSpaceOnUse" x1="1024" y1="1021.89" x2="-4.547474e-13" y2="-2.11" gradientTransform="matrix(1 0 0 -1 0 1021.89)">
	<stop  offset="0" style="stop-color:#F2404D"/>
	<stop  offset="1" style="stop-color:#DE253A"/>
</linearGradient>
<path class="st1" d="M1024,0H0v1024h1024V0z"/>
<g id="Groupe_2" transform="translate(-376 -1178.651)">
	<path id="book_air_logo_icon" class="st0" d="M1077.8,1674.7c-1.1,9.4-5.1,18.2-11.6,25c-5.9,6.2-19.3,12-18.2,11.3
		c11.1-7.3,18-19.6,18.3-33c0-2.3-0.1-4.6-0.4-6.9c-4.2-29.5-45.5-31.4-45.9-31.4l0.4,2.3c1.5,7.7,3,15.4,4.4,23.1
		c0.2,1.2,0.1,1.3-1.1,1.1c-1.8-0.3-3.5-0.6-5.3-0.9c-0.4,0-0.8-0.3-1-0.7c-3.4-6.1-6.8-12.1-10.2-18.2c-2.3-4.1-4.6-8.1-6.9-12.2
		c-0.2-0.5-0.7-0.8-1.3-0.9c-4.5-0.8-8.9-1.5-13.4-2.3c-2.6-0.4-4.9-1.5-6.8-3.3c-0.5-0.5-1-1.1-1.2-1.8c-0.5-1.2-0.2-2.7,0.9-3.6
		c1.2-1,2.6-1.6,4.2-1.9c1.7-0.3,3.3-0.3,5,0c4.5,0.8,8.9,1.6,13.4,2.4c0.5,0.1,1,0,1.4-0.4c4.5-3.9,9-7.7,13.5-11.6
		c4.1-3.5,8.1-7,12.2-10.5c0.3-0.3,0.7-0.5,0.9-0.8c0.3-0.3,0.7-0.4,1.1-0.3c1.9,0.3,3.7,0.7,5.6,1c0.9,0.2,1,0.5,0.5,1.3
		c-3.6,6-7.1,11.9-10.7,17.9l-2.3,3.8c0,0,0,0,0,0c4.7,1.2,9.4,2.4,14.1,3.6c2.1,0.5,4.2,1.1,6.2,1.7c2.4,0.7,4.8,1.5,7.1,2.4h0
		c8.7,3.3,16.1,9.3,21.2,17.1C1076.9,1655.9,1079,1665.4,1077.8,1674.7L1077.8,1674.7z"/>
	<text transform="matrix(1 0 0 1 679.9852 1738.5691)" class="st0 st2 st3 st4">EDEL</text>
	<text transform="matrix(1 0 0 1 890.0795 1738.5691)" class="st0 st5 st3 st4">FLY</text>
</g>
</svg>
