<svg width="138" height="32" viewBox="0 0 138 32" fill="none" xmlns="http://www.w3.org/2000/svg">
<path d="M137.105 20.0003V16.667H84.1523V16.3337H137.105V12.667H137.435V16.3337H137.438V16.667H137.435V20.0003H137.105Z" fill="white"/>
<path d="M0.560059 20.0003V12.667H0.883105V16.3337H53.846V16.667H0.883105V20.0003H0.560059Z" fill="white"/>
<path d="M68.833 31.4068C77.2718 31.4068 84.1127 24.5583 84.1127 16.1102C84.1127 7.66203 77.2718 0.813477 68.833 0.813477C60.3942 0.813477 53.5532 7.66203 53.5532 16.1102C53.5532 24.5583 60.3942 31.4068 68.833 31.4068Z" fill="white"/>
<path d="M68.8327 31.2404C77.1795 31.2404 83.9459 24.4665 83.9459 16.1105C83.9459 7.75439 77.1795 0.980469 68.8327 0.980469C60.4859 0.980469 53.7195 7.75439 53.7195 16.1105C53.7195 24.4665 60.4859 31.2404 68.8327 31.2404Z" stroke="#B4B4B4" stroke-linejoin="round"/>
<path d="M73.6159 22.8583C73.4599 22.8201 73.3182 22.7374 73.2082 22.6202C73.0981 22.503 73.0244 22.3564 72.996 22.1982C72.965 22.0478 72.9743 21.892 73.0229 21.7464C73.0715 21.6008 73.1577 21.4706 73.2727 21.3691C74.0292 20.603 74.7842 19.8354 75.5377 19.0665C75.5905 19.0127 75.642 18.9579 75.7314 18.8632H75.466C72.7996 18.8632 70.1336 18.8632 67.4679 18.8632C67.2628 18.8836 67.0571 18.8293 66.8888 18.7101C66.7205 18.5909 66.6009 18.4149 66.5519 18.2144C66.5238 18.0949 66.5221 17.9706 66.5468 17.8503C66.5716 17.73 66.6222 17.6165 66.6952 17.5177C66.7681 17.419 66.8617 17.3373 66.9694 17.2784C67.0771 17.2195 67.1963 17.1847 67.3188 17.1765C67.3952 17.1721 67.4721 17.1738 67.549 17.1738H75.72C75.6464 17.0954 75.6027 17.0455 75.5554 16.9993C74.7897 16.2514 74.024 15.5035 73.2584 14.7556C73.1415 14.6603 73.0557 14.5324 73.0118 14.3881C72.968 14.2437 72.9682 14.0896 73.0123 13.9454C73.0577 13.7911 73.1461 13.6529 73.2672 13.5472C73.3883 13.4415 73.537 13.3725 73.6959 13.3485C73.8379 13.3212 73.9846 13.3313 74.1216 13.3778C74.2585 13.4243 74.3811 13.5056 74.4772 13.6138L76.3084 15.432C76.9505 16.0691 77.5986 16.7009 78.2304 17.348C78.3876 17.5339 78.5305 17.7315 78.6577 17.9391V18.3202C78.5265 18.5183 78.3821 18.7073 78.2254 18.8859C76.9742 20.1396 75.7182 21.3884 74.4575 22.6325C74.382 22.7139 74.2908 22.7792 74.1894 22.8245C74.088 22.8697 73.9785 22.8939 73.8675 22.8957C73.7823 22.8951 73.6976 22.8825 73.6159 22.8583ZM63.2157 18.6119C62.8718 18.2712 62.5281 17.9302 62.1845 17.5887C61.2621 16.673 60.3361 15.7605 59.4212 14.8381C59.27 14.663 59.1321 14.4768 59.0085 14.2811V13.9C59.135 13.7064 59.2747 13.5218 59.4267 13.3476C60.6651 12.0995 61.9083 10.8562 63.1565 9.61762C63.3089 9.44605 63.5225 9.34112 63.7514 9.32532C63.9803 9.30953 64.2062 9.38412 64.3808 9.53312C64.4742 9.61063 64.5501 9.70708 64.6035 9.8161C64.6569 9.92512 64.6866 10.0443 64.6906 10.1656C64.6946 10.287 64.6729 10.4078 64.6269 10.5201C64.5808 10.6325 64.5115 10.7337 64.4234 10.8173C63.956 11.3042 63.4786 11.7821 63.0054 12.2637C62.6622 12.6133 62.3187 12.9623 61.9305 13.3571H65.1994C66.8697 13.3571 68.5402 13.3571 70.2108 13.3571C70.3214 13.3476 70.4328 13.3601 70.5386 13.3937C70.6445 13.4274 70.7426 13.4816 70.8275 13.5532C70.9124 13.6248 70.9824 13.7125 71.0334 13.8111C71.0845 13.9098 71.1156 14.0176 71.125 14.1283C71.1345 14.2391 71.122 14.3506 71.0884 14.4565C71.0548 14.5624 71.0006 14.6606 70.9291 14.7456C70.8575 14.8306 70.7699 14.9006 70.6713 14.9517C70.5727 15.0028 70.4651 15.034 70.3544 15.0434C70.278 15.0481 70.2011 15.0465 70.1242 15.0465H61.9476C62.0185 15.1221 62.0608 15.1711 62.1073 15.2162C62.8774 15.9689 63.6479 16.7211 64.4187 17.4729C64.5355 17.5683 64.6201 17.6974 64.6612 17.8425C64.7022 17.9877 64.6977 18.142 64.6481 18.2845C64.5916 18.4592 64.4816 18.6115 64.3335 18.7199C64.1855 18.8282 64.0071 18.8871 63.8237 18.8881C63.7089 18.8854 63.5958 18.8596 63.4913 18.8121C63.3867 18.7647 63.2928 18.6966 63.2151 18.6119H63.2157Z" fill="#E1283D"/>
</svg>
