<svg width="138" height="32" viewBox="0 0 138 32" fill="none" xmlns="http://www.w3.org/2000/svg">
<path d="M137.105 20.0001V16.6667H84.1523V16.3334H137.105V12.6667H137.435V16.3334H137.438V16.6667H137.435V20.0001H137.105Z" fill="white"/>
<path d="M0.560059 20.0001V12.6667H0.883105V16.3334H53.846V16.6667H0.883105V20.0001H0.560059Z" fill="white"/>
<path d="M68.833 31.4066C77.2718 31.4066 84.1127 24.558 84.1127 16.1099C84.1127 7.66179 77.2718 0.813232 68.833 0.813232C60.3942 0.813232 53.5532 7.66179 53.5532 16.1099C53.5532 24.558 60.3942 31.4066 68.833 31.4066Z" fill="white"/>
<path d="M68.8327 31.24C77.1795 31.24 83.9459 24.466 83.9459 16.11C83.9459 7.75391 77.1795 0.97998 68.8327 0.97998C60.4859 0.97998 53.7195 7.75391 53.7195 16.11C53.7195 24.466 60.4859 31.24 68.8327 31.24Z" stroke="#B4B4B4" stroke-linejoin="round"/>
<path d="M72.5 12.3872L71.379 12.3872L75.7012 15.9375H68.4375H61V16.8129H75.7012L71.379 20.6128H72.5L78 16.5L72.5 12.3872Z" fill="url(#paint0_linear)"/>
<defs>
<linearGradient id="paint0_linear" x1="78" y1="16.057" x2="67.6492" y2="25.0441" gradientUnits="userSpaceOnUse">
<stop stop-color="#F2404D"/>
<stop offset="1" stop-color="#DE253A"/>
</linearGradient>
</defs>
</svg>
