<svg width="330" height="104" viewBox="0 0 330 104" fill="none" xmlns="http://www.w3.org/2000/svg">
<path d="M6.65994 0.5H323.34C326.749 0.5 329.5 3.22082 329.5 6.56151V97.4385C329.5 100.779 326.749 103.5 323.34 103.5H6.65994C3.25085 103.5 0.5 100.779 0.5 97.4385V6.56151C0.5 3.22082 3.25085 0.5 6.65994 0.5Z" fill="#F5F5F5" stroke="#E0E0E0"/>
<mask id="mask0" mask-type="alpha" maskUnits="userSpaceOnUse" x="1" y="10" width="328" height="93">
<rect x="1" y="10" width="328" height="93" rx="5.5" fill="#C4C4C4"/>
</mask>
<g mask="url(#mask0)">
<path d="M-2.8271 25.4332C-2.8271 25.4332 75.7048 6.82334 145.54 41.6674C163.278 50.5368 182.308 56.9513 202.2 60.1189C233.113 65.0288 278.148 66.2166 333 50.7744V107H-2.8271V25.4332Z" fill="#E8E8E8"/>
<path d="M111.696 22.6617C112.557 22.8993 113.332 23.1369 114.194 23.3744L114.452 22.5825C113.591 22.3449 112.816 22.1074 111.955 21.8698L111.696 22.6617Z" fill="#E8E8E8"/>
<path d="M116.693 24.1658C117.554 24.4034 118.329 24.7201 119.19 24.9577L119.448 24.1658C118.587 23.9282 117.812 23.6114 116.951 23.3739L116.693 24.1658Z" fill="#E8E8E8"/>
<path d="M159.749 42.2218C160.524 42.5386 161.385 42.8553 162.16 43.1721L162.504 42.4594C161.729 42.1426 160.868 41.8258 160.093 41.5091L159.749 42.2218Z" fill="#E8E8E8"/>
<path d="M121.6 25.7495C122.461 26.0662 123.236 26.3038 124.097 26.6206L124.441 25.8287C123.58 25.5119 122.805 25.2743 121.944 24.9576L121.6 25.7495Z" fill="#E8E8E8"/>
<path d="M86.1247 17.0389C86.9858 17.1973 87.8469 17.3557 88.708 17.4349L88.8802 16.643C88.0191 16.4846 87.158 16.3262 86.2969 16.247L86.1247 17.0389Z" fill="#E8E8E8"/>
<path d="M101.538 20.0483C102.399 20.2067 103.26 20.4443 104.121 20.6819L104.38 19.89C103.518 19.6524 102.657 19.494 101.796 19.2564L101.538 20.0483Z" fill="#E8E8E8"/>
<path d="M91.2904 17.9102C92.1515 18.0686 93.0126 18.227 93.8736 18.3853L94.0459 17.5934C93.1848 17.4351 92.3237 17.2767 91.4626 17.1183L91.2904 17.9102Z" fill="#E8E8E8"/>
<path d="M96.4578 18.9395C97.3189 19.0978 98.18 19.3354 99.0411 19.4938L99.2133 18.7019C98.3522 18.5435 97.4911 18.3059 96.63 18.1475L96.4578 18.9395Z" fill="#E8E8E8"/>
<path d="M136.152 31.3723C136.927 31.689 137.702 32.085 138.477 32.4018L138.908 31.689C138.133 31.2931 137.358 30.9763 136.497 30.6596L136.152 31.3723Z" fill="#E8E8E8"/>
<path d="M150.188 38.0243C150.962 38.4203 151.738 38.737 152.512 39.133L152.857 38.4203C152.082 38.1035 151.307 37.7075 150.532 37.3116L150.188 38.0243Z" fill="#E8E8E8"/>
<path d="M154.925 40.162C155.7 40.4788 156.561 40.8747 157.336 41.1915L157.681 40.4788C156.906 40.162 156.131 39.7661 155.27 39.4493L154.925 40.162Z" fill="#E8E8E8"/>
<path d="M145.539 35.8074C146.314 36.2033 147.089 36.5993 147.864 36.9161L148.294 36.2033C147.519 35.8074 146.744 35.4906 145.969 35.0947L145.539 35.8074Z" fill="#E8E8E8"/>
<path d="M126.509 27.492C127.284 27.8088 128.145 28.1256 128.92 28.4423L129.264 27.7296C128.489 27.4128 127.628 27.0961 126.853 26.7793L126.509 27.492Z" fill="#E8E8E8"/>
<path d="M131.331 29.3925C132.105 29.7093 132.967 30.0261 133.742 30.3428L134.086 29.6301C133.311 29.3134 132.45 28.9966 131.675 28.6798L131.331 29.3925Z" fill="#E8E8E8"/>
<path d="M80.9572 16.2469C81.8183 16.4053 82.6794 16.4844 83.5405 16.6428L83.7127 15.8509C82.8516 15.6925 81.9906 15.6133 81.1295 15.455L80.9572 16.2469Z" fill="#E8E8E8"/>
<path d="M140.89 33.5104C141.665 33.9064 142.44 34.2231 143.215 34.6191L143.646 33.9064C142.871 33.5104 142.096 33.1936 141.321 32.7977L140.89 33.5104Z" fill="#E8E8E8"/>
<path d="M106.62 21.3148C107.481 21.5523 108.342 21.7899 109.117 21.9483L109.375 21.1564C108.514 20.9188 107.653 20.6812 106.878 20.4437L106.62 21.3148Z" fill="#E8E8E8"/>
<path d="M17.8374 14.346L17.9235 15.1379C18.7846 15.0588 19.6457 14.9796 20.5067 14.9004L20.4206 14.1085C19.6457 14.1877 18.6984 14.2668 17.8374 14.346Z" fill="#E8E8E8"/>
<path d="M23.0939 13.8712L23.18 14.6631C24.0411 14.584 24.9022 14.5048 25.7633 14.5048L25.6772 13.7129C24.9022 13.7129 23.955 13.792 23.0939 13.8712Z" fill="#E8E8E8"/>
<path d="M75.7042 15.5344C76.5653 15.6136 77.4264 15.772 78.2875 15.8512L78.3736 15.0593C77.5125 14.9801 76.6514 14.8217 75.7903 14.7425L75.7042 15.5344Z" fill="#E8E8E8"/>
<path d="M28.4307 13.4752L28.5168 14.2671C29.3779 14.1879 30.239 14.1879 31.1001 14.1087L31.014 13.3168C30.1529 13.396 29.2918 13.4752 28.4307 13.4752Z" fill="#E8E8E8"/>
<path d="M12.6717 14.9009L12.7578 15.6928C13.6189 15.6136 14.48 15.4552 15.3411 15.376L15.255 14.5841C14.3939 14.7425 13.4467 14.8217 12.6717 14.9009Z" fill="#E8E8E8"/>
<path d="M7.42046 15.6129L7.59268 16.4048C8.45377 16.3256 9.31487 16.1672 10.176 16.088L10.0899 15.2961C9.14265 15.3753 8.28155 15.4545 7.42046 15.6129Z" fill="#E8E8E8"/>
<path d="M-3 17.2762L-2.82778 18.0681C-2.0528 17.9097 -1.1917 17.7513 -0.244495 17.593L-0.416714 16.801C-1.36392 16.9594 -2.22501 17.1178 -3 17.2762Z" fill="#E8E8E8"/>
<path d="M2.16745 16.3257L2.33967 17.1176C3.11465 16.9593 4.06186 16.8801 4.92295 16.7217L4.75074 15.9298C3.88964 16.0882 3.02854 16.2465 2.16745 16.3257Z" fill="#E8E8E8"/>
<path d="M33.6837 13.238V14.0299C34.5448 14.0299 35.4059 13.9507 36.3531 13.9507V13.1588C35.4059 13.1588 34.5448 13.238 33.6837 13.238Z" fill="#E8E8E8"/>
<path d="M65.2873 14.584C66.1484 14.6632 67.0095 14.7424 67.8706 14.8215L67.9567 14.0296C67.0956 13.9504 66.2345 13.8713 65.2873 13.7921V14.584Z" fill="#E8E8E8"/>
<path d="M38.9349 13.0792V13.8711C39.796 13.8711 40.6571 13.8711 41.6043 13.7919V13C40.6571 13 39.796 13.0792 38.9349 13.0792Z" fill="#E8E8E8"/>
<path d="M70.453 14.98C71.3141 15.0592 72.1752 15.1384 73.0363 15.2176L73.1224 14.4257C72.2613 14.3465 71.4002 14.2673 70.5391 14.1881L70.453 14.98Z" fill="#E8E8E8"/>
<path d="M60.0325 14.1875C60.8936 14.2667 61.7547 14.2667 62.6158 14.3459L62.702 13.554C61.8409 13.4748 60.9798 13.4748 60.0325 13.3956V14.1875Z" fill="#E8E8E8"/>
<path d="M54.7813 13.9507C55.6424 13.9507 56.5035 14.0299 57.4507 14.0299V13.238C56.5896 13.238 55.7285 13.1588 54.7813 13.1588V13.9507Z" fill="#E8E8E8"/>
<path d="M44.1897 13V13.7919H45.2231C45.7397 13.7919 46.3425 13.7919 46.8591 13.7919V13C46.2564 13 45.7397 13 45.2231 13H44.1897Z" fill="#E8E8E8"/>
<path d="M49.5283 13.8711C50.3894 13.8711 51.2505 13.8711 52.1977 13.9503V13.1584C51.2505 13.0792 50.3894 13.0792 49.5283 13V13.8711Z" fill="#E8E8E8"/>
<path d="M194.794 52.8329C195.656 52.9912 196.517 53.1496 197.378 53.308L197.55 52.5161C196.689 52.3577 195.828 52.1993 194.967 52.0409L194.794 52.8329Z" fill="#E8E8E8"/>
<path d="M273.497 55.6844L273.583 56.4763C274.444 56.3971 275.305 56.3179 276.166 56.2387L276.08 55.4468C275.219 55.526 274.358 55.6052 273.497 55.6844Z" fill="#E8E8E8"/>
<path d="M278.664 55.2091L278.75 56.001C279.612 55.9218 280.473 55.8426 281.334 55.6843L281.248 54.8924C280.473 55.0507 279.612 55.1299 278.664 55.2091Z" fill="#E8E8E8"/>
<path d="M283.917 54.5755L284.003 55.3674C284.865 55.2882 285.726 55.1298 286.587 55.0506L286.501 54.2587C285.64 54.4171 284.778 54.4963 283.917 54.5755Z" fill="#E8E8E8"/>
<path d="M289.17 53.9422L289.256 54.7341C290.118 54.6549 290.979 54.4966 291.84 54.3382L291.668 53.5463C290.893 53.7047 290.031 53.863 289.17 53.9422Z" fill="#E8E8E8"/>
<path d="M294.336 53.229L294.508 54.0209C295.369 53.8625 296.23 53.7833 297.092 53.6249L296.919 52.833C296.058 52.9122 295.197 53.0706 294.336 53.229Z" fill="#E8E8E8"/>
<path d="M257.74 56.634V57.4259C258.601 57.4259 259.462 57.3467 260.409 57.3467L260.323 56.5548C259.462 56.634 258.601 56.634 257.74 56.634Z" fill="#E8E8E8"/>
<path d="M262.993 56.3972L263.079 57.1891C263.94 57.11 264.801 57.11 265.748 57.0308L265.662 56.2389C264.715 56.318 263.854 56.3972 262.993 56.3972Z" fill="#E8E8E8"/>
<path d="M268.246 56.0804L268.332 56.8723C269.193 56.7931 270.054 56.7139 271.001 56.7139L270.915 55.922C269.968 56.0012 269.107 56.0804 268.246 56.0804Z" fill="#E8E8E8"/>
<path d="M299.503 52.3581L299.676 53.15C300.537 52.9916 301.398 52.8332 302.259 52.6749L302.087 51.8829C301.226 52.0413 300.365 52.1997 299.503 52.3581Z" fill="#E8E8E8"/>
<path d="M320.084 48.2406L320.256 49.0325C321.117 48.8741 321.979 48.6366 322.84 48.399L322.581 47.6071C321.806 47.8447 320.945 48.0822 320.084 48.2406Z" fill="#E8E8E8"/>
<path d="M164.569 44.1219C165.344 44.4386 166.205 44.7554 166.98 44.993L167.324 44.2011C166.549 43.8843 165.688 43.5675 164.913 43.33L164.569 44.1219Z" fill="#E8E8E8"/>
<path d="M252.485 56.7929V57.5848C253.346 57.5848 254.207 57.5848 255.154 57.5056V56.7137C254.207 56.7929 253.346 56.7929 252.485 56.7929Z" fill="#E8E8E8"/>
<path d="M332.74 45.0725C331.879 45.3101 331.018 45.5476 330.243 45.7852L330.501 46.5771C331.362 46.3396 332.223 46.102 332.998 45.8644L332.74 45.0725Z" fill="#E8E8E8"/>
<path d="M304.671 51.4076L304.843 52.1995C305.704 52.0411 306.565 51.8828 307.426 51.7244L307.254 50.9325C306.393 51.0909 305.532 51.2492 304.671 51.4076Z" fill="#E8E8E8"/>
<path d="M315.002 49.3487L315.174 50.1406C316.036 49.9822 316.897 49.7446 317.758 49.5863L317.586 48.7943C316.638 49.0319 315.863 49.1903 315.002 49.3487Z" fill="#E8E8E8"/>
<path d="M309.837 50.4576L310.009 51.2495C310.87 51.0911 311.731 50.9327 312.592 50.6951L312.42 49.9032C311.559 50.1408 310.698 50.2992 309.837 50.4576Z" fill="#E8E8E8"/>
<path d="M325.162 47.0521L325.421 47.844C326.282 47.6064 327.143 47.4481 328.004 47.2105L327.746 46.4186C326.885 46.577 326.024 46.8145 325.162 47.0521Z" fill="#E8E8E8"/>
<path d="M184.549 50.4571C185.41 50.6947 186.271 50.9322 187.132 51.0906L187.39 50.2987C186.529 50.0611 185.668 49.9028 184.893 49.6652L184.549 50.4571Z" fill="#E8E8E8"/>
<path d="M189.629 51.7244C190.49 51.962 191.351 52.1203 192.212 52.2787L192.384 51.4868C191.523 51.3284 190.662 51.0909 189.801 50.9325L189.629 51.7244Z" fill="#E8E8E8"/>
<path d="M199.96 53.8625C200.821 54.0209 201.682 54.1793 202.543 54.2585L202.716 53.4666C201.854 53.3082 200.993 53.1498 200.132 53.0706L199.96 53.8625Z" fill="#E8E8E8"/>
<path d="M169.478 45.8644C170.339 46.1812 171.114 46.4188 171.975 46.7355L172.233 45.9436C171.372 45.706 170.597 45.3893 169.736 45.0725L169.478 45.8644Z" fill="#E8E8E8"/>
<path d="M205.126 54.6542C205.987 54.8125 206.848 54.8917 207.709 55.0501L207.881 54.2582C207.02 54.0998 206.159 54.0206 205.298 53.8623L205.126 54.6542Z" fill="#E8E8E8"/>
<path d="M179.467 49.111C180.328 49.3486 181.189 49.5862 181.964 49.8237L182.222 49.0318C181.361 48.7943 180.586 48.5567 179.725 48.3191L179.467 49.111Z" fill="#E8E8E8"/>
<path d="M174.472 47.5273C175.333 47.7649 176.108 48.0816 176.969 48.3192L177.228 47.5273C176.367 47.2897 175.592 47.0522 174.731 46.7354L174.472 47.5273Z" fill="#E8E8E8"/>
<path d="M215.632 56.0002C216.493 56.0794 217.354 56.1586 218.215 56.2378L218.301 55.4459C217.44 55.3667 216.579 55.2875 215.718 55.2083L215.632 56.0002Z" fill="#E8E8E8"/>
<path d="M231.389 57.268C232.25 57.3472 233.111 57.3471 234.058 57.4263V56.6344C233.197 56.6344 232.336 56.5552 231.389 56.4761V57.268Z" fill="#E8E8E8"/>
<path d="M236.644 57.5056C237.505 57.5056 238.366 57.5848 239.313 57.5848V56.7929C238.452 56.7929 237.591 56.7137 236.644 56.7137V57.5056Z" fill="#E8E8E8"/>
<path d="M241.895 57.6636C242.756 57.6636 243.617 57.6636 244.564 57.6636V56.8717C243.703 56.8717 242.842 56.8717 241.895 56.8717V57.6636Z" fill="#E8E8E8"/>
<path d="M226.136 56.9507C226.997 57.0299 227.858 57.1091 228.805 57.1091L228.891 56.3172C228.03 56.238 227.169 56.238 226.308 56.1588L226.136 56.9507Z" fill="#E8E8E8"/>
<path d="M247.234 56.8717V57.6636C248.095 57.6636 248.956 57.6636 249.903 57.6636V56.8717C248.956 56.8717 248.095 56.8717 247.234 56.8717Z" fill="#E8E8E8"/>
<path d="M210.381 55.3674C211.242 55.4466 212.103 55.605 212.964 55.6842L213.05 54.8923C212.189 54.8131 211.328 54.6547 210.467 54.5755L210.381 55.3674Z" fill="#E8E8E8"/>
<path d="M220.885 56.5551C221.746 56.6343 222.607 56.7135 223.554 56.7927L223.64 56.0008C222.779 55.9216 221.918 55.8424 221.057 55.7632L220.885 56.5551Z" fill="#E8E8E8"/>
</g>
</svg>
