<svg width="327" height="244" viewBox="0 0 327 244" fill="none" xmlns="http://www.w3.org/2000/svg">
<path d="M214.208 106.188C216.57 103.017 215.192 98.9056 214.208 97.2466L211.34 96.4312L205.66 99.0461L207.235 103.32C208.575 105.598 211.846 109.36 214.208 106.188Z" fill="#FFA281"/>
<path fill-rule="evenodd" clip-rule="evenodd" d="M124.737 118.024C128.075 117.956 129.063 112.5 130.13 110.602C130.732 109.529 131.742 109.122 132.083 108.32C132.469 107.405 131.731 105.361 130.584 105.327C129.222 105.293 128.404 107.36 126.826 106.829C125.248 106.253 125.872 102.977 126.61 100.661C127.348 98.3456 129.903 95.9847 130.312 93.3526C130.72 90.7206 130.005 89.2973 129.051 89.0149C127.678 88.6195 126.19 89.9186 125.429 91.4097C124.635 92.9799 124.192 96.4139 121.217 95.5328C120.263 95.2504 119.548 93.4204 120.059 91.2063C120.57 88.9923 123.136 87.7497 123.828 84.6884C124.907 79.9326 120.99 78.7691 118.231 81.9321C117.595 82.655 117.152 83.796 116.539 84.8126C115.29 86.9025 112.974 86.8121 112.27 86.2699C111.18 85.4452 110.646 84.9143 111.078 82.6889C111.509 80.4636 112.577 77.5943 112.883 75.3689C113.19 73.1436 112.225 69.0769 109.238 68.3426C107.535 67.9247 102.278 69.8112 102.188 79.0289C102.256 85.1063 107.706 85.1854 107.717 87.4108C107.728 89.6362 103.777 89.3312 103.834 91.2063C103.891 93.0928 105.616 94.4597 107.887 94.7647C110.158 95.0697 115.404 94.0643 115.812 96.4704C115.926 97.103 115.517 97.4871 114.984 97.7017C114.087 98.0519 112.894 97.905 112.542 98.7523C112.179 99.6447 112.452 102.006 114.37 102.48C116.482 103.011 118.344 101.565 120.365 103.248C121.058 103.824 121.478 104.796 121.104 105.598C120.513 106.671 119.378 105.88 118.674 106.287C118.197 106.558 117.731 108.128 118.174 108.942C118.617 109.755 120.763 110.455 121.217 111.596C121.66 112.703 122.012 117.414 123.999 117.945C124.18 115.674 124.18 113.562 124.022 111.596C123.863 109.619 123.533 107.801 123.056 106.106C122.591 104.412 121.966 102.864 121.228 101.418C120.479 99.9836 119.616 98.6619 118.628 97.4532C117.913 96.5834 117.164 95.7475 116.392 94.9341C115.619 94.1208 114.847 93.3526 114.087 92.5958C109.295 87.8175 104.992 83.5136 106.695 75.3125L106.729 75.143L107.433 75.2899L107.399 75.4706C106.593 79.3791 107.217 82.3726 108.637 84.9708C110.056 87.5689 112.27 89.783 114.598 92.11C116.13 93.6463 117.72 95.2278 119.185 97.0239C120.195 98.2665 121.104 99.6221 121.864 101.102C122.636 102.582 123.272 104.186 123.749 105.925C124.237 107.665 124.567 109.529 124.737 111.54C124.918 113.55 124.918 115.708 124.737 118.024Z" fill="#FFEDBE"/>
<path fill-rule="evenodd" clip-rule="evenodd" d="M258.341 203.13C258.591 204.836 257.967 206.507 256.604 208.1H42.3511C43.5433 167.501 83.8846 191.269 88.7669 188.93C91.333 187.315 88.6307 169.151 103.641 161.989C118.651 154.827 126.202 162.7 129.608 162.7C133.025 162.7 140.133 141.429 159.503 144.423C178.874 147.417 182.484 178.832 184.994 179.43C187.503 180.029 191.897 176.098 196.972 176.934C202.048 177.77 206.589 187.891 209.564 188.603C212.527 189.314 216.774 188.761 221.69 188.524C226.607 188.287 235.088 198.08 238.358 197.843C241.628 197.606 253.913 189.134 258.341 203.13Z" fill="#FFFAEC"/>
<path fill-rule="evenodd" clip-rule="evenodd" d="M125.225 146.66C124.203 147.485 123.136 147.857 122.841 147.496C122.545 147.134 123.136 146.163 124.158 145.338C125.18 144.514 126.247 144.141 126.542 144.502C126.837 144.875 126.247 145.835 125.225 146.66ZM125.282 151.122C124.964 151.269 124.646 151.269 124.578 151.122C124.51 150.975 124.703 150.727 125.021 150.58C125.338 150.433 125.656 150.433 125.725 150.58C125.804 150.727 125.6 150.964 125.282 151.122ZM115.994 158.171C115.54 158.408 115.086 158.442 114.995 158.261C114.904 158.069 115.188 157.73 115.653 157.504C116.108 157.267 116.562 157.233 116.653 157.414C116.743 157.606 116.448 157.945 115.994 158.171ZM124.237 139.78C123.851 139.385 121.932 140.097 120.876 141C119.82 141.904 119.253 142.717 119.888 143.565C120.944 144.943 124.793 140.39 124.237 139.78ZM119.991 136.403C120.172 136.595 119.934 137.612 119.321 138.357C118.708 139.103 118.231 139.204 117.913 139.125C117.595 139.035 117.209 138.515 117.425 137.883C117.64 137.25 119.525 135.601 119.991 136.403ZM108.001 129.523C108.727 129.806 109.477 129.727 109.681 129.331C109.885 128.936 109.454 128.394 108.727 128.1C108.001 127.818 107.251 127.897 107.047 128.292C106.854 128.687 107.274 129.241 108.001 129.523ZM108.478 136.064C108.568 135.601 109.84 135.205 110.669 135.172C111.498 135.138 112.145 135.68 112.281 135.996C112.406 136.312 112.27 136.968 111.407 137.205C110.533 137.453 108.228 137.035 108.478 136.064ZM108.512 142.537C108.523 142.107 110.022 141.192 111.623 141.034C113.224 140.876 113.905 141.317 114.177 141.791C114.45 142.266 114.28 143.339 113.269 143.824C112.258 144.299 108.103 144.017 108.512 142.537ZM111.657 153.935C111.668 153.517 113.224 152.839 114.234 152.602C115.245 152.353 116.596 152.455 116.653 153.054C116.709 153.641 115.528 154.149 114.7 154.341C113.871 154.533 111.668 154.364 111.657 153.935ZM109.727 148.716C109.727 148.162 111.6 147.338 112.985 147.259C114.37 147.18 115.347 147.36 115.483 148.399C115.71 150.117 109.761 149.54 109.727 148.716ZM107.603 111.178C109.533 110.986 111.452 111.054 111.941 111.822C112.962 113.449 110.067 120.012 111.759 120.735C112.429 120.893 114.007 113.889 113.939 112.726C113.893 111.935 113.36 111.517 112.917 111.325C112.872 111.302 112.849 111.257 112.86 111.201C112.872 111.156 112.917 111.122 112.962 111.11C114.314 111.088 116.948 111.619 117.402 112.455C117.606 112.839 118.219 116.239 117.243 119.278C115.71 124.033 112.486 129.173 114.813 130.122C116.562 130.924 119.798 119.108 119.048 111.754C119.037 111.641 119.082 111.54 119.162 111.472C119.253 111.404 119.355 111.382 119.457 111.415C121.058 111.912 123.862 113.957 124.93 114.138C125.214 115.403 125.373 118.137 124.544 120.893C123.238 125.265 120.797 130.258 119.934 132.641C118.844 135.601 121.512 134.121 122.477 132.167C123.397 130.269 128.404 120.69 128.62 116.036C128.631 115.911 128.688 115.81 128.79 115.742C128.892 115.674 129.017 115.663 129.131 115.708C131.254 116.51 134.524 119.673 133.968 123.141C133.741 124.542 132.946 127.162 131.379 129.501C128.745 133.443 124.952 137.216 125.509 137.657C125.69 137.815 127.337 136.922 128.347 135.556C130.107 133.183 131.629 129.546 132.106 128.755C132.548 128.032 134.547 124.813 134.796 123.209C134.808 123.164 134.842 123.13 134.887 123.118C134.933 123.107 134.978 123.13 135.001 123.175C136.886 126.914 138.77 127.547 138.589 131.444C138.407 134.9 128.836 141.859 129.119 142.785C129.392 143.712 131.776 143.271 133.854 140.82C135.921 138.368 138.509 133.33 138.77 132.562C139.622 134.008 143.823 137.465 141.836 141.475C138.85 147.078 129.653 147.451 130.107 148.93C130.243 149.382 131.878 148.727 132.128 148.614C135.41 147.304 141.836 143.937 142.903 143.463C140.837 144.999 144.027 150.489 139.486 153.099C137.419 154.296 129.369 152.41 128.643 154.725C128.291 155.347 129.687 156.827 136.023 154.511C135.648 155.471 137.204 157.301 136.602 158.465C136 159.628 134.433 160.102 133.672 160.916C132.162 162.531 131.617 163.695 129.846 164.09C128.007 164.508 126.633 163.706 125.588 162.463C124.964 161.729 123.783 158.679 122.772 157.03C121.319 152.85 112.792 135.307 107.637 111.11L107.603 111.178ZM106.252 126.598C107.036 125.287 103.504 124.067 100.927 121.413C98.3837 118.769 96.3172 115.527 97.6003 114.861C98.1793 114.601 103.425 118.939 104.878 118.408C105.696 118.001 102.414 113.189 103.073 112.138C103.221 111.935 105.31 111.427 107.433 111.201H107.422C109.533 128.552 118.889 151.777 121.149 157.956C121.467 161.447 125.157 167.513 122.818 170.981C119.412 176.03 113.587 174.234 111.259 174.63C114.348 173.76 120.195 165.141 117.992 163.435C117.743 163.209 116.834 163.864 115.994 165.129C114.643 167.163 113.258 170.201 112.1 172.031C111.362 173.206 110.113 173.827 108.727 173.715C106.604 173.534 103.38 172.336 100.995 167.682C100.961 167.626 100.972 167.558 101.018 167.513C101.063 167.468 101.12 167.445 101.188 167.456C104.663 168.394 108.534 166.937 109.613 166.395C110.703 165.897 113.655 161.447 112.713 160.385C112.338 159.967 110.669 160.374 108.773 161.492C105.877 163.209 102.267 166.09 100.439 166.146C97.4299 166.225 94.0237 160.893 93.0359 157.855C98.0771 156.714 101.835 157.324 103.266 156.962C104.697 156.612 109.817 155.211 109.692 154.556C109.579 153.901 103.334 154.838 102.085 155.008C100.836 155.189 94.3303 156.793 91.3895 154.997C90.2541 154.274 87.5518 147.688 88.6759 144.706C91.2192 146.705 95.0115 145.372 96.6919 148.603C98.3156 148.976 106.945 149.518 107.319 148.512C107.535 148.094 97.3505 146.75 94.8866 145.621C93.9896 145.157 93.5695 144.547 93.0472 144.344C92.525 144.141 88.9143 143.497 88.4715 141.678C88.0287 139.859 88.4375 135.273 89.0733 134.234C91.2646 136.482 104.583 143.158 106.695 142.096C107.921 141.441 105.208 140.255 103.754 139.95C102.312 139.656 91.469 136.742 88.5964 132.201C87.9606 130.642 89.3799 124.305 89.8 123.22C91.6507 127.953 107.274 137.442 107.705 133.771C107.774 133.138 94.4211 129.602 91.0035 122.757C90.6515 121.785 92.9791 117.73 93.6604 116.962C96.4648 119.605 104.027 128.913 106.195 126.699L106.252 126.598Z" fill="#FFEDBE"/>
<path d="M28.4007 193.883C28.4007 193.883 25.6865 193.072 23.5891 195.081C21.2626 197.32 22.9546 199.928 23.5891 200.263C24.2236 200.598 28.4007 193.883 28.4007 193.883Z" fill="#E89B21"/>
<path d="M34.8517 204.969C34.8517 204.969 32.8424 208.036 32.7543 209.076C32.7543 209.076 34.6754 209.552 34.5521 210.609C34.4287 211.667 30.3044 211.349 30.3044 211.349C30.3044 211.349 28.4186 210.38 28.2071 209.287C27.9956 208.195 31.4501 204.863 32.2256 204.74C33.0011 204.617 34.8517 204.969 34.8517 204.969Z" fill="#E2E2E2"/>
<path d="M51.4894 204.723C51.4894 204.723 50.4319 207.648 50.52 209.217C50.52 209.217 52.2649 209.006 52.6703 210.222C53.058 211.455 51.2779 212.108 48.8985 211.931C46.5368 211.755 45.6555 205.234 45.6555 205.234L51.4894 204.723Z" fill="#E2E2E2"/>
<path d="M41.6723 193.107C41.6723 193.107 36.2966 193.989 32.6483 193.671C29.0175 193.372 26.8673 194.112 25.0343 195.328C23.2013 196.562 22.4963 201.55 22.8488 203.295C23.2013 205.04 25.3163 209.04 25.3163 209.04C25.3163 209.04 24.8757 210.785 25.1048 211.402C25.3163 212.019 27.5547 212.46 29.0352 212.372C30.5157 212.283 31.2735 211.49 31.3617 211.103C31.4498 210.715 30.8858 209.358 29.2995 209.129C29.2995 209.129 29.5639 208.018 30.3042 207.331C31.3617 206.361 31.9257 205.586 31.9257 205.586C31.9257 205.586 37.6538 207.419 41.6899 206.679C41.6899 206.679 44.5275 212.266 45.1973 212.372C45.8494 212.495 49.6564 212.178 49.9208 211.878C50.1851 211.578 49.8855 209.34 47.7705 209.428C47.7705 209.428 47.0303 207.419 46.8893 206.837C46.8893 206.837 51.9124 207.19 54.9615 204.035C58.0106 200.88 55.9133 196.121 55.7723 196.192C55.6313 196.262 41.6723 193.107 41.6723 193.107Z" fill="white"/>
<path d="M26.0213 206.168C26.6029 205.216 25.2634 203.859 26.0213 202.748C26.7792 201.638 28.4359 202.889 29.6697 203.612C30.9034 204.335 34.0759 203.823 35.5035 203.665C36.9312 203.524 39.8393 204.194 41.214 205.004C42.5888 205.815 43.329 205.41 43.329 204.916C43.329 204.423 40.8791 201.144 41.1435 200.898C41.4079 200.651 44.3513 201.074 44.4394 200.898C44.5275 200.721 43.6815 199.294 43.2938 198.571C42.8355 197.672 43.3114 194.923 43.5934 193.53C42.4301 193.266 41.6723 193.09 41.6723 193.09C41.6723 193.09 36.2967 193.971 32.6483 193.654C29.0175 193.354 26.8673 194.094 25.0343 195.311C23.2013 196.544 22.4963 201.532 22.8488 203.277C23.0603 204.299 23.8534 206.097 24.4879 207.401C25.0695 207.119 25.7217 206.679 26.0213 206.168Z" fill="#F8B747"/>
<path d="M41.6722 206.679C41.6722 206.679 41.6545 206.661 41.6193 206.626C41.584 206.591 41.5312 206.538 41.4783 206.467C41.4254 206.397 41.3549 206.309 41.302 206.22C41.2492 206.132 41.1787 206.027 41.1082 205.921C41.0553 205.815 41.0024 205.709 40.9495 205.604C40.8967 205.498 40.8614 205.41 40.8262 205.322C40.7909 205.233 40.7733 205.163 40.7557 205.11C40.738 205.057 40.738 205.022 40.738 205.022C40.738 205.022 40.7557 205.04 40.7909 205.092C40.8262 205.128 40.879 205.198 40.9143 205.269C40.9672 205.339 41.02 205.427 41.0905 205.515C41.1434 205.604 41.2139 205.709 41.2668 205.815C41.3197 205.921 41.3725 206.027 41.4254 206.115C41.4783 206.22 41.5135 206.309 41.5488 206.397C41.584 206.485 41.6017 206.555 41.6193 206.608C41.6722 206.643 41.6722 206.679 41.6722 206.679Z" fill="#DA9A36"/>
<path d="M46.8894 206.855C46.8894 206.855 46.8717 206.82 46.8365 206.784C46.8189 206.732 46.766 206.679 46.7307 206.591C46.6955 206.502 46.6426 206.414 46.5897 206.309C46.5545 206.203 46.5016 206.097 46.4487 205.974C46.4135 205.85 46.3782 205.745 46.3254 205.639C46.2901 205.533 46.2725 205.427 46.2372 205.339C46.2196 205.251 46.202 205.181 46.1844 205.128C46.1667 205.075 46.1667 205.04 46.1667 205.04C46.1667 205.04 46.1844 205.057 46.2196 205.11C46.2549 205.163 46.3077 205.216 46.343 205.304C46.3782 205.392 46.4487 205.48 46.484 205.586C46.5369 205.692 46.5721 205.797 46.625 205.921C46.6602 206.044 46.6955 206.15 46.7307 206.256C46.766 206.361 46.7836 206.467 46.8012 206.555C46.8189 206.643 46.8365 206.732 46.8365 206.784C46.8894 206.82 46.8894 206.855 46.8894 206.855Z" fill="#BCBBBC"/>
<path d="M31.9258 205.586C31.9258 205.586 31.9434 205.551 31.961 205.498C31.9963 205.445 32.0139 205.357 32.0668 205.269C32.1197 205.181 32.1725 205.075 32.243 204.969C32.3135 204.863 32.384 204.74 32.4545 204.634C32.525 204.528 32.6132 204.405 32.6837 204.299C32.7542 204.194 32.8247 204.105 32.8952 204.017C32.948 203.929 33.0185 203.876 33.0362 203.823C33.0714 203.771 33.089 203.753 33.089 203.753C33.089 203.753 33.089 203.788 33.0714 203.841C33.0538 203.894 33.0362 203.982 32.9833 204.07C32.948 204.158 32.8952 204.282 32.8247 204.387C32.7542 204.493 32.6837 204.617 32.6132 204.74C32.525 204.846 32.4545 204.969 32.384 205.075C32.3135 205.181 32.2254 205.269 32.1549 205.339C32.0844 205.41 32.0139 205.48 31.9787 205.515C31.9434 205.568 31.9258 205.586 31.9258 205.586Z" fill="#BCBBBC"/>
<path d="M39.61 194.518C39.61 194.518 39.61 194.553 39.61 194.606C39.61 194.659 39.61 194.747 39.61 194.852C39.61 195.064 39.61 195.364 39.6453 195.698C39.6805 196.051 39.751 196.456 39.8568 196.879C39.9625 197.302 40.1211 197.761 40.2974 198.184C40.4736 198.624 40.6851 199.047 40.879 199.435C41.0905 199.823 41.2844 200.193 41.4783 200.492C41.6545 200.792 41.8131 201.056 41.9189 201.233C42.0246 201.409 42.0775 201.515 42.0775 201.515C42.0775 201.515 42.007 201.427 41.8836 201.25C41.7603 201.074 41.584 200.845 41.3725 200.545C41.1786 200.246 40.9319 199.893 40.7204 199.505C40.5089 199.118 40.2798 198.695 40.1035 198.254C39.9273 197.813 39.7863 197.355 39.6805 196.915C39.5748 196.474 39.5395 196.051 39.5219 195.698C39.5043 195.346 39.5395 195.046 39.5571 194.835C39.5748 194.729 39.5924 194.659 39.5924 194.588C39.61 194.553 39.61 194.518 39.61 194.518Z" fill="#DA9A36"/>
<path d="M40.7556 195.082C40.7556 195.082 40.7909 195.17 40.8614 195.311C40.9319 195.452 41.02 195.663 41.1434 195.91C41.2667 196.157 41.4254 196.439 41.584 196.738C41.7602 197.038 41.9541 197.338 42.1656 197.637C42.3771 197.937 42.5886 198.219 42.8001 198.483C43.0292 198.748 43.2231 198.994 43.417 199.188C43.6109 199.382 43.7695 199.558 43.8752 199.664C43.981 199.77 44.0515 199.84 44.0515 199.84C44.0515 199.84 43.981 199.787 43.84 199.699C43.7166 199.594 43.5227 199.47 43.3289 199.276C43.1174 199.1 42.8882 198.871 42.6591 198.607C42.43 198.342 42.2009 198.06 41.9894 197.761C41.7779 197.461 41.6016 197.144 41.4254 196.826C41.2667 196.527 41.1434 196.227 41.0376 195.963C40.9319 195.698 40.8614 195.487 40.8261 195.328C40.7909 195.187 40.7556 195.082 40.7556 195.082Z" fill="#DA9A36"/>
<path d="M28.1719 210.732C28.1719 210.732 28.2071 210.732 28.26 210.715C28.3129 210.715 28.401 210.715 28.5067 210.75C28.5949 210.785 28.7183 210.838 28.8064 210.926C28.8945 211.014 28.9826 211.138 29.0355 211.261C29.0884 211.385 29.106 211.526 29.1236 211.631C29.1412 211.755 29.1236 211.86 29.1236 211.966C29.1236 212.054 29.106 212.142 29.0884 212.195C29.0707 212.248 29.0708 212.283 29.0708 212.283C29.0708 212.283 29.0707 212.248 29.0531 212.195C29.0355 212.142 29.0179 212.054 29.0003 211.966C28.9826 211.878 28.965 211.772 28.9297 211.667C28.9121 211.561 28.8769 211.437 28.824 211.332C28.7888 211.226 28.7183 211.12 28.6478 211.05C28.5773 210.962 28.5067 210.891 28.4362 210.856C28.3657 210.803 28.2953 210.768 28.2424 210.75C28.2071 210.75 28.1719 210.732 28.1719 210.732Z" fill="#A8A8A8"/>
<path d="M29.4756 210.539C29.4756 210.539 29.5108 210.539 29.5637 210.539C29.599 210.539 29.6166 210.539 29.6518 210.539C29.6871 210.539 29.74 210.556 29.7752 210.556C29.8633 210.591 29.9691 210.627 30.0572 210.697C30.1453 210.768 30.2335 210.856 30.304 210.962C30.3745 211.067 30.4097 211.191 30.445 211.296C30.4802 211.402 30.4802 211.526 30.4626 211.614C30.4626 211.667 30.445 211.702 30.445 211.737C30.4273 211.772 30.4273 211.808 30.4097 211.825C30.3921 211.878 30.3745 211.896 30.3745 211.896C30.3745 211.896 30.3745 211.86 30.3745 211.808C30.3745 211.79 30.3745 211.755 30.3745 211.719C30.3745 211.684 30.3745 211.649 30.3568 211.614C30.3568 211.526 30.3216 211.437 30.2863 211.349C30.2511 211.261 30.1982 211.155 30.1453 211.067C30.0925 210.979 30.022 210.891 29.9515 210.821C29.881 210.75 29.8105 210.68 29.74 210.644C29.7047 210.627 29.6695 210.609 29.6342 210.591C29.599 210.574 29.5813 210.556 29.5461 210.556C29.4932 210.539 29.4756 210.539 29.4756 210.539Z" fill="#A8A8A8"/>
<path d="M32.1196 210.08C32.1196 210.08 32.1373 210.08 32.1725 210.098C32.2078 210.115 32.2606 210.133 32.3311 210.168C32.384 210.203 32.4545 210.256 32.5074 210.327C32.5603 210.397 32.6131 210.468 32.6484 210.556C32.6836 210.644 32.7013 210.732 32.7189 210.82C32.7365 210.908 32.7189 210.997 32.7013 211.049C32.6836 211.12 32.666 211.173 32.6484 211.208C32.6308 211.243 32.6131 211.261 32.6131 211.261C32.6131 211.261 32.6131 211.243 32.6131 211.19C32.6131 211.155 32.5955 211.102 32.5955 211.032C32.5955 210.961 32.5603 210.908 32.5603 210.82C32.5426 210.75 32.525 210.679 32.4898 210.609C32.4545 210.538 32.4369 210.468 32.384 210.397C32.3488 210.344 32.3135 210.274 32.2783 210.221C32.243 210.168 32.2078 210.133 32.1901 210.098C32.1196 210.098 32.1196 210.08 32.1196 210.08Z" fill="#A8A8A8"/>
<path d="M33.089 210.08C33.0537 210.063 33.0713 210.045 33.089 210.027C33.1066 210.01 33.1418 209.992 33.1771 210.01C33.23 210.027 33.2476 210.045 33.2652 210.063C33.3181 210.098 33.3886 210.151 33.4415 210.221C33.4943 210.292 33.5472 210.362 33.5825 210.45C33.6177 210.538 33.6353 210.627 33.653 210.715C33.6706 210.803 33.653 210.891 33.653 210.944C33.653 211.014 33.6177 211.067 33.6001 211.102C33.5825 211.138 33.5648 211.155 33.5648 211.155C33.5648 211.155 33.5648 211.138 33.5472 211.102C33.5472 211.067 33.5296 211.014 33.512 210.944C33.4943 210.891 33.4767 210.82 33.4591 210.75C33.4415 210.679 33.4062 210.609 33.371 210.538C33.3357 210.468 33.3005 210.397 33.2652 210.327C33.23 210.256 33.1947 210.204 33.1595 210.151C33.1418 210.133 33.1066 210.098 33.1242 210.098C33.1066 210.08 33.089 210.08 33.0713 210.08C33.089 210.063 33.0713 210.08 33.089 210.08Z" fill="#A8A8A8"/>
<path d="M47.4355 210.732C47.4355 210.732 47.4708 210.715 47.5237 210.715C47.5765 210.715 47.6647 210.697 47.7528 210.732C47.8409 210.768 47.9467 210.803 48.0348 210.873C48.1229 210.944 48.211 211.05 48.2639 211.155C48.3168 211.261 48.352 211.385 48.3873 211.49C48.4049 211.596 48.4049 211.702 48.4225 211.79C48.4225 211.878 48.4049 211.949 48.4049 212.001C48.4049 212.054 48.3873 212.09 48.3873 212.09C48.3873 212.09 48.3697 212.054 48.352 212.019C48.3344 211.966 48.3168 211.896 48.2815 211.825C48.2639 211.737 48.2287 211.649 48.1934 211.543C48.1582 211.437 48.1229 211.349 48.07 211.244C48.0172 211.155 47.9643 211.067 47.8938 210.997C47.8233 210.926 47.7528 210.856 47.6823 210.821C47.6118 210.785 47.5413 210.75 47.506 210.732C47.4708 210.732 47.4355 210.732 47.4355 210.732Z" fill="#A8A8A8"/>
<path d="M49.2862 211.966C49.2862 211.966 49.2862 211.931 49.2862 211.896C49.2862 211.843 49.2862 211.772 49.2862 211.702C49.2862 211.614 49.2685 211.526 49.2509 211.438C49.2333 211.349 49.198 211.244 49.1452 211.156C49.1099 211.067 49.057 210.979 49.0042 210.891C48.9513 210.821 48.8984 210.733 48.8279 210.68C48.775 210.627 48.7222 210.574 48.6869 210.556C48.6517 210.521 48.634 210.503 48.634 210.503C48.634 210.503 48.6693 210.503 48.7045 210.521C48.7574 210.539 48.8279 210.556 48.8984 210.592C48.9689 210.627 49.057 210.697 49.1452 210.785C49.2157 210.874 49.2862 210.962 49.339 211.085C49.3743 211.191 49.4095 211.314 49.4272 211.42C49.4448 211.526 49.4272 211.631 49.4095 211.72C49.3919 211.808 49.3567 211.878 49.339 211.913C49.3038 211.931 49.2862 211.966 49.2862 211.966Z" fill="#A8A8A8"/>
<path d="M50.2556 210.292C50.2556 210.292 50.2909 210.292 50.3261 210.31C50.379 210.327 50.4495 210.345 50.52 210.38C50.5905 210.415 50.6786 210.486 50.7667 210.574C50.8372 210.662 50.9077 210.768 50.9606 210.874C50.9959 210.979 51.0311 211.103 51.0487 211.226C51.0664 211.332 51.0487 211.438 51.0135 211.526C50.9959 211.614 50.9606 211.684 50.9254 211.72C50.8901 211.755 50.8901 211.79 50.8901 211.79C50.8901 211.79 50.8901 211.755 50.8901 211.72C50.8901 211.667 50.8901 211.596 50.8901 211.526C50.8901 211.438 50.8725 211.349 50.8549 211.261C50.8372 211.173 50.802 211.067 50.7667 210.979C50.7315 210.891 50.6786 210.785 50.6257 210.715C50.5729 210.644 50.52 210.556 50.4495 210.503C50.3966 210.451 50.3437 210.398 50.3085 210.362C50.2909 210.31 50.2556 210.292 50.2556 210.292Z" fill="#A8A8A8"/>
<path d="M51.366 210.274C51.366 210.274 51.3483 210.221 51.4188 210.204C51.4541 210.204 51.4893 210.204 51.5246 210.221C51.5598 210.239 51.5951 210.274 51.6303 210.309C51.6832 210.38 51.7537 210.468 51.789 210.574C51.8242 210.679 51.8595 210.785 51.8771 210.909C51.8771 211.032 51.8771 211.155 51.8595 211.261C51.8418 211.367 51.789 211.473 51.7537 211.543C51.7185 211.614 51.6656 211.684 51.6303 211.719C51.5951 211.755 51.5775 211.772 51.5775 211.772C51.5775 211.772 51.5775 211.737 51.5951 211.702C51.6127 211.649 51.6303 211.578 51.648 211.508C51.6656 211.437 51.6832 211.332 51.6832 211.243C51.7008 211.138 51.7008 211.05 51.6832 210.944C51.6832 210.838 51.6656 210.732 51.6303 210.644C51.5951 210.556 51.5775 210.468 51.5422 210.397C51.5246 210.362 51.5246 210.327 51.4893 210.309C51.4717 210.292 51.4541 210.274 51.4365 210.274C51.3836 210.239 51.366 210.274 51.366 210.274Z" fill="#A8A8A8"/>
<path d="M56.2308 197.337C56.2308 197.337 56.3013 197.514 56.3894 197.831C56.4775 198.148 56.5833 198.606 56.6185 199.153C56.6714 199.717 56.6714 200.369 56.5304 201.056C56.407 201.744 56.1603 202.466 55.7901 203.118C55.42 203.771 54.9089 204.352 54.3625 204.793C53.8161 205.251 53.2345 205.568 52.741 205.797C52.2299 206.027 51.7893 206.168 51.472 206.238C51.1548 206.309 50.9785 206.344 50.9785 206.344C50.9785 206.344 51.1548 206.309 51.472 206.203C51.7716 206.097 52.2123 205.938 52.7058 205.692C53.1993 205.445 53.7456 205.11 54.2744 204.652C54.8031 204.211 55.279 203.647 55.6315 203.013C56.0016 202.378 56.2484 201.691 56.3718 201.021C56.4951 200.351 56.548 199.699 56.5128 199.153C56.4775 198.606 56.4246 198.148 56.3541 197.831C56.2836 197.514 56.2308 197.337 56.2308 197.337Z" fill="#C2C1C1"/>
<path d="M24.5054 207.437C24.5054 207.437 24.5935 207.578 24.7345 207.842C24.8755 208.106 25.087 208.476 25.3161 208.917C25.3337 208.952 25.3514 208.988 25.369 209.04C25.3514 209.076 25.3514 209.111 25.3337 209.146C25.3337 209.181 25.3161 209.199 25.3161 209.234C25.2985 209.287 25.2809 209.358 25.2632 209.411C25.228 209.534 25.1927 209.657 25.1751 209.798C25.1222 210.063 25.0694 210.345 25.0341 210.644C25.0165 210.803 25.0165 210.962 25.0517 211.103C25.0694 211.173 25.087 211.244 25.1222 211.296C25.1575 211.332 25.228 211.402 25.2809 211.437C25.5452 211.631 25.8272 211.79 26.1445 211.896C26.4617 212.019 26.779 212.107 27.0962 212.195C27.4135 212.266 27.7484 212.336 28.048 212.372C28.6649 212.442 29.2641 212.372 29.74 212.231C30.2159 212.09 30.6036 211.896 30.8327 211.719C30.8856 211.684 30.9385 211.631 30.9914 211.596C31.0442 211.561 31.0795 211.526 31.0971 211.49C31.15 211.437 31.1852 211.402 31.1852 211.402C31.1852 211.402 31.1676 211.437 31.1147 211.49C31.0971 211.526 31.0619 211.561 31.009 211.596C30.9737 211.631 30.9209 211.684 30.868 211.737C30.6389 211.931 30.2687 212.178 29.7752 212.336C29.2817 212.495 28.6825 212.601 28.0304 212.548C27.7131 212.513 27.3782 212.46 27.0434 212.372C26.7085 212.301 26.3736 212.213 26.0564 212.09C25.7391 211.966 25.4219 211.808 25.1399 211.578C25.0694 211.526 25.0165 211.49 24.946 211.385C24.8931 211.296 24.8579 211.208 24.8402 211.12C24.805 210.944 24.8226 210.768 24.8402 210.609C24.8755 210.309 24.9284 210.01 24.9989 209.745C25.0341 209.604 25.0694 209.481 25.1046 209.358C25.1222 209.287 25.1399 209.234 25.1575 209.181C25.1751 209.146 25.1751 209.129 25.1927 209.093L25.2104 209.023C25.1927 208.988 25.1927 208.97 25.1751 208.952C24.946 208.494 24.7874 208.106 24.664 207.842C24.5759 207.578 24.5054 207.437 24.5054 207.437Z" fill="#C2C1C1"/>
<path d="M34.1113 206.167C34.1113 206.167 34.411 206.238 34.9221 206.326C35.4332 206.414 36.1735 206.538 37.0723 206.643C37.9712 206.749 39.0111 206.837 40.1214 206.784L40.5092 206.767C40.6326 206.749 40.7736 206.731 40.8969 206.731C41.0203 206.714 41.1613 206.696 41.2847 206.679L41.7429 206.59L41.9897 207.102L42.2012 207.542L42.6418 208.406C43.1882 209.463 43.7698 210.521 44.3867 211.437C44.5453 211.666 44.7039 211.878 44.8978 212.072C44.9859 212.16 45.0741 212.266 45.1798 212.319C45.2327 212.354 45.2856 212.354 45.3561 212.389C45.4089 212.407 45.4794 212.424 45.5323 212.424C46.0258 212.495 46.5193 212.46 46.9599 212.424C47.8588 212.336 48.5814 212.195 49.0926 212.089C49.6037 211.984 49.9033 211.913 49.9033 211.913C49.9033 211.913 49.6213 212.001 49.1102 212.125C48.5991 212.248 47.8764 212.424 46.9776 212.53C46.5369 212.583 46.0434 212.636 45.5147 212.565C45.4442 212.548 45.3737 212.548 45.3208 212.53C45.2503 212.512 45.1798 212.495 45.1269 212.46C45.0036 212.389 44.8978 212.283 44.7921 212.195C44.5982 212.001 44.4219 211.772 44.2633 211.543C43.6112 210.609 43.0296 209.551 42.4656 208.494L42.0249 207.63L41.6372 206.82L41.3199 206.872C41.1966 206.908 41.0556 206.908 40.9322 206.925C40.8088 206.943 40.6678 206.961 40.5444 206.961L40.1567 206.978C39.0287 207.013 37.9712 206.89 37.09 206.767C36.1911 206.643 35.4685 206.485 34.9573 206.379C34.3933 206.238 34.1113 206.167 34.1113 206.167Z" fill="#C2C1C1"/>
<path d="M47.0833 201.585C47.0833 201.585 47.1714 201.585 47.33 201.603C47.4181 201.621 47.5063 201.621 47.6296 201.621C47.7354 201.621 47.8764 201.621 47.9998 201.621C48.2818 201.621 48.599 201.603 48.9339 201.568C49.2687 201.532 49.6389 201.462 49.9914 201.374C50.3439 201.286 50.6964 201.18 51.0136 201.039C51.3309 200.898 51.6305 200.775 51.8596 200.651C51.983 200.581 52.0887 200.528 52.1945 200.475C52.3002 200.422 52.3707 200.369 52.4412 200.316C52.5822 200.228 52.6527 200.175 52.6527 200.175C52.6527 200.175 52.5822 200.228 52.4589 200.352C52.406 200.404 52.3179 200.475 52.2297 200.528C52.1416 200.598 52.0359 200.669 51.9125 200.739C51.6834 200.898 51.3837 201.057 51.0665 201.198C50.7492 201.339 50.3791 201.462 50.0266 201.568C49.6565 201.656 49.2864 201.709 48.9339 201.744C48.5814 201.762 48.2465 201.762 47.9645 201.744C47.8235 201.744 47.7001 201.726 47.5768 201.691C47.471 201.673 47.3653 201.656 47.2948 201.638C47.1714 201.603 47.0833 201.585 47.0833 201.585Z" fill="#DA9A36"/>
<path d="M31.8201 205.621C31.8201 205.621 31.8553 205.568 31.9082 205.463C31.9787 205.357 32.0492 205.216 32.1726 205.057C32.2783 204.899 32.4193 204.687 32.5427 204.493C32.6837 204.282 32.8071 204.053 32.8599 203.806C32.9304 203.559 32.9481 203.295 32.9481 203.066C32.9304 202.819 32.9128 202.59 32.8599 202.396C32.8247 202.202 32.7894 202.026 32.7718 201.92C32.7542 201.797 32.7366 201.744 32.7366 201.744C32.7366 201.744 32.7718 201.814 32.8071 201.92C32.8423 202.026 32.9128 202.184 32.9833 202.378C33.0362 202.572 33.1067 202.801 33.1243 203.066C33.1419 203.33 33.1419 203.612 33.0538 203.876C32.9657 204.141 32.8247 204.387 32.6837 204.599C32.5427 204.81 32.3841 204.987 32.2431 205.145C32.1197 205.304 31.9963 205.427 31.9258 205.515C31.8553 205.568 31.8201 205.621 31.8201 205.621Z" fill="#DA9A36"/>
<path d="M46.9068 206.89C46.9068 206.89 46.8892 206.873 46.8539 206.82C46.8187 206.767 46.7834 206.714 46.7306 206.626C46.6953 206.538 46.6248 206.45 46.5896 206.344C46.5367 206.238 46.5014 206.115 46.4486 206.009C46.4133 205.886 46.3781 205.78 46.3428 205.656C46.3076 205.551 46.2899 205.427 46.2723 205.339C46.2547 205.251 46.2547 205.163 46.2371 205.11C46.2371 205.057 46.2371 205.022 46.2371 205.022C46.2371 205.022 46.2547 205.057 46.2723 205.092C46.2899 205.145 46.3428 205.216 46.3781 205.286C46.4133 205.374 46.4662 205.463 46.5014 205.568C46.5367 205.674 46.5896 205.797 46.6424 205.903C46.6777 206.027 46.7129 206.132 46.7658 206.238C46.8011 206.344 46.8187 206.45 46.8539 206.538C46.8892 206.626 46.8892 206.696 46.9068 206.749C46.9068 206.873 46.9068 206.89 46.9068 206.89Z" fill="#DA9A36"/>
<path d="M51.2598 186.057C51.2598 186.057 54.679 181.863 57.2523 181.986C57.2523 181.986 59.0853 183.995 57.2523 190.305L51.2598 186.057Z" fill="#F8B747"/>
<path d="M46.184 186.639C46.184 186.639 43.2935 182.956 40.1034 182.779C40.1034 182.779 38.5347 186.798 41.5486 190.869L46.184 186.639Z" fill="#F8B747"/>
<path d="M49.0392 185.493C46.3778 185.687 44.1747 186.586 42.3946 188.595C40.6144 190.605 39.6451 193.107 39.8566 193.936C40.0681 194.764 41.9539 195.17 41.9539 195.17C41.9539 195.17 41.2489 195.469 41.7424 196.174C42.2183 196.879 45.4613 199.153 49.0568 199.946C52.6523 200.739 58.5919 195.751 58.821 195.134C59.0325 194.517 58.0279 194.429 58.0279 194.429C58.0279 194.429 59.6494 193.901 59.5965 193.513C59.5613 193.125 57.8869 189.001 55.0493 187.256C52.2117 185.511 50.7136 185.37 49.0392 185.493Z" fill="#F8B747"/>
<path d="M56.2301 193.424C56.0009 193.389 53.4277 192.032 53.1986 192.085C52.9694 192.138 51.8591 192.984 51.3832 192.755C50.9249 192.526 49.4268 190.322 49.4268 190.322C50.2728 188.63 49.7441 186.304 49.5149 185.476C49.3563 185.476 49.1977 185.493 49.0391 185.493C48.9862 185.493 48.9333 185.511 48.8804 185.511C48.7218 185.846 47.8582 187.943 48.5808 190.305C48.5808 190.305 47.2413 192.508 47.0122 192.737C46.7831 192.966 46.0252 192.455 45.6727 192.543C45.3202 192.631 43.7163 193.918 43.4872 194.006C43.2757 194.094 40.9492 193.248 39.8564 193.918C39.8564 193.936 39.8564 193.936 39.8564 193.953C40.0679 194.782 41.9538 195.187 41.9538 195.187C41.9538 195.187 41.2488 195.487 41.7423 196.192C42.2182 196.897 45.4612 199.17 49.0567 199.963C52.6522 200.756 58.5918 195.769 58.8209 195.152C59.0324 194.535 58.0278 194.447 58.0278 194.447C58.0278 194.447 59.6493 193.918 59.5964 193.53C59.5964 193.46 59.5083 193.231 59.3849 192.913C58.2569 192.578 56.4239 193.442 56.2301 193.424Z" fill="white"/>
<path d="M52.6699 186.375C52.6699 186.375 54.5029 183.537 56.7765 183.308C56.7765 183.308 57.834 185.758 56.7765 189.177C56.7765 189.177 54.4148 186.992 52.6699 186.375Z" fill="white"/>
<path d="M44.7914 187.115C44.7914 187.115 42.4649 184.225 40.8081 184.225C40.8081 184.225 39.7506 186.498 41.9009 189.688C41.9009 189.688 42.9936 187.979 44.7914 187.115Z" fill="white"/>
<path d="M46.4836 194.711C46.4836 194.711 47.5059 197.655 49.2331 197.778C50.978 197.902 51.8416 194.711 51.8416 194.711C51.8416 194.711 51.3129 195.875 50.555 195.963C49.7971 196.051 49.3918 195.822 49.3918 195.822C49.3918 195.822 48.4224 196.139 47.8584 196.069C47.2944 195.998 46.4836 194.711 46.4836 194.711Z" fill="#C22222"/>
<path d="M47.9641 196.069C47.9641 196.069 47.5235 197.355 47.7878 198.025C48.0522 198.695 48.6691 199.206 49.6913 199.171C50.7136 199.135 51.119 197.884 51.119 197.479C51.119 196.668 50.6607 195.963 50.6607 195.963C50.6607 195.963 49.9205 196.033 49.3917 195.822C48.7748 196.104 47.9641 196.069 47.9641 196.069Z" fill="#F09C9D"/>
<path d="M49.427 198.025C49.427 198.025 49.0216 196.862 49.4093 195.822" stroke="#1D1E1C" stroke-miterlimit="10"/>
<path d="M48.2638 193.76C48.5635 193.301 49.903 193.301 50.4317 193.76C50.9605 194.218 49.7972 194.941 49.339 194.835C48.7045 194.711 48.0171 194.165 48.2638 193.76Z" fill="#1D1E1C"/>
<path d="M46.7831 191.539C47.114 191.539 47.3823 191.263 47.3823 190.922C47.3823 190.581 47.114 190.305 46.7831 190.305C46.4521 190.305 46.1838 190.581 46.1838 190.922C46.1838 191.263 46.4521 191.539 46.7831 191.539Z" fill="#1D1E1C"/>
<path d="M52.1234 191.539C52.4544 191.539 52.7227 191.263 52.7227 190.922C52.7227 190.581 52.4544 190.305 52.1234 190.305C51.7925 190.305 51.5242 190.581 51.5242 190.922C51.5242 191.263 51.7925 191.539 52.1234 191.539Z" fill="#1D1E1C"/>
<path d="M44.7915 193.477C44.7915 193.477 44.8444 193.477 44.9149 193.46C45.003 193.442 45.1264 193.425 45.285 193.372C45.3731 193.336 45.4436 193.336 45.6904 193.213C45.7256 193.266 45.7609 193.336 45.8138 193.407C45.849 193.46 45.8843 193.53 45.9371 193.601C46.0253 193.742 46.131 193.9 46.2368 194.059C46.5364 194.517 46.9065 195.046 47.3824 195.504C47.5058 195.61 47.6291 195.716 47.7701 195.786C47.8054 195.804 47.8406 195.822 47.8759 195.822C47.9111 195.822 47.9288 195.839 47.9816 195.839C48.0698 195.857 48.1403 195.857 48.2284 195.874C48.5633 195.892 48.8981 195.839 49.1801 195.681C49.1977 195.663 49.2154 195.663 49.233 195.645C49.2682 195.628 49.3211 195.592 49.3564 195.557C49.5502 195.61 49.5855 195.61 49.6736 195.628C49.7617 195.645 49.8323 195.663 49.9204 195.681C50.079 195.698 50.2376 195.733 50.3962 195.733C50.5549 195.733 50.7135 195.733 50.8192 195.698C50.8545 195.698 50.8545 195.681 50.8721 195.663C50.8897 195.645 50.925 195.61 50.9426 195.592C50.9955 195.54 51.0484 195.487 51.1012 195.416C51.5066 194.887 51.8767 194.341 52.1764 193.883C52.2645 193.742 52.3526 193.618 52.4231 193.495C52.4584 193.425 52.5112 193.372 52.5289 193.319C52.5641 193.248 52.5994 193.195 52.6346 193.16C52.7051 193.213 52.7756 193.266 52.8461 193.284C52.899 193.319 52.9342 193.336 52.9695 193.354C53.04 193.389 53.1105 193.425 53.181 193.442C53.3396 193.495 53.463 193.513 53.5511 193.513C53.6392 193.513 53.6921 193.513 53.6921 193.513C53.6921 193.513 53.6392 193.53 53.5511 193.53C53.463 193.53 53.3396 193.548 53.1634 193.513C53.0929 193.495 53.0224 193.477 52.9342 193.46C52.899 193.442 52.8461 193.425 52.7932 193.407C52.758 193.389 52.7227 193.372 52.6875 193.354C52.6699 193.372 52.6699 193.407 52.6522 193.442C52.6522 193.46 52.6522 193.46 52.6346 193.495C52.617 193.53 52.5994 193.548 52.5994 193.583C52.5465 193.707 52.476 193.848 52.3879 193.989C52.1235 194.482 51.8239 195.064 51.4009 195.628C51.348 195.698 51.2951 195.769 51.2246 195.839C51.1894 195.874 51.1541 195.91 51.1189 195.945C51.066 195.98 51.0131 196.015 50.9602 196.033C50.7487 196.104 50.5725 196.104 50.3962 196.104C50.22 196.104 50.0437 196.086 49.8675 196.051C49.7794 196.033 49.6913 196.033 49.6031 196.015C49.5326 195.998 49.3916 195.98 49.4269 195.98C49.4093 195.998 49.374 196.015 49.3388 196.033C48.9686 196.227 48.5456 196.28 48.1579 196.245C48.0521 196.227 47.964 196.227 47.8583 196.192C47.8054 196.192 47.7525 196.174 47.6996 196.156C47.6468 196.139 47.5939 196.121 47.5586 196.086C47.3824 195.98 47.2414 195.857 47.1004 195.733C46.5893 195.205 46.272 194.623 46.0076 194.147C45.9195 193.971 45.8314 193.812 45.7609 193.654C45.7256 193.583 45.6904 193.513 45.6728 193.442C45.6551 193.407 45.6375 193.354 45.6199 193.319C45.5141 193.354 45.3731 193.389 45.285 193.407C45.1264 193.425 44.9854 193.425 44.8973 193.425C44.8268 193.477 44.7915 193.477 44.7915 193.477Z" fill="#373736"/>
<path d="M43.0994 197.461C43.0994 197.461 43.399 197.637 43.9101 197.901C44.4389 198.166 45.1791 198.554 46.1132 198.941C47.0474 199.329 48.1401 199.77 49.3915 199.911C50.0084 199.964 50.6605 199.893 51.2774 199.734C51.9119 199.576 52.5464 199.347 53.1456 199.065C54.3617 198.518 55.525 197.813 56.512 197.055C57.0055 196.668 57.4814 196.28 57.922 195.91C58.1335 195.716 58.345 195.54 58.5212 195.328C58.6094 195.222 58.6799 195.117 58.7327 195.011C58.7856 194.905 58.768 194.782 58.6975 194.711C58.6446 194.658 58.5917 194.623 58.5212 194.588C58.486 194.57 58.4507 194.57 58.4155 194.553C58.3802 194.535 58.3626 194.535 58.2921 194.517C58.0806 194.482 57.9044 194.447 57.7986 194.447C57.922 194.394 58.063 194.359 58.1687 194.306C58.2569 194.271 58.3626 194.235 58.4507 194.2C58.5917 194.147 58.7327 194.077 58.8561 194.024C59.1028 193.901 59.2967 193.795 59.4377 193.654C59.4554 193.636 59.4906 193.601 59.5082 193.583C59.5259 193.566 59.5435 193.53 59.5611 193.495C59.5787 193.442 59.5964 193.372 59.5964 193.319C59.614 193.213 59.5787 193.107 59.5259 193.055C59.4906 192.984 59.4377 192.949 59.4025 192.931C59.3672 192.914 59.3496 192.896 59.3496 192.896C59.3496 192.896 59.3672 192.914 59.4025 192.931C59.4377 192.949 59.4906 193.002 59.5259 193.055C59.5787 193.125 59.614 193.213 59.5964 193.337C59.5964 193.389 59.5787 193.46 59.5611 193.513C59.5435 193.548 59.5259 193.583 59.5082 193.601C59.4906 193.636 59.4554 193.654 59.4377 193.689C59.2967 193.83 59.1028 193.953 58.8561 194.077C58.7327 194.147 58.6094 194.2 58.4507 194.271C58.3626 194.306 58.2569 194.359 58.1511 194.394C58.204 194.394 58.2745 194.412 58.3274 194.412C58.3274 194.412 58.3802 194.429 58.4155 194.429C58.4507 194.447 58.486 194.447 58.5212 194.465C58.5917 194.5 58.6799 194.535 58.7504 194.606C58.8032 194.658 58.8385 194.729 58.8561 194.817C58.8561 194.888 58.8561 194.976 58.8209 195.029C58.768 195.17 58.6799 195.275 58.6094 195.381C58.4331 195.593 58.2216 195.786 58.0101 195.98C57.5695 196.368 57.1112 196.756 56.6177 197.161C55.6131 197.937 54.4499 198.642 53.2161 199.206C52.5992 199.488 51.9647 199.717 51.3126 199.875C50.6605 200.034 49.9907 200.122 49.3562 200.052C48.0696 199.893 46.9769 199.417 46.0604 199.012C45.1439 198.606 44.4036 198.183 43.8925 197.901C43.399 197.637 43.0994 197.461 43.0994 197.461Z" fill="#C2C1C1"/>
<path fill-rule="evenodd" clip-rule="evenodd" d="M305.859 208.1C297.808 190.071 280.55 189.292 279.154 186.219C277.655 182.955 285.58 177.374 279.699 168.156C273.817 158.939 266.357 160.249 264.314 157.233C264.189 157.052 263.133 135.792 249.201 128.009C231.534 118.136 221.338 134.2 220.691 134.121C218.148 133.827 201.764 123.423 188.468 132.483C175.161 141.554 180.429 151.393 178.124 152.579C175.819 153.765 164.851 146.75 147.74 156.996C130.63 167.253 133.298 194.522 125.441 195.708C117.822 196.86 94.2623 194.94 95.5453 208.077H305.859V208.1Z" fill="#FFFAEC"/>
<path d="M265.554 195.732C265.444 195.688 260.756 197.309 259.726 199.325C258.697 201.34 261.523 207.014 261.523 207.014C261.523 207.014 257.076 206.16 256.243 207.54C255.411 208.92 256.725 209.029 256.725 209.029C256.725 209.029 266.079 209.774 267.657 209.402C269.234 209.029 269.935 205.042 269.891 204.013C269.847 202.983 267.941 196.586 266.868 195.184C265.838 193.76 265.554 195.732 265.554 195.732Z" fill="#2F353C"/>
<path d="M256.66 192.599C256.66 192.599 256.66 204.999 256.09 207.08C256.09 207.08 254.162 206.598 253.177 207.452C252.191 208.328 252.695 209.533 252.695 209.533C252.695 209.533 256.397 209.774 257.69 209.533C258.982 209.292 260.187 207.606 260.187 207.606C260.187 207.606 260.625 194.549 260.559 194.396C260.516 194.242 256.66 192.599 256.66 192.599Z" fill="#2F353C"/>
<path d="M257.645 201.362C257.207 201.274 256.834 201.449 256.506 201.69C256.418 204.122 256.287 206.291 256.09 207.058C256.09 207.058 254.162 206.576 253.176 207.43C252.19 208.306 252.694 209.511 252.694 209.511C252.694 209.511 256.396 209.752 257.689 209.511C259.003 209.27 260.186 207.583 260.186 207.583C260.186 207.583 260.252 205.831 260.318 203.596C259.573 202.873 258.477 201.537 257.645 201.362Z" fill="#C47912"/>
<path d="M253.066 209.555C253.066 209.555 253.066 209.533 253.044 209.511C253.023 209.489 253.001 209.445 253.001 209.38C252.957 209.27 252.935 209.117 252.979 208.92C253.023 208.744 253.11 208.547 253.285 208.394C253.439 208.262 253.68 208.197 253.855 208.241C253.855 208.241 253.767 208.372 253.614 208.613C253.548 208.723 253.483 208.832 253.395 208.964C253.285 209.139 253.176 209.292 253.066 209.555Z" fill="#977F18"/>
<path d="M254.6 209.643C254.6 209.643 254.6 209.621 254.578 209.599C254.556 209.577 254.556 209.533 254.534 209.468C254.49 209.358 254.468 209.183 254.49 209.008C254.512 208.811 254.6 208.613 254.731 208.438C254.863 208.263 255.082 208.153 255.279 208.153C255.279 208.153 255.257 208.197 255.235 208.285C255.213 208.372 255.169 208.482 255.104 208.591C255.06 208.723 254.994 208.854 254.907 209.008C254.819 209.161 254.709 209.358 254.6 209.643Z" fill="#977F18"/>
<path d="M254.184 167.099C254.184 167.099 254.819 161.775 254.71 160.724C254.71 160.724 255.301 159.41 258.324 166.135C258.302 166.135 258.28 167.975 254.184 167.099Z" fill="#2F353C"/>
<path d="M275.653 203.619C275.653 203.619 278.435 201.275 279.18 201.34C279.947 201.406 280.713 202.72 280.494 203.312C280.275 203.903 276.814 205.831 275.916 205.7C275.018 205.612 275.653 203.619 275.653 203.619Z" fill="#41434A"/>
<path d="M251.774 170.232C251.774 170.232 252.935 167.471 253.592 167.121C254.249 166.749 260.887 165.237 262.728 166.617C264.546 167.997 265.094 180.484 265.006 181.273C265.006 181.273 271.162 190.321 271.95 191.898C272.739 193.475 273.769 197.309 273.769 197.309C273.769 197.309 275.828 204.911 274.733 206.948C273.637 208.986 267.744 207.89 267.744 207.89C267.744 207.89 263.1 202.085 262.224 201.077C261.347 200.069 257.667 196.301 257.01 194.593C256.353 192.884 256.462 186.136 256.44 185.26C256.418 184.384 254.162 179.104 254.162 179.104C254.162 179.104 247.853 179.849 247.502 179.411C247.13 178.973 246.407 177.943 246.407 177.943C246.407 177.943 246.122 178.228 245.465 177.79C244.807 177.352 243.646 174.241 243.865 173.737C244.085 173.211 250.328 170.823 251.774 170.232Z" fill="#41434A"/>
<path d="M258.5 184.559C258.828 183.573 258.018 180.156 258.018 179.871C258.018 179.608 259.157 178.776 259.923 177.943C260.69 177.111 261.238 173.934 260.844 173.562C260.471 173.189 259.42 174.329 258.938 174.811C258.456 175.292 257.207 175.577 256.878 175.358C256.55 175.139 256.44 174.263 256.287 173.89C256.134 173.518 254.972 172.97 254.009 172.686C253.045 172.401 250.963 173.671 250.153 174.263C249.342 174.854 247.546 174.416 246.801 174.263C246.232 174.131 244.632 173.781 243.953 173.628C243.931 173.649 243.909 173.671 243.887 173.693C243.668 174.197 244.829 177.33 245.487 177.746C246.144 178.184 246.429 177.899 246.429 177.899C246.429 177.899 247.152 178.907 247.524 179.367C247.896 179.805 254.184 179.061 254.184 179.061C254.184 179.061 256.44 184.362 256.462 185.216C256.462 185.457 256.462 186.093 256.462 186.947C257.185 186.597 258.259 185.348 258.5 184.559Z" fill="#E68B00"/>
<path d="M246.385 177.899C246.385 177.899 246.407 177.877 246.472 177.855C246.516 177.834 246.604 177.812 246.713 177.812C246.911 177.79 247.217 177.812 247.568 177.899C247.743 177.943 247.94 178.009 248.137 178.096C248.335 178.184 248.532 178.272 248.751 178.294C249.189 178.315 249.737 178.228 250.284 178.118C251.402 177.877 252.628 177.505 253.855 177.089C254.162 176.979 254.469 176.891 254.775 176.782C254.863 176.76 254.929 176.738 255.016 176.716C255.06 176.716 255.104 176.694 255.17 176.694H255.323C255.432 176.694 255.52 176.738 255.608 176.76C255.695 176.804 255.783 176.826 255.849 176.891C256.155 177.089 256.353 177.352 256.528 177.614C256.703 177.877 256.813 178.162 256.922 178.447C256.922 178.447 256.878 178.381 256.813 178.272C256.747 178.162 256.637 177.987 256.462 177.79C256.155 177.417 255.542 176.651 254.644 177.264C253.724 177.636 252.563 178.053 251.161 178.381C250.81 178.469 250.438 178.535 250.065 178.578C249.693 178.622 249.277 178.666 248.86 178.622C248.641 178.6 248.422 178.535 248.247 178.425C248.05 178.337 247.874 178.228 247.699 178.14C247.502 178.053 247.305 177.987 247.086 177.943C246.976 177.921 246.867 177.899 246.757 177.899C246.626 177.834 246.516 177.834 246.385 177.899Z" fill="#977F18"/>
<path d="M254.184 179.082C254.184 179.082 255.914 178.907 256.44 178.841L254.184 179.082Z" fill="#DD9217"/>
<path d="M256.133 171.524C256.436 171.524 256.681 171.191 256.681 170.78C256.681 170.368 256.436 170.035 256.133 170.035C255.831 170.035 255.586 170.368 255.586 170.78C255.586 171.191 255.831 171.524 256.133 171.524Z" fill="#1D1D1B"/>
<path d="M253.264 171.262C253.566 171.262 253.811 170.928 253.811 170.517C253.811 170.105 253.566 169.772 253.264 169.772C252.961 169.772 252.716 170.105 252.716 170.517C252.716 170.928 252.961 171.262 253.264 171.262Z" fill="#1D1D1B"/>
<path d="M243.865 173.715C243.865 173.715 244.961 173.058 246.911 172.992C248.86 172.927 249.802 173.277 249.693 173.715C249.583 174.175 247.195 175.577 246.429 175.577C245.662 175.577 243.931 174.197 243.865 173.715Z" fill="#1D1D1B"/>
<path d="M257.69 189.62C257.69 189.62 258.851 193.322 259.442 194.286C259.442 194.286 259.924 202.545 259.157 207.386C259.157 207.386 257.032 207.343 256.441 207.868C255.849 208.416 256.178 210.103 256.178 210.103C256.178 210.103 259.486 210.738 261.896 209.533C261.896 209.533 264.065 199.609 264.722 195.206L265.97 193.585" fill="#41434A"/>
<path d="M261.019 201.931C260.493 201.69 259.945 201.997 259.551 202.369C259.507 204.144 259.376 205.94 259.157 207.408C259.157 207.408 257.032 207.364 256.44 207.89C255.849 208.438 256.177 210.125 256.177 210.125C256.177 210.125 259.485 210.76 261.895 209.555C261.895 209.555 262.377 207.32 262.968 204.516C262.421 203.574 261.698 202.238 261.019 201.931Z" fill="#DD9217"/>
<path d="M256.725 210.191C256.725 210.191 256.725 210.169 256.703 210.147C256.681 210.103 256.659 210.059 256.659 209.993C256.615 209.862 256.593 209.665 256.615 209.446C256.637 209.227 256.725 208.986 256.9 208.789C257.053 208.591 257.272 208.46 257.513 208.438C257.513 208.438 257.492 208.504 257.448 208.591C257.404 208.679 257.36 208.789 257.294 208.942C257.229 209.073 257.141 209.249 257.053 209.446C256.944 209.621 256.834 209.84 256.725 210.191Z" fill="#977F18"/>
<path d="M258.215 210.256C258.215 210.256 258.171 210.191 258.149 210.081C258.105 209.972 258.083 209.818 258.083 209.621C258.083 209.446 258.127 209.227 258.237 209.052C258.346 208.876 258.499 208.723 258.697 208.657C258.697 208.657 258.697 208.723 258.675 208.789C258.675 208.876 258.653 208.986 258.609 209.117C258.587 209.249 258.543 209.402 258.478 209.577C258.412 209.774 258.324 209.972 258.215 210.256Z" fill="#977F18"/>
<path d="M259.529 198.119C259.529 198.119 259.507 197.813 259.463 197.287C259.419 196.761 259.376 196.038 259.332 195.206C259.31 195.009 259.31 194.79 259.288 194.57C259.288 194.527 259.266 194.461 259.266 194.417C259.266 194.395 259.266 194.395 259.266 194.395L259.288 194.373C259.332 194.351 259.354 194.33 259.398 194.308C259.135 194.439 259.332 194.351 259.266 194.373L259.244 194.351L259.222 194.308C259.178 194.198 259.135 194.089 259.069 194.001C258.872 193.585 258.696 193.147 258.521 192.708C258.346 192.27 258.193 191.81 258.061 191.372C257.93 190.934 257.82 190.474 257.776 190.058C257.776 190.058 257.842 190.255 257.995 190.605C258.149 190.956 258.39 191.46 258.696 192.117C258.85 192.445 259.003 192.818 259.178 193.212C259.266 193.409 259.354 193.628 259.441 193.848C259.485 193.957 259.529 194.067 259.595 194.176L259.617 194.22C259.617 194.242 259.638 194.264 259.638 194.308C259.66 194.373 259.66 194.395 259.66 194.439C259.66 194.505 259.682 194.57 259.682 194.636C259.748 195.666 259.682 196.827 259.529 198.119Z" fill="#2C2D3C"/>
<path d="M262.925 204.495C262.925 204.495 263.122 202.852 263.494 200.661C263.669 199.566 263.888 198.339 264.151 197.112C264.283 196.499 264.414 195.885 264.546 195.294L264.568 195.228C264.568 195.206 264.568 195.162 264.59 195.14L264.677 195.031L264.83 194.856C264.94 194.746 265.028 194.636 265.115 194.527C265.312 194.308 265.51 194.089 265.685 193.892C265.685 193.892 265.553 194.133 265.291 194.549C265.225 194.658 265.137 194.768 265.071 194.899C265.028 194.965 264.984 195.031 264.94 195.096C264.896 195.162 264.83 195.25 264.83 195.294C264.787 195.644 264.721 196.082 264.655 196.542C264.349 198.448 263.845 201.165 262.925 204.495Z" fill="#2C2D3C"/>
<path d="M271.995 196.367C271.885 196.323 267.197 197.944 266.168 199.96C265.138 201.975 269.081 207.627 269.081 207.627C269.081 207.627 263.495 206.795 262.684 208.175C261.874 209.555 263.166 209.664 263.166 209.664C263.166 209.664 272.521 210.409 274.098 210.037C275.675 209.664 276.376 205.677 276.333 204.648C276.289 203.618 274.383 197.221 273.309 195.819C272.236 194.417 271.995 196.367 271.995 196.367Z" fill="#41434A"/>
<path d="M268.358 207.54C267.613 207.452 266.43 207.364 265.313 207.386C264.108 207.43 263.012 207.627 262.684 208.175C261.873 209.555 263.166 209.665 263.166 209.665C263.166 209.665 265.641 209.862 268.248 209.993C268.84 208.92 268.664 208.087 268.358 207.54Z" fill="#DD9217"/>
<path d="M262.925 209.555C262.925 209.555 262.903 209.489 262.881 209.402C262.859 209.292 262.837 209.139 262.859 208.985C262.881 208.81 262.947 208.635 263.078 208.482C263.209 208.328 263.385 208.219 263.56 208.197C263.56 208.197 263.56 208.241 263.538 208.328C263.516 208.416 263.494 208.503 263.45 208.635C263.407 208.744 263.363 208.876 263.275 209.029C263.166 209.161 263.056 209.314 262.925 209.555Z" fill="#977F18"/>
<path d="M264.02 209.708C264.02 209.708 263.976 209.665 263.954 209.555C263.911 209.467 263.889 209.314 263.889 209.161C263.889 209.007 263.954 208.81 264.042 208.657C264.152 208.503 264.305 208.394 264.48 208.35C264.48 208.35 264.48 208.394 264.458 208.482C264.458 208.569 264.436 208.657 264.414 208.766C264.393 208.876 264.349 209.007 264.283 209.139C264.239 209.314 264.13 209.467 264.02 209.708Z" fill="#977F18"/>
<path d="M272.016 196.411C272.016 196.411 271.468 196.586 270.592 196.98C270.154 197.177 269.65 197.418 269.081 197.747C268.533 198.054 267.919 198.448 267.35 198.93C267.218 199.061 267.065 199.193 266.934 199.324C266.824 199.478 266.671 199.609 266.561 199.762C266.452 199.916 266.32 200.091 266.276 200.244C266.233 200.42 266.189 200.595 266.189 200.792C266.189 201.186 266.254 201.581 266.386 201.997C266.495 202.391 266.649 202.808 266.802 203.202C267.459 204.779 268.336 206.291 269.124 207.649C269.124 207.649 268.883 207.364 268.467 206.795C268.051 206.225 267.459 205.371 266.824 204.188C266.517 203.596 266.189 202.917 265.948 202.107C265.838 201.712 265.729 201.274 265.751 200.792C265.751 200.551 265.794 200.31 265.904 200.047C265.926 199.982 265.97 199.916 265.992 199.872L266.101 199.719C266.167 199.609 266.254 199.521 266.32 199.412C266.977 198.667 267.832 198.054 268.796 197.594C269.782 197.09 270.855 196.695 272.016 196.411Z" fill="#2C2D3C"/>
<path d="M258.018 166.77C258.018 166.77 261.829 158.511 262.421 158.402C263.012 158.292 263.604 166.77 263.604 166.77C263.604 166.77 265.356 167.581 264.984 168.085C264.612 168.589 262.903 169.224 262.903 169.224C262.903 169.224 258.784 170.035 258.018 166.77Z" fill="#41434A"/>
<path d="M259.967 168.085C259.967 168.085 259.595 166.288 259.967 165.368C260.34 164.448 262.202 160.198 262.421 160.417C262.64 160.636 262.903 166.727 263.056 167.011C263.21 167.274 260.844 168.939 259.967 168.085Z" fill="#CC800F"/>
<path fill-rule="evenodd" clip-rule="evenodd" d="M190.137 50.0991H136.647C130.051 50.0991 124.657 55.4649 124.657 62.028V196.16C124.657 202.723 130.051 208.089 136.647 208.089H190.137C196.734 208.089 202.127 202.723 202.127 196.16V62.0393C202.127 55.4762 196.734 50.0991 190.137 50.0991Z" fill="#FFBE17"/>
<path d="M192.756 55.1597H134.029C131.267 55.1597 129.029 57.3982 129.029 60.1597V197.181C129.029 199.942 131.267 202.181 134.029 202.181H192.756C195.517 202.181 197.756 199.942 197.756 197.181V60.1597C197.756 57.3982 195.517 55.1597 192.756 55.1597Z" fill="url(#paint0_linear)"/>
<path fill-rule="evenodd" clip-rule="evenodd" d="M220.759 117.719C219.499 117.854 216.967 118.035 215.559 118.815C215.82 120.995 216.933 126.293 217.523 128.066C217.966 129.399 218.931 130.066 219.953 129.975C220.929 129.896 221.304 128.315 221.395 126.304C221.531 123.107 220.918 118.803 220.759 117.719Z" fill="#FFA281"/>
<path fill-rule="evenodd" clip-rule="evenodd" d="M215.627 120.204C217.239 120.328 220.089 119.99 221.69 119.685C221.679 117.414 221.19 110.523 219.022 107.564C218.375 107.191 216.024 105.779 215.457 106.377C213.129 108.772 214.957 118.047 215.627 120.204Z" fill="#FFD358"/>
<path d="M229.567 102.71L227.272 111.069L231.741 112.283L234.036 103.925L229.567 102.71Z" fill="#059170"/>
<path fill-rule="evenodd" clip-rule="evenodd" d="M232.59 109.055C230.694 104.92 225.539 107.055 230.035 110.749C229.399 115.539 220.884 121.04 218.919 125.152C217.932 128.01 218.477 130.36 219.283 130.642C223.404 132.11 233.748 111.596 232.59 109.055Z" fill="#FFA281"/>
<path fill-rule="evenodd" clip-rule="evenodd" d="M210.665 194.669L207.452 198.351C206.941 198.86 205.465 200.159 203.592 201.785C202.15 201.593 201.173 200.125 201.605 199.447C202.036 198.769 207.463 193.02 207.463 193.02L210.665 194.669Z" fill="#F29D7E"/>
<path fill-rule="evenodd" clip-rule="evenodd" d="M199.379 199.99C199.777 200.532 201.344 202.464 201.491 202.667C201.639 202.859 201.718 203.458 201.809 203.571C202.297 204.181 203.262 204.745 203.49 204.904C203.717 205.062 206.532 208.1 206.612 208.067C206.691 208.033 207.043 207.66 206.907 207.265C206.839 207.061 206.487 206.259 206.112 205.265C205.738 204.294 205.386 203.22 205.249 202.701C205.113 202.181 205.295 201.82 204.875 201.266C204.455 200.724 203.387 200.803 203.035 200.091C202.672 199.38 203.297 198.747 203.024 198.408C202.763 198.069 201.457 198.137 199.379 199.99Z" fill="#184656"/>
<path fill-rule="evenodd" clip-rule="evenodd" d="M199.391 200.001H199.368C199.254 200.046 198.811 200.249 198.755 200.351C198.709 200.453 199.538 201.978 201.673 204.214C203.807 206.462 205.613 208.315 206.612 208.055C206.464 208.01 203.717 205.05 203.501 204.892C203.274 204.734 202.297 204.181 201.82 203.559C201.73 203.435 201.65 202.848 201.502 202.656C201.355 202.464 199.799 200.554 199.391 200.001Z" fill="#F2B741"/>
<path fill-rule="evenodd" clip-rule="evenodd" d="M205.147 201.831C205.113 201.605 205.124 200.362 205.022 200.283C204.92 200.204 203.875 199.922 203.773 200.012C203.705 200.069 203.614 200.362 203.546 200.577C204 200.814 204.591 200.893 204.875 201.277C205.045 201.481 205.113 201.65 205.147 201.831Z" fill="#184656"/>
<path fill-rule="evenodd" clip-rule="evenodd" d="M223.473 195.109L224.086 199.944C224.131 200.656 224.109 202.621 224.075 205.107C222.973 206.044 221.225 205.796 220.998 205.016C220.77 204.248 220.101 196.386 220.101 196.386L223.473 195.109Z" fill="#F29D7E"/>
<path fill-rule="evenodd" clip-rule="evenodd" d="M219.919 207.016C220.589 207.084 223.087 207.22 223.337 207.231C223.586 207.253 224.075 207.592 224.234 207.604C225.017 207.66 226.084 207.31 226.357 207.242C226.629 207.186 230.773 207.118 230.808 207.039C230.842 206.96 230.796 206.451 230.41 206.282C230.217 206.203 229.377 205.92 228.389 205.536C227.413 205.164 226.368 204.712 225.891 204.463C225.414 204.226 225.255 203.842 224.574 203.785C223.882 203.729 223.234 204.576 222.462 204.362C221.69 204.158 221.622 203.277 221.191 203.243C220.748 203.232 219.919 204.237 219.919 207.016Z" fill="#184656"/>
<path fill-rule="evenodd" clip-rule="evenodd" d="M219.942 207.016L219.919 207.038C219.873 207.151 219.737 207.626 219.771 207.727C219.817 207.829 221.508 208.236 224.608 208.145C227.708 208.066 230.308 207.965 230.785 207.05C230.66 207.129 226.606 207.185 226.345 207.242C226.073 207.298 225.006 207.648 224.222 207.603C224.075 207.592 223.575 207.253 223.325 207.23C223.087 207.219 220.634 207.083 219.942 207.016Z" fill="#F2B741"/>
<path fill-rule="evenodd" clip-rule="evenodd" d="M225.153 203.977C224.96 203.853 224.04 203.006 223.916 203.028C223.791 203.051 222.882 203.627 222.882 203.774C222.882 203.864 223.03 204.124 223.155 204.327C223.643 204.147 224.097 203.774 224.563 203.808C224.813 203.819 224.994 203.887 225.153 203.977Z" fill="#184656"/>
<path fill-rule="evenodd" clip-rule="evenodd" d="M218.954 139.814C222.36 144.502 234.373 159.549 230.104 169.592C226.118 178.482 210.631 195.776 208.78 197.426C207.804 197.098 205.601 193.901 205.26 193.223C206.033 192.399 206.759 190.964 206.759 190.716C206.759 190.467 206.419 189.857 206.532 189.202C206.634 188.558 209.2 186.062 209.405 185.35C209.609 184.638 209.473 184.22 209.711 183.723C209.95 183.215 213.038 179.555 213.515 178.775C213.992 177.985 214.174 175.274 215.434 174.167C216.172 173.432 220.248 171.309 222.19 165.83C224.131 160.362 210.12 148.298 208.269 140.718L218.954 139.814Z" fill="#341A1B"/>
<path fill-rule="evenodd" clip-rule="evenodd" d="M213.447 140.526C214.015 144.084 223.382 184.502 224.267 199.843C223.348 200.069 219.306 200.667 218.386 200.713C218.477 198.657 217.194 196.646 217.126 196.081C217.058 195.516 217.353 194.613 217.182 193.844C217.001 193.076 215.57 192.048 215.354 191.099C215.286 190.727 215.65 189.575 215.479 189.021C215.309 188.467 214.48 188.4 214.298 187.711C214.128 187.022 215.071 185.384 214.9 184.92C214.73 184.457 212.255 181.859 212.289 180.831C212.38 180.131 213.538 179.871 213.402 178.899C212.198 170.179 202.07 153.008 201.377 139.419L209.144 140.447L213.447 140.526Z" fill="#341A1B"/>
<path fill-rule="evenodd" clip-rule="evenodd" d="M207.214 105.191C205.738 105.53 200.571 107.044 199.538 107.993C198.425 109.021 193.339 115.121 192.43 116.781C192.453 116.815 192.476 116.838 192.51 116.872C193.316 117.809 195.326 119.571 196.473 120.532C196.836 120.825 197.108 121.051 197.233 121.142C198.221 120.181 200.31 117.572 201.582 115.81C201.502 124.101 201.468 132.924 201.355 140.842C201.627 140.91 201.923 140.967 202.252 141.023C207.179 141.825 217.319 141.057 218.965 139.826C218.863 138.38 218.568 126.982 218.284 118.013C218.102 112.308 217.943 107.575 217.83 107.021C216.638 105.948 212.845 105.225 211.676 105.056C211.165 105.033 208.167 105.09 207.214 105.191Z" fill="#FFD358"/>
<path fill-rule="evenodd" clip-rule="evenodd" d="M200.265 138.685C199.765 137.691 193.85 126.643 193.077 124.847C193.191 124.192 195.621 121.594 196.45 120.52C195.303 119.56 193.293 117.798 192.487 116.86C190.966 118.781 187.775 123.593 187.809 124.869C187.934 129.512 196.302 137.307 199.231 140.989C199.334 141.757 200.571 144.92 204.046 144.559C204.67 144.435 203.478 142.424 202.24 141.012C201.922 140.955 201.616 140.899 201.343 140.831C201.343 140.594 201.355 140.368 201.355 140.131C201.366 139.668 201.366 139.204 201.377 138.741C201.014 138.662 200.639 138.628 200.265 138.685Z" fill="#F29D7E"/>
<path fill-rule="evenodd" clip-rule="evenodd" d="M209.007 101.825C208.939 101.271 208.973 99.7575 208.996 99.4864L210.029 99.4186L210.075 97.9501C210.983 98.097 213.254 98.7183 215.388 97.0916C219.249 94.1546 215.366 90.2121 213.39 92.9459C212.868 92.5844 210.313 91.7258 208.235 92.8103C207.293 93.3073 206.124 94.2562 206.01 95.8942C205.204 95.8264 203.978 96.8431 203.864 98.707C203.762 100.571 205.181 102.943 207.293 103.451L208.145 102.152C207.327 101.565 206.691 100.345 207.497 99.8931C208.394 99.3847 208.372 101.271 209.007 101.825Z" fill="#FFBE17"/>
<path fill-rule="evenodd" clip-rule="evenodd" d="M212.108 104.208C210.881 104.366 209.451 103.858 208.962 102.909C209.053 103.926 210.018 105.202 212.108 105.225V104.208Z" fill="#BD8A6F"/>
<path fill-rule="evenodd" clip-rule="evenodd" d="M89.9136 160.735C86.0192 160.351 90.2883 154.319 90.4586 154.104C90.6403 153.89 91.2761 154.025 91.9006 154.048C92.2639 154.963 92.4456 156.092 92.4115 157.358C92.4002 157.934 92.3207 158.476 92.1844 158.962C91.946 160.001 90.7425 160.826 89.9136 160.735Z" fill="#E5AC8E"/>
<path fill-rule="evenodd" clip-rule="evenodd" d="M89.1871 157.606C89.312 158.261 88.767 159.255 89.1417 160.374L88.8465 163.028C87.5748 162.497 86.4394 162.271 85.4062 162.17C84.7022 162.102 83.9983 162.057 83.3057 162.057L83.5327 159.877C84.0437 160.08 84.7022 160.227 85.5197 160.306C87.5294 160.52 88.2447 159.877 88.3469 159.628C88.4604 159.38 87.677 158.645 87.9495 157.629C88.222 156.612 89.0509 156.951 89.1871 157.606Z" fill="#E5AC8E"/>
<path fill-rule="evenodd" clip-rule="evenodd" d="M135.444 206.553C135.512 206.756 135.989 207.468 132.14 208.676C131.55 208.609 130.755 208.62 130.664 208.676C130.573 208.733 130.618 209.173 130.618 209.173C130.164 209.399 128.836 209.976 128.586 209.591C128.075 208.778 128.03 207.377 128.416 206.767L128.541 206.711C128.597 206.88 129.052 207.343 129.517 207.14C129.983 206.937 130.391 206.282 130.437 205.886C130.743 205.886 132.617 206.892 133.707 206.7C134.774 206.496 135.103 206.033 135.444 206.553Z" fill="#F4D37E"/>
<path fill-rule="evenodd" clip-rule="evenodd" d="M130.459 205.931L129.858 203.073L127.167 203.875L128.393 206.756C128.666 207.208 128.995 207.321 129.517 207.151C130.085 206.982 130.403 206.451 130.459 205.931Z" fill="#E6A887"/>
<path fill-rule="evenodd" clip-rule="evenodd" d="M148.274 204.327C148.41 204.486 149.114 204.983 145.992 207.524C145.413 207.682 144.686 207.987 144.618 208.066C144.55 208.145 144.754 208.541 144.754 208.541C144.414 208.914 143.392 209.942 143.028 209.682C142.245 209.117 141.689 207.829 141.813 207.118L141.904 207.016C142.018 207.151 142.608 207.423 142.972 207.061C143.335 206.7 143.46 205.943 143.358 205.559C143.641 205.446 145.753 205.694 146.696 205.107C147.638 204.519 147.774 203.977 148.274 204.327Z" fill="#F4D37E"/>
<path fill-rule="evenodd" clip-rule="evenodd" d="M143.426 205.593L141.802 203.164L139.6 204.904L141.814 207.129C142.245 207.445 142.574 207.434 143.006 207.084C143.471 206.7 143.551 206.09 143.426 205.593Z" fill="#E6A887"/>
<path fill-rule="evenodd" clip-rule="evenodd" d="M65.1618 207.536C65.6387 208.01 66.4108 209.445 65.5933 209.603C64.7758 209.761 63.0272 209.332 62.5503 209.264C62.0735 209.196 56.7029 210.032 56.737 209.648C56.771 209.264 59.9162 207.468 61.994 207.298L65.1618 207.536Z" fill="#E6A887"/>
<path fill-rule="evenodd" clip-rule="evenodd" d="M130.084 203.525L125.531 205.028C123.999 200.667 122.42 201.243 122.159 200.746C121.898 200.249 122.511 199.086 122.364 198.702C122.216 198.318 120.445 197.527 120.116 196.883C119.786 196.239 120.649 194.556 120.365 194.07C120.081 193.585 114.37 186.389 112.644 186.265C110.919 186.152 103.152 207.524 90.7649 205.344C78.3662 203.164 85.542 193.912 85.542 193.912C90.1405 189.337 104.379 177.759 111.18 177.973C120.365 178.606 123.59 184.028 130.084 203.525Z" fill="#FFA264"/>
<path fill-rule="evenodd" clip-rule="evenodd" d="M104.697 165.751C105.219 163.254 108.342 160.261 104.765 158.984C103.505 159.052 103.039 163.605 102.517 165.819L104.697 165.751Z" fill="#E6A887"/>
<path fill-rule="evenodd" clip-rule="evenodd" d="M79.4453 168.8C79.4453 168.8 78.2077 165.943 75.9595 167.863C73.7114 169.783 63.5267 198.114 61.9258 207.366L65.1731 207.648C66.6037 203.74 73.8136 191.043 75.7097 183.339L79.4453 168.8Z" fill="#E8C098"/>
<path fill-rule="evenodd" clip-rule="evenodd" d="M100.393 181.983C102.596 179.961 104.765 168.823 105.06 165.062L102.471 164.463C101.892 165.773 97.2257 176.663 96.5671 179.125L100.393 181.983Z" fill="#D3A678"/>
<path fill-rule="evenodd" clip-rule="evenodd" d="M78.9342 202.012L76.2092 204.7C77.9918 207.411 81.875 210.755 92.3095 209.851C102.971 208.925 112.645 190.139 116.085 188.422C117.607 191.269 128.597 196.522 131.856 199.131C133.048 200.091 133.332 200.509 133.321 200.882C133.298 201.424 132.753 201.966 133.082 202.565C133.412 203.153 136.261 202.961 137.454 206.722C138.067 206.361 141.677 203.593 141.87 203.266C140.36 200.724 122.75 178.493 115.574 178.809C108.398 179.125 96.4764 190.32 91.0264 195.46L78.9342 202.012Z" fill="#FE812D"/>
<path fill-rule="evenodd" clip-rule="evenodd" d="M84.0321 161.515C83.0216 161.503 82.1586 161.56 81.5909 161.707C79.9332 162.125 77.0379 165.931 75.9593 167.863C75.9366 167.908 75.9139 167.953 75.8911 167.999C75.1077 169.456 74.9033 180.763 74.5173 187.168C74.1085 193.879 74.7557 200.035 74.4605 205.672C78.4004 203.503 86.0872 198.871 86.1553 198.815C87.5065 197.821 89.3799 196.917 91.1398 196.657C87.8925 177.826 94.4552 176.573 92.5591 172.122C92.3434 163.062 91.5259 161.865 84.0321 161.515Z" fill="#D3A678"/>
<path fill-rule="evenodd" clip-rule="evenodd" d="M104.776 157.459H107.388C107.683 157.459 107.853 157.696 107.774 157.99L106.286 163.333C106.207 163.627 105.9 163.864 105.605 163.864H102.994C102.698 163.864 102.528 163.627 102.608 163.333L104.095 157.99C104.174 157.696 104.481 157.459 104.776 157.459Z" fill="#F4D37E"/>
<path fill-rule="evenodd" clip-rule="evenodd" d="M102.812 161.695C102.994 161.515 103.403 161.198 103.505 161.356C103.596 161.503 103.55 162.972 103.107 163.153C102.664 163.333 102.188 163.559 102.312 163.04C102.426 162.509 102.812 161.695 102.812 161.695Z" fill="#E6A887"/>
<path fill-rule="evenodd" clip-rule="evenodd" d="M106.105 161.492C105.934 161.097 105.196 160.204 105.492 160.024C105.787 159.843 106.979 160.747 107.058 161.165C107.149 161.582 106.377 162.046 106.377 162.046L106.105 161.492Z" fill="#E6A887"/>
<path fill-rule="evenodd" clip-rule="evenodd" d="M106.173 161.424C105.809 161.548 105.151 162.091 104.788 162.746C104.56 163.164 104.14 164.158 105.151 164.237C106.127 164.316 107.433 161.684 107.058 161.142L106.173 161.424Z" fill="#E6A887"/>
<path fill-rule="evenodd" clip-rule="evenodd" d="M89.9138 171.659C92.2527 174.731 94.9436 178.595 96.8398 180.764C98.0433 182.13 99.4399 182.786 100.53 181.882C101.847 180.798 101.563 178.606 100.78 177.217C99.4512 175.251 97.0214 170.213 94.6938 166.666C94.5803 166.655 90.3452 160.137 88.0403 163.808C86.7914 165.819 89.4937 171.241 89.9138 171.659Z" fill="#D3A678"/>
<path fill-rule="evenodd" clip-rule="evenodd" d="M90.8448 155.448C90.947 156.182 91.1514 161.503 86.1896 161.593C81.2278 161.684 81.3413 157.922 81.2959 155.934C81.2505 153.946 80.785 149.416 84.8498 148.896C92.9794 147.835 93.1951 154.014 90.8448 155.448Z" fill="#F4D37E"/>
<path fill-rule="evenodd" clip-rule="evenodd" d="M85.2132 172.28C84.5433 173.794 79.7745 177.216 78.6277 179.453C77.481 181.69 78.2417 183.26 76.6181 184.175C75.3464 184.887 73.2459 184.141 71.6449 184.006C71.2589 183.972 70.9069 183.972 70.6004 184.039C68.9994 184.378 68.5225 186.061 65.7181 186.321C61.6873 186.683 58.9169 185.237 57.8042 182.808C56.1125 179.126 57.7815 173.624 61.1764 172.043C63.2996 170.913 65.0141 171.162 66.8081 169.479C69.2379 167.197 68.0343 163.763 69.9872 162C71.9402 160.227 76.4705 161.368 78.8548 159.685C81.2392 158.001 81.5344 156.522 84.7817 156.409C88.733 156.623 84.4411 161.571 84.1799 162.238C83.5555 163.83 84.9861 165.819 85.4289 167.682C85.5197 168.055 85.5992 168.451 85.656 168.846C85.7922 169.942 85.7582 171.105 85.2132 172.28Z" fill="#F4D37E"/>
<path d="M76.9698 130.845C76.9698 135.747 72.9732 139.723 68.0455 139.723C63.1178 139.723 59.1211 135.747 59.1211 130.845C59.1211 125.942 63.1178 121.966 68.0455 121.966C72.9845 121.966 76.9698 125.942 76.9698 130.845Z" fill="#FF7A7A"/>
<path d="M72.6324 129.715C72.6324 132.133 69.7939 134.358 68.5903 135.205C68.2611 135.431 67.841 135.443 67.5117 135.217C66.2968 134.415 63.481 132.28 63.481 129.715C63.481 126.722 67.3073 126.53 67.9659 129.026C67.9772 129.072 68.0113 129.094 68.0567 129.094C68.1021 129.094 68.1362 129.06 68.1475 129.026C68.7834 126.485 72.6324 126.903 72.6324 129.715Z" fill="white"/>
<path d="M254.88 53.3608C254.88 55.5847 253.067 57.3885 250.832 57.3885C248.596 57.3885 246.783 55.5847 246.783 53.3608C246.783 51.1368 248.596 49.333 250.832 49.333C253.072 49.333 254.88 51.1368 254.88 53.3608Z" fill="#FF7A7A"/>
<path d="M252.912 52.8482C252.912 53.9448 251.625 54.9543 251.079 55.3387C250.929 55.4412 250.739 55.4463 250.589 55.3438C250.038 54.98 248.761 54.0115 248.761 52.8482C248.761 51.4902 250.497 51.4031 250.795 52.5356C250.801 52.5561 250.816 52.5664 250.837 52.5664C250.857 52.5664 250.873 52.551 250.878 52.5356C251.166 51.3826 252.912 51.5722 252.912 52.8482Z" fill="white"/>
<path d="M243.938 152.561C243.938 154.652 242.234 156.348 240.132 156.348C238.03 156.348 236.326 154.652 236.326 152.561C236.326 150.47 238.03 148.774 240.132 148.774C242.238 148.774 243.938 150.47 243.938 152.561Z" fill="#FF7A7A"/>
<path d="M242.088 152.079C242.088 153.111 240.877 154.06 240.364 154.421C240.224 154.517 240.044 154.522 239.904 154.426C239.386 154.084 238.185 153.173 238.185 152.079C238.185 150.803 239.817 150.721 240.098 151.786C240.102 151.805 240.117 151.815 240.136 151.815C240.156 151.815 240.17 151.8 240.175 151.786C240.446 150.702 242.088 150.88 242.088 152.079Z" fill="white"/>
<path d="M39.1368 92.0251C39.1368 94.116 37.4323 95.8119 35.3306 95.8119C33.229 95.8119 31.5244 94.116 31.5244 92.0251C31.5244 89.9341 33.229 88.2383 35.3306 88.2383C37.4371 88.2383 39.1368 89.9341 39.1368 92.0251Z" fill="#FF7A7A"/>
<path d="M37.2866 91.5434C37.2866 92.5744 36.076 93.5235 35.5627 93.8848C35.4222 93.9812 35.2431 93.986 35.1026 93.8897C34.5845 93.5476 33.3835 92.637 33.3835 91.5434C33.3835 90.2666 35.0155 90.1847 35.2963 91.2495C35.3012 91.2687 35.3157 91.2784 35.3351 91.2784C35.3544 91.2784 35.369 91.2639 35.3738 91.2495C35.645 90.1654 37.2866 90.3437 37.2866 91.5434Z" fill="white"/>
<path d="M287.258 108.574C287.258 110.416 285.756 111.91 283.905 111.91C282.053 111.91 280.552 110.416 280.552 108.574C280.552 106.732 282.053 105.238 283.905 105.238C285.761 105.238 287.258 106.732 287.258 108.574Z" fill="#FF7A7A"/>
<path d="M285.628 108.15C285.628 109.058 284.562 109.894 284.109 110.212C283.986 110.297 283.828 110.302 283.704 110.217C283.248 109.915 282.19 109.113 282.19 108.15C282.19 107.025 283.627 106.953 283.875 107.891C283.879 107.908 283.892 107.916 283.909 107.916C283.926 107.916 283.939 107.903 283.943 107.891C284.182 106.936 285.628 107.093 285.628 108.15Z" fill="white"/>
<path d="M32.4574 182.884C32.4574 184.185 31.3961 185.241 30.0876 185.241C28.7791 185.241 27.7178 184.185 27.7178 182.884C27.7178 181.582 28.7791 180.526 30.0876 180.526C31.3991 180.526 32.4574 181.582 32.4574 182.884Z" fill="#FF7A7A"/>
<path d="M31.3056 182.584C31.3056 183.226 30.5518 183.816 30.2322 184.041C30.1448 184.101 30.0333 184.104 29.9458 184.044C29.6232 183.831 28.8755 183.265 28.8755 182.584C28.8755 181.789 29.8915 181.738 30.0664 182.401C30.0694 182.413 30.0785 182.419 30.0905 182.419C30.1026 182.419 30.1116 182.41 30.1147 182.401C30.2835 181.726 31.3056 181.837 31.3056 182.584Z" fill="white"/>
<path d="M295.501 189.182C295.501 190.484 294.44 191.54 293.131 191.54C291.823 191.54 290.761 190.484 290.761 189.182C290.761 187.88 291.823 186.824 293.131 186.824C294.443 186.824 295.501 187.88 295.501 189.182Z" fill="#FF7A7A"/>
<path d="M294.349 188.882C294.349 189.524 293.596 190.115 293.276 190.34C293.189 190.4 293.077 190.403 292.99 190.343C292.667 190.13 291.919 189.563 291.919 188.882C291.919 188.087 292.935 188.036 293.11 188.699C293.113 188.711 293.122 188.717 293.134 188.717C293.146 188.717 293.155 188.708 293.158 188.699C293.327 188.024 294.349 188.135 294.349 188.882Z" fill="white"/>
<path d="M118.312 57.9943C118.312 60.4289 116.328 62.4036 113.88 62.4036C111.433 62.4036 109.448 60.4289 109.448 57.9943C109.448 55.5596 111.433 53.585 113.88 53.585C116.333 53.585 118.312 55.5596 118.312 57.9943Z" fill="#FF7A7A"/>
<path d="M116.158 57.4335C116.158 58.634 114.748 59.7392 114.151 60.1599C113.987 60.2721 113.778 60.2777 113.615 60.1655C113.012 59.7672 111.613 58.7069 111.613 57.4335C111.613 55.9469 113.513 55.8515 113.841 57.0913C113.846 57.1137 113.863 57.1249 113.886 57.1249C113.908 57.1249 113.925 57.1081 113.931 57.0913C114.246 55.8291 116.158 56.0366 116.158 57.4335Z" fill="white"/>
<path fill-rule="evenodd" clip-rule="evenodd" d="M240.561 91.0254C242.9 91.0254 244.796 92.9119 244.796 95.2389C244.796 97.5659 242.9 99.4524 240.561 99.4524C238.222 99.4524 236.326 97.5659 236.326 95.2389C236.326 92.9119 238.222 91.0254 240.561 91.0254Z" fill="#FF7A7A"/>
<path d="M241.106 97.9387H240.016V97.035H241.106V97.9387ZM241.151 92.5391L241.015 96.4815H240.107L239.959 92.5391H241.151Z" fill="white"/>
<path d="M163.5 95C160.156 95 157.436 97.5233 157.436 100.625C157.436 103.727 160.156 106.25 163.5 106.25C166.844 106.25 169.564 103.727 169.564 100.625C169.564 97.5233 166.844 95 163.5 95ZM163.5 102.5C162.385 102.5 161.479 101.66 161.479 100.625C161.479 99.5905 162.385 98.75 163.5 98.75C164.615 98.75 165.521 99.5905 165.521 100.625C165.521 101.66 164.615 102.5 163.5 102.5Z" fill="#FABE2C"/>
<path d="M169.564 100.625C169.564 97.5233 166.844 95 163.5 95V98.75C164.615 98.75 165.521 99.5905 165.521 100.625C165.521 101.66 164.615 102.5 163.5 102.5V106.25C166.844 106.25 169.564 103.727 169.564 100.625Z" fill="#FF9100"/>
<path d="M163.5 159C167.966 159 171.586 155.642 171.586 151.5C171.586 147.358 167.966 144 163.5 144C159.034 144 155.414 147.358 155.414 151.5C155.414 155.642 159.034 159 163.5 159Z" fill="#FABE2C"/>
<path d="M171.586 151.5C171.586 147.358 167.966 144 163.5 144V159C167.966 159 171.586 155.642 171.586 151.5Z" fill="#FF9100"/>
<path d="M185.294 137.078C183.361 134.839 181.693 132.905 181.693 127V119.375C181.693 110.07 173.532 102.5 163.5 102.5C153.468 102.5 145.307 110.07 145.307 119.375V127C145.307 132.905 143.639 134.839 141.706 137.078C139.603 139.517 137.221 142.405 137.221 149.625C137.221 150.661 138.125 151.5 139.242 151.5H163.5H187.758C188.875 151.5 189.779 150.661 189.779 149.625C189.779 142.405 187.397 139.517 185.294 137.078Z" fill="#FED843"/>
<path d="M189.779 149.625C189.779 142.405 187.397 139.517 185.294 137.078C183.361 134.839 181.693 132.905 181.693 127V119.375C181.693 110.07 173.532 102.5 163.5 102.5V151.5H187.758C188.875 151.5 189.779 150.661 189.779 149.625Z" fill="#FABE2C"/>
<path fill-rule="evenodd" clip-rule="evenodd" d="M181.513 98.0264C186.078 98.0264 189.779 101.709 189.779 106.25C189.779 110.791 186.078 114.474 181.513 114.474C176.949 114.474 173.248 110.791 173.248 106.25C173.248 101.709 176.949 98.0264 181.513 98.0264Z" fill="#FF7A7A"/>
<path d="M182.581 111.514H180.458V109.741H182.581V111.514ZM182.683 100.975L182.41 108.667H180.639L180.344 100.975H182.683Z" fill="white"/>
<path d="M150.879 191.962C150.879 191.962 148.844 191.659 147.313 192.837C145.783 194.014 146.187 197.075 147.313 197.63C148.44 198.168 150.879 191.962 150.879 191.962Z" fill="#B2B2B2"/>
<path d="M152.073 190.718C152.073 190.718 149.113 192.08 147.785 195.007C146.456 197.95 146.977 202.34 147.364 203.534C147.734 204.745 147.785 207.772 147.717 208.142C147.717 208.142 146.506 207.638 146.086 209.219C145.665 210.8 146.86 210.817 147.465 210.917C148.07 211.018 151.132 210.716 151.602 210.497C152.073 210.278 153.368 209.353 153.368 209.353C153.368 209.353 151.552 199.447 151.905 198.37C152.258 197.294 153.015 192.181 152.898 191.794C152.78 191.424 152.073 190.718 152.073 190.718Z" fill="#E1DDD3"/>
<path d="M146.792 210.632C146.792 210.632 146.775 210.615 146.742 210.564C146.708 210.531 146.658 210.463 146.624 210.379C146.59 210.295 146.557 210.194 146.557 210.093C146.557 209.976 146.557 209.858 146.573 209.74C146.607 209.622 146.658 209.521 146.708 209.421C146.758 209.32 146.843 209.252 146.91 209.185C146.977 209.118 147.044 209.101 147.095 209.067C147.145 209.051 147.179 209.034 147.179 209.034C147.179 209.034 147.179 209.067 147.162 209.118C147.145 209.168 147.128 209.236 147.112 209.303C147.078 209.37 147.078 209.471 147.044 209.538C147.011 209.622 146.994 209.706 146.977 209.807C146.943 209.891 146.927 209.992 146.91 210.076C146.91 210.161 146.859 210.245 146.859 210.329C146.859 210.396 146.826 210.48 146.826 210.514C146.792 210.598 146.792 210.632 146.792 210.632Z" fill="#929292"/>
<path d="M148.339 210.733C148.339 210.733 148.323 210.716 148.289 210.682C148.272 210.648 148.222 210.598 148.188 210.531C148.171 210.463 148.121 210.379 148.121 210.295C148.121 210.211 148.121 210.11 148.121 210.009C148.138 209.925 148.171 209.824 148.205 209.74C148.239 209.656 148.306 209.572 148.373 209.522C148.44 209.471 148.524 209.454 148.575 209.471C148.625 209.488 148.642 209.505 148.642 209.505C148.642 209.505 148.609 209.505 148.592 209.538C148.558 209.555 148.558 209.606 148.541 209.656C148.525 209.707 148.541 209.757 148.525 209.841C148.508 209.908 148.508 209.993 148.491 210.06C148.474 210.127 148.457 210.211 148.44 210.278C148.424 210.346 148.39 210.43 148.39 210.48C148.373 210.548 148.356 210.598 148.339 210.632C148.356 210.699 148.339 210.733 148.339 210.733Z" fill="#929292"/>
<path d="M155.706 183.721C155.706 183.721 159.524 182.762 161.559 183.721C161.559 183.721 163.409 179.348 165.73 178.86C168.051 178.356 168.017 181.467 168.102 182.931C168.186 184.394 169.901 186.9 166.638 189.305C166.638 189.305 166.706 191.962 168.623 194.014C170.54 196.066 171.6 199.329 171.146 203.147C170.692 206.965 169.783 210.379 169.783 210.379C169.783 210.379 171.785 209.774 172.289 211.288C172.794 212.801 172.39 213.037 171.432 213.491C170.473 213.945 166.621 214.147 165.915 212.986C165.209 211.826 165.31 208.277 164.906 205.956C164.906 205.956 162.349 207.554 160.684 206.713C160.684 206.713 158.027 207.924 156.412 206.763C156.412 206.763 156.681 211.422 155.672 212.482C154.663 213.541 150.946 213.491 150.24 213.037C149.533 212.583 148.827 209.976 151.888 209.37C151.888 209.37 150.677 203.736 150.98 202.895C150.98 202.895 149.819 199.38 151.434 195.679C151.434 195.679 150.576 193.779 151.888 191.559C151.888 191.559 151.182 189.456 151.535 188.548C151.535 188.548 150.374 187.892 150.072 185.386C149.769 182.88 148.154 181.972 149.617 180.677C151.131 179.365 153.805 180.256 155.706 183.721Z" fill="#EDEAE1"/>
<path d="M154.764 189.675C155.723 188.599 156.614 187.287 155.706 183.721C154.831 182.124 153.789 181.081 152.779 180.526C152.746 181.098 152.678 182.04 152.039 182.712C151.35 183.436 150.526 184.075 150.055 184.899C150.088 185.05 150.105 185.202 150.122 185.37C150.425 187.876 151.585 188.532 151.585 188.532C151.232 189.44 151.938 191.542 151.938 191.542C151.905 191.593 151.888 191.643 151.854 191.677C151.871 191.677 153.822 190.752 154.764 189.675Z" fill="#41434A"/>
<path d="M158.397 187.388C157.875 188.985 159.574 190.651 161.407 191.475C163.241 192.299 164.536 195.242 165.848 194.384C166.739 193.796 167.21 193.342 167.664 192.702C166.672 190.97 166.638 189.288 166.638 189.288C169.245 187.354 168.673 185.369 168.303 183.906C167.698 183.368 166.991 182.729 166.504 181.837C165.848 180.694 164.788 180.088 164.132 179.802C162.618 181.232 161.576 183.704 161.576 183.704C161.576 183.704 161.559 183.704 161.559 183.687C161.054 184.31 158.885 185.891 158.397 187.388Z" fill="#41434A"/>
<path d="M155.975 197.58C155.975 197.58 156.009 197.614 156.076 197.647C156.126 197.681 156.227 197.715 156.328 197.748C156.429 197.782 156.581 197.799 156.715 197.832C156.85 197.866 157.001 197.883 157.152 197.883C157.304 197.9 157.455 197.916 157.59 197.916C157.724 197.916 157.876 197.933 157.993 197.916C158.111 197.9 158.212 197.916 158.296 197.9C158.363 197.9 158.414 197.9 158.414 197.9C158.414 197.9 158.38 197.933 158.33 197.984C158.262 198.017 158.178 198.085 158.061 198.135C157.943 198.186 157.792 198.236 157.64 198.27C157.472 198.286 157.304 198.303 157.136 198.286C156.967 198.253 156.799 198.219 156.648 198.169C156.496 198.118 156.362 198.034 156.261 197.967C156.143 197.9 156.076 197.799 156.042 197.731C155.992 197.631 155.975 197.58 155.975 197.58Z" fill="#EAE6E6"/>
<path d="M154.63 199.396C154.63 199.396 154.731 199.447 154.899 199.531C155.067 199.615 155.302 199.733 155.605 199.851C155.891 199.985 156.244 200.086 156.631 200.187C157.001 200.305 157.422 200.389 157.842 200.439C158.263 200.507 158.666 200.557 159.07 200.557C159.457 200.557 159.827 200.523 160.113 200.439C160.415 200.355 160.651 200.254 160.819 200.153C160.987 200.069 161.071 200.002 161.071 200.002C161.071 200.002 161.004 200.086 160.87 200.221C160.718 200.338 160.499 200.523 160.197 200.641C159.894 200.776 159.507 200.877 159.087 200.893C158.666 200.91 158.229 200.877 157.792 200.826C157.354 200.742 156.934 200.641 156.547 200.507C156.16 200.372 155.807 200.204 155.521 200.036C155.235 199.867 155.016 199.699 154.882 199.581C154.714 199.464 154.63 199.396 154.63 199.396Z" fill="#EAE6E6"/>
<path d="M163.073 197.597C163.073 197.597 163.09 197.597 163.14 197.614C163.174 197.614 163.241 197.631 163.308 197.647C163.46 197.681 163.662 197.681 163.914 197.681C164.166 197.681 164.452 197.631 164.738 197.563C165.041 197.496 165.327 197.362 165.613 197.21C165.899 197.059 166.151 196.857 166.386 196.655C166.605 196.437 166.807 196.235 166.958 196.033C167.11 195.831 167.244 195.663 167.328 195.545C167.412 195.427 167.463 195.343 167.463 195.343C167.463 195.343 167.446 195.427 167.395 195.579C167.345 195.713 167.278 195.932 167.143 196.151C167.009 196.369 166.857 196.638 166.622 196.891C166.386 197.126 166.117 197.362 165.814 197.547C165.495 197.715 165.159 197.832 164.822 197.9C164.486 197.967 164.166 197.95 163.914 197.917C163.645 197.883 163.443 197.799 163.308 197.732C163.241 197.698 163.191 197.664 163.157 197.647C163.09 197.597 163.073 197.597 163.073 197.597Z" fill="#EAE6E6"/>
<path d="M160.718 206.73C160.718 206.73 160.702 206.73 160.651 206.73C160.617 206.73 160.55 206.73 160.5 206.73C160.449 206.73 160.365 206.73 160.298 206.713C160.214 206.696 160.13 206.679 160.062 206.645C159.995 206.612 159.911 206.561 159.844 206.511C159.777 206.46 159.726 206.393 159.676 206.36C159.625 206.309 159.608 206.259 159.591 206.225C159.575 206.191 159.558 206.158 159.558 206.158C159.558 206.158 159.575 206.158 159.625 206.158C159.659 206.158 159.726 206.158 159.793 206.175C159.861 206.191 159.928 206.191 159.995 206.225C160.062 206.259 160.13 206.275 160.214 206.292C160.281 206.326 160.348 206.36 160.416 206.393C160.483 206.427 160.55 206.477 160.601 206.528C160.651 206.561 160.685 206.629 160.702 206.662C160.702 206.696 160.718 206.73 160.718 206.73Z" fill="#EAE6E6"/>
<path d="M164.94 206.158C164.94 206.158 164.923 206.124 164.889 206.074C164.872 206.023 164.822 205.956 164.788 205.855C164.755 205.771 164.704 205.67 164.687 205.552C164.654 205.435 164.62 205.317 164.586 205.199C164.57 205.081 164.553 204.964 164.536 204.846C164.519 204.728 164.519 204.61 164.502 204.526C164.486 204.425 164.502 204.341 164.502 204.291C164.502 204.224 164.519 204.19 164.519 204.19C164.519 204.19 164.536 204.224 164.586 204.257C164.62 204.308 164.671 204.375 164.721 204.459C164.771 204.543 164.822 204.644 164.872 204.762C164.906 204.88 164.94 204.997 164.99 205.115C165.007 205.25 165.024 205.367 165.041 205.485C165.057 205.603 165.041 205.72 165.024 205.821C165.024 205.922 164.99 206.006 164.973 206.057C164.956 206.124 164.94 206.158 164.94 206.158Z" fill="#EAE6E6"/>
<path d="M156.446 206.982C156.446 206.982 156.429 206.965 156.412 206.915C156.396 206.865 156.345 206.814 156.328 206.73C156.311 206.663 156.261 206.579 156.244 206.478C156.227 206.377 156.194 206.293 156.177 206.192C156.177 206.091 156.16 205.99 156.143 205.889C156.126 205.788 156.143 205.704 156.143 205.62C156.143 205.536 156.16 205.469 156.16 205.418C156.177 205.368 156.177 205.334 156.177 205.334C156.177 205.334 156.194 205.351 156.227 205.384C156.261 205.418 156.311 205.469 156.345 205.553C156.379 205.62 156.429 205.704 156.463 205.805C156.496 205.906 156.513 206.007 156.547 206.108C156.547 206.209 156.564 206.326 156.564 206.427C156.564 206.528 156.547 206.629 156.53 206.696C156.513 206.78 156.48 206.848 156.463 206.898C156.463 206.949 156.446 206.982 156.446 206.982Z" fill="#EAE6E6"/>
<path d="M152.931 213.34C152.931 213.34 152.897 213.323 152.847 213.289C152.796 213.239 152.729 213.188 152.662 213.087C152.611 212.986 152.544 212.869 152.527 212.734C152.51 212.6 152.51 212.431 152.527 212.28C152.578 212.129 152.645 211.994 152.729 211.876C152.813 211.759 152.931 211.675 153.015 211.624C153.116 211.557 153.2 211.54 153.267 211.523C153.335 211.506 153.368 211.506 153.368 211.506C153.368 211.506 153.351 211.54 153.318 211.59C153.284 211.641 153.234 211.708 153.183 211.792C153.116 211.86 153.082 211.977 153.032 212.061C152.981 212.162 152.948 212.263 152.931 212.381C152.897 212.482 152.88 212.6 152.88 212.717C152.88 212.818 152.864 212.936 152.88 213.02C152.897 213.104 152.897 213.205 152.914 213.256C152.931 213.306 152.931 213.34 152.931 213.34Z" fill="#EAE6E6"/>
<path d="M150.811 213.238C150.811 213.238 150.795 213.222 150.744 213.171C150.71 213.121 150.643 213.07 150.626 212.969C150.593 212.885 150.542 212.767 150.542 212.65C150.542 212.532 150.559 212.397 150.576 212.263C150.626 212.145 150.677 212.027 150.744 211.926C150.811 211.826 150.912 211.758 150.98 211.691C151.064 211.624 151.148 211.607 151.198 211.59C151.249 211.573 151.282 211.573 151.282 211.573C151.282 211.573 151.265 211.607 151.249 211.657C151.215 211.708 151.198 211.775 151.148 211.842C151.097 211.91 151.08 212.011 151.047 212.095C151.013 212.179 150.98 212.28 150.963 212.381C150.929 212.481 150.895 212.582 150.895 212.666C150.879 212.767 150.845 212.851 150.862 212.936C150.862 213.02 150.845 213.087 150.845 213.154C150.828 213.205 150.811 213.238 150.811 213.238Z" fill="#EAE6E6"/>
<path d="M171.937 213.222C171.937 213.222 171.937 213.188 171.92 213.121C171.92 213.054 171.886 212.97 171.886 212.869C171.886 212.768 171.853 212.667 171.836 212.549C171.819 212.432 171.802 212.331 171.752 212.23C171.718 212.129 171.684 212.028 171.617 211.944C171.55 211.86 171.499 211.759 171.432 211.691C171.365 211.624 171.314 211.54 171.281 211.506C171.247 211.456 171.23 211.422 171.23 211.422C171.23 211.422 171.264 211.422 171.331 211.439C171.382 211.456 171.483 211.473 171.567 211.523C171.651 211.574 171.785 211.624 171.886 211.725C171.987 211.826 172.088 211.961 172.138 212.112C172.189 212.263 172.189 212.415 172.189 212.549C172.189 212.684 172.138 212.802 172.105 212.902C172.071 213.003 172.021 213.071 172.004 213.138C171.953 213.188 171.937 213.222 171.937 213.222Z" fill="#EAE6E6"/>
<path d="M170.07 213.777C170.07 213.777 170.053 213.743 170.036 213.692C170.019 213.642 170.002 213.558 169.986 213.474C169.969 213.39 169.935 213.289 169.918 213.205C169.902 213.121 169.851 213.037 169.801 212.969C169.75 212.885 169.683 212.801 169.616 212.717C169.548 212.633 169.498 212.549 169.431 212.482C169.38 212.414 169.347 212.33 169.313 212.296C169.279 212.246 169.262 212.212 169.262 212.212C169.262 212.212 169.296 212.212 169.347 212.229C169.397 212.246 169.481 212.263 169.565 212.313C169.649 212.364 169.75 212.397 169.834 212.482C169.918 212.549 170.019 212.633 170.103 212.751C170.187 212.868 170.221 213.02 170.238 213.154C170.255 213.289 170.204 213.407 170.187 213.491C170.171 213.575 170.12 213.659 170.087 213.709C170.087 213.743 170.07 213.777 170.07 213.777Z" fill="#EAE6E6"/>
<path d="M162.063 183.771C162.063 183.771 162.148 183.805 162.299 183.872C162.45 183.94 162.669 184.041 162.888 184.209C163.123 184.377 163.392 184.579 163.628 184.831C163.88 185.083 164.115 185.369 164.351 185.672C164.57 185.975 164.771 186.294 164.94 186.597C165.125 186.9 165.259 187.203 165.377 187.438C165.511 187.69 165.595 187.909 165.663 188.044C165.73 188.195 165.764 188.279 165.764 188.279C165.764 188.279 165.696 188.212 165.595 188.077C165.495 187.943 165.343 187.774 165.192 187.539C165.04 187.303 164.839 187.051 164.654 186.765C164.469 186.479 164.25 186.177 164.031 185.891C163.829 185.588 163.594 185.302 163.375 185.05C163.157 184.797 162.938 184.562 162.736 184.377C162.534 184.192 162.366 184.024 162.232 183.94C162.131 183.822 162.063 183.771 162.063 183.771Z" fill="#1D1D1D"/>
<path d="M155.252 183.99C155.252 183.99 155.202 184.058 155.101 184.158C155 184.259 154.865 184.428 154.68 184.596C154.495 184.764 154.31 184.983 154.075 185.201C153.856 185.42 153.621 185.655 153.402 185.891C153.167 186.126 152.948 186.362 152.763 186.597C152.578 186.833 152.393 187.051 152.258 187.253C152.191 187.354 152.124 187.455 152.073 187.522C152.023 187.606 151.972 187.674 151.922 187.741C151.838 187.859 151.804 187.943 151.804 187.943C151.804 187.943 151.821 187.859 151.855 187.724C151.871 187.657 151.905 187.573 151.939 187.472C151.972 187.371 152.006 187.27 152.073 187.152C152.174 186.917 152.326 186.664 152.494 186.395C152.679 186.143 152.897 185.874 153.116 185.622C153.352 185.386 153.604 185.151 153.839 184.949C154.075 184.747 154.327 184.579 154.529 184.428C154.731 184.276 154.916 184.175 155.033 184.108C155.185 184.024 155.252 183.99 155.252 183.99Z" fill="#1D1D1D"/>
<path d="M155.017 190.869C154.967 190.381 156.077 190.045 156.598 190.112C157.12 190.179 157.658 190.785 157.507 191.172C157.355 191.542 156.834 191.996 156.279 192.08C155.724 192.164 155.068 191.357 155.017 190.869Z" fill="#1D1D1B"/>
<path d="M153.032 191.289C153.032 191.289 153.251 191.071 153.672 190.768C154.092 190.465 154.698 190.078 155.488 189.792C155.875 189.658 156.312 189.557 156.783 189.54C157.237 189.523 157.725 189.591 158.162 189.742C159.054 190.045 159.861 190.583 160.45 191.172C160.45 191.172 160.298 191.037 159.996 190.835C159.693 190.617 159.222 190.314 158.566 190.062C158.246 189.927 157.86 189.809 157.439 189.759C157.019 189.708 156.564 189.708 156.077 189.826C155.101 190.011 154.042 190.516 153.032 191.289Z" fill="#BCBBBB"/>
<path d="M155.539 195.108C155.539 195.108 155.858 195.932 157.288 195.242L156.262 193.964C156.262 193.964 155.993 194.25 155.539 195.108Z" fill="#F8BDFA"/>
<path d="M151.519 195.662C151.519 195.662 151.535 195.713 151.569 195.797C151.603 195.881 151.67 196.033 151.754 196.201C151.838 196.369 151.973 196.571 152.141 196.773C152.309 196.974 152.545 197.176 152.83 197.294C152.864 197.311 152.898 197.328 152.948 197.344C152.982 197.344 153.032 197.361 153.066 197.361C153.15 197.378 153.234 197.378 153.318 197.395C153.486 197.412 153.638 197.361 153.806 197.277C154.126 197.109 154.378 196.773 154.613 196.403C154.849 196.033 155.051 195.612 155.269 195.158C155.37 194.939 155.488 194.704 155.606 194.468C155.673 194.351 155.74 194.233 155.807 194.115L155.858 194.048C155.875 194.014 155.892 193.997 155.908 193.964L156.026 193.829L156.161 193.711L156.295 193.594C156.396 193.745 156.514 193.896 156.615 194.031C156.665 194.098 156.732 194.182 156.783 194.25C156.901 194.401 157.018 194.536 157.136 194.687C157.372 194.973 157.624 195.259 157.893 195.528C158.414 196.066 158.986 196.588 159.609 196.991C159.928 197.193 160.248 197.344 160.584 197.395C160.937 197.445 161.29 197.412 161.627 197.328C162.316 197.143 162.939 196.739 163.46 196.285C163.46 196.285 163.342 196.453 163.056 196.722C162.905 196.857 162.72 197.025 162.468 197.193C162.215 197.361 161.913 197.529 161.526 197.647C161.139 197.765 160.668 197.815 160.164 197.698C160.046 197.664 159.911 197.613 159.794 197.563C159.676 197.513 159.558 197.445 159.44 197.395C159.323 197.328 159.205 197.26 159.087 197.193C158.969 197.126 158.852 197.042 158.734 196.958C158.263 196.621 157.809 196.201 157.372 195.73C157.153 195.494 156.934 195.242 156.699 194.973C156.598 194.838 156.48 194.704 156.379 194.569C156.329 194.502 156.278 194.435 156.228 194.367L156.211 194.401C156.144 194.502 156.077 194.62 156.009 194.737C155.875 194.973 155.74 195.242 155.606 195.494C155.32 196.016 155.017 196.571 154.563 197.075C154.327 197.311 154.041 197.546 153.671 197.63C153.587 197.647 153.486 197.647 153.402 197.647C153.318 197.63 153.234 197.63 153.133 197.613C153.049 197.58 152.965 197.563 152.881 197.529C152.797 197.496 152.713 197.462 152.645 197.412C152.343 197.227 152.107 196.958 151.922 196.655C151.737 196.335 151.603 195.999 151.519 195.662Z" fill="#939393"/>
<path d="M161.543 190.549C161.961 190.549 162.3 190.211 162.3 189.793C162.3 189.375 161.961 189.036 161.543 189.036C161.125 189.036 160.786 189.375 160.786 189.793C160.786 190.211 161.125 190.549 161.543 190.549Z" fill="#1D1D1B"/>
<path d="M153.268 190.549C153.63 190.549 153.924 190.211 153.924 189.793C153.924 189.375 153.63 189.036 153.268 189.036C152.905 189.036 152.612 189.375 152.612 189.793C152.612 190.211 152.905 190.549 153.268 190.549Z" fill="#1D1D1B"/>
<circle cx="213.096" cy="59.2943" r="4.2113" fill="#96D5F9" fill-opacity="0.2"/>
<circle cx="213.096" cy="59.2943" r="3.9613" stroke="#96D5F9" stroke-opacity="0.2" stroke-width="0.5"/>
<circle cx="275.434" cy="158.817" r="4.2113" fill="#96D5F9" fill-opacity="0.2"/>
<circle cx="275.434" cy="158.817" r="3.9613" stroke="#96D5F9" stroke-opacity="0.2" stroke-width="0.5"/>
<circle cx="248.744" cy="114.474" r="4.2113" fill="#96D5F9" fill-opacity="0.2"/>
<circle cx="248.744" cy="114.474" r="3.9613" stroke="#96D5F9" stroke-opacity="0.2" stroke-width="0.5"/>
<circle cx="49.7269" cy="164.953" r="4.2113" fill="#96D5F9" fill-opacity="0.2"/>
<circle cx="49.7269" cy="164.953" r="3.9613" stroke="#96D5F9" stroke-opacity="0.2" stroke-width="0.5"/>
<circle cx="77.0463" cy="93.1566" r="4.2113" fill="#96D5F9" fill-opacity="0.2"/>
<circle cx="77.0463" cy="93.1566" r="3.9613" stroke="#96D5F9" stroke-opacity="0.2" stroke-width="0.5"/>
<circle cx="260.242" cy="121.779" r="3.02118" fill="#96D5F9" fill-opacity="0.2"/>
<circle cx="260.242" cy="121.779" r="2.77118" stroke="#96D5F9" stroke-opacity="0.2" stroke-width="0.5"/>
<circle cx="258.362" cy="112.361" r="1.43994" fill="#96D5F9" fill-opacity="0.2"/>
<circle cx="258.362" cy="112.361" r="1.18994" stroke="#96D5F9" stroke-opacity="0.2" stroke-width="0.5"/>
<circle cx="81.8657" cy="139.724" r="1.43994" fill="#96D5F9" fill-opacity="0.2"/>
<circle cx="81.8657" cy="139.724" r="1.18994" stroke="#96D5F9" stroke-opacity="0.2" stroke-width="0.5"/>
<circle cx="55.8066" cy="88.9448" r="1.43994" fill="#96D5F9" fill-opacity="0.2"/>
<circle cx="55.8066" cy="88.9448" r="1.18994" stroke="#96D5F9" stroke-opacity="0.2" stroke-width="0.5"/>
<circle cx="222.986" cy="66.0544" r="2.5485" fill="#96D5F9" fill-opacity="0.2"/>
<circle cx="222.986" cy="66.0544" r="2.2985" stroke="#96D5F9" stroke-opacity="0.2" stroke-width="0.5"/>
<circle cx="101.956" cy="100.975" r="2.5485" fill="#96D5F9" fill-opacity="0.2"/>
<circle cx="101.956" cy="100.975" r="2.2985" stroke="#96D5F9" stroke-opacity="0.2" stroke-width="0.5"/>
<circle cx="58.0671" cy="114.063" r="2.5485" fill="#96D5F9" fill-opacity="0.2"/>
<circle cx="58.0671" cy="114.063" r="2.2985" stroke="#96D5F9" stroke-opacity="0.2" stroke-width="0.5"/>
<circle cx="118.143" cy="68.2887" r="2.5485" fill="#96D5F9" fill-opacity="0.2"/>
<circle cx="118.143" cy="68.2887" r="2.2985" stroke="#96D5F9" stroke-opacity="0.2" stroke-width="0.5"/>
<circle cx="42.967" cy="173.223" r="2.5485" fill="#96D5F9" fill-opacity="0.2"/>
<circle cx="42.967" cy="173.223" r="2.2985" stroke="#96D5F9" stroke-opacity="0.2" stroke-width="0.5"/>
<circle cx="229.677" cy="142.934" r="1.58206" fill="#96D5F9" fill-opacity="0.2"/>
<circle cx="229.677" cy="142.934" r="1.33206" stroke="#96D5F9" stroke-opacity="0.2" stroke-width="0.5"/>
<circle cx="231.266" cy="189.584" r="3.02118" fill="#96D5F9" fill-opacity="0.2"/>
<circle cx="231.266" cy="189.584" r="2.77118" stroke="#96D5F9" stroke-opacity="0.2" stroke-width="0.5"/>
<defs>
<linearGradient id="paint0_linear" x1="136.757" y1="188.941" x2="192.86" y2="60.6931" gradientUnits="userSpaceOnUse">
<stop stop-color="#93A4FF"/>
<stop offset="1" stop-color="#B9E1F8"/>
</linearGradient>
</defs>
</svg>
