<svg width="8" height="13" viewBox="0 0 8 13" fill="none" xmlns="http://www.w3.org/2000/svg">
<path d="M1.42127 12.3334C1.22937 12.3341 1.04483 12.2594 0.907363 12.1254C0.840189 12.0601 0.786785 11.982 0.750317 11.8957C0.713849 11.8095 0.695068 11.7167 0.695068 11.623C0.695068 11.5294 0.713849 11.4366 0.750317 11.3503C0.786785 11.2641 0.840189 11.186 0.907363 11.1207L5.63382 6.49973L0.907363 1.87874C0.840189 1.81349 0.786785 1.73541 0.750317 1.64913C0.713849 1.56284 0.695068 1.47011 0.695068 1.37642C0.695068 1.28273 0.713849 1.19 0.750317 1.10372C0.786785 1.01743 0.840189 0.939312 0.907363 0.874063C1.04513 0.74061 1.22934 0.666016 1.42106 0.666016C1.61279 0.666016 1.79704 0.74061 1.93481 0.874063L7.689 6.50006L1.93513 12.1257C1.79761 12.2596 1.61312 12.3342 1.42127 12.3334Z" fill="#B4B4B4"/>
</svg>
