<svg width="13" height="18" viewBox="0 0 13 18" fill="none" xmlns="http://www.w3.org/2000/svg">
<path d="M6.2166 17.3335C6.09138 17.2915 5.96349 17.2558 5.84127 17.2062C5.48785 17.0663 5.19464 16.8068 5.01267 16.4729C4.92462 16.3186 4.89881 16.1365 4.94054 15.9639C4.98228 15.7912 5.08839 15.6411 5.23714 15.5442C5.38683 15.4464 5.56892 15.4115 5.74412 15.4469C5.91932 15.4823 6.07359 15.5853 6.17364 15.7335C6.3638 16.0002 6.58128 16.0002 6.77311 15.7335C6.87309 15.5853 7.02733 15.4824 7.20249 15.447C7.37766 15.4116 7.55969 15.4467 7.70927 15.5445C7.86054 15.6426 7.96777 15.7957 8.00829 15.9715C8.04881 16.1473 8.01945 16.332 7.92641 16.4865C7.81036 16.6902 7.65326 16.8674 7.46509 17.007C7.27692 17.1467 7.0618 17.2456 6.83338 17.2975C6.79866 17.3075 6.76452 17.3194 6.73114 17.3332L6.2166 17.3335ZM4.42286 14.4628C3.41794 14.3727 2.42401 14.1859 1.45483 13.9052C1.21664 13.8328 0.998404 13.7062 0.817165 13.5354C0.635927 13.3646 0.496596 13.1541 0.410054 12.9205C0.323512 12.6869 0.292102 12.4364 0.31828 12.1887C0.344458 11.9409 0.427515 11.7025 0.560961 11.4922C0.722151 11.2305 0.893999 10.9745 1.06851 10.7222C1.57908 9.97721 1.85291 9.09525 1.85414 8.19185C1.85405 7.42667 2.03872 6.6728 2.39244 5.99444C2.74616 5.31609 3.25845 4.73335 3.88567 4.29586C4.13845 4.10952 4.42286 3.96752 4.69295 3.80552C4.4476 3.37521 4.36136 2.87221 4.44935 2.38464C4.53734 1.89708 4.79394 1.45607 5.17419 1.13886C5.53066 0.841261 5.97837 0.67511 6.44251 0.668194C6.90665 0.661277 7.3591 0.814009 7.72426 1.10085C8.1147 1.40703 8.38476 1.84122 8.48691 2.32703C8.58907 2.81283 8.51678 3.31913 8.28276 3.75686C8.6188 3.96552 8.97348 4.14685 9.2852 4.38552C9.80143 4.77037 10.2333 5.2571 10.5541 5.81565C10.8749 6.3742 11.0778 6.99269 11.1502 7.63285C11.1952 7.98085 11.1912 8.33551 11.2108 8.68685C11.2528 9.4301 11.4944 10.1482 11.9102 10.7655C12.0584 10.9909 12.2083 11.2149 12.3541 11.4419C12.5005 11.6567 12.5931 11.9036 12.6241 12.1617C12.6551 12.4198 12.6237 12.6817 12.5324 12.9251C12.4412 13.1685 12.2928 13.3864 12.0997 13.5604C11.9067 13.7344 11.6747 13.8594 11.4233 13.9248C10.1152 14.2836 8.76999 14.49 7.41453 14.5399C7.1017 14.5536 6.78909 14.5605 6.4767 14.5605C5.79153 14.5601 5.10692 14.5275 4.42286 14.4628ZM5.79664 2.74752C5.79737 2.88087 5.83744 3.01104 5.91181 3.12168C5.98618 3.23233 6.09155 3.31853 6.21468 3.36947C6.33782 3.4204 6.47324 3.43379 6.60396 3.40798C6.73467 3.38217 6.85486 3.31829 6.94944 3.22437C7.04402 3.13044 7.10878 3.01065 7.13559 2.88003C7.1624 2.7494 7.15007 2.61375 7.10014 2.49011C7.05022 2.36647 6.96492 2.26034 6.85495 2.18504C6.74499 2.10974 6.61526 2.06863 6.48203 2.06685H6.47737C6.38762 2.06537 6.29849 2.08195 6.21527 2.11562C6.13206 2.14929 6.05645 2.19936 5.99295 2.26286C5.92945 2.32635 5.87935 2.40197 5.84563 2.48523C5.8119 2.56849 5.79524 2.65769 5.79664 2.74752Z" fill="#B4B4B4"/>
</svg>
