<svg
  width="39"
  height="38"
  viewBox="0 0 39 38"
  fill="none"
  xmlns="http://www.w3.org/2000/svg"
>
<path
    d="M19.5059 37.6667C29.7932 37.6667 38.1327 29.2407 38.1327 18.8467C38.1327 8.45273 29.7932 0.0267334 19.5059 0.0267334C9.21864 0.0267334 0.87915 8.45273 0.87915 18.8467C0.87915 29.2407 9.21864 37.6667 19.5059 37.6667Z"
    fill="#EEEEEE"
  />
<path
    d="M8.5166 28.1291C8.5166 27.9241 8.57734 27.7237 8.69115 27.5532C8.80496 27.3827 8.96673 27.2498 9.15599 27.1714C9.34524 27.0929 9.5535 27.0724 9.75441 27.1124C9.95533 27.1524 10.1399 27.2511 10.2847 27.3961C10.4296 27.5411 10.5282 27.7258 10.5682 27.9269C10.6081 28.128 10.5876 28.3364 10.5093 28.5258C10.4309 28.7153 10.2981 28.8772 10.1278 28.9911C9.95745 29.105 9.75719 29.1658 9.55234 29.1658C9.27764 29.1658 9.0142 29.0566 8.81996 28.8622C8.62572 28.6677 8.5166 28.4041 8.5166 28.1291ZM10.6171 27.1415C10.5666 27.0887 10.533 27.0221 10.5204 26.9501C10.5078 26.8782 10.5168 26.8041 10.5463 26.7373C10.5758 26.6705 10.6244 26.6139 10.6861 26.5748C10.7477 26.5357 10.8195 26.5158 10.8925 26.5175C10.9654 26.5193 11.0362 26.5427 11.0959 26.5848C11.1555 26.6269 11.2014 26.6857 11.2276 26.7539C11.2538 26.8221 11.2592 26.8965 11.2431 26.9677C11.2271 27.039 11.1902 27.1038 11.1373 27.1541C11.1024 27.1877 11.0612 27.214 11.0161 27.2315C10.971 27.2491 10.9229 27.2575 10.8745 27.2563C10.8262 27.2551 10.7785 27.2444 10.7343 27.2246C10.6901 27.2049 10.6503 27.1767 10.6171 27.1415ZM11.7601 26.0501C11.7022 25.9888 11.6672 25.9093 11.6611 25.8252C11.655 25.741 11.678 25.6573 11.7263 25.5882C11.7747 25.5191 11.8454 25.4687 11.9265 25.4457C12.0076 25.4227 12.0941 25.4283 12.1715 25.4618C12.249 25.4952 12.3125 25.5543 12.3514 25.6291C12.3903 25.704 12.4023 25.79 12.3852 25.8726C12.3682 25.9552 12.3232 26.0294 12.2579 26.0827C12.1925 26.136 12.1108 26.1651 12.0265 26.1651C11.9766 26.1649 11.9273 26.1547 11.8815 26.1349C11.8357 26.1151 11.7944 26.0863 11.7601 26.0501ZM12.9024 24.9588C12.8445 24.8974 12.8095 24.818 12.8034 24.7338C12.7973 24.6497 12.8203 24.566 12.8687 24.4969C12.917 24.4277 12.9877 24.3774 13.0688 24.3544C13.1499 24.3314 13.2365 24.337 13.3139 24.3704C13.3913 24.4038 13.4548 24.463 13.4937 24.5378C13.5326 24.6126 13.5446 24.6986 13.5276 24.7812C13.5105 24.8639 13.4655 24.9381 13.4002 24.9914C13.3348 25.0447 13.2531 25.0738 13.1688 25.0738C13.1189 25.0736 13.0696 25.0634 13.0238 25.0436C12.978 25.0238 12.9367 24.995 12.9024 24.9588ZM14.0453 23.8678C13.9949 23.815 13.9613 23.7484 13.9487 23.6765C13.9361 23.6045 13.9451 23.5305 13.9746 23.4636C14.0041 23.3968 14.0527 23.3403 14.1143 23.3012C14.176 23.262 14.2478 23.2421 14.3208 23.2439C14.3937 23.2457 14.4645 23.2691 14.5242 23.3111C14.5838 23.3532 14.6297 23.4121 14.6559 23.4802C14.6821 23.5484 14.6875 23.6228 14.6714 23.6941C14.6553 23.7653 14.6185 23.8302 14.5656 23.8805C14.5307 23.914 14.4895 23.9403 14.4444 23.9578C14.3993 23.9754 14.3512 23.9838 14.3028 23.9826C14.2544 23.9814 14.2068 23.9707 14.1626 23.951C14.1184 23.9313 14.0786 23.903 14.0453 23.8678ZM17.4756 23.6011C17.4752 23.591 17.4736 23.5809 17.471 23.5711C17.2383 22.9662 17.0051 22.3617 16.7716 21.7575C16.7142 21.7886 16.6496 21.8039 16.5843 21.8017C16.5191 21.7994 16.4556 21.7798 16.4005 21.7448C16.3454 21.7098 16.3006 21.6607 16.2708 21.6025C16.241 21.5444 16.2273 21.4794 16.2311 21.4141C15.8845 21.2788 15.5377 21.1442 15.1906 21.0105C15.0338 20.9498 14.8756 20.8925 14.7181 20.8338L14.7067 20.8228C14.9455 20.5828 15.185 20.3435 15.4218 20.1015C15.4387 20.0833 15.4594 20.069 15.4824 20.0596C15.5054 20.0503 15.5302 20.046 15.555 20.0471C16.0779 20.0375 16.6001 20.0268 17.1229 20.0121C17.1683 20.0099 17.2115 19.9917 17.2448 19.9608C17.5412 19.6591 17.8333 19.3528 18.1277 19.0491C18.2636 18.9095 18.4025 18.7728 18.5473 18.6278C18.5034 18.6041 18.4787 18.5895 18.4528 18.5771C17.2958 18.0198 16.1387 17.4625 14.9815 16.9051C14.9415 16.8858 14.9039 16.8621 14.865 16.8405L15.6276 16.0758L18.5726 16.7371C19.0516 16.8445 19.5306 16.9527 20.0097 17.0618C20.0305 17.0685 20.0528 17.0689 20.0738 17.0629C20.0949 17.057 20.1137 17.045 20.1279 17.0285C20.818 16.3487 21.5094 15.6702 22.2021 14.9931C22.4424 14.7421 22.7323 14.5438 23.0533 14.4108C23.1615 14.3691 23.2758 14.3455 23.3917 14.3408C23.4653 14.3386 23.5386 14.3514 23.6072 14.3784C23.6757 14.4054 23.7381 14.4462 23.7904 14.4981C23.8427 14.55 23.8839 14.6121 23.9115 14.6804C23.9391 14.7488 23.9525 14.8221 23.9509 14.8958C23.9377 15.1356 23.8569 15.3668 23.7177 15.5625C23.5197 15.8571 23.289 16.1284 23.03 16.3711C22.4416 16.9729 21.8539 17.5755 21.2669 18.1788C21.2509 18.1937 21.2397 18.2131 21.2347 18.2344C21.2296 18.2556 21.231 18.278 21.2386 18.2985C21.5603 19.7327 21.8822 21.1672 22.2044 22.6021C22.2133 22.6289 22.214 22.6577 22.2063 22.6848C22.1985 22.712 22.1828 22.7361 22.1611 22.7541C21.9453 22.9651 21.7338 23.1805 21.521 23.3941L21.4544 23.4608C20.8643 22.2275 20.2788 21.0045 19.6893 19.7741C19.6723 19.7875 19.66 19.7948 19.6497 19.8048C19.2163 20.2246 18.7833 20.645 18.3508 21.0661C18.3195 21.0992 18.3009 21.1423 18.2982 21.1878C18.2836 21.7151 18.2739 22.2428 18.2609 22.7701C18.2608 22.8083 18.2478 22.8453 18.224 22.8751C17.9815 23.1228 17.7354 23.3675 17.4913 23.6125L17.4756 23.6011ZM15.1887 22.7778C15.1307 22.7165 15.0957 22.6371 15.0894 22.5529C15.0832 22.4688 15.1061 22.3851 15.1544 22.3159C15.2027 22.2467 15.2733 22.1963 15.3544 22.1732C15.4355 22.15 15.522 22.1556 15.5995 22.1889C15.6769 22.2223 15.7405 22.2813 15.7795 22.3561C15.8185 22.4309 15.8306 22.5169 15.8136 22.5996C15.7966 22.6822 15.7517 22.7565 15.6864 22.8099C15.6211 22.8632 15.5394 22.8924 15.4551 22.8925C15.405 22.8922 15.3555 22.8817 15.3096 22.8617C15.2637 22.8417 15.2223 22.8126 15.188 22.7761L15.1887 22.7778ZM24.3305 14.0475C24.2802 13.9947 24.2467 13.9281 24.2342 13.8563C24.2217 13.7844 24.2308 13.7104 24.2604 13.6437C24.2899 13.577 24.3385 13.5206 24.4001 13.4816C24.4617 13.4426 24.5335 13.4227 24.6063 13.4245C24.6792 13.4264 24.7499 13.4498 24.8094 13.4918C24.869 13.5339 24.9147 13.5927 24.9409 13.6607C24.9671 13.7288 24.9725 13.8031 24.9564 13.8743C24.9404 13.9455 24.9036 14.0102 24.8507 14.0605C24.8158 14.094 24.7746 14.1203 24.7295 14.1378C24.6844 14.1553 24.6363 14.1637 24.5879 14.1625C24.5396 14.1613 24.4919 14.1505 24.4477 14.1308C24.4035 14.111 24.3637 14.0827 24.3305 14.0475ZM25.4732 12.9565C25.4152 12.8952 25.3802 12.8158 25.3739 12.7316C25.3677 12.6475 25.3907 12.5637 25.4389 12.4946C25.4872 12.4254 25.5578 12.375 25.6389 12.3518C25.72 12.3287 25.8065 12.3343 25.884 12.3676C25.9614 12.401 26.025 12.46 26.064 12.5348C26.103 12.6096 26.1151 12.6956 26.0981 12.7783C26.0812 12.8609 26.0362 12.9352 25.9709 12.9885C25.9056 13.0419 25.8239 13.0711 25.7396 13.0711C25.6895 13.0709 25.64 13.0604 25.5941 13.0404C25.5482 13.0204 25.5068 12.9913 25.4725 12.9548L25.4732 12.9565ZM26.6161 11.8655C26.5582 11.8042 26.5232 11.7248 26.5169 11.6406C26.5107 11.5565 26.5336 11.4727 26.5819 11.4036C26.6302 11.3344 26.7008 11.284 26.7819 11.2608C26.8629 11.2377 26.9495 11.2433 27.027 11.2766C27.1044 11.31 27.168 11.369 27.207 11.4438C27.246 11.5186 27.2581 11.6046 27.2411 11.6873C27.2241 11.7699 27.1792 11.8442 27.1139 11.8975C27.0486 11.9509 26.9669 11.9801 26.8826 11.9801C26.8324 11.9801 26.7828 11.9698 26.7368 11.9498C26.6908 11.9297 26.6494 11.9005 26.6151 11.8638L26.6161 11.8655ZM28.0259 10.8885C27.9401 10.8887 27.8568 10.8591 27.7905 10.8045C27.7242 10.75 27.679 10.6741 27.6625 10.5898C27.6461 10.5055 27.6596 10.4181 27.7006 10.3426C27.7416 10.2672 27.8077 10.2084 27.8873 10.1764C27.967 10.1444 28.0553 10.1412 28.137 10.1673C28.2188 10.1935 28.2889 10.2473 28.3352 10.3196C28.3816 10.3918 28.4014 10.478 28.3911 10.5633C28.3808 10.6486 28.3412 10.7276 28.279 10.7868C28.2118 10.852 28.1218 10.8884 28.0282 10.8885H28.0259ZM28.4255 9.20415C28.4255 8.9991 28.4863 8.79866 28.6001 8.62818C28.7139 8.45769 28.8757 8.32482 29.065 8.24636C29.2543 8.16791 29.4625 8.1474 29.6635 8.18742C29.8644 8.22745 30.0489 8.32622 30.1938 8.47124C30.3386 8.61625 30.4372 8.80099 30.4772 9.00211C30.5171 9.20322 30.4965 9.41168 30.4181 9.6011C30.3396 9.79052 30.2068 9.9524 30.0365 10.0663C29.8661 10.1801 29.6658 10.2409 29.4609 10.2408C29.3248 10.2408 29.19 10.2139 29.0643 10.1616C28.9386 10.1094 28.8244 10.0329 28.7282 9.93648C28.632 9.84004 28.5558 9.72558 28.5039 9.59963C28.4519 9.47369 28.4253 9.33873 28.4255 9.20248V9.20415Z"
    fill="#424242"
  />
</svg>
