<svg width="18" height="19" viewBox="0 0 18 19" fill="none" xmlns="http://www.w3.org/2000/svg">
<path d="M8.42644 15.6049C8.42966 15.0362 8.6011 14.4811 8.91912 14.0099C9.23714 13.5386 9.6875 13.1721 10.2134 12.9567C10.7393 12.7413 11.3171 12.6866 11.874 12.7995C12.4309 12.9124 12.9419 13.188 13.3425 13.5912C13.7432 13.9945 14.0155 14.5075 14.1252 15.0655C14.2349 15.6235 14.177 16.2016 13.9588 16.7267C13.7406 17.2518 13.3719 17.7005 12.8992 18.0161C12.4266 18.3318 11.8711 18.5002 11.3029 18.5002C10.5379 18.4979 9.8051 18.1916 9.26569 17.6486C8.72628 17.1057 8.4244 16.3706 8.42644 15.6049ZM10.3844 16.4669C10.3551 16.5589 10.3294 16.6545 10.3041 16.7505C10.2675 16.8792 10.2821 16.9085 10.404 16.9679C10.5585 17.0384 10.7226 17.0855 10.8909 17.1076C11.0241 17.1299 11.0301 17.1372 11.0301 17.2742V17.4619C11.0301 17.5392 11.0668 17.5872 11.1474 17.5872C11.2388 17.5908 11.3303 17.5908 11.4218 17.5872C11.4375 17.5888 11.4533 17.5869 11.4681 17.5814C11.483 17.576 11.4963 17.5673 11.5073 17.5559C11.5182 17.5445 11.5264 17.5308 11.5313 17.5158C11.5362 17.5008 11.5375 17.4848 11.5353 17.4692C11.5353 17.3805 11.539 17.2962 11.5353 17.2112C11.5323 17.1933 11.533 17.175 11.5373 17.1573C11.5416 17.1397 11.5495 17.1231 11.5605 17.1087C11.5714 17.0942 11.5852 17.0821 11.601 17.0731C11.6168 17.0642 11.6342 17.0585 11.6522 17.0565C11.8411 17.0078 12.0092 16.8993 12.1315 16.7472C12.2121 16.6474 12.2697 16.5309 12.3 16.4061C12.3303 16.2813 12.3326 16.1514 12.3067 16.0256C12.2808 15.8999 12.2274 15.7815 12.1502 15.6788C12.0731 15.5762 11.9743 15.492 11.8607 15.4322C11.7047 15.3481 11.5434 15.2743 11.3778 15.2112C11.2838 15.1727 11.1952 15.1219 11.1144 15.0602C11.079 15.0356 11.0512 15.0015 11.034 14.962C11.0167 14.9224 11.0108 14.8788 11.0169 14.8361C11.0229 14.7934 11.0407 14.7532 11.0682 14.7199C11.0957 14.6867 11.1318 14.6618 11.1727 14.6479C11.224 14.6276 11.2784 14.6163 11.3335 14.6145C11.5431 14.6013 11.7526 14.6433 11.941 14.7362C12.0359 14.7805 12.0689 14.7656 12.1018 14.6662C12.1348 14.5669 12.1684 14.4525 12.1971 14.3455C12.2033 14.3309 12.2063 14.3151 12.2059 14.2992C12.2054 14.2833 12.2016 14.2677 12.1946 14.2534C12.1877 14.2391 12.1777 14.2265 12.1654 14.2164C12.1531 14.2063 12.1388 14.199 12.1235 14.1949C12.0008 14.1405 11.8716 14.102 11.7392 14.0805C11.5636 14.0545 11.5636 14.0546 11.5636 13.8779C11.5636 13.6276 11.5636 13.6275 11.3149 13.6275H11.2086C11.0917 13.6309 11.0731 13.6495 11.0694 13.7672V13.9255C11.0694 14.0802 11.0658 14.0766 10.9196 14.1316C10.7503 14.1792 10.6006 14.2795 10.4921 14.4179C10.3835 14.5563 10.3218 14.7257 10.3158 14.9015C10.3061 15.0572 10.3431 15.2121 10.4219 15.3466C10.5008 15.4811 10.6179 15.5891 10.7584 15.6565C10.9364 15.7533 11.1211 15.8371 11.3112 15.9072C11.3836 15.9357 11.4511 15.9755 11.511 16.0252C11.5522 16.0545 11.5846 16.0945 11.6047 16.1409C11.6248 16.1873 11.6317 16.2383 11.6249 16.2884C11.618 16.3385 11.5976 16.3858 11.5657 16.4251C11.5339 16.4643 11.492 16.4941 11.4444 16.5112C11.333 16.5599 11.2101 16.5766 11.0897 16.5592C10.9009 16.5385 10.7174 16.4836 10.5482 16.3972C10.5214 16.3811 10.4914 16.371 10.4603 16.3676C10.4243 16.3669 10.4063 16.3972 10.384 16.4669H10.3844ZM5.75514 16.2829C5.45736 16.282 5.17212 16.1628 4.96215 15.9514C4.75218 15.7401 4.63468 15.4539 4.63547 15.1559V7.2692C4.63503 7.12161 4.66365 6.97538 4.71969 6.83886C4.77572 6.70234 4.85808 6.5782 4.96206 6.47355C5.06603 6.36889 5.18959 6.28577 5.32567 6.22892C5.46175 6.17206 5.60768 6.1426 5.75514 6.14221H16.8453C17.1431 6.14309 17.4283 6.26228 17.6383 6.47363C17.8482 6.68497 17.9658 6.97116 17.965 7.2692V15.1519C17.9658 15.4499 17.8483 15.7362 17.6383 15.9476C17.4283 16.159 17.1431 16.2783 16.8453 16.2792H15.3559C15.3928 16.0565 15.4113 15.831 15.4112 15.6052C15.4103 15.352 15.387 15.0993 15.3416 14.8502H16.5452V11.0779H6.05887V14.8536H7.25781C7.21232 15.1027 7.18903 15.3553 7.1882 15.6085C7.18818 15.8343 7.20656 16.0598 7.24316 16.2826L5.75514 16.2829ZM6.05887 8.75386H16.5462V7.5712H6.05887V8.75386ZM3.14979 10.6619L1.30543 9.85921C1.03684 9.73811 0.827132 9.51541 0.722208 9.23991C0.617284 8.9644 0.625693 8.65851 0.745594 8.3892L3.94775 1.16218C4.00612 1.02879 4.09032 0.90829 4.19547 0.807646C4.30063 0.707003 4.42466 0.628241 4.5604 0.575835C4.69615 0.523428 4.84092 0.49845 4.98636 0.502348C5.13181 0.506246 5.27504 0.538937 5.40779 0.59854L14.5523 4.68021C14.6024 4.70302 14.6431 4.74229 14.6678 4.7915C14.6924 4.84071 14.6995 4.89688 14.6878 4.95068C14.6762 5.00448 14.6464 5.05265 14.6036 5.08719C14.5608 5.12173 14.5074 5.14057 14.4524 5.14054V5.1442H5.75914C5.19667 5.14605 4.65794 5.37133 4.26133 5.77054C3.86473 6.16975 3.64269 6.71021 3.64402 7.27319V10.3416C3.64367 10.4347 3.60647 10.5239 3.54056 10.5897C3.47466 10.6555 3.38541 10.6925 3.29233 10.6925C3.24316 10.6924 3.19458 10.6819 3.14979 10.6615V10.6619Z" fill="#B4B4B4"/>
</svg>
