<svg width="14" height="13" viewBox="0 0 14 13" fill="none" xmlns="http://www.w3.org/2000/svg">
<path d="M3.07938 12.9998C2.96672 12.9998 2.85867 12.955 2.77901 12.8752C2.69935 12.7955 2.65459 12.6873 2.65459 12.5746C2.65459 12.4618 2.69935 12.3537 2.77901 12.2739C2.85867 12.1942 2.96672 12.1494 3.07938 12.1494H13.1302C13.2428 12.1494 13.3509 12.1942 13.4305 12.2739C13.5102 12.3537 13.5549 12.4618 13.5549 12.5746C13.5549 12.6873 13.5102 12.7955 13.4305 12.8752C13.3509 12.955 13.2428 12.9998 13.1302 12.9998H3.07938ZM12.0268 10.1051C11.5126 10.0001 11.0004 9.88309 10.4905 9.75909C8.2014 9.20354 5.91287 8.64509 3.6249 8.08376C2.86457 7.89809 2.10458 7.70975 1.34292 7.52842C1.20021 7.49859 1.06766 7.4322 0.958255 7.33575C0.711937 7.09789 0.542776 6.79141 0.472703 6.45609C0.277209 5.61376 0.12834 4.76242 0.0131084 3.90576C0.00648666 3.85867 0.00225442 3.81127 0.000444659 3.76375C-0.000947002 3.75034 0.000938481 3.73679 0.00595329 3.72428C0.0109681 3.71177 0.0189629 3.70066 0.0292278 3.69193C0.0394926 3.6832 0.0517335 3.6771 0.0648814 3.67417C0.0780293 3.67123 0.0916827 3.67155 0.104682 3.67508C0.489674 3.74775 0.874342 3.82008 1.25867 3.89575C1.29217 3.90493 1.32145 3.92542 1.34158 3.95375C1.78253 4.57597 2.2227 5.19908 2.66209 5.82308C2.68372 5.85299 2.71445 5.8751 2.74968 5.88608C3.52055 6.0972 4.29187 6.30697 5.06363 6.51542C5.15388 6.54009 5.19685 6.5051 5.18386 6.41343C5.04576 5.32454 4.90743 4.23631 4.76889 3.14876C4.66875 2.36209 4.56885 1.57542 4.46916 0.788751C4.45584 0.682751 4.4928 0.649415 4.59704 0.673415C4.9857 0.762082 5.37402 0.85241 5.76268 0.93841C5.78543 0.941752 5.80665 0.951866 5.82358 0.967442C5.8405 0.983018 5.85234 1.00334 5.85758 1.02575C6.56185 3.03175 7.26646 5.03786 7.97139 7.04409C7.9781 7.07204 7.99366 7.09707 8.01575 7.11546C8.03783 7.13384 8.06526 7.14459 8.09394 7.1461C9.30187 7.34976 10.5101 7.55242 11.7171 7.76375C12.2136 7.84524 12.6838 8.04294 13.0895 8.34076C13.3346 8.50592 13.5161 8.74977 13.6041 9.03208C13.6508 9.15733 13.6672 9.2919 13.6519 9.42472C13.6365 9.55755 13.5899 9.68482 13.5158 9.79608C13.3772 9.97289 13.1752 10.0886 12.9526 10.1184C12.8155 10.1455 12.6761 10.159 12.5363 10.1588C12.3651 10.158 12.1944 10.1401 12.0268 10.1051Z" fill="#E25D6A"/>
</svg>
