<svg
  width="17"
  height="12"
  viewBox="0 0 17 12"
  fill="none"
  xmlns="http://www.w3.org/2000/svg"
>
<path
    d="M4.23167 11.6671C4.10218 11.6671 3.978 11.6156 3.88644 11.524C3.79488 11.4323 3.74344 11.308 3.74344 11.1784C3.74344 11.0488 3.79488 10.9245 3.88644 10.8329C3.978 10.7413 4.10218 10.6898 4.23167 10.6898H15.5413C15.6708 10.6898 15.795 10.7413 15.8865 10.8329C15.9781 10.9245 16.0295 11.0488 16.0295 11.1784C16.0295 11.308 15.9781 11.4323 15.8865 11.524C15.795 11.6156 15.6708 11.6671 15.5413 11.6671H4.23167ZM2.89786 9.36377C2.04861 8.8691 1.22801 8.32842 0.428716 7.75476C0.384755 7.72309 0.341797 7.69009 0.301499 7.65476C0.289248 7.64543 0.27942 7.6333 0.272848 7.61936C0.266277 7.60543 0.263154 7.5901 0.263742 7.5747C0.26433 7.55931 0.268607 7.54427 0.276223 7.53088C0.283838 7.51749 0.294559 7.50613 0.307486 7.49776C0.662503 7.23109 1.01686 6.96644 1.37321 6.70377C1.40628 6.68283 1.44566 6.67422 1.48444 6.67944C2.33868 6.79677 3.19259 6.91742 4.04683 7.03509C4.08811 7.03996 4.12987 7.03157 4.16606 7.0111C4.93115 6.53066 5.69548 6.04843 6.45902 5.56443C6.54828 5.50809 6.55127 5.44542 6.46635 5.38409L3.43805 3.17909L1.24899 1.58542C1.15075 1.51375 1.1514 1.45709 1.25098 1.38809C1.62232 1.13143 1.99432 0.876768 2.36333 0.617767C2.38349 0.601396 2.40816 0.591555 2.43404 0.589589C2.45993 0.587624 2.4858 0.59362 2.5082 0.606761C4.7129 1.58454 6.9175 2.56231 9.12199 3.54009C9.15024 3.55626 9.18298 3.56276 9.21526 3.55861C9.24754 3.55446 9.27758 3.53989 9.30083 3.5171C10.3943 2.66421 11.4893 1.81342 12.5859 0.964753C13.0325 0.61257 13.5569 0.372553 14.1152 0.26476C14.4408 0.188517 14.7826 0.227139 15.083 0.374094C15.2234 0.433692 15.3478 0.525516 15.4462 0.642141C15.5445 0.758765 15.6141 0.89691 15.6492 1.04542C15.6901 1.29873 15.6315 1.55808 15.4857 1.76909C15.2998 2.07062 15.0548 2.3314 14.7656 2.53576C14.2851 2.88443 13.7962 3.22209 13.3029 3.55242C11.0896 5.03509 8.87488 6.51577 6.65885 7.99444C5.92283 8.48644 5.18483 8.97577 4.45148 9.47211C4.31779 9.56806 4.16125 9.62714 3.99755 9.64343C3.96602 9.64476 3.93505 9.64544 3.90463 9.64544C3.54954 9.6474 3.20092 9.55033 2.89786 9.36511V9.36377Z"
    fill="#BDBDBD"
  />
</svg>
