<svg width="16" height="16" viewBox="0 0 16 16" fill="none" xmlns="http://www.w3.org/2000/svg">
<path d="M6.92099 15.9996C6.8175 15.9998 6.71589 15.972 6.62685 15.9192C6.53782 15.8664 6.46466 15.7905 6.41511 15.6996L5.75703 14.4852L3.84306 13.3853L2.45896 13.4249C2.35541 13.4278 2.25298 13.4028 2.16244 13.3524C2.0719 13.302 1.99659 13.2282 1.94441 13.1386L0.724499 11.0329C0.672665 10.9434 0.646062 10.8415 0.647529 10.7381C0.648995 10.6347 0.678473 10.5336 0.732823 10.4456L1.45951 9.27058V7.06625L0.732823 5.89124C0.678468 5.80332 0.648985 5.70229 0.647518 5.59891C0.646052 5.49553 0.672659 5.39368 0.724499 5.30425L1.94441 3.19825C1.99667 3.10875 2.072 3.03495 2.16252 2.98458C2.25304 2.93421 2.35542 2.90911 2.45896 2.91192L3.84306 2.95125L5.75703 1.85125L6.41511 0.636913C6.46466 0.54598 6.53782 0.470118 6.62685 0.417318C6.71589 0.364519 6.8175 0.336742 6.92099 0.336915H9.36082C9.46431 0.336742 9.56593 0.364519 9.65496 0.417318C9.744 0.470118 9.81715 0.54598 9.86671 0.636913L10.5248 1.85125L12.4388 2.95125L13.8229 2.91192C13.9264 2.90911 14.0288 2.93421 14.1193 2.98458C14.2098 3.03495 14.2851 3.10875 14.3374 3.19825L15.557 5.30391C15.6089 5.39338 15.6355 5.49529 15.6341 5.59873C15.6326 5.70218 15.6031 5.80329 15.5487 5.89124L14.8223 7.06592V9.26925L15.5487 10.4439C15.6031 10.5319 15.6326 10.633 15.6341 10.7364C15.6355 10.8399 15.6089 10.9418 15.557 11.0312L14.3374 13.1369C14.2854 13.2267 14.2101 13.3007 14.1196 13.3511C14.029 13.4015 13.9265 13.4264 13.8229 13.4232L12.4388 13.3836L10.5248 14.4836L9.86671 15.6996C9.81715 15.7905 9.744 15.8664 9.65496 15.9192C9.56593 15.972 9.46431 15.9998 9.36082 15.9996H6.92099ZM4.11515 8.16625C4.11172 8.9639 4.34491 9.74463 4.78518 10.4095C5.22544 11.0744 5.85298 11.5936 6.58828 11.9012C7.32358 12.2088 8.13357 12.2911 8.91562 12.1376C9.69768 11.9841 10.4166 11.6017 10.9814 11.0389C11.5461 10.4761 11.9312 9.75815 12.088 8.97606C12.2447 8.19398 12.166 7.38292 11.8618 6.64565C11.5577 5.90837 11.0417 5.27805 10.3793 4.83453C9.71688 4.39101 8.93786 4.15425 8.14091 4.15425C7.07591 4.15327 6.054 4.5751 5.29931 5.32721C4.54462 6.07932 4.11877 7.10031 4.11515 8.16625ZM5.99015 10.0663L8.14091 8.82892L10.2913 10.0663C10.0214 10.3702 9.69015 10.6135 9.31948 10.7801C8.9488 10.9467 8.54707 11.0328 8.14074 11.0328C7.73441 11.0328 7.33268 10.9467 6.96201 10.7801C6.59133 10.6135 6.26011 10.3702 5.99015 10.0663ZM8.71606 7.83592V5.35858C9.1142 5.43794 9.49087 5.60128 9.82102 5.83771C10.1512 6.07413 10.4272 6.37823 10.6308 6.72977C10.8344 7.0813 10.9608 7.4722 11.0017 7.87645C11.0425 8.2807 10.9969 8.68902 10.8678 9.07425L8.71606 7.83592ZM5.26546 8.16692C5.26736 7.50534 5.49724 6.86467 5.91631 6.35305C6.33537 5.84142 6.91797 5.49017 7.56575 5.35858V7.83592L5.414 9.07391C5.31563 8.78143 5.26557 8.47486 5.26579 8.16625L5.26546 8.16692Z" fill="#B4B4B4"/>
</svg>
