<svg width="36" height="36" viewBox="0 0 36 36" fill="none" xmlns="http://www.w3.org/2000/svg">
<circle cx="18.0245" cy="18.0438" r="17.2562" fill="#FFBE17"/>
<path d="M25.9556 16.318H20.0937C19.9032 16.318 19.7488 16.1636 19.7488 15.9732V10.1113C19.7488 9.15917 18.9769 8.38721 18.0248 8.38721C17.0726 8.38721 16.3007 9.15917 16.3007 10.1113V15.9732C16.3007 16.1636 16.1463 16.318 15.9559 16.318H10.094C9.14184 16.318 8.36987 17.09 8.36987 18.0421C8.36987 18.9942 9.14184 19.7662 10.094 19.7662H15.9559C16.1463 19.7662 16.3007 19.9206 16.3007 20.111V25.9729C16.3007 26.925 17.0726 27.697 18.0248 27.697C18.9769 27.697 19.7488 26.925 19.7488 25.9729V20.111C19.7488 19.9206 19.9032 19.7662 20.0937 19.7662H25.9556C26.9077 19.7662 27.6796 18.9942 27.6796 18.0421C27.6796 17.09 26.9077 16.318 25.9556 16.318Z" fill="white"/>
</svg>
