<svg
  width="39"
  height="39"
  viewBox="0 0 39 39"
  fill="none"
  xmlns="http://www.w3.org/2000/svg"
>
<path
    d="M19.1573 38.6667C29.5771 38.6667 38.0239 30.1601 38.0239 19.6667C38.0239 9.17327 29.5771 0.666687 19.1573 0.666687C8.73762 0.666687 0.290771 9.17327 0.290771 19.6667C0.290771 30.1601 8.73762 38.6667 19.1573 38.6667Z"
    fill="#EEEEEE"
  />
<path
    d="M12.2805 16.2001V16.1861C12.2865 16.1793 12.2917 16.1719 12.2962 16.1641C12.5404 15.6085 12.7831 15.0529 13.0242 14.4974C13.0332 14.4677 13.0311 14.4357 13.0182 14.4074C12.835 13.9838 12.6504 13.5608 12.4644 13.1384C12.4044 13.0024 12.3418 12.8677 12.2805 12.7321V12.7181C12.5763 12.7181 12.8723 12.7181 13.1681 12.7157C13.1896 12.715 13.2111 12.7189 13.231 12.7273C13.2509 12.7356 13.2687 12.7482 13.2833 12.7641C13.6128 13.0854 13.9435 13.4053 14.2754 13.7237C14.3048 13.7507 14.3428 13.7664 14.3826 13.7681C14.7523 13.7654 15.122 13.7571 15.492 13.7521C15.6622 13.7497 15.8324 13.7521 16.0119 13.7521C15.9992 13.7097 15.9929 13.6854 15.9846 13.6614C15.6122 12.5894 15.2398 11.5173 14.8672 10.4451C14.8542 10.4081 14.8456 10.3694 14.8339 10.3317H15.7774L17.1925 12.5877C17.4227 12.9548 17.6525 13.3223 17.8819 13.6901C17.8905 13.7072 17.9039 13.7214 17.9206 13.7309C17.9372 13.7404 17.9563 13.7448 17.9755 13.7434C18.822 13.7514 19.6686 13.7594 20.5152 13.7721C20.8192 13.7661 21.1211 13.8239 21.4014 13.9417C21.4942 13.9836 21.5795 14.0405 21.6539 14.1101C21.7009 14.1549 21.7384 14.2088 21.7641 14.2685C21.7899 14.3282 21.8033 14.3924 21.8036 14.4574C21.804 14.5225 21.7912 14.5869 21.7661 14.6468C21.741 14.7068 21.7041 14.7611 21.6575 14.8064C21.5018 14.9472 21.3092 15.0405 21.1023 15.0754C20.7981 15.1351 20.488 15.16 20.1782 15.1494C19.4425 15.1564 18.7071 15.1667 17.9715 15.1734C17.9523 15.1728 17.9334 15.1779 17.9172 15.1881C17.901 15.1982 17.8881 15.2129 17.8802 15.2304C17.1944 16.3268 16.5083 17.4231 15.822 18.5191C15.8109 18.5411 15.7935 18.5592 15.7719 18.5711C15.7503 18.583 15.7257 18.5881 15.7011 18.5857C15.4374 18.5821 15.1736 18.5857 14.9098 18.5857H14.8263L16.0085 15.1807C15.9899 15.1784 15.9776 15.1754 15.9652 15.1751C15.438 15.1654 14.9105 15.1554 14.3833 15.1487C14.3434 15.1499 14.3051 15.1653 14.2754 15.1921C13.9424 15.5121 13.6093 15.8351 13.2763 16.1557C13.2529 16.1796 13.2219 16.1947 13.1887 16.1984C12.8863 16.2031 12.5832 16.2001 12.2805 16.2001ZM20.8959 23.1334C20.8626 23.1371 20.8317 23.1522 20.8083 23.1761C20.4752 23.4967 20.1422 23.8197 19.8092 24.1397C19.7794 24.1663 19.7412 24.1816 19.7013 24.1827C19.1741 24.1761 18.6465 24.166 18.1193 24.1564C18.1048 24.1552 18.0904 24.1533 18.076 24.1507L19.258 20.7457H19.1744C18.9106 20.7457 18.6469 20.7477 18.3831 20.7457C18.3586 20.7433 18.3339 20.7484 18.3123 20.7603C18.2908 20.7722 18.2733 20.7904 18.2622 20.8124C17.577 21.9093 16.891 23.0055 16.204 24.1011C16.1961 24.1185 16.1832 24.1332 16.167 24.1433C16.1508 24.1535 16.1319 24.1586 16.1128 24.158C15.3771 24.1647 14.6418 24.175 13.9061 24.1824C13.5962 24.1718 13.2861 24.1966 12.9819 24.2564C12.775 24.2913 12.5824 24.3846 12.4267 24.5254C12.3802 24.5707 12.3432 24.625 12.3181 24.6849C12.293 24.7449 12.2803 24.8093 12.2806 24.8743C12.2809 24.9393 12.2944 25.0036 12.3201 25.0633C12.3459 25.123 12.3834 25.1769 12.4304 25.2217C12.5047 25.2913 12.59 25.3482 12.6828 25.3901C12.9631 25.5079 13.265 25.5657 13.569 25.5597C14.4156 25.5724 15.2622 25.5804 16.1088 25.5884C16.1279 25.587 16.147 25.5913 16.1637 25.6008C16.1804 25.6103 16.1938 25.6245 16.2024 25.6417C16.4311 26.0099 16.6608 26.3774 16.8918 26.744L18.3065 29H19.2503C19.2397 28.9624 19.231 28.9237 19.217 28.8867C18.8447 27.8145 18.4722 26.7424 18.0997 25.6704C18.0914 25.6464 18.085 25.6221 18.0724 25.5797C18.2519 25.5797 18.4221 25.5817 18.5922 25.5797C18.9619 25.5747 19.3319 25.5667 19.7016 25.5637C19.7414 25.5654 19.7794 25.5811 19.8088 25.6081C20.1419 25.9261 20.4726 26.2459 20.8009 26.5677C20.8155 26.5836 20.8334 26.5961 20.8533 26.6045C20.8732 26.6128 20.8946 26.6168 20.9162 26.616C21.2119 26.6134 21.508 26.6144 21.8037 26.6137V26.6C21.7424 26.4647 21.6798 26.33 21.6199 26.1937C21.4343 25.7715 21.2497 25.3485 21.066 24.9247C21.0532 24.8964 21.051 24.8644 21.06 24.8347C21.3009 24.2792 21.5436 23.7236 21.7881 23.1681C21.7925 23.1602 21.7978 23.1528 21.8037 23.146V23.1334C21.5013 23.1334 21.1983 23.1304 20.8952 23.1334H20.8959ZM23.4936 24.4187C23.4186 24.4318 23.3514 24.4728 23.3056 24.5336C23.2598 24.5944 23.2388 24.6703 23.2468 24.746C23.2549 24.8217 23.2914 24.8916 23.3489 24.9413C23.4065 24.9911 23.4808 25.0171 23.5568 25.014C23.5782 25.014 23.5996 25.0116 23.6204 25.0067C23.6589 24.9982 23.6954 24.9822 23.7276 24.9595C23.7599 24.9369 23.7874 24.9081 23.8086 24.8748C23.8298 24.8416 23.8442 24.8044 23.851 24.7656C23.8578 24.7267 23.8568 24.6869 23.8482 24.6484C23.8402 24.6098 23.8246 24.5733 23.8023 24.5408C23.78 24.5083 23.7515 24.4806 23.7185 24.4592C23.6855 24.4378 23.6485 24.4232 23.6098 24.4162C23.5711 24.4092 23.5313 24.4099 23.4929 24.4184L23.4936 24.4187ZM22.4278 13.9581C22.3685 13.9577 22.3103 13.9749 22.2608 14.0076C22.2112 14.0404 22.1725 14.0871 22.1495 14.1419C22.1265 14.1966 22.1203 14.257 22.1316 14.3153C22.143 14.3737 22.1713 14.4273 22.2132 14.4695C22.255 14.5116 22.3084 14.5404 22.3666 14.5521C22.4248 14.5639 22.4852 14.5581 22.5401 14.5354C22.595 14.5128 22.6419 14.4743 22.6749 14.4249C22.7079 14.3756 22.7256 14.3175 22.7256 14.2581C22.7257 14.1789 22.6945 14.1029 22.6388 14.0466C22.5832 13.9904 22.5076 13.9584 22.4285 13.9577L22.4278 13.9581ZM27.6032 18.6734C27.5442 18.6793 27.4881 18.7026 27.4423 18.7404C27.3965 18.7782 27.3629 18.8287 27.3458 18.8856C27.3288 18.9425 27.329 19.0033 27.3464 19.0601C27.3638 19.1169 27.3978 19.1672 27.4438 19.2047C27.4899 19.2422 27.546 19.2651 27.6052 19.2706C27.6643 19.2761 27.7237 19.2639 27.7759 19.2356C27.8281 19.2072 27.8707 19.164 27.8983 19.1114C27.9259 19.0588 27.9372 18.9991 27.9309 18.9401C27.9226 18.8614 27.8836 18.7892 27.8223 18.7392C27.7611 18.6892 27.6826 18.6654 27.6039 18.6731L27.6032 18.6734ZM26.763 16.8771C26.8225 16.8769 26.8806 16.8586 26.9295 16.8247C26.9949 16.7793 27.0398 16.71 27.0546 16.6317C27.0694 16.5535 27.0528 16.4725 27.0084 16.4064C26.9867 16.3738 26.9586 16.3458 26.926 16.3242C26.8933 16.3025 26.8567 16.2875 26.8182 16.2801C26.7798 16.2727 26.7402 16.273 26.7018 16.281C26.6635 16.289 26.6271 16.3045 26.5948 16.3267C26.5293 16.3721 26.4843 16.4414 26.4696 16.5197C26.4548 16.598 26.4714 16.6789 26.5159 16.7451C26.5431 16.7857 26.58 16.819 26.6233 16.842C26.6665 16.865 26.7147 16.8769 26.7637 16.8767L26.763 16.8771ZM27.0657 17.8237C27.0789 17.8607 27.0993 17.8948 27.1257 17.9238C27.1521 17.9529 27.184 17.9764 27.2196 17.993C27.2552 18.0096 27.2937 18.0189 27.3329 18.0205C27.3721 18.022 27.4113 18.0158 27.448 18.0021C27.5224 17.9739 27.5828 17.9175 27.6159 17.8451C27.649 17.7727 27.6522 17.6902 27.6249 17.6154C27.6117 17.5784 27.5912 17.5445 27.5648 17.5155C27.5384 17.4864 27.5064 17.463 27.4709 17.4464C27.4353 17.4298 27.3968 17.4204 27.3577 17.4188C27.3185 17.4172 27.2793 17.4234 27.2426 17.4371C27.1684 17.4654 27.1084 17.5219 27.0756 17.5942C27.0429 17.6665 27.0399 17.7489 27.0674 17.8234L27.0657 17.8237ZM24.6245 24.0167C24.5538 24.053 24.5001 24.1157 24.4752 24.1912C24.4503 24.2667 24.4561 24.3491 24.4913 24.4204C24.5084 24.4558 24.5323 24.4875 24.5617 24.5136C24.5911 24.5397 24.6254 24.5597 24.6626 24.5724C24.6998 24.5851 24.7392 24.5902 24.7784 24.5875C24.8176 24.5848 24.8559 24.5744 24.891 24.5567C24.9617 24.5205 25.0154 24.4578 25.0403 24.3822C25.0652 24.3067 25.0595 24.2244 25.0242 24.1531C25.0071 24.1177 24.9832 24.0861 24.9538 24.06C24.9244 24.034 24.8902 24.014 24.853 24.0013C24.8159 23.9887 24.7766 23.9835 24.7374 23.9861C24.6982 23.9888 24.66 23.9992 24.6249 24.0167H24.6245ZM27.4057 21.225C27.3694 21.2105 27.3306 21.2032 27.2915 21.2037C27.2524 21.2042 27.2137 21.2124 27.1778 21.2279C27.1418 21.2434 27.1093 21.2658 27.0821 21.2939C27.0548 21.3221 27.0334 21.3553 27.0191 21.3917C26.9897 21.4657 26.9907 21.5483 27.0219 21.6216C27.0531 21.6948 27.1119 21.7527 27.1856 21.7827C27.2206 21.797 27.258 21.8043 27.2958 21.8044C27.3557 21.8042 27.414 21.7859 27.4633 21.752C27.5126 21.7181 27.5506 21.6702 27.5723 21.6144C27.6011 21.5406 27.5999 21.4584 27.5688 21.3855C27.5377 21.3127 27.4793 21.2549 27.4061 21.2247L27.4057 21.225ZM26.8566 22.3887C26.825 22.3655 26.7891 22.3489 26.7511 22.3397C26.713 22.3304 26.6735 22.3289 26.6348 22.3351C26.5962 22.3413 26.5591 22.3551 26.5258 22.3758C26.4925 22.3964 26.4637 22.4235 26.4409 22.4554C26.3946 22.5201 26.3756 22.6006 26.3881 22.6792C26.4006 22.7579 26.4435 22.8285 26.5075 22.8757C26.5392 22.8988 26.5752 22.9153 26.6133 22.9244C26.6515 22.9334 26.691 22.9348 26.7297 22.9284C26.7684 22.922 26.8054 22.908 26.8386 22.8872C26.8718 22.8663 26.9006 22.8391 26.9232 22.807C26.9689 22.7425 26.9877 22.6626 26.9754 22.5844C26.963 22.5063 26.9206 22.436 26.8572 22.3887H26.8566ZM27.6582 19.9607C27.5791 19.9502 27.499 19.9715 27.4356 20.02C27.3723 20.0685 27.3307 20.1402 27.3202 20.2194C27.3096 20.2986 27.3309 20.3787 27.3794 20.4421C27.4278 20.5056 27.4995 20.5472 27.5786 20.5577C27.592 20.5595 27.6054 20.5604 27.6189 20.5604C27.6984 20.5656 27.7767 20.539 27.8366 20.4864C27.8965 20.4338 27.9331 20.3596 27.9383 20.2801C27.9435 20.2005 27.9169 20.1221 27.8644 20.0622C27.8119 20.0022 27.7377 19.9656 27.6582 19.9604V19.9607ZM25.0199 14.6044C24.9853 14.5859 24.9474 14.5745 24.9084 14.5708C24.8693 14.5672 24.83 14.5713 24.7925 14.5829C24.7551 14.5946 24.7204 14.6136 24.6903 14.6388C24.6603 14.664 24.6356 14.6949 24.6176 14.7297C24.5805 14.8002 24.5727 14.8824 24.5959 14.9586C24.619 15.0348 24.6712 15.0988 24.7411 15.1367C24.7839 15.1597 24.8317 15.1717 24.8803 15.1717C24.9346 15.1714 24.9878 15.1564 25.0342 15.1282C25.0805 15.1 25.1184 15.0598 25.1438 15.0117C25.1808 14.9412 25.1887 14.859 25.1656 14.7828C25.1426 14.7065 25.0904 14.6424 25.0205 14.6044H25.0199ZM23.7623 14.1194C23.7242 14.1101 23.6846 14.1084 23.6458 14.1144C23.6071 14.1205 23.5699 14.1342 23.5364 14.1547C23.5029 14.1752 23.4739 14.2022 23.4508 14.234C23.4278 14.2658 23.4113 14.3018 23.4023 14.3401C23.3927 14.3783 23.3907 14.4181 23.3964 14.4571C23.4021 14.4961 23.4155 14.5336 23.4357 14.5674C23.456 14.6013 23.4827 14.6308 23.5143 14.6543C23.5459 14.6778 23.5819 14.6948 23.6201 14.7044C23.6435 14.7103 23.6676 14.7134 23.6917 14.7134C23.7668 14.716 23.8402 14.6904 23.8973 14.6414C23.9543 14.5925 23.991 14.5239 23.9999 14.4492C24.0088 14.3745 23.9894 14.2992 23.9454 14.2382C23.9015 14.1772 23.8363 14.1349 23.7626 14.1197L23.7623 14.1194ZM26.1235 15.3827C26.0945 15.3563 26.0606 15.336 26.0236 15.3229C25.9867 15.3098 25.9475 15.3041 25.9084 15.3063C25.8692 15.3085 25.8309 15.3184 25.7956 15.3355C25.7604 15.3527 25.7289 15.3766 25.7029 15.4061C25.6501 15.4658 25.623 15.5438 25.6273 15.6234C25.6316 15.703 25.667 15.7777 25.7259 15.8314C25.7549 15.8578 25.7889 15.8782 25.8258 15.8913C25.8628 15.9045 25.902 15.9101 25.9411 15.908C25.9803 15.9058 26.0186 15.8958 26.0539 15.8787C26.0891 15.8615 26.1206 15.8375 26.1465 15.8081C26.1995 15.7485 26.2268 15.6704 26.2226 15.5908C26.2185 15.5112 26.1831 15.4364 26.1242 15.3827H26.1235ZM25.6267 23.3494C25.5665 23.4015 25.5293 23.4753 25.523 23.5547C25.5168 23.6341 25.5421 23.7128 25.5934 23.7737C25.6186 23.8037 25.6495 23.8283 25.6843 23.8462C25.7192 23.8641 25.7572 23.8749 25.7962 23.878C25.8352 23.8811 25.8745 23.8765 25.9117 23.8643C25.9489 23.8521 25.9833 23.8326 26.013 23.807C26.0731 23.7549 26.1102 23.6811 26.1165 23.6017C26.1227 23.5223 26.0975 23.4437 26.0463 23.3827C26.0211 23.3528 25.9903 23.3281 25.9555 23.3102C25.9208 23.2923 25.8828 23.2814 25.8438 23.2783C25.8049 23.2752 25.7657 23.2798 25.7285 23.2919C25.6913 23.3041 25.6569 23.3235 25.6273 23.349L25.6267 23.3494Z"
    fill="#424242"
  />
</svg>
