<svg width="42" height="42" viewBox="0 0 42 42" fill="none" xmlns="http://www.w3.org/2000/svg">
<path d="M20.8602 0C16.7344 0 12.7013 1.22187 9.27088 3.51107C5.84045 5.80027 3.16675 9.05397 1.58789 12.8608C0.00903863 16.6676 -0.404062 20.8564 0.400831 24.8977C1.20573 28.939 3.19247 32.6512 6.10981 35.5648C9.02716 38.4783 12.7441 40.4625 16.7906 41.2664C20.837 42.0702 25.0313 41.6577 28.843 40.0808C32.6547 38.504 35.9126 35.8338 38.2048 32.4077C40.4969 28.9817 41.7203 24.9538 41.7203 20.8333C41.7203 15.308 39.5226 10.0089 35.6105 6.10193C31.6985 2.19492 26.3926 0 20.8602 0ZM17.0336 31.5333L7.84844 22.3604L10.9097 19.3027L17.0332 25.418L30.8103 11.6583L33.8716 14.7157L17.0336 31.5333Z" fill="white"/>
</svg>
