<svg
  width="39"
  height="39"
  viewBox="0 0 39 39"
  fill="none"
  xmlns="http://www.w3.org/2000/svg"
>
<path
    d="M19.5004 38.1666C29.7086 38.1666 37.984 29.8839 37.984 19.6666C37.984 9.44936 29.7086 1.16663 19.5004 1.16663C9.29222 1.16663 1.01685 9.44936 1.01685 19.6666C1.01685 29.8839 9.29222 38.1666 19.5004 38.1666Z"
    fill="white"
    stroke="#E0E0E0"
    stroke-linejoin="round"
  />
<path
    d="M25.2556 27.7882C25.0678 27.7423 24.8974 27.6427 24.7649 27.5017C24.6325 27.3607 24.5438 27.1843 24.5096 26.9939C24.4723 26.813 24.4835 26.6254 24.542 26.4502C24.6005 26.275 24.7042 26.1184 24.8426 25.9962C25.7529 25.0742 26.6615 24.1506 27.5682 23.2252C27.6318 23.1606 27.6938 23.0946 27.8014 22.9806H27.482C24.2733 22.9806 21.065 22.9806 17.8572 22.9806C17.6103 23.0052 17.3628 22.9397 17.1603 22.7963C16.9578 22.6529 16.8138 22.4411 16.7548 22.1999C16.7211 22.056 16.719 21.9064 16.7488 21.7617C16.7785 21.6169 16.8394 21.4803 16.9273 21.3615C17.0151 21.2426 17.1277 21.1443 17.2573 21.0734C17.3869 21.0025 17.5303 20.9607 17.6777 20.9509C17.7696 20.9456 17.8622 20.9476 17.9548 20.9476H27.7877C27.6991 20.8532 27.6465 20.7932 27.5895 20.7376C26.6681 19.8376 25.7467 18.9375 24.8253 18.0375C24.6847 17.9229 24.5814 17.7689 24.5287 17.5953C24.4759 17.4216 24.4761 17.2361 24.5293 17.0625C24.5838 16.8769 24.6902 16.7106 24.836 16.5834C24.9817 16.4561 25.1606 16.3732 25.3519 16.3442C25.5228 16.3114 25.6993 16.3235 25.8641 16.3795C26.0289 16.4355 26.1764 16.5334 26.292 16.6636L28.4957 18.8515C29.2684 19.6182 30.0483 20.3785 30.8087 21.1572C30.9978 21.381 31.1697 21.6188 31.3229 21.8686V22.3272C31.165 22.5655 30.9912 22.7929 30.8027 23.0079C29.2969 24.5165 27.7855 26.0194 26.2684 27.5166C26.1775 27.6145 26.0677 27.6931 25.9457 27.7475C25.8237 27.802 25.6919 27.8311 25.5583 27.8332C25.4558 27.8325 25.3539 27.8174 25.2556 27.7882ZM12.7401 22.6782C12.3262 22.2682 11.9126 21.8578 11.4992 21.4469C10.3892 20.3449 9.27483 19.2469 8.17381 18.1369C7.99187 17.9261 7.82588 17.702 7.67725 17.4666V17.0079C7.82937 16.7749 7.99751 16.5528 8.18046 16.3432C9.67069 14.8412 11.1668 13.345 12.6688 11.8546C12.8523 11.6481 13.1093 11.5218 13.3848 11.5028C13.6602 11.4838 13.9321 11.5736 14.1422 11.7529C14.2545 11.8461 14.3459 11.9622 14.4101 12.0934C14.4744 12.2246 14.5101 12.368 14.515 12.514C14.5198 12.66 14.4937 12.8055 14.4383 12.9406C14.3828 13.0758 14.2994 13.1977 14.1934 13.2982C13.6309 13.8842 13.0565 14.4592 12.487 15.0389C12.074 15.4595 11.6607 15.8796 11.1934 16.3546H15.1273C17.1373 16.3546 19.1475 16.3546 21.1579 16.3546C21.2911 16.3432 21.4251 16.3582 21.5525 16.3987C21.6798 16.4392 21.7979 16.5044 21.9001 16.5906C22.0022 16.6768 22.0864 16.7822 22.1479 16.901C22.2093 17.0198 22.2468 17.1495 22.2581 17.2827C22.2695 17.416 22.2545 17.5501 22.214 17.6776C22.1736 17.805 22.1084 17.9233 22.0223 18.0255C21.9362 18.1278 21.8308 18.2121 21.7121 18.2735C21.5935 18.335 21.4639 18.3725 21.3308 18.3839C21.2389 18.3895 21.1463 18.3876 21.0537 18.3876H11.2141C11.2994 18.4786 11.3503 18.5375 11.4063 18.5919C12.333 19.4977 13.2602 20.4029 14.1878 21.3075C14.3283 21.4224 14.4302 21.5776 14.4795 21.7523C14.5289 21.9271 14.5235 22.1127 14.4639 22.2842C14.3959 22.4944 14.2634 22.6777 14.0853 22.8081C13.9072 22.9385 13.6924 23.0094 13.4718 23.0105C13.3336 23.0073 13.1976 22.9762 13.0717 22.9191C12.9459 22.862 12.8329 22.7801 12.7394 22.6782H12.7401Z"
    fill="#E1283D"
  />
</svg>
