<svg width="18" height="14" viewBox="0 0 18 14" fill="none" xmlns="http://www.w3.org/2000/svg">
<path d="M6.18916 10.7078C6.13146 10.6236 6.09112 10.5288 6.07051 10.4289C6.04989 10.3289 6.04942 10.2259 6.06912 10.1258C6.08882 10.0257 6.12829 9.93045 6.18521 9.8458C6.24214 9.76114 6.31538 9.68874 6.40064 9.63278C6.57391 9.51772 6.78529 9.47507 6.98956 9.51401C7.19383 9.55294 7.37477 9.67037 7.49367 9.84112C7.94466 10.494 8.5476 11.0273 9.25046 11.395C9.95333 11.7627 10.735 11.9536 11.5281 11.9514C12.1626 11.962 12.7929 11.8461 13.3822 11.6104C13.9715 11.3747 14.508 11.0239 14.9605 10.5785C15.413 10.1332 15.7724 9.60206 16.0177 9.01624C16.263 8.43042 16.3893 7.80161 16.3893 7.16642C16.3893 6.53123 16.263 5.90241 16.0177 5.31659C15.7724 4.73077 15.413 4.19967 14.9605 3.75428C14.508 3.3089 13.9715 2.95813 13.3822 2.72242C12.7929 2.48671 12.1626 2.37079 11.5281 2.38139C10.7332 2.3789 9.94972 2.57052 9.24559 2.93966C8.54145 3.30881 7.93792 3.84431 7.48734 4.49973C7.36885 4.67082 7.18817 4.78867 6.98395 4.8281C6.77974 4.86754 6.56821 4.82544 6.39464 4.71075C6.30922 4.65501 6.23578 4.58272 6.17862 4.49819C6.12147 4.41365 6.08175 4.31858 6.06181 4.21848C6.04186 4.11838 6.04208 4.01531 6.06247 3.9153C6.08285 3.81529 6.12298 3.72036 6.1805 3.63608C6.77681 2.76872 7.57555 2.06007 8.50742 1.57161C9.43929 1.08316 10.4762 0.829633 11.5281 0.833042C13.2063 0.833042 14.8158 1.5003 16.0024 2.68803C17.1891 3.87577 17.8558 5.4867 17.8558 7.16642C17.8558 8.84613 17.1891 10.4571 16.0024 11.6448C14.8158 12.8325 13.2063 13.4998 11.5281 13.4998C10.4786 13.5028 9.44423 13.2502 8.5141 12.7637C7.58396 12.2773 6.78603 11.5717 6.18916 10.7078ZM3.24144 10.0364L0.880211 7.71407C0.861894 7.69607 0.84491 7.67709 0.828258 7.65775L0.816933 7.6431C0.805277 7.62777 0.793288 7.61276 0.78363 7.59676C0.7803 7.59209 0.777968 7.58742 0.774971 7.58309C0.764314 7.56642 0.753323 7.54973 0.743665 7.53173L0.738669 7.5214C0.728678 7.5024 0.71902 7.48309 0.710694 7.46309C0.709671 7.4607 0.708783 7.45826 0.708032 7.45577C0.699373 7.4351 0.691713 7.41343 0.684719 7.39143C0.68392 7.38903 0.683252 7.38655 0.682719 7.38407C0.676392 7.36207 0.670732 7.34075 0.666069 7.31742C0.666069 7.31108 0.664403 7.30442 0.663071 7.29809C0.660073 7.27942 0.656742 7.26109 0.655077 7.24243C0.651744 7.21722 0.649854 7.19184 0.649416 7.16642C0.649351 7.14069 0.650797 7.11499 0.653746 7.08943C0.655411 7.07076 0.658409 7.05209 0.661739 7.03409C0.661739 7.02709 0.663403 7.02074 0.664735 7.01407C0.669398 6.99207 0.675393 6.97075 0.681388 6.94941C0.681854 6.94656 0.682634 6.94376 0.683718 6.94107C0.690379 6.91941 0.698039 6.89807 0.706698 6.87707C0.707449 6.87458 0.70834 6.87214 0.709363 6.86974C0.717356 6.85008 0.727347 6.83076 0.737005 6.81176C0.739003 6.80809 0.740668 6.80442 0.742333 6.80142C0.751991 6.78376 0.762316 6.76806 0.773639 6.7504C0.776637 6.74573 0.778968 6.74074 0.782299 6.73607C0.792956 6.72008 0.804945 6.70509 0.815602 6.69009L0.826924 6.67541C0.843243 6.65574 0.86023 6.6371 0.87888 6.61876L3.24011 4.2964C3.38898 4.15097 3.58876 4.06955 3.79679 4.06955C4.00481 4.06955 4.20459 4.15097 4.35346 4.2964C4.42645 4.36761 4.48446 4.45273 4.52406 4.54673C4.56367 4.64073 4.58408 4.74171 4.58408 4.84373C4.58408 4.94575 4.56367 5.04673 4.52406 5.14073C4.48446 5.23473 4.42645 5.31984 4.35346 5.39106L3.3357 6.39106H12.4573C12.5588 6.39106 12.6595 6.41111 12.7533 6.45002C12.8472 6.48894 12.9325 6.54597 13.0043 6.61787C13.0761 6.68977 13.1331 6.77514 13.172 6.86909C13.2109 6.96304 13.2309 7.06371 13.2309 7.1654C13.2309 7.26709 13.2109 7.3678 13.172 7.46175C13.1331 7.55569 13.0761 7.64107 13.0043 7.71297C12.9325 7.78487 12.8472 7.8419 12.7533 7.88082C12.6595 7.91973 12.5588 7.93974 12.4573 7.93974H3.33669L4.35446 8.93974C4.42745 9.01095 4.48546 9.09607 4.52506 9.19007C4.56467 9.28407 4.58508 9.38509 4.58508 9.48711C4.58508 9.58913 4.56467 9.69011 4.52506 9.78411C4.48546 9.87811 4.42745 9.96323 4.35446 10.0344C4.20571 10.1801 4.00589 10.2617 3.79778 10.2617C3.58968 10.2617 3.38985 10.1801 3.24111 10.0344L3.24144 10.0364Z" fill="#B4B4B4"/>
</svg>
