<svg width="375" height="320" viewBox="0 0 375 320" fill="none" xmlns="http://www.w3.org/2000/svg">
<path d="M264.368 275.234C281.683 275.234 316.831 260.149 321.438 228.869C325.449 201.438 292.843 170.118 325.052 141.1C357.261 112.082 338.595 37.929 272.47 59.7223C206.345 81.4759 192.484 74.8466 160.99 53.6488C129.496 32.4509 84.9365 48.8058 98.797 89.6137C112.657 130.422 91.2114 150.786 60.1942 167.061C16.23 190.085 12.3379 275.234 117.622 275.234C155.311 275.234 264.368 275.234 264.368 275.234Z" fill="#FFEDBF"/>
<path d="M85.3178 169.493L84.4375 170.032L123.889 234.049L124.77 233.509L85.3178 169.493Z" fill="#C99308"/>
<path d="M77.3906 157.574L78.4629 158.407C78.7806 158.646 86.6044 164.759 85.3733 169.88L85.2541 170.356L84.7776 170.237C79.6941 169.006 77.7481 159.32 77.6686 158.923L77.3906 157.574Z" fill="#C99308"/>
<path d="M119.171 225.613L119.449 226.05L119.012 226.328C108.209 232.957 93.793 226.328 93.1576 226.01L92.125 225.534L93.1973 225.097C94.0313 224.74 113.77 216.761 119.171 225.613Z" fill="#C99308"/>
<path d="M110.91 212.156L111.188 212.593L110.751 212.871C101.259 218.706 88.5904 212.871 88.0741 212.593L87.0415 212.117L88.1138 211.68C88.8287 211.362 106.144 204.376 110.91 212.156Z" fill="#C99308"/>
<path d="M103.007 199.295L103.285 199.731L102.848 200.009C94.7064 205.011 83.7849 200.009 83.348 199.771L82.3154 199.295L83.3877 198.858C83.9834 198.58 98.8765 192.586 103.007 199.295Z" fill="#C99308"/>
<path d="M95.461 187.028L95.739 187.465L95.3021 187.743C88.4712 191.951 79.3368 187.743 78.9794 187.544L77.9468 187.068L79.0191 186.631C79.5354 186.393 92.0058 181.392 95.461 187.028Z" fill="#C99308"/>
<path d="M88.9876 176.509L89.2656 176.946L88.8287 177.223C83.3084 180.598 75.9611 177.223 75.6434 177.104L74.6108 176.628L75.6831 176.191C76.12 175.953 86.1678 171.904 88.9876 176.509Z" fill="#C99308"/>
<path d="M130.45 202.192L131.324 201.438L131.284 202.589C131.284 203.264 130.688 219.143 119.886 225.772L119.449 226.05L119.171 225.613C113.77 216.761 129.775 202.748 130.45 202.192Z" fill="#C99308"/>
<path d="M120.799 191.594L121.673 190.839L121.633 191.991C121.633 192.586 121.117 206.519 111.625 212.315L111.188 212.593L110.91 212.156C106.144 204.376 120.203 192.11 120.799 191.594Z" fill="#C99308"/>
<path d="M111.506 181.59L112.38 180.836L112.34 181.987C112.34 182.503 111.863 194.491 103.722 199.493L103.285 199.771L103.007 199.334C98.9164 192.586 110.99 182.027 111.506 181.59Z" fill="#C99308"/>
<path d="M102.57 172.142L103.444 171.388L103.404 172.539C103.404 172.976 103.007 182.98 96.1758 187.187L95.7389 187.465L95.4609 187.029C92.0057 181.352 102.133 172.539 102.57 172.142Z" fill="#C99308"/>
<path d="M94.6668 164.441L95.5405 163.687L95.5008 164.838C95.5008 165.195 95.1831 173.254 89.6627 176.628L89.2259 176.906L88.9479 176.469C86.1678 171.904 94.3491 164.759 94.6668 164.441Z" fill="#C99308"/>
<path d="M86.4854 119.902C86.6442 119.743 86.8031 119.624 86.9619 119.465C103.682 138.956 113.769 163.37 115.676 189.172C115.477 189.172 115.318 189.212 115.12 189.212C113.213 163.568 103.126 139.274 86.4854 119.902Z" fill="#FFBE17"/>
<path d="M79.4561 111.923C80.9255 110.335 87.0813 114.662 87.1607 120.18C81.9184 119.187 78.066 113.471 79.4561 111.923Z" fill="#FFBE17"/>
<path d="M90.6955 124.546C86.8432 128.278 79.8534 127.285 79.6151 125.181C79.2577 122.998 86.0489 120.656 90.6955 124.546Z" fill="#FFBE17"/>
<path d="M96.5334 132.803C91.6485 136.813 83.5467 134.947 83.3878 132.525C83.1892 129.945 91.4102 127.722 96.5334 132.803Z" fill="#FFBE17"/>
<path d="M114.564 181.273C108.011 183.019 100.743 176.866 101.577 174.207C102.411 171.348 111.705 173.016 114.564 181.273Z" fill="#FFBE17"/>
<path d="M102.451 143.124C96.2951 147.213 86.9621 144.156 87.0415 141.338C87.0415 138.281 96.9702 136.376 102.451 143.124Z" fill="#FFBE17"/>
<path d="M112.062 168.57C104.794 171.309 95.8581 165.632 96.4935 162.655C97.1289 159.4 107.892 159.797 112.062 168.57Z" fill="#FFBE17"/>
<path d="M107.813 155.113C100.465 158.884 90.4175 154.319 90.7749 151.183C91.0529 147.769 102.411 146.697 107.813 155.113Z" fill="#FFBE17"/>
<path d="M93.1575 113.352C95.5403 114.186 95.4212 121.887 90.6554 124.546C88.1534 119.227 90.854 112.598 93.1575 113.352Z" fill="#FFBE17"/>
<path d="M100.346 119.703C103.086 120.934 102.332 130.144 96.4937 132.803C94.0314 126.253 97.6851 118.592 100.346 119.703Z" fill="#FFBE17"/>
<path d="M124.016 168.967C126.28 171.785 121.514 181.511 114.564 181.273C114.961 172.897 121.792 166.386 124.016 168.967Z" fill="#FFBE17"/>
<path d="M108.249 127.881C111.427 129.747 109.639 140.743 102.451 143.085C100.227 135.066 105.152 126.253 108.249 127.881Z" fill="#FFBE17"/>
<path d="M121.355 153.604C124.294 156.423 120.005 167.895 112.062 168.53C111.546 159.281 118.456 151.024 121.355 153.604Z" fill="#FFBE17"/>
<path d="M115.874 138.48C119.29 141.02 116.073 153.406 107.812 155.113C106.224 145.665 112.538 136.177 115.874 138.48Z" fill="#FFBE17"/>
<path d="M74.0147 236.848C70.4404 229.226 76.8742 229.067 68.4546 224.7C56.2225 218.349 55.4282 211.839 59.2408 207.472C63.0534 203.106 69.6064 203.026 77.5493 214.26C83.03 222.001 82.3151 215.61 90.3375 218.111C97.3273 220.294 102.172 232.838 109.043 234.069C126.041 237.046 125.843 256.1 121.116 261.499C116.39 266.898 97.5259 269.676 92.2835 253.242C90.2183 246.613 77.1125 243.477 74.0147 236.848Z" fill="#FFBE17"/>
<path d="M112.181 254.512L90.0205 235.141L73.7375 236.252C73.5389 235.815 73.4198 235.419 73.3006 235.061L88.7099 234.029L67.2243 215.253L58.0899 215.848C57.8913 215.451 57.7324 215.054 57.6133 214.657L65.9137 214.102L58.8842 207.949C59.0033 207.79 59.1224 207.631 59.2813 207.472C59.4004 207.313 59.5593 207.155 59.7182 207.036L66.7477 213.149L66.1917 204.852C66.5888 204.932 67.0257 205.011 67.4625 205.17L68.0583 214.3L89.544 233.076L88.5114 217.674C88.9085 217.754 89.3057 217.833 89.7822 217.952L90.8943 234.228L113.055 253.599L111.784 234.744C112.221 234.863 112.658 235.022 113.055 235.18L114.366 254.751L120.998 260.546L121.633 261.102L133.27 271.264L132.476 272.177L120.839 262.015L120.204 261.459L113.571 255.664L93.992 256.974C93.7934 256.577 93.5949 256.18 93.3963 255.783L112.181 254.512Z" fill="#FFE296"/>
<path d="M336.57 186.91C336.53 186.751 336.451 186.592 336.411 186.473C318.778 193.42 303.765 205.845 293.638 222.001C293.757 222.081 293.876 222.16 293.996 222.239C304.083 206.162 319.056 193.817 336.57 186.91Z" fill="#C99308"/>
<path d="M343.916 184.131C343.519 182.583 337.999 183.297 336.053 186.87C339.786 188.021 344.274 185.639 343.916 184.131Z" fill="#C99308"/>
<path d="M332.24 188.497C333.471 192.268 338.356 194.015 339.27 192.745C340.223 191.435 336.569 187.544 332.24 188.497Z" fill="#C99308"/>
<path d="M325.568 191.872C327.356 196.159 333.273 197.747 334.226 196.199C335.259 194.611 330.692 190.323 325.568 191.872Z" fill="#C99308"/>
<path d="M297.093 217.237C300.786 220.612 307.617 219.143 308.014 217.118C308.411 214.975 301.819 212.831 297.093 217.237Z" fill="#C99308"/>
<path d="M318.142 196.516C320.763 201.319 327.872 202.51 328.825 200.644C329.857 198.699 324.059 194.055 318.142 196.516Z" fill="#C99308"/>
<path d="M303.129 209.814C306.902 214.102 314.726 213.466 315.322 211.323C316.037 208.981 308.848 205.567 303.129 209.814Z" fill="#C99308"/>
<path d="M310.516 202.51C314.011 207.512 322.113 207.988 322.987 205.845C323.979 203.502 316.95 198.898 310.516 202.51Z" fill="#C99308"/>
<path d="M334.465 180.32C332.638 180.042 330.056 185.083 332.24 188.458C335.696 185.917 336.252 180.637 334.465 180.32Z" fill="#C99308"/>
<path d="M327.593 181.987C325.369 181.868 322.669 188.1 325.568 191.832C329.46 188.458 329.738 182.186 327.593 181.987Z" fill="#C99308"/>
<path d="M295.186 205.964C292.724 207.036 292.486 215.015 297.093 217.238C299.754 211.64 297.53 205.051 295.186 205.964Z" fill="#C99308"/>
<path d="M319.611 184.607C316.911 184.726 314.289 192.507 318.142 196.516C322.391 192.03 322.193 184.607 319.611 184.607Z" fill="#C99308"/>
<path d="M302.216 196.873C299.317 197.707 298.165 206.678 303.129 209.814C306.664 203.939 304.996 196.198 302.216 196.873Z" fill="#C99308"/>
<path d="M310.993 188.894C307.895 189.371 305.711 198.58 310.517 202.51C314.806 196.913 313.972 188.537 310.993 188.894Z" fill="#C99308"/>
<path d="M328.189 225.216C328.11 224.899 328.031 224.621 327.951 224.303C302.494 231.012 279.579 245.343 262.342 265.548C262.541 265.707 262.739 265.905 262.938 266.064C280.095 246.057 302.891 231.846 328.189 225.216Z" fill="#FFBE17"/>
<path d="M327.633 224.542C327.554 224.7 327.435 224.82 327.355 224.978C327.514 225.058 327.673 225.137 327.792 225.216C332.28 227.4 341.017 222.597 341.534 222.477C341.931 222.279 342.368 222.041 342.805 221.842C342.328 221.763 341.891 221.683 341.415 221.604C341.017 221.366 330.533 220.096 327.633 224.542Z" fill="#FFBE17"/>
<path d="M269.53 258.403C269.411 258.522 269.292 258.641 269.133 258.8C269.213 258.879 269.332 258.998 269.411 259.078C276.719 265.747 290.738 263.325 291.294 263.643C291.652 263.603 291.969 263.563 292.327 263.563C292.088 263.365 291.85 263.127 291.612 262.928C291.215 262.333 277.553 250.464 269.53 258.403Z" fill="#FFBE17"/>
<path d="M281.882 247.526C281.723 247.645 281.604 247.724 281.445 247.843C281.525 247.962 281.604 248.081 281.684 248.161C287.442 255.108 300.072 254.552 300.548 254.83C300.906 254.83 301.223 254.83 301.581 254.87C301.382 254.631 301.144 254.354 300.945 254.115C300.628 253.599 289.706 241.532 281.882 247.526Z" fill="#FFBE17"/>
<path d="M294.869 238.713C294.71 238.793 294.551 238.912 294.432 238.991C294.511 239.11 294.591 239.229 294.67 239.348C298.959 246.136 309.96 246.97 310.357 247.208C310.715 247.248 311.072 247.288 311.39 247.327C311.191 247.049 310.993 246.772 310.794 246.494C310.516 246.017 302.136 234.426 294.869 238.713Z" fill="#FFBE17"/>
<path d="M308.133 231.806C307.974 231.886 307.816 231.965 307.657 232.005C307.736 232.124 307.776 232.283 307.855 232.402C310.834 238.674 320.087 240.42 320.405 240.619C320.763 240.698 321.12 240.778 321.478 240.857C321.319 240.539 321.12 240.262 320.961 239.944C320.763 239.547 314.607 228.948 308.133 231.806Z" fill="#FFBE17"/>
<path d="M320.127 227.162C319.968 227.201 319.809 227.281 319.611 227.32C319.651 227.479 319.69 227.598 319.77 227.757C321.676 233.195 329.142 235.299 329.381 235.458C329.738 235.577 330.095 235.696 330.453 235.815C330.294 235.498 330.175 235.18 330.016 234.863C329.897 234.466 325.608 225.336 320.127 227.162Z" fill="#FFBE17"/>
<path d="M269.332 234.347C269.213 234.069 269.054 233.751 268.935 233.473C268.736 233.87 268.577 234.267 268.379 234.625C267.743 235.299 261.27 251.496 268.855 258.482C268.935 258.562 269.054 258.681 269.133 258.76C269.253 258.641 269.372 258.522 269.531 258.363C277.037 251.138 269.61 235.22 269.332 234.347Z" fill="#FFBE17"/>
<path d="M283.907 226.209C283.788 225.891 283.709 225.574 283.589 225.256C283.351 225.613 283.153 225.971 282.914 226.368C282.358 226.923 275.249 240.301 281.207 247.526C281.286 247.645 281.365 247.764 281.445 247.843C281.604 247.724 281.723 247.645 281.882 247.526C289.229 242.008 284.106 227.003 283.907 226.209Z" fill="#FFBE17"/>
<path d="M298.443 220.374C298.363 220.056 298.284 219.699 298.204 219.381C297.966 219.738 297.688 220.056 297.45 220.413C296.934 220.81 289.785 231.608 294.154 238.634C294.233 238.753 294.312 238.872 294.392 238.991C294.551 238.912 294.71 238.793 294.829 238.713C301.739 234.704 298.562 221.048 298.443 220.374Z" fill="#FFBE17"/>
<path d="M312.661 216.602C312.621 216.245 312.581 215.888 312.502 215.57C312.224 215.888 311.946 216.205 311.668 216.523C311.231 216.841 304.44 225.177 307.458 231.647C307.538 231.766 307.577 231.925 307.657 232.044C307.816 231.965 307.974 231.886 308.133 231.846C314.329 229.107 312.701 217.198 312.661 216.602Z" fill="#FFBE17"/>
<path d="M324.814 215.054C324.774 214.697 324.774 214.34 324.734 213.982C324.417 214.26 324.139 214.578 323.821 214.856C323.463 215.094 317.506 221.326 319.452 226.844C319.492 227.003 319.532 227.122 319.611 227.281C319.77 227.241 319.929 227.162 320.127 227.122C325.409 225.455 324.814 215.531 324.814 215.054Z" fill="#FFBE17"/>
<path d="M264.368 275.234H117.622C116.629 275.234 115.676 274.837 115.001 274.241C114.206 273.527 113.69 272.495 113.69 271.304V74.251C113.69 73.0998 114.167 72.1074 114.921 71.3929C115.636 70.718 116.549 70.321 117.622 70.321H264.368C265.4 70.321 266.314 70.718 267.029 71.3532C267.823 72.0677 268.3 73.0998 268.3 74.251V271.304C268.3 272.376 267.863 273.328 267.188 274.043C266.473 274.757 265.48 275.234 264.368 275.234Z" fill="#DB9E00"/>
<path d="M260.436 78.1812H121.553V267.374H260.436V78.1812Z" fill="white"/>
<path d="M171.197 99.7759H136.01V138.837H171.197V99.7759Z" fill="#76A9FF"/>
<path d="M161.38 114.49C162.123 109.879 158.986 105.539 154.374 104.796C149.761 104.053 145.419 107.189 144.676 111.799C143.933 116.409 147.069 120.749 151.682 121.492C156.294 122.235 160.636 119.1 161.38 114.49Z" fill="#FFD66D"/>
<path d="M163.532 125.658C161.268 123.355 156.979 122.482 153.008 122.482C149.076 122.482 144.747 123.355 142.483 125.658C139.822 128.357 138.512 136.574 138.512 138.797H153.008H167.504C167.504 136.574 166.193 128.357 163.532 125.658Z" fill="#FFD66D"/>
<path d="M144.549 138.837C144.549 138.837 144.509 134.55 145.462 131.811C145.462 132.764 145.462 138.837 145.462 138.837H144.549Z" fill="#76A9FF"/>
<path d="M161.467 138.837C161.467 138.837 161.507 134.55 160.554 131.811C160.554 132.764 160.554 138.837 160.554 138.837H161.467Z" fill="#76A9FF"/>
<path d="M228.783 149.277H136.01V151.58H228.783V149.277Z" fill="#FFBE17"/>
<path d="M182.397 155.589H136.01V157.891H182.397V155.589Z" fill="#FFBE17"/>
<path d="M247.648 155.589H192.881V157.891H247.648V155.589Z" fill="#FFBE17"/>
<path d="M220.801 83.3416H161.229C160.037 83.3416 159.084 82.3889 159.084 81.198V70.3609C159.084 69.17 160.037 68.2173 161.229 68.2173H220.801C221.992 68.2173 222.945 69.17 222.945 70.3609V81.198C222.945 82.3889 221.992 83.3416 220.801 83.3416Z" fill="#FFBE17"/>
<path d="M191.015 53.6487C185.772 53.6487 181.562 57.8962 181.562 63.0964V69.9242H200.467V63.0964C200.467 57.8962 196.217 53.6487 191.015 53.6487ZM191.015 67.463C188.592 67.463 186.646 65.5179 186.646 63.0964C186.646 60.6749 188.592 58.7298 191.015 58.7298C193.437 58.7298 195.383 60.6749 195.383 63.0964C195.383 65.5179 193.398 67.463 191.015 67.463Z" fill="#FFBE17"/>
<path d="M247.648 107.04H180.133V109.343H247.648V107.04Z" fill="#FFBE17"/>
<path d="M202.413 114.503H180.133V116.806H202.413V114.503Z" fill="#FFBE17"/>
<path d="M237.243 114.503H211.071V116.806H237.243V114.503Z" fill="#FFBE17"/>
<path d="M217.425 122.006H180.133V124.308H217.425V122.006Z" fill="#FFBE17"/>
<path d="M247.648 122.006H222.072V124.308H247.648V122.006Z" fill="#FFBE17"/>
<path d="M196.297 129.469H180.133V131.771H196.297V129.469Z" fill="#FFBE17"/>
<path d="M247.648 129.469H206.384V131.771H247.648V129.469Z" fill="#FFBE17"/>
<path d="M151.657 185.877H137.121C136.486 185.877 136.009 185.361 136.009 184.766V170.237C136.009 169.602 136.526 169.125 137.121 169.125H151.657C152.292 169.125 152.769 169.641 152.769 170.237V184.766C152.809 185.401 152.292 185.877 151.657 185.877ZM138.273 183.614H150.545V171.388H138.273V183.614Z" fill="#76A9FF"/>
<path d="M144.389 181.749C143.992 181.749 143.595 181.55 143.396 181.193C140.497 176.072 133.905 172.777 133.825 172.738C133.269 172.46 133.031 171.785 133.309 171.229C133.587 170.673 134.262 170.435 134.818 170.713C135.096 170.832 140.736 173.651 144.23 178.375C148.599 170.276 156.383 163.608 161.943 161.305C162.539 161.067 163.174 161.345 163.413 161.901C163.651 162.456 163.373 163.131 162.817 163.369C157.257 165.711 149.234 172.698 145.382 181.114C145.223 181.511 144.826 181.749 144.389 181.788C144.429 181.749 144.389 181.749 144.389 181.749Z" fill="#F73C4F"/>
<path d="M163.934 170.26H247.653V167.958H163.934V170.26Z" fill="#FFBE17"/>
<path d="M206.412 175.836H234.054V173.533H206.412V175.836Z" fill="#FFBE17"/>
<path d="M163.927 175.836H196.374V173.533H163.927V175.836Z" fill="#FFBE17"/>
<path d="M201.4 181.451H247.668V179.148H201.4V181.451Z" fill="#FFBE17"/>
<path d="M163.936 181.451H195.668V179.148H163.936V181.451Z" fill="#FFBE17"/>
<path d="M227.615 187.066H247.671V184.764H227.615V187.066Z" fill="#FFBE17"/>
<path d="M163.915 187.066H215.107V184.764H163.915V187.066Z" fill="#FFBE17"/>
<path d="M151.657 219.976H137.122C136.486 219.976 136.01 219.46 136.01 218.865V204.336C136.01 203.701 136.526 203.225 137.122 203.225H151.657C152.293 203.225 152.769 203.741 152.769 204.336V218.865C152.809 219.5 152.293 219.976 151.657 219.976ZM138.274 217.714H150.545V205.448H138.274V217.714Z" fill="#76A9FF"/>
<path d="M247.648 218.865H163.929V221.167H247.648V218.865Z" fill="#FFBE17"/>
<path d="M191.571 213.268H163.929V215.57H191.571V213.268Z" fill="#FFBE17"/>
<path d="M234.74 213.268H202.293V215.57H234.74V213.268Z" fill="#FFBE17"/>
<path d="M210.197 207.671H163.929V209.973H210.197V207.671Z" fill="#FFBE17"/>
<path d="M247.648 207.671H215.916V209.973H247.648V207.671Z" fill="#FFBE17"/>
<path d="M183.985 202.034H163.929V204.336H183.985V202.034Z" fill="#FFBE17"/>
<path d="M242.763 202.034H191.571V204.336H242.763V202.034Z" fill="#FFBE17"/>
<path d="M151.657 254.076H137.122C136.486 254.076 136.01 253.56 136.01 252.964V238.435C136.01 237.8 136.526 237.324 137.122 237.324H151.657C152.293 237.324 152.769 237.84 152.769 238.435V252.964C152.809 253.599 152.293 254.076 151.657 254.076ZM138.274 251.813H150.545V239.547H138.274V251.813Z" fill="#76A9FF"/>
<path d="M247.648 236.133H163.929V238.435H247.648V236.133Z" fill="#FFBE17"/>
<path d="M191.571 241.77H163.929V244.072H191.571V241.77Z" fill="#FFBE17"/>
<path d="M237.402 241.77H204.955V244.072H237.402V241.77Z" fill="#FFBE17"/>
<path d="M210.197 247.367H163.929V249.669H210.197V247.367Z" fill="#FFBE17"/>
<path d="M247.648 247.367H215.916V249.669H247.648V247.367Z" fill="#FFBE17"/>
<path d="M183.985 252.964H163.929V255.266H183.985V252.964Z" fill="#FFBE17"/>
<path d="M230.888 252.964H192.246V255.266H230.888V252.964Z" fill="#FFBE17"/>
<path d="M268.3 110.176C250.984 125.142 228.942 126.809 213.374 126.809C213.374 202.113 256.028 236.53 268.3 236.53C280.532 236.53 323.225 202.113 323.225 126.809C307.657 126.769 285.615 125.102 268.3 110.176Z" fill="#FABC1F"/>
<path d="M268.299 240.063C260.396 240.063 245.861 230.377 233.311 211.878C222.588 196.079 209.839 168.451 209.839 126.769V123.236H213.374C229.379 123.236 249.792 121.45 265.956 107.477L268.26 105.492L270.563 107.477C286.727 121.45 307.18 123.236 323.146 123.236H326.68V126.769C326.68 168.451 313.932 196.04 303.209 211.878C290.778 230.377 276.203 240.063 268.299 240.063ZM216.948 130.263C217.623 168.173 229.339 193.34 239.189 207.909C251.182 225.613 264.09 232.957 268.299 232.957C272.549 232.957 285.417 225.613 297.41 207.909C307.26 193.34 318.936 168.212 319.651 130.263C304.718 129.985 284.702 127.563 268.299 114.702C251.897 127.603 231.921 129.985 216.948 130.263Z" fill="#FCDB2C"/>
<path d="M262.303 197.469C261.27 197.469 260.277 196.992 259.642 196.159L245.861 177.859C244.749 176.39 245.027 174.286 246.536 173.174C248.005 172.063 250.11 172.341 251.222 173.849L262.184 188.378L285.377 153.406C286.41 151.858 288.475 151.461 289.984 152.453C291.533 153.485 291.93 155.549 290.937 157.058L265.122 195.96C264.527 196.873 263.534 197.429 262.462 197.469C262.342 197.469 262.342 197.469 262.303 197.469Z" fill="#FCDB2C"/>
<path d="M306.029 59.881C304.281 60.6352 299.396 67.7012 303.765 71.4723C307.657 74.8068 313.138 66.153 313.138 66.153C313.138 66.153 314.845 65.7164 314.885 64.1682C314.925 62.8185 308.61 58.7695 306.029 59.881Z" fill="#030303"/>
<path d="M304.758 69.8052C304.321 72.9015 302.415 74.4893 302.415 74.4893C302.415 74.4893 302.415 76.3154 304.718 77.3872C307.021 78.459 308.213 76.7917 308.213 76.7917L308.967 72.8618C308.967 72.8221 307.141 70.0037 304.758 69.8052Z" fill="#E0935F"/>
<path d="M308.809 65.1606C307.22 67.7012 306.386 68.0982 306.386 68.0982C306.386 68.0982 305.711 66.2721 304.401 66.9073C303.249 67.5027 303.249 69.17 304.48 70.2021C305.513 74.6878 309.405 75.7199 310.239 75.0053C313.177 72.4648 313.058 66.1928 313.058 66.1928L308.809 65.1606Z" fill="#F2B78B"/>
<path d="M308.968 72.6236C306.625 71.3136 308.849 65.1606 308.849 65.1606H307.737L306.426 68.0982C306.426 68.0982 304.52 71.9884 305.552 73.4969C306.585 75.045 309.047 75.9184 310.04 76.1168C310.556 76.2359 311.231 76.1168 311.43 75.4817C311.827 74.4099 312.105 72.2663 312.105 72.2663C311.033 71.6312 310.715 73.5763 308.968 72.6236Z" fill="#030303"/>
<path d="M324.02 107.596C323.146 107.12 320.128 106.723 320.128 106.723L314.091 102.912L312.542 105.611L318.817 108.946C318.817 108.946 319.651 109.779 320.644 110.454C322.391 111.685 323.344 110.931 324.258 109.779C324.933 110.176 325.132 112.995 325.529 113.233C326.641 113.908 326.085 108.747 324.02 107.596Z" fill="#E0935F"/>
<path d="M307.061 95.0916C305.989 90.8838 307.736 81.2375 303.09 81.1978C298.086 81.1581 299.357 94.0595 301.541 97.7115C304.519 102.713 312.582 106.167 317.268 108.707L319.532 105.492C316.354 103.468 307.895 98.3467 307.061 95.0916Z" fill="#B98605"/>
<path d="M313.138 85.7233C312.264 81.714 308.213 76.7916 308.213 76.7916C308.213 76.7916 305.671 77.2283 302.415 74.4893C298.681 77.7444 295.941 81.3567 297.252 93.0672C298.006 99.8949 300.111 108.509 300.111 112.082C303.328 112.082 312.701 112.082 314.17 112.082C314.17 112.082 313.892 106.762 313.217 100.927C312.224 92.0748 314.17 90.3678 313.138 85.7233Z" fill="#FFBE17"/>
<path d="M302.733 97.1956C301.66 95.4093 300.826 91.2412 300.866 87.7876C300.866 87.5494 300.707 87.3906 300.469 87.3906C300.27 87.3906 300.072 87.5494 300.072 87.7876C300.032 91.4397 300.866 95.6872 302.057 97.6323C304.321 101.443 309.444 104.381 313.773 106.604C313.734 106.286 313.734 105.969 313.694 105.651C309.564 103.468 304.837 100.689 302.733 97.1956Z" fill="#B98605"/>
<path d="M308.332 94.655C308.015 93.4244 307.975 91.6381 307.896 89.7724C307.856 88.899 307.856 88.0257 307.776 87.1524C307.776 86.9142 307.578 86.7554 307.34 86.7951C307.101 86.7951 306.942 86.9936 306.982 87.2318C307.022 88.0654 307.062 88.9784 307.101 89.8121C307.181 91.7175 307.22 93.5435 307.578 94.8535C308.015 96.6398 310.477 98.8231 313.257 100.848C313.217 100.49 313.178 100.133 313.138 99.7759C310.715 97.9895 308.69 96.0841 308.332 94.655Z" fill="#B98605"/>
<path d="M327.951 148.721L328.587 150.508L330.334 152.493L331.605 150.389L331.168 148.721H327.951Z" fill="#F2B78B"/>
<path d="M334.425 152.135C332.956 151.5 331.645 150.428 331.645 150.428C331.645 150.428 330.454 151.58 328.587 150.548C328.587 150.548 327.674 152.254 328.389 154.438C330.374 154.438 331.169 154.438 331.169 154.438V153.842C331.169 153.842 333.472 154.438 335.736 154.438C338.039 154.438 338.436 153.803 338.198 153.445C337.92 153.048 336.371 153.009 334.425 152.135Z" fill="#030303"/>
<path d="M314.17 112.082H300.111C300.111 119.783 306.069 122.879 313.098 122.879C315.759 122.879 319.969 123.236 319.969 123.236L327.237 148.722H331.843C331.843 139.234 328.587 121.966 326.68 119.584C323.622 115.893 314.17 112.082 314.17 112.082Z" fill="#003A61"/>
<path d="M313.892 151.977L315.679 153.961L316.95 151.857L317.586 150.19H314.369L313.892 151.977Z" fill="#F2B78B"/>
<path d="M319.73 153.604C318.261 152.969 316.95 151.897 316.95 151.897C316.95 151.897 315.759 153.048 313.892 152.016C313.892 152.016 312.979 153.723 313.694 155.907C315.679 155.907 316.474 155.907 316.474 155.907V155.311C316.474 155.311 318.777 155.907 321.041 155.907C323.344 155.907 323.742 155.271 323.503 154.914C323.265 154.517 321.716 154.477 319.73 153.604Z" fill="#030303"/>
<path d="M330.652 114.662C327.554 113.312 314.17 112.082 314.17 112.082H300.111C299.555 121.252 304.281 123.236 311.748 123.236C313.852 123.236 323.9 123.236 323.9 123.236C323.9 123.236 314.607 141.378 313.614 150.19H318.261C320.008 145.03 338.237 117.957 330.652 114.662Z" fill="#00527C"/>
<path d="M324.893 107.239C324.019 106.763 321.001 106.366 321.001 106.366L314.964 102.555L313.416 105.254L319.69 108.589C319.69 108.589 320.524 109.422 321.517 110.097C323.265 111.328 324.218 110.573 325.131 109.422C325.807 109.819 326.005 112.638 326.402 112.876C327.514 113.551 326.998 108.39 324.893 107.239Z" fill="#F2B78B"/>
<path d="M330.533 113.551L313.892 111.605C313.853 111.923 314.051 112.241 314.409 112.28L331.009 114.821L342.249 102.317C342.487 102.078 342.447 101.681 342.209 101.483L330.533 113.551Z" fill="#AFAFAF"/>
<path d="M307.724 94.5361C306.652 90.3283 308.399 80.6821 303.752 80.6424C298.748 80.6027 300.019 93.504 302.203 97.1561C305.182 102.158 313.244 105.611 317.931 108.152L320.194 104.937C317.017 102.872 308.558 97.7913 307.724 94.5361Z" fill="#FFBE17"/>
<path d="M178.187 269.557L178.703 271.225L180.014 273.329L181.761 271.304L181.444 269.557H178.187Z" fill="#F2B78B"/>
<path d="M178.703 271.225C178.703 271.225 177.393 272.296 175.923 272.932C173.937 273.805 172.389 273.845 172.15 274.202C171.912 274.559 172.309 275.194 174.613 275.194C176.916 275.194 179.18 274.599 179.18 274.599V275.194C179.18 275.194 179.974 275.194 181.96 275.194C182.635 273.011 181.761 271.304 181.761 271.304C179.934 272.376 178.703 271.225 178.703 271.225Z" fill="#030303"/>
<path d="M162.778 271.225L164.048 273.329L165.836 271.304L165.994 269.557H162.738L162.778 271.225Z" fill="#F2B78B"/>
<path d="M162.777 271.225C162.777 271.225 161.467 272.296 159.997 272.932C158.012 273.805 156.463 273.845 156.224 274.202C155.986 274.559 156.383 275.194 158.687 275.194C160.99 275.194 163.254 274.599 163.254 274.599V275.194C163.254 275.194 164.048 275.194 166.034 275.194C166.709 273.011 165.835 271.304 165.835 271.304C163.969 272.376 162.777 271.225 162.777 271.225Z" fill="#030303"/>
<path d="M163.055 213.586C163.055 213.586 161.824 228.908 161.308 238.594C160.792 248.121 161.864 269.518 161.864 269.518H166.908C166.908 269.518 167.265 251.615 168.655 243.715C172.031 233.473 176.678 225.058 175.248 213.546H163.055V213.586Z" fill="#00001C"/>
<path d="M177.115 213.585H164.962C165.716 222.993 167.305 233.315 169.807 242.207C172.269 251.059 174.97 260.943 177.274 269.557H182.357C181.245 262.293 180.014 251.892 178.822 244.668C177.631 234.307 178.981 223.867 177.115 213.585Z" fill="#14142E"/>
<path d="M148.997 201.915C148.997 201.915 147.765 201.041 146.733 201.041C145.383 201.081 143.834 200.367 143.516 200.764C143.039 201.359 144.747 202.312 145.7 202.312C144.39 203.066 140.736 202.868 141.133 204.694C141.53 206.559 143.714 206.837 145.939 206.361C147.805 205.964 149.513 204.455 149.513 204.455L156.503 203.106L155.828 200.049L148.997 201.915Z" fill="#F2B78B"/>
<path d="M176.479 181.709C172.15 179.685 168.099 189.688 165.041 193.499C162.658 196.476 154.477 200.287 149.632 201.041L151.022 204.773C157.813 203.979 165.081 201.438 170.045 197.35C173.659 194.372 181.483 184.091 176.479 181.709Z" fill="#0C3265"/>
<path d="M173.143 162.734C170.085 161.583 166.352 164.005 165.955 165.712C165.955 165.712 169.211 176.747 173.143 173.611C178.068 169.761 176.956 164.164 173.143 162.734Z" fill="#030303"/>
<path d="M172.468 171.309C170.085 171.507 168.298 174.326 168.298 174.326L169.052 178.256C169.052 178.256 170.284 179.923 172.547 178.851C174.851 177.779 174.851 175.953 174.851 175.953C174.851 175.953 172.905 174.445 172.468 171.309Z" fill="#E0935F"/>
<path d="M172.031 168.689C171.991 168.729 171.713 170.396 171.713 170.396L171.038 170.674C171.038 170.674 170.681 168.292 170.641 165.235C170.165 164.957 167.265 164.402 165.915 165.791C165.399 167.617 164.525 171.547 165.995 174.088C166.551 175.04 170.562 175.318 173.024 171.428C174.533 170.872 175.089 169.284 174.176 168.332C173.342 167.419 172.349 168.371 172.031 168.689Z" fill="#F2B78B"/>
<path d="M174.811 175.993C171.555 178.732 169.013 178.295 169.013 178.295C169.013 178.295 164.962 183.218 164.088 187.227C163.056 191.911 165.041 193.618 164.009 202.47C163.334 208.306 163.056 213.625 163.056 213.625C164.485 213.625 173.898 213.625 177.115 213.625C177.115 210.052 179.18 201.438 179.974 194.611C181.285 182.86 178.544 179.248 174.811 175.993Z" fill="#3882B8"/>
<path d="M173.739 190.403C173.699 190.284 173.659 190.204 173.54 190.165C173.461 190.125 173.341 190.085 173.222 190.125C173.143 190.165 173.063 190.204 173.024 190.284C172.944 190.363 172.944 190.482 172.944 190.601C173.421 192.864 174.136 195.166 174.89 197.191C176.4 201.24 174.93 210.291 174.334 213.665H175.129C175.764 210.172 177.194 201.16 175.645 196.953C174.89 194.769 174.215 192.507 173.739 190.403Z" fill="#0C3265"/>
<path d="M185.852 223.867L164.843 223.986C164.406 223.986 164.048 224.343 164.048 224.78L164.128 239.706C164.128 240.142 164.485 240.5 164.922 240.5L185.931 240.381C186.368 240.381 186.725 240.023 186.725 239.587L186.646 224.661C186.646 224.224 186.289 223.867 185.852 223.867Z" fill="#FFBE17"/>
<path d="M178.584 220.929L171.991 220.969C171.157 220.969 170.522 221.644 170.522 222.478V224.184H171.594V222.478C171.594 222.239 171.753 222.081 171.991 222.081L178.584 222.041C178.822 222.041 178.981 222.2 178.981 222.438V224.145H180.053V222.438C180.093 221.565 179.418 220.89 178.584 220.929Z" fill="#00001C"/>
<path d="M185.852 223.867L164.843 223.986C164.406 223.986 164.048 224.343 164.048 224.78L164.088 230.139C164.088 230.417 164.326 230.655 164.604 230.655L186.169 230.536C186.447 230.536 186.686 230.298 186.686 230.02L186.646 224.661C186.646 224.224 186.289 223.867 185.852 223.867Z" fill="#DB9E00"/>
<path d="M182.516 228.908C182.397 228.829 182.278 228.75 182.119 228.75C182 228.75 181.841 228.789 181.761 228.869C181.603 228.988 181.483 229.186 181.483 229.424L181.523 236.649C181.523 236.848 181.603 237.006 181.722 237.125C181.841 237.245 182 237.324 182.198 237.324C182.397 237.324 182.556 237.245 182.675 237.086C182.754 236.967 182.834 236.808 182.834 236.649L182.794 229.424C182.754 229.226 182.635 229.027 182.516 228.908Z" fill="#0C3265"/>
<path d="M169.132 229.027C169.013 228.908 168.854 228.829 168.655 228.829C168.496 228.829 168.377 228.869 168.258 228.948C168.099 229.067 167.98 229.266 168.02 229.464L168.06 236.689C168.06 236.887 168.139 237.046 168.298 237.165C168.417 237.244 168.576 237.324 168.735 237.324C168.933 237.324 169.092 237.244 169.211 237.125C169.33 237.006 169.41 236.848 169.41 236.689L169.37 229.464C169.331 229.305 169.251 229.146 169.132 229.027Z" fill="#0C3265"/>
<path d="M176.201 208.862L174.851 215.848C174.851 215.848 173.501 216.563 173.103 217.476C172.547 218.667 171.237 219.818 171.435 220.254C171.753 220.969 173.381 219.818 173.818 218.984C173.937 220.493 172.23 222.716 174.057 223.152C175.923 223.589 177.035 222.755 177.551 220.532C177.988 218.667 177.393 216.483 177.393 216.483L179.259 209.616L176.201 208.862Z" fill="#F2B78B"/>
<path d="M174.652 180.796C171.158 181.59 172.826 190.284 175.288 196.992C177.194 202.193 174.533 214.856 174.533 214.856L178.425 215.253C178.425 215.253 182.357 204.217 181.523 195.643C180.888 189.45 178.822 179.883 174.652 180.796Z" fill="#3882B8"/>
<path d="M100.544 150.865C98.7175 150.587 99.1941 154.24 98.5189 155.589C98.4395 154.637 97.3672 153.009 96.8112 153.525C96.4538 153.843 97.2481 155.391 97.3275 156.701C97.3672 157.693 98.3601 158.884 98.3601 158.884L97.0098 165.871L100.108 166.307L100.942 159.241C100.942 159.241 102.292 157.415 102.57 155.51C102.888 153.247 102.451 151.104 100.544 150.865Z" fill="#F2B78B"/>
<path d="M91.8468 176.192C87.1604 181.551 82.4741 189.093 85.4527 191.078C88.9873 193.42 94.3488 185.282 97.1685 179.685C101.061 172.023 101.339 160.273 101.339 160.273L97.5657 159.241C97.5657 159.241 95.5005 172.023 91.8468 176.192Z" fill="#EAA902"/>
<path d="M83.5861 163.806C80.1706 165.077 81.1635 174.008 85.413 175.12C90.3773 176.469 88.9079 171.587 92.5219 167.061C95.9374 162.854 84.301 160.035 83.5861 163.806Z" fill="#030303"/>
<path d="M86.3261 173.611C85.8892 176.708 83.9829 178.296 83.9829 178.296C83.9829 178.296 83.9829 180.122 86.2864 181.193C88.5898 182.265 89.7813 180.598 89.7813 180.598L90.5359 176.668C90.5359 176.628 88.709 173.81 86.3261 173.611Z" fill="#E0935F"/>
<path d="M88.1533 167.498C87.4782 170.436 86.8428 171.071 86.8428 171.071C86.8428 171.071 85.6116 169.562 84.579 170.594C83.6656 171.547 84.2216 173.135 85.7308 173.691C88.1931 177.581 92.2043 177.303 92.7603 176.35C94.7063 172.976 92.5617 167.101 92.5617 167.101C92.5617 167.101 91.0525 167.895 88.1533 167.498Z" fill="#F2B78B"/>
<path d="M108.765 269.359L109.361 271.145L111.585 272.773L112.3 270.272L111.903 268.525L108.765 269.359Z" fill="#F2B78B"/>
<path d="M115.437 271.304C113.849 271.026 112.3 270.272 112.3 270.272C112.3 270.272 111.426 271.741 109.361 271.185C109.361 271.185 108.924 273.17 110.115 275.234C112.062 274.718 112.816 274.519 112.816 274.519L112.657 273.924C112.657 273.924 115.04 273.924 117.224 273.329C119.448 272.733 119.687 271.979 119.369 271.661C119.051 271.344 117.542 271.701 115.437 271.304Z" fill="#030303"/>
<path d="M95.7387 215.888H83.2285C84.3008 228.63 93.9912 235.816 100.107 245.898C103.562 253.639 105.747 261.38 107.812 269.677C109.44 269.24 111.069 268.883 112.697 268.367C111.823 258.442 110.473 249.431 106.621 240.579C102.768 231.647 95.7387 215.888 95.7387 215.888Z" fill="#00001C"/>
<path d="M94.706 189.49C93.8323 185.481 89.7814 180.558 89.7814 180.558C89.7814 180.558 87.2396 180.995 83.983 178.256C80.2498 181.511 77.5095 185.123 78.8201 196.834C79.5747 203.662 81.6796 212.276 81.6796 215.848C84.8965 215.848 94.2691 215.848 95.7386 215.848C95.7386 215.848 95.1032 211.045 94.7854 204.694C94.3883 195.841 95.7386 194.174 94.706 189.49Z" fill="#FFBE17"/>
<path d="M63.3315 267.057L63.6493 269.716L65.913 268.684L66.8662 267.295L64.1656 265.509L63.3315 267.057Z" fill="#F2B78B"/>
<path d="M65.9129 268.684C65.9129 268.684 64.2846 268.962 63.3315 267.057C63.3315 267.057 61.6237 267.97 60.9883 270.193C62.6563 271.304 63.2917 271.741 63.2917 271.741L63.6095 271.264C63.6095 271.264 65.198 273.011 67.0646 274.321C68.971 275.591 69.6461 275.314 69.6461 274.877C69.6461 274.44 68.3752 273.527 67.2235 271.701C66.3895 270.312 65.9129 268.684 65.9129 268.684Z" fill="#030303"/>
<path d="M76.0007 244.588C71.6718 251.337 67.462 258.125 63.5303 265.072C64.9203 266.024 66.3103 266.898 67.6606 267.93C73.459 260.07 80.1708 253.56 85.1351 244.906C90.0995 236.252 91.7675 225.574 93.9518 215.888H81.7196C78.1056 225.137 79.8928 235.379 76.0007 244.588Z" fill="#14142E"/>
<path d="M79.6937 152.493C79.3363 151.024 80.5674 147.57 78.7008 147.451C76.7945 147.332 75.9208 149.317 75.7222 151.58C75.6031 153.485 76.5562 155.549 76.5562 155.549L75.8811 162.615L78.9788 162.854L79.1377 155.748C79.1377 155.748 80.3291 154.795 80.6071 153.843C80.9646 152.572 82.0766 151.223 81.7986 150.826C81.4014 150.19 80.0114 151.58 79.6937 152.493Z" fill="#F2B78B"/>
<path d="M84.4994 178.692C84.3405 178.573 84.1817 178.454 83.9831 178.295C83.8639 178.414 83.7051 178.534 83.5859 178.653C84.1419 179.883 84.6185 181.074 84.976 182.225C85.0157 182.344 85.0951 182.424 85.1745 182.464C85.254 182.503 85.3731 182.503 85.4525 182.464C85.532 182.424 85.5717 182.384 85.6511 182.344C85.7305 182.225 85.7703 182.106 85.7305 181.947C85.4128 180.915 84.976 179.804 84.4994 178.692Z" fill="#014F29"/>
<path d="M79.3363 184.925C79.2171 185.282 79.1377 185.639 79.0186 186.036C79.4157 186.751 79.8128 187.425 80.2894 188.061C80.3689 188.18 80.488 188.219 80.6071 188.219C80.6866 188.219 80.766 188.18 80.8454 188.14C80.8852 188.1 80.9646 188.021 80.9646 187.981C81.0043 187.862 81.0043 187.703 80.9249 187.624C80.3689 186.79 79.8526 185.877 79.3363 184.925Z" fill="#014F29"/>
<path d="M79.7335 156.304L75.8414 156.542C75.8414 156.542 73.6571 168.054 75.8414 176.39C77.43 182.424 80.9646 191.514 84.8964 189.966C88.2324 188.656 85.2141 180.28 81.7589 174.088C79.0583 169.245 79.7335 156.304 79.7335 156.304Z" fill="#FFBE17"/>
<path d="M112.737 148.841C112.737 148.841 121.117 151.977 126.597 154.16L126.2 156.859C120.362 157.455 111.426 158.169 111.426 158.169L112.062 153.525L112.737 148.841Z" fill="#F2B78B"/>
<path d="M113.928 151.341L113.253 156.065L111.387 158.169L59.519 150.865L60.8296 141.576L112.697 148.841L113.928 151.341Z" fill="#F73C4F"/>
<path d="M62.0023 144.064L61.3398 148.781L113.215 156.059L113.878 151.342L62.0023 144.064Z" fill="#F73C4F"/>
<path d="M131.164 156.185C131.164 156.304 129.059 156.581 126.24 156.859C126.24 156.859 125.882 156.542 126.001 155.47C126.16 154.398 126.597 154.2 126.597 154.2C129.218 155.232 131.164 156.026 131.164 156.185Z" fill="#F73C4F"/>
<path d="M62.021 144.077L61.3458 148.801L59.5189 150.865L58.3672 148.364L59.0423 143.64L60.8295 141.576L62.021 144.077Z" fill="#F2B78B"/>
<path d="M60.3928 144.871C60.1942 144.831 59.9559 145.427 59.8367 146.181C59.7176 146.935 59.797 147.57 59.9956 147.57C60.1942 147.61 60.4325 147.015 60.5516 146.26C60.6708 145.546 60.5913 144.911 60.3928 144.871Z" fill="#F73C4F"/>
<path d="M209.363 165.831C208.767 163.131 205.034 162.615 202.532 164.243C197.488 167.577 203.207 178.414 201.5 180.201C199.792 181.987 200.904 186.711 203.009 187.187C205.114 187.624 214.248 184.17 214.129 183.654C214.01 183.138 212.183 180.637 211.071 177.779C209.999 174.961 209.363 165.831 209.363 165.831Z" fill="#030303"/>
<path d="M205.59 171.309C205.153 174.405 203.247 175.993 203.247 175.993C203.247 175.993 203.247 177.819 205.551 178.891C207.854 179.963 209.045 178.295 209.045 178.295L209.8 174.365C209.76 174.365 207.973 171.547 205.59 171.309Z" fill="#E0935F"/>
<path d="M204.637 166.307C205.233 169.284 205.432 171.706 205.432 171.706L204.717 171.587C204.717 171.587 204.081 170.038 204.042 169.999C203.684 169.761 202.493 169.046 201.857 170.078C201.182 171.19 202.056 172.619 203.644 172.857C206.861 176.112 210.714 175.001 211.071 173.968C211.985 171.19 210.277 167.498 209.403 165.831C207.735 164.799 205.948 166.783 204.637 166.307Z" fill="#F2B78B"/>
<path d="M230.094 211.323C230.928 211.759 232.914 211.799 232.795 211.045C232.715 210.569 231.008 210.41 229.856 209.735C228.982 209.219 227.473 209.417 227.473 209.417L222.35 204.455L220.285 206.797L225.726 211.363C225.726 211.363 226.48 213.506 227.95 214.776C229.657 216.285 231.683 217.119 232.954 215.65C234.145 214.221 230.849 212.593 230.094 211.323Z" fill="#F2B78B"/>
<path d="M215.916 194.69C213.811 187.902 209.8 179.963 206.583 181.471C202.731 183.257 206.901 192.11 210.157 197.389C214.685 204.693 224.534 211.085 224.534 211.085L227.393 208.425C227.393 208.385 217.544 199.97 215.916 194.69Z" fill="#EAA902"/>
<path d="M216.035 187.227C215.161 183.218 209.006 178.295 209.006 178.295C209.006 178.295 206.464 178.732 203.207 175.993C199.474 179.248 197.846 182.94 200.03 194.531C201.142 200.366 203.962 208.147 200.943 213.585C200.943 213.585 213.136 213.585 215.002 213.585C215.002 213.069 213.493 197.469 214.049 195.762C215.122 192.189 216.75 190.403 216.035 187.227Z" fill="#FFBE17"/>
<path d="M206.782 196.675C206.98 194.531 207.06 192.11 206.941 189.807C206.941 189.688 206.861 189.569 206.782 189.529C206.702 189.49 206.623 189.45 206.543 189.45C206.424 189.45 206.345 189.49 206.265 189.569C206.186 189.648 206.146 189.768 206.146 189.847C206.265 192.03 206.186 194.372 205.987 196.595C205.551 201.359 209.721 210.33 211.031 213.069C211.111 213.268 211.031 213.466 210.872 213.585C211.309 213.585 211.746 213.585 212.143 213.585L212.104 213.506C212.064 213.387 206.305 202.034 206.782 196.675Z" fill="#FFE39A"/>
<path d="M202.135 204.971C203.684 208.544 205.55 211.72 206.702 213.585C207.02 213.585 207.338 213.585 207.655 213.585C206.226 211.323 203.207 206.281 201.5 201.041C201.738 202.351 201.976 203.661 202.135 204.971Z" fill="#FFE39A"/>
<path d="M220.444 271.224C219.927 270.47 220.166 269.2 220.166 269.2L216.949 268.882V270.669L218.498 272.852L221.397 274.003L223.025 273.13C223.025 273.13 220.96 271.979 220.444 271.224Z" fill="#F2B78B"/>
<path d="M223.025 273.13C221.516 273.289 220.245 272.971 219.292 272.495C217.743 271.741 216.909 270.669 216.909 270.669C216.909 270.669 216.353 271.344 216.234 272.852C216.194 273.328 216.154 273.963 216.313 274.559C216.75 274.599 217.266 274.638 217.266 274.638C217.266 274.638 217.346 274.003 217.385 273.408C218.656 273.884 220.285 274.956 222.112 275.154C226.44 275.591 226.401 274.162 223.025 273.13Z" fill="#030303"/>
<path d="M214.963 213.585C214.963 213.585 206.782 213.585 202.691 213.585C203.525 224.978 209.403 234.585 213.335 245.065C214.645 252.766 215.36 260.983 216.035 268.763L220.999 269.319C221.794 259.832 222.111 249.273 220.642 240.023C219.173 230.734 217.187 222.517 214.963 213.585Z" fill="#001738"/>
<path d="M203.406 245.184C203.048 249.828 204.041 269.518 204.041 269.518H209.006C209.006 269.518 211.349 246.97 211.786 241.532C212.222 236.093 213.096 216.682 213.096 213.546C213.096 213.546 207.616 213.546 200.944 213.546C194.827 223.906 202.77 233.592 203.406 245.184Z" fill="#002853"/>
<path d="M213.851 215.888C213.216 215.134 211.706 214.776 211.706 214.776L208.569 208.385L205.829 209.894L209.403 216.047C209.403 216.047 209.403 218.349 210.316 220.016C211.428 222.001 213.057 223.47 214.725 222.557C216.353 221.644 213.772 219.024 213.494 217.555C214.129 218.27 215.996 218.945 216.115 218.19C216.274 217.635 214.725 216.88 213.851 215.888Z" fill="#F2B78B"/>
<path d="M206.384 196.635C207.02 189.529 206.345 180.677 202.77 180.836C198.521 181.034 199.037 190.76 200.03 196.913C201.42 205.408 208.132 215.014 208.132 215.014L211.786 213.625C211.786 213.704 205.868 202.153 206.384 196.635Z" fill="#FFBE17"/>
<path d="M208.57 271.502C208.014 270.788 208.093 269.518 208.093 269.518H204.836L204.995 271.304L206.743 273.289L209.761 274.162L211.27 273.13C211.31 273.13 209.126 272.217 208.57 271.502Z" fill="#F2B78B"/>
<path d="M211.309 273.13C209.84 273.448 208.529 273.249 207.536 272.892C205.908 272.296 204.995 271.304 204.995 271.304C204.995 271.304 204.518 272.018 204.518 273.527C204.518 274.003 204.558 274.638 204.796 275.194C205.273 275.194 205.749 275.194 205.749 275.194C205.749 275.194 205.749 274.559 205.749 273.964C207.06 274.281 208.768 275.194 210.634 275.194C214.923 275.234 214.764 273.845 211.309 273.13Z" fill="#030303"/>
<path d="M207.02 164.798C206.861 164.838 204.796 165.076 202.691 166.744C200.586 168.411 200.507 171.348 200.983 174.087C201.46 176.826 199.236 180.637 200.666 182.305C202.969 185.123 206.305 179.169 206.146 174.961C206.027 172.5 205.233 168.808 206.107 167.021C206.742 165.711 209.006 165.87 209.403 165.87C209.363 165.831 208.569 164.441 207.02 164.798Z" fill="#030303"/>
</svg>
