<svg id="f2485c38-0026-4be3-92df-cba21cb1ca30" data-name="Layer 1" xmlns="http://www.w3.org/2000/svg" viewBox="0 0 200 66">
  <title>stacked--blue</title>
  <g>
    <g>
      <path d="M26.47664,56.15a2.3754,2.3754,0,0,0,1.2-.3l4.5-2.6a4.55113,4.55113,0,0,1,3-.6,65.36666,65.36666,0,0,1,10.5,2,.481.481,0,0,0,.6-.2,3.58116,3.58116,0,0,0,.6-1.1,3.42178,3.42178,0,0,0,.2-1.3.45751.45751,0,0,0-.4-.5,76.31613,76.31613,0,0,0-20.3-2.7,72.07388,72.07388,0,0,0-20.3,2.7.66441.66441,0,0,0-.4.5,3.69136,3.69136,0,0,0,.2,1.3,3.581,3.581,0,0,0,.6,1.1c.2.2.4.3.6.2a65.3664,65.3664,0,0,1,10.5-2,5.08746,5.08746,0,0,1,3,.6l4.5,2.6A4.40821,4.40821,0,0,0,26.47664,56.15Z" fill="#0770e3"/>
      <path d="M18.87664,41.45a1.54832,1.54832,0,0,0,1.1.8,1.8066,1.8066,0,0,0,1.4-.2,1.47864,1.47864,0,0,0,.8-1.1,1.75645,1.75645,0,0,0-.2-1.4l-4.1-7.1a.71275.71275,0,0,0-.6-.3,3.06886,3.06886,0,0,0-1.3.5,3.52788,3.52788,0,0,0-1.1.9.87822.87822,0,0,0-.1.7Z" fill="#0770e3"/>
      <path d="M15.17665,46.45a2.19926,2.19926,0,0,0,1.4.2,2.09689,2.09689,0,0,0,1.1-.8,2.19926,2.19926,0,0,0,.2-1.4,1.77919,1.77919,0,0,0-.8-1.1l-7.1-4.1a.61593.61593,0,0,0-.7.1,3.52789,3.52789,0,0,0-.9,1.1,3.06886,3.06886,0,0,0-.5,1.3.60466.60466,0,0,0,.3.6Z" fill="#0770e3"/>
      <path d="M28.27665,38.95a2.10617,2.10617,0,0,1-.5,1.3,1.90108,1.90108,0,0,1-1.3.5,2.10617,2.10617,0,0,1-1.3-.5,1.901,1.901,0,0,1-.5-1.3v-8.2a.67521.67521,0,0,1,.4-.6,5,5,0,0,1,2.8,0,.67521.67521,0,0,1,.4.6v8.2Z" fill="#0770e3"/>
      <path d="M34.07665,41.45a1.54834,1.54834,0,0,1-1.1.8,1.80658,1.80658,0,0,1-1.4-.2,1.54832,1.54832,0,0,1-.8-1.1,1.7564,1.7564,0,0,1,.2-1.4l4.1-7.1a.71273.71273,0,0,1,.6-.3,3.06885,3.06885,0,0,1,1.3.5,3.528,3.528,0,0,1,1.1.9.87823.87823,0,0,1,.1.7Z" fill="#0770e3"/>
      <path d="M37.77665,46.45a2.19926,2.19926,0,0,1-1.4.2,2.09693,2.09693,0,0,1-1.1-.8,2.19919,2.19919,0,0,1-.2-1.4,2.09684,2.09684,0,0,1,.8-1.1l7.1-4.1a.61593.61593,0,0,1,.7.1,3.5276,3.5276,0,0,1,.9,1.1,3.06886,3.06886,0,0,1,.5,1.3.60469.60469,0,0,1-.3.6Z" fill="#0770e3"/>
    </g>
    <g>
      <path d="M82.87665,40.85h3.4c.1,0,.2.1.3.2l3.4,8.7,3.3-8.7c0-.1.2-.2.3-.2h3.3c.2,0,.4.2.3.4l-8.3,19c0,.1-.2.2-.3.2h-2.9c-.2,0-.4-.2-.3-.4l2.8-6.6-5.5-12.2C82.47664,41.15,82.57665,40.85,82.87665,40.85Z" fill="#0770e3"/>
      <path d="M132.97664,42.85v-1.6a.26517.26517,0,0,1,.3-.3h3a.26517.26517,0,0,1,.3.3v12.8a.26517.26517,0,0,1-.3.3h-3a.26517.26517,0,0,1-.3-.3v-1.7a5.06191,5.06191,0,0,1-4.3,2.3c-4.4,0-6.7-3.4-6.7-7.1,0-4.9,3.4-7,6.6-7A5.11051,5.11051,0,0,1,132.97664,42.85Zm-7.4,4.7c0,2.3,1.4,4.1,3.7,4.1a3.59737,3.59737,0,0,0,3.8-3.9c0-2.4-1.4-4.2-3.9-4.2C126.97664,43.55,125.57665,45.35,125.57665,47.55Z" fill="#0770e3"/>
      <path d="M139.37665,54.05V41.15a.26517.26517,0,0,1,.3-.3h3a.26517.26517,0,0,1,.3.3v1.8a4.64951,4.64951,0,0,1,4.3-2.3c2.3,0,4.9,1.1,4.9,6.4v7a.26517.26517,0,0,1-.3.3h-3a.26517.26517,0,0,1-.3-.3v-7.1c0-1.3-.3-3.4-2.6-3.4s-3,2-3,3.8v6.7a.26517.26517,0,0,1-.3.3h-3A.26516.26516,0,0,1,139.37665,54.05Z" fill="#0770e3"/>
      <path d="M154.77665,54.05V41.15a.26516.26516,0,0,1,.3-.3h3a.26515.26515,0,0,1,.3.3v1.8a4.64952,4.64952,0,0,1,4.3-2.3c2.3,0,4.9,1.1,4.9,6.4v7a.26516.26516,0,0,1-.3.3h-3a.26515.26515,0,0,1-.3-.3v-7.1c0-1.3-.3-3.4-2.6-3.4s-3,2-3,3.8v6.7a.26516.26516,0,0,1-.3.3h-3A.26516.26516,0,0,1,154.77665,54.05Z" fill="#0770e3"/>
      <path d="M186.27665,40.85h2.9a.26515.26515,0,0,1,.3.3v2.7a3.81427,3.81427,0,0,1,4.5-3.2c.1,0,.2.2.2.3v2.9c0,.2-.2.3-.4.3-3.1-.6-4.3,1.1-4.3,3.4v6.5a.26517.26517,0,0,1-.3.3h-3a.26515.26515,0,0,1-.3-.3V41.15C185.97666,41.05,186.17664,40.85,186.27665,40.85Z" fill="#0770e3"/>
      <path d="M62.97664,43.85c-.9-.3-1.4-.5-2.2-.8s-2.1-1-2.1-2.2.8-2,2.5-2a2.99866,2.99866,0,0,1,2.9,1.9.24737.24737,0,0,0,.4.1l2.5-1.4c.1-.1.2-.2.1-.4a6.14218,6.14218,0,0,0-5.9-3.6c-3.8,0-6.2,2.3-6.2,5.3s2,4.5,4.6,5.4c1,.3,1.4.5,2.2.7,1.6.5,2.3,1.2,2.3,2.2s-.6,2.1-3.1,2.1a3.449,3.449,0,0,1-3.5-2.3.24736.24736,0,0,0-.4-.1l-2.6,1.5c-.1.1-.2.2-.1.4,1,2.5,3.7,3.9,6.8,3.9,3.6,0,6.6-1.8,6.6-5.5C67.77665,45.45,63.87665,44.15,62.97664,43.85Z" fill="#0770e3"/>
      <path d="M82.77665,50.85a.24737.24737,0,0,0-.4-.1,2.32674,2.32674,0,0,1-3.6-.7c-.9-1.4-1.9-3-1.9-3l4.5-5.7a.30021.30021,0,0,0-.2-.5h-3.6c-.1,0-.2,0-.2.1l-3.9,5.4V35.55a.26517.26517,0,0,0-.3-.3h-3a.26517.26517,0,0,0-.3.3v18.5a.26517.26517,0,0,0,.3.3h3a.26517.26517,0,0,0,.3-.3v-6s2,3.2,2.8,4.4a4.918,4.918,0,0,0,7.7.8c.1-.1.1-.2.1-.4Z" fill="#0770e3"/>
      <path d="M104.27665,46.55a16.45437,16.45437,0,0,0-2-.7c-.7-.2-1.4-.7-1.4-1.2,0-.6.5-1.2,1.6-1.2a2.03566,2.03566,0,0,1,1.9,1,.24737.24737,0,0,0,.4.1l2.1-1.2c.1-.1.2-.3.1-.4-.6-1-1.7-2.3-4.5-2.3-3.4,0-5.1,2-5.1,4.1s1.8,3.2,3.4,3.8c1.8.7,1.9.8,2.2.9.6.2,1.2.6,1.2,1.2,0,.7-.7,1.2-1.9,1.2a2.77811,2.77811,0,0,1-2.8-1.7.24736.24736,0,0,0-.4-.1l-2.1,1.2c-.1.1-.2.2-.1.4.6,1.6,2.5,3,5.4,3,3.2,0,5.4-1.7,5.4-4.1S106.07665,47.25,104.27665,46.55Z" fill="#0770e3"/>
      <path d="M116.47664,43.85a5.45576,5.45576,0,0,1,3.3,1.1c.1.1.4.1.4-.1l1.2-2.1c.1-.1,0-.3-.1-.4a8.55112,8.55112,0,0,0-5-1.7,7.63017,7.63017,0,0,0-5.5,2,6.94347,6.94347,0,0,0-2.1,5.1,6.67689,6.67689,0,0,0,2.1,5,7.73173,7.73173,0,0,0,5.5,2,8.47386,8.47386,0,0,0,5-1.7c.1-.1.2-.3.1-.4l-1.2-2.1a.24736.24736,0,0,0-.4-.1,5.662,5.662,0,0,1-3.3,1.1c-1.5,0-4.1-.8-4.1-3.8A3.89022,3.89022,0,0,1,116.47664,43.85Z" fill="#0770e3"/>
      <path d="M177.37665,51.65a5.71009,5.71009,0,0,1-3.2-.9,2.7636,2.7636,0,0,1-1.2-2.2h10.7a.26515.26515,0,0,0,.3-.3c-.1-3.2-1.1-4.7-2.1-5.7a7.292,7.292,0,0,0-5.1-2,6.98411,6.98411,0,0,0-5.3,2.1,7.00236,7.00236,0,0,0,0,10,7.90739,7.90739,0,0,0,5.7,2,8.06924,8.06924,0,0,0,6.2-2.6.34824.34824,0,0,0-.1-.5l-2.1-1.2a.30415.30415,0,0,0-.4,0A5.0454,5.0454,0,0,1,177.37665,51.65Zm-.6-8.2a3.29924,3.29924,0,0,1,3.5,2.9h-7.2A3.61181,3.61181,0,0,1,176.77665,43.45Z" fill="#0770e3"/>
    </g>
  </g>
  <g>
    <path d="M47.45325,17.85l2.4-12.2a.21508.21508,0,0,1,.2-.2h4.3a4.551,4.551,0,0,1,2.7.8,2.65808,2.65808,0,0,1,1,2.1,3.87053,3.87053,0,0,1-1.3,3.1,5.26693,5.26693,0,0,1-3.7,1h-3l-1,5.4a.21508.21508,0,0,1-.2.2h-1.3C47.45325,18.05,47.45325,17.95,47.45325,17.85Zm2.9-6.8h3.3a3.17336,3.17336,0,0,0,2-.6,2.2262,2.2262,0,0,0,.7-1.9,1.656,1.656,0,0,0-.5-1.2,2.07574,2.07574,0,0,0-1.5-.4h-3.2Z" fill="#0770e3"/>
    <path d="M58.35325,14.55a5.6775,5.6775,0,0,1,1.5-4,5.06631,5.06631,0,0,1,3.9-1.7,3.6068,3.6068,0,0,1,3.9,3.7,5.6775,5.6775,0,0,1-1.5,4,4.987,4.987,0,0,1-3.9,1.6,3.705,3.705,0,0,1-2.8-1A3.46677,3.46677,0,0,1,58.35325,14.55Zm1.6-.2a2.13948,2.13948,0,0,0,.7,1.8,2.875,2.875,0,0,0,1.8.7,3.42406,3.42406,0,0,0,2.7-1.2,4.42644,4.42644,0,0,0,1.1-3,2.13948,2.13948,0,0,0-.7-1.8,2.40988,2.40988,0,0,0-1.8-.7,3.42406,3.42406,0,0,0-2.7,1.2A4.61739,4.61739,0,0,0,59.95325,14.35Z" fill="#0770e3"/>
    <path d="M69.65325,9.25c0-.2.1-.3.2-.3h1.2a.21508.21508,0,0,1,.2.2l.7,7,3.2-6.5a.21509.21509,0,0,1,.2-.2h1.4c.1,0,.1.1.2.2l.8,6.5,3.2-7c0-.1.1-.2.3-.2h1.2c.1,0,.1,0,.1.1a.30971.30971,0,0,1-.1.2l-4.2,8.6c-.1.1-.1.2-.3.2h-1.3a.21508.21508,0,0,1-.2-.2l-.8-6.6-3.1,6.6c-.1.1-.2.2-.3.2h-1.3a.21508.21508,0,0,1-.2-.2Z" fill="#0770e3"/>
    <path d="M83.05325,14.15a5.36742,5.36742,0,0,1,1.5-3.8,4.91792,4.91792,0,0,1,3.8-1.6,3.6927,3.6927,0,0,1,2.7,1.1,4.06336,4.06336,0,0,1,1,2.7,2.76856,2.76856,0,0,1-.1.9l-.1.3a.21508.21508,0,0,1-.2.2h-7v.5a2.44474,2.44474,0,0,0,.6,1.8,2.481,2.481,0,0,0,1.8.7,3.2601,3.2601,0,0,0,2.9-1.6c.1-.1.2-.2.3-.2h1.2c.1,0,.1,0,.1.1a.30971.30971,0,0,1-.1.2,4.81549,4.81549,0,0,1-4.6,2.8,3.387,3.387,0,0,1-2.7-1.1A4.74883,4.74883,0,0,1,83.05325,14.15Zm1.8-1.5h5.7a2.4447,2.4447,0,0,0-.6-1.8,2.4447,2.4447,0,0,0-1.8-.6,3.0771,3.0771,0,0,0-1.9.6A3.67733,3.67733,0,0,0,84.85325,12.65Z" fill="#0770e3"/>
    <path d="M93.65325,17.85l1.7-8.7a.21508.21508,0,0,1,.2-.2h1.1c.1,0,.1.1.1.2l-.2.9a3.93469,3.93469,0,0,1,2.9-1.3,3.194,3.194,0,0,1,1.4.3c.1.1.2.1.2.2v.1l-.2,1.2a.21508.21508,0,0,1-.2.2c-.1,0-.1,0-.2-.1a3.31974,3.31974,0,0,0-1.6-.5,2.68847,2.68847,0,0,0-1.8.8,3.47733,3.47733,0,0,0-1,2l-1,4.9a.21508.21508,0,0,1-.2.2h-1.1C93.65325,18.05,93.65325,17.95,93.65325,17.85Z" fill="#0770e3"/>
    <path d="M101.55325,14.15a5.36742,5.36742,0,0,1,1.5-3.8,4.91792,4.91792,0,0,1,3.8-1.6,3.6927,3.6927,0,0,1,2.7,1.1,4.06336,4.06336,0,0,1,1,2.7,2.76856,2.76856,0,0,1-.1.9l-.1.3a.21508.21508,0,0,1-.2.2h-7v.5a2.4447,2.4447,0,0,0,.6,1.8,2.481,2.481,0,0,0,1.8.7,3.2601,3.2601,0,0,0,2.9-1.6c.1-.1.2-.2.3-.2h1.2c.1,0,.1,0,.1.1a.30971.30971,0,0,1-.1.2,4.81549,4.81549,0,0,1-4.6,2.8,3.387,3.387,0,0,1-2.7-1.1A4.74883,4.74883,0,0,1,101.55325,14.15Zm1.8-1.5h5.7a2.4447,2.4447,0,0,0-.6-1.8,2.4447,2.4447,0,0,0-1.8-.6,3.0771,3.0771,0,0,0-1.9.6A3.67733,3.67733,0,0,0,103.35325,12.65Z" fill="#0770e3"/>
    <path d="M112.05325,14.45a6.60019,6.60019,0,0,1,.6-2.7,6.84459,6.84459,0,0,1,1.7-2.1,4.30024,4.30024,0,0,1,2.7-.8,3.424,3.424,0,0,1,2.7,1.2l.9-4.4a.21508.21508,0,0,1,.2-.2h1.1c.1,0,.1.1.1.2l-2.4,12.2a.21508.21508,0,0,1-.2.2h-1.1c-.1,0-.1-.1-.1-.2l.2-.8a3.69131,3.69131,0,0,1-2.8,1.1,3.17361,3.17361,0,0,1-2.5-1A3.3435,3.3435,0,0,1,112.05325,14.45Zm1.5,0a2.79194,2.79194,0,0,0,.6,1.8,1.8648,1.8648,0,0,0,1.6.7,3.22493,3.22493,0,0,0,2.6-1.2,4.2713,4.2713,0,0,0,1-2.9,2.70715,2.70715,0,0,0-.6-1.9,2.06,2.06,0,0,0-1.7-.7,2.76449,2.76449,0,0,0-2.5,1.3A4.83926,4.83926,0,0,0,113.55325,14.45Z" fill="#0770e3"/>
    <path d="M127.15325,17.85l2.4-12.2a.21508.21508,0,0,1,.2-.2h1.1c.1,0,.1.1.1.2l-.9,4.3a3.91334,3.91334,0,0,1,2.9-1.1,3.31686,3.31686,0,0,1,2.5,1,3.61976,3.61976,0,0,1,1,2.7,6.08521,6.08521,0,0,1-1.4,4,4.57323,4.57323,0,0,1-3.7,1.6,4.14555,4.14555,0,0,1-1.6-.3,2.012,2.012,0,0,1-1.1-.9l-.2.9a.21507.21507,0,0,1-.2.2h-1.1C127.25325,18.05,127.15325,17.95,127.15325,17.85Zm2.1-3.5a2.88325,2.88325,0,0,0,.6,1.9,1.98969,1.98969,0,0,0,1.6.7,3.22493,3.22493,0,0,0,2.6-1.2,4.27135,4.27135,0,0,0,1-2.9,2.88325,2.88325,0,0,0-.6-1.9,1.93964,1.93964,0,0,0-1.7-.7,3.17207,3.17207,0,0,0-2.6,1.3A4.099,4.099,0,0,0,129.25325,14.35Z" fill="#0770e3"/>
    <path d="M136.65325,21.35v-.1l.2-1a.21508.21508,0,0,1,.2-.2,1.0944,1.0944,0,0,0,.4.2,1.88385,1.88385,0,0,0,.8.2c.9,0,1.7-.8,2.4-2.2l-1.9-8.9v-.1c0-.1.1-.1.2-.1h1.2a.21508.21508,0,0,1,.2.2l1.3,7,3.6-7c0-.1.1-.2.3-.2h1.3c.1,0,.1,0,.1.1v.1l-5.2,9.7a6.4695,6.4695,0,0,1-1.6,2.3,3.37877,3.37877,0,0,1-2,.6,2.13259,2.13259,0,0,1-1.2-.3C136.65325,21.45,136.65325,21.35,136.65325,21.35Z" fill="#0770e3"/>
  </g>
</svg>
