<svg width="12" height="9" viewBox="0 0 12 9" fill="none" xmlns="http://www.w3.org/2000/svg">
<path d="M4.02994 8.99997L0.280268 4.68363C0.220986 4.61575 0.175771 4.53677 0.147207 4.45127C0.118643 4.36577 0.107304 4.27543 0.113871 4.18552C0.120438 4.09561 0.144779 4.0079 0.185463 3.92746C0.226146 3.84703 0.28237 3.77548 0.350884 3.71695C0.489175 3.59825 0.668698 3.53904 0.850399 3.55222C1.0321 3.56539 1.20125 3.64988 1.32101 3.78728L4.10288 6.98995L10.5944 0.531597C10.7238 0.403274 10.8986 0.331299 11.0807 0.331299C11.2628 0.331299 11.4375 0.403274 11.5669 0.531597C11.6306 0.594921 11.6811 0.670245 11.7156 0.753196C11.7501 0.836146 11.7679 0.92509 11.7679 1.01494C11.7679 1.10478 11.7501 1.19375 11.7156 1.2767C11.6811 1.35965 11.6306 1.43495 11.5669 1.49827L4.02994 8.99997Z" fill="#EA3646"/>
</svg>
