<svg width="17" height="24" viewBox="0 0 17 24" fill="none" xmlns="http://www.w3.org/2000/svg">
<path d="M8.18523 23.0096C8.01338 22.9529 7.83887 22.9045 7.67135 22.8379C7.18934 22.6504 6.78804 22.3001 6.53702 21.8476C6.41641 21.6393 6.38105 21.3924 6.43836 21.1586C6.49567 20.9248 6.6412 20.7223 6.84442 20.5936C7.04948 20.4613 7.29786 20.414 7.53711 20.4617C7.77636 20.5093 7.98775 20.6482 8.12661 20.8489C8.38705 21.2109 8.68478 21.2109 8.94588 20.8489C9.08408 20.6472 9.29539 20.5073 9.53495 20.4589C9.77451 20.4105 10.0235 20.4575 10.229 20.5898C10.4345 20.7222 10.5805 20.9295 10.6358 21.1677C10.6912 21.406 10.6516 21.6564 10.5255 21.8659C10.3648 22.1422 10.1486 22.3821 9.89069 22.5706C9.63277 22.7591 9.33863 22.8921 9.02681 22.9612C8.97886 22.9729 8.93323 22.9946 8.8866 23.0096H8.18523ZM5.72841 19.1316C4.35331 19.0096 2.99286 18.7574 1.66535 18.3782C1.34094 18.2841 1.04293 18.1156 0.795022 17.886C0.547112 17.6564 0.356136 17.372 0.237277 17.0556C0.118418 16.7391 0.0749528 16.3993 0.110337 16.0631C0.145722 15.7269 0.258982 15.4036 0.441111 15.1189C0.661915 14.7652 0.895706 14.4189 1.13616 14.0786C1.8346 13.0757 2.21006 11.883 2.2122 10.6606C2.21402 9.62322 2.4682 8.60196 2.95277 7.68498C3.43734 6.768 4.13773 5.98296 4.9934 5.39763C5.33976 5.14596 5.72908 4.95429 6.09908 4.73495C5.85264 4.30891 5.72186 3.82572 5.71975 3.33343C5.71763 2.84113 5.84425 2.35687 6.08703 1.92872C6.32981 1.50058 6.6803 1.14343 7.10367 0.892837C7.52703 0.64224 8.00855 0.506928 8.50036 0.500259C8.99218 0.49359 9.47717 0.615808 9.90717 0.854832C10.3372 1.09386 10.6972 1.44132 10.9515 1.86272C11.2057 2.28413 11.3454 2.76484 11.3566 3.25701C11.3679 3.74918 11.2502 4.23573 11.0154 4.6683C11.4756 4.94997 11.9615 5.19524 12.3885 5.51791C13.0933 6.03349 13.6842 6.68932 14.1239 7.44418C14.5636 8.19904 14.8428 9.0367 14.9439 9.90462C15.0055 10.375 15.0002 10.8536 15.0268 11.3283C15.0854 12.3341 15.4169 13.3049 15.9856 14.1362C16.1888 14.4402 16.3936 14.7436 16.5934 15.0496C16.7933 15.3403 16.9198 15.6752 16.9619 16.0256C17.004 16.376 16.9605 16.7315 16.8351 17.0613C16.7098 17.3912 16.5063 17.6857 16.2422 17.9196C15.9781 18.1534 15.6613 18.3196 15.3189 18.4039C13.5264 18.8889 11.6844 19.1676 9.82877 19.2346C9.40048 19.2533 8.97264 19.2626 8.54524 19.2626C7.6043 19.2626 6.66569 19.2189 5.72941 19.1316H5.72841ZM7.61007 3.30592C7.60857 3.48913 7.66133 3.66872 7.7617 3.82195C7.86206 3.97518 8.00552 4.09522 8.17398 4.16692C8.34244 4.23862 8.52834 4.25873 8.70823 4.22478C8.88811 4.19083 9.05392 4.10434 9.18473 3.97617C9.31553 3.84799 9.40547 3.68386 9.44318 3.50457C9.4809 3.32528 9.46471 3.13885 9.39665 2.96876C9.3286 2.79867 9.21172 2.65259 9.06079 2.54892C8.90985 2.44525 8.73161 2.38862 8.54857 2.38624H8.54191C8.41987 2.38342 8.2985 2.40523 8.18503 2.45029C8.07155 2.49534 7.96828 2.56274 7.88136 2.64853C7.79443 2.73432 7.72562 2.8367 7.67902 2.94964C7.63242 3.06257 7.60897 3.18374 7.61007 3.30592Z" fill="url(#paint0_linear)"/>
<defs>
<linearGradient id="paint0_linear" x1="16.9774" y1="10.5425" x2="0.579954" y2="15.7081" gradientUnits="userSpaceOnUse">
<stop stop-color="#F2404D"/>
<stop offset="1" stop-color="#DE253A"/>
</linearGradient>
</defs>
</svg>
