<svg width="18" height="23" viewBox="0 0 18 23" fill="none" xmlns="http://www.w3.org/2000/svg">
<path d="M17.0395 17.9782C16.9632 16.5278 16.6398 14.4285 14.7255 12.9448C14.4384 12.7225 14.12 12.4781 13.782 12.2268L13.7767 12.2185L13.6142 12.1021C13.3963 11.9414 13.1716 11.7791 12.9418 11.6178C12.9284 11.6085 12.9148 11.6008 12.9011 11.5925C12.7667 11.5293 12.6558 11.4251 12.5844 11.2948C12.5357 11.1768 12.5251 11.0465 12.5541 10.9222C12.6054 10.7222 12.7982 10.6082 12.9381 10.4708C13.5168 9.90819 13.9768 9.23501 14.291 8.49126C14.6051 7.74752 14.7671 6.94833 14.7671 6.14084C14.7573 4.50667 14.1009 2.94294 12.9418 1.79205C11.7826 0.641161 10.2151 -0.00315261 8.58231 0.000139602H8.56865C6.9378 -0.010825 5.36886 0.624487 4.20444 1.76739C3.04003 2.9103 2.37474 4.46795 2.35384 6.10015C2.35384 6.20037 2.35594 6.30034 2.36016 6.40012C2.36438 6.4999 2.37137 6.59995 2.38113 6.70017C2.39046 6.79839 2.40213 6.89644 2.41612 6.99444C2.4301 7.09244 2.44641 7.18914 2.46506 7.28448C2.48371 7.38003 2.50458 7.47513 2.52767 7.5698C2.55076 7.66446 2.57598 7.75782 2.60329 7.84982C2.6306 7.94205 2.66012 8.03359 2.69187 8.12448C2.72362 8.21537 2.75692 8.305 2.79178 8.39344C2.82753 8.48233 2.86528 8.57002 2.90502 8.65646C2.94476 8.74291 2.9865 8.82847 3.03024 8.91314C3.07464 8.99736 3.12015 9.08069 3.16677 9.16314C3.2134 9.24558 3.2627 9.32648 3.31465 9.40581C3.36572 9.48537 3.41856 9.56383 3.47318 9.64116C3.5278 9.7185 3.58419 9.79434 3.64236 9.86878C3.70031 9.94323 3.76002 10.0163 3.82152 10.0881C3.88303 10.1599 3.94598 10.2302 4.01036 10.2991C4.07475 10.368 4.14135 10.4354 4.21018 10.5014C4.25303 10.5432 4.29655 10.5845 4.34074 10.6251C4.36738 10.6495 4.39502 10.6728 4.42133 10.6975C4.44768 10.7194 4.4702 10.7455 4.48795 10.7748C4.51774 10.8256 4.54015 10.8804 4.55454 10.9375C4.56123 10.9573 4.56549 10.9779 4.5672 10.9988C4.58036 11.0877 4.57061 11.1785 4.53888 11.2625C4.51904 11.3215 4.48781 11.3759 4.44697 11.4228C4.41633 11.4502 4.38284 11.4742 4.34706 11.4944L4.18887 11.6091L4.02236 11.7308L3.88913 11.8274L3.83486 11.8668C3.72385 11.9468 3.6136 12.0268 3.50414 12.1068L3.13781 12.3718L3.14014 12.3758C2.88304 12.5691 2.63158 12.7625 2.38979 12.9548C1.28369 13.7928 0.534368 15.0178 0.291663 16.3848C0.194749 16.9405 0.153791 17.4938 0.114493 18.0288C0.101171 18.2068 0.088183 18.3848 0.0728633 18.5621C0.0281099 18.9635 0.0990159 19.3694 0.277231 19.7317C0.455446 20.0941 0.733536 20.3978 1.07864 20.6071C1.64911 20.9799 2.26144 21.2841 2.90301 21.5135C4.66344 22.1088 6.48017 22.2724 8.66689 22.3351H8.70553L8.74415 22.3328C8.88603 22.3241 9.04123 22.3165 9.20608 22.3081C9.62038 22.2875 10.0903 22.2638 10.5679 22.2185C12.1039 22.1261 13.6147 21.785 15.0416 21.2085C16.6258 20.5078 17.1297 19.6932 17.0395 17.9782Z" fill="url(#paint0_linear)"/>
<defs>
<linearGradient id="paint0_linear" x1="17.0495" y1="9.96461" x2="0.587708" y2="15.2253" gradientUnits="userSpaceOnUse">
<stop stop-color="#F2404D"/>
<stop offset="1" stop-color="#DE253A"/>
</linearGradient>
</defs>
</svg>
