<svg width="71" height="57" viewBox="0 0 71 57" fill="none" xmlns="http://www.w3.org/2000/svg">
<path d="M66.944 54.6667H68.944V52.6667V35.5C68.944 17.0001 53.9598 2 35.472 2C16.9843 2 2 17.0001 2 35.5V52.6667V54.6667H4H66.944ZM7.99822 35.5C7.99822 20.3365 20.3264 8 35.472 8C50.6177 8 62.9458 20.3365 62.9458 35.5V48.6667H7.99822V35.5Z" fill="#B4B4B4" stroke="white" stroke-width="4"/>
<mask id="path-2-outside-1" maskUnits="userSpaceOnUse" x="12.6548" y="11.3281" width="45" height="38" fill="black">
<rect fill="white" x="12.6548" y="11.3281" width="45" height="38"/>
<path d="M49.1884 44.4719L43.9361 39.2143C42.1172 40.7299 39.9313 41.7389 37.5987 42.1396C35.2661 42.5404 32.8692 42.3187 30.6494 41.4969C28.4297 40.6751 26.4655 39.2823 24.9549 37.4587C23.4443 35.6352 22.4406 33.4453 22.0449 31.1099L23.358 30.8865C23.8335 33.6756 25.2653 36.2116 27.4071 38.0583C29.5489 39.9049 32.2667 40.9467 35.093 41.0043C37.9193 41.062 40.6773 40.1319 42.8925 38.3742C45.1077 36.6164 46.6415 34.1409 47.2301 31.3735L48.5326 31.6509C47.9941 34.1736 46.7398 36.4872 44.9202 38.3142L50.1302 43.5295C50.1921 43.5914 50.2412 43.665 50.2746 43.7458C50.3081 43.8267 50.3254 43.9134 50.3254 44.001C50.3254 44.0885 50.3082 44.1752 50.2747 44.2561C50.2413 44.337 50.1922 44.4105 50.1304 44.4724C50.0685 44.5343 49.9951 44.5834 49.9143 44.6169C49.8335 44.6505 49.7469 44.6677 49.6594 44.6677C49.572 44.6677 49.4853 44.6505 49.4045 44.617C49.3237 44.5835 49.2503 44.5345 49.1884 44.4726V44.4719ZM33.185 31.1459C33.1786 31.1379 33.174 31.1292 33.168 31.1212L33.1583 31.2152C31.2616 31.026 29.377 30.7303 27.5133 30.3296C27.5103 30.3522 27.5073 30.3745 27.504 30.3942C27.4726 30.5894 27.4029 30.7764 27.299 30.9446C27.1951 31.1127 27.059 31.2586 26.8986 31.3739C26.7382 31.4892 26.5566 31.5716 26.3642 31.6164C26.1718 31.6613 25.9725 31.6676 25.7777 31.6351C25.5828 31.6025 25.3964 31.5317 25.229 31.4267C25.0616 31.3218 24.9166 31.1848 24.8023 31.0236C24.6879 30.8624 24.6066 30.6802 24.5629 30.4874C24.5192 30.2946 24.514 30.095 24.5477 29.9002C24.5724 29.7576 24.6211 29.6202 24.6919 29.4939C22.0469 28.8605 17.7094 28.1695 17.6548 28.1605L17.733 27.1669H31.7153C31.4488 25.2462 32.9562 24.1649 34.7099 23.9156L34.9261 20.0823L35.9212 20.0529L36.3655 23.8862L36.2189 23.9032C38.0293 24.1269 39.6262 25.2193 39.3585 27.1659H53.2128L53.2914 28.1596C53.2361 28.1686 48.8933 28.8619 46.249 29.4929C46.322 29.6182 46.3722 29.7555 46.3975 29.8983C46.4334 30.094 46.43 30.2949 46.3875 30.4892C46.345 30.6836 46.2643 30.8676 46.1501 31.0304C46.0358 31.1933 45.8904 31.3318 45.7222 31.4379C45.5539 31.5439 45.3663 31.6154 45.1702 31.6482C44.9742 31.681 44.7735 31.6743 44.58 31.6287C44.3865 31.5831 44.204 31.4994 44.0431 31.3826C43.8822 31.2657 43.7462 31.1179 43.6429 30.9479C43.5396 30.7779 43.4711 30.589 43.4415 30.3922C43.4379 30.3706 43.4415 30.3506 43.4382 30.3293C41.5906 30.7356 39.7221 31.0398 37.8412 31.2405V31.2349C37.3488 31.8715 36.6926 32.3619 35.9429 32.6536C35.826 32.6987 35.7017 32.7213 35.5765 32.7202C34.6916 32.7229 33.6209 31.7146 33.185 31.1459ZM33.0085 25.7792C32.8572 25.9699 32.7523 26.1932 32.702 26.4314C32.6517 26.6696 32.6574 26.9163 32.7187 27.1519C32.9478 28.3566 33.2586 29.6006 33.9773 30.5373C34.4282 31.1246 35.2338 31.7232 35.5758 31.7232C37.2906 31.0502 37.9278 29.4085 38.3567 27.1515C38.4147 26.9238 38.4202 26.6859 38.373 26.4558C38.3257 26.2256 38.2269 26.0093 38.0839 25.8229C37.6447 25.2702 36.7308 24.9022 35.6997 24.8629C35.6381 24.8602 35.5765 24.8592 35.5152 24.8592C34.4379 24.8589 33.4777 25.2112 33.0078 25.7789L33.0085 25.7792ZM44.8719 29.9385C44.7212 29.9504 44.5762 30.0012 44.451 30.0859C44.431 30.1039 44.4076 30.1235 44.4256 30.2305C44.4477 30.3613 44.5208 30.478 44.6288 30.5548C44.7369 30.6317 44.8709 30.6625 45.0016 30.6404C45.1323 30.6183 45.2489 30.5451 45.3256 30.437C45.4024 30.3289 45.4332 30.1947 45.4111 30.0639C45.3941 29.9639 45.3668 29.9526 45.3348 29.9403C45.2704 29.9189 45.2027 29.9095 45.135 29.9123C45.0467 29.9137 44.9587 29.9224 44.8719 29.9382V29.9385ZM25.5334 30.0656C25.5225 30.1303 25.5244 30.1966 25.5391 30.2606C25.5537 30.3247 25.5809 30.3852 25.6189 30.4387C25.6569 30.4922 25.7051 30.5378 25.7607 30.5727C25.8163 30.6076 25.8782 30.6311 25.9429 30.6421C26.0076 30.653 26.0739 30.6511 26.1378 30.6364C26.2018 30.6217 26.2622 30.5946 26.3157 30.5565C26.3692 30.5185 26.4147 30.4703 26.4495 30.4146C26.4844 30.359 26.508 30.297 26.5189 30.2322C26.5339 30.1432 26.5539 30.0206 26.0733 29.9403C25.9841 29.924 25.8938 29.9151 25.8032 29.9136C25.5591 29.9116 25.5428 30.0076 25.5334 30.0649V30.0656ZM38.4989 30.1589C39.9283 29.9813 42.9753 29.5589 44.2545 29.0379C45.358 28.6663 46.4871 28.3755 47.6328 28.1679H39.1623C39.012 28.8529 38.7896 29.52 38.4989 30.1582V30.1589ZM26.6901 29.0379C27.9973 29.5696 31.1817 29.9836 32.5802 30.1462C32.2865 29.5132 32.0631 28.8497 31.9141 28.1679H23.3118C24.4574 28.3753 25.5865 28.6659 26.6901 29.0373V29.0379ZM34.8182 28.1903L33.3718 27.5612L33.6982 26.8099L35.1446 27.4389C35.2899 27.5027 35.4477 27.5329 35.6063 27.5272C35.7649 27.5214 35.9201 27.4798 36.0604 27.4056L37.3473 26.7312L37.7273 27.4569L36.4407 28.1313C36.1921 28.2625 35.9171 28.3359 35.6362 28.3461C35.3553 28.3563 35.0757 28.3031 34.8182 28.1903V28.1903ZM35.339 16.6672C32.5796 16.6802 29.9057 17.6268 27.7518 19.3532C25.5979 21.0796 24.0906 23.4843 23.4749 26.1766L22.1761 25.8865C22.85 22.8653 24.5408 20.1677 26.9653 18.2456C29.3897 16.3235 32.4005 15.2938 35.4932 15.329C38.5858 15.3642 41.5725 16.462 43.9527 18.4387C46.3329 20.4154 47.9621 23.1508 48.5673 26.1866L47.2608 26.4465C46.7054 23.6903 45.2151 21.2111 43.0424 19.4289C40.8697 17.6466 38.1482 16.6709 35.339 16.6672Z"/>
</mask>
<path d="M49.1884 44.4719L43.9361 39.2143C42.1172 40.7299 39.9313 41.7389 37.5987 42.1396C35.2661 42.5404 32.8692 42.3187 30.6494 41.4969C28.4297 40.6751 26.4655 39.2823 24.9549 37.4587C23.4443 35.6352 22.4406 33.4453 22.0449 31.1099L23.358 30.8865C23.8335 33.6756 25.2653 36.2116 27.4071 38.0583C29.5489 39.9049 32.2667 40.9467 35.093 41.0043C37.9193 41.062 40.6773 40.1319 42.8925 38.3742C45.1077 36.6164 46.6415 34.1409 47.2301 31.3735L48.5326 31.6509C47.9941 34.1736 46.7398 36.4872 44.9202 38.3142L50.1302 43.5295C50.1921 43.5914 50.2412 43.665 50.2746 43.7458C50.3081 43.8267 50.3254 43.9134 50.3254 44.001C50.3254 44.0885 50.3082 44.1752 50.2747 44.2561C50.2413 44.337 50.1922 44.4105 50.1304 44.4724C50.0685 44.5343 49.9951 44.5834 49.9143 44.6169C49.8335 44.6505 49.7469 44.6677 49.6594 44.6677C49.572 44.6677 49.4853 44.6505 49.4045 44.617C49.3237 44.5835 49.2503 44.5345 49.1884 44.4726V44.4719ZM33.185 31.1459C33.1786 31.1379 33.174 31.1292 33.168 31.1212L33.1583 31.2152C31.2616 31.026 29.377 30.7303 27.5133 30.3296C27.5103 30.3522 27.5073 30.3745 27.504 30.3942C27.4726 30.5894 27.4029 30.7764 27.299 30.9446C27.1951 31.1127 27.059 31.2586 26.8986 31.3739C26.7382 31.4892 26.5566 31.5716 26.3642 31.6164C26.1718 31.6613 25.9725 31.6676 25.7777 31.6351C25.5828 31.6025 25.3964 31.5317 25.229 31.4267C25.0616 31.3218 24.9166 31.1848 24.8023 31.0236C24.6879 30.8624 24.6066 30.6802 24.5629 30.4874C24.5192 30.2946 24.514 30.095 24.5477 29.9002C24.5724 29.7576 24.6211 29.6202 24.6919 29.4939C22.0469 28.8605 17.7094 28.1695 17.6548 28.1605L17.733 27.1669H31.7153C31.4488 25.2462 32.9562 24.1649 34.7099 23.9156L34.9261 20.0823L35.9212 20.0529L36.3655 23.8862L36.2189 23.9032C38.0293 24.1269 39.6262 25.2193 39.3585 27.1659H53.2128L53.2914 28.1596C53.2361 28.1686 48.8933 28.8619 46.249 29.4929C46.322 29.6182 46.3722 29.7555 46.3975 29.8983C46.4334 30.094 46.43 30.2949 46.3875 30.4892C46.345 30.6836 46.2643 30.8676 46.1501 31.0304C46.0358 31.1933 45.8904 31.3318 45.7222 31.4379C45.5539 31.5439 45.3663 31.6154 45.1702 31.6482C44.9742 31.681 44.7735 31.6743 44.58 31.6287C44.3865 31.5831 44.204 31.4994 44.0431 31.3826C43.8822 31.2657 43.7462 31.1179 43.6429 30.9479C43.5396 30.7779 43.4711 30.589 43.4415 30.3922C43.4379 30.3706 43.4415 30.3506 43.4382 30.3293C41.5906 30.7356 39.7221 31.0398 37.8412 31.2405V31.2349C37.3488 31.8715 36.6926 32.3619 35.9429 32.6536C35.826 32.6987 35.7017 32.7213 35.5765 32.7202C34.6916 32.7229 33.6209 31.7146 33.185 31.1459ZM33.0085 25.7792C32.8572 25.9699 32.7523 26.1932 32.702 26.4314C32.6517 26.6696 32.6574 26.9163 32.7187 27.1519C32.9478 28.3566 33.2586 29.6006 33.9773 30.5373C34.4282 31.1246 35.2338 31.7232 35.5758 31.7232C37.2906 31.0502 37.9278 29.4085 38.3567 27.1515C38.4147 26.9238 38.4202 26.6859 38.373 26.4558C38.3257 26.2256 38.2269 26.0093 38.0839 25.8229C37.6447 25.2702 36.7308 24.9022 35.6997 24.8629C35.6381 24.8602 35.5765 24.8592 35.5152 24.8592C34.4379 24.8589 33.4777 25.2112 33.0078 25.7789L33.0085 25.7792ZM44.8719 29.9385C44.7212 29.9504 44.5762 30.0012 44.451 30.0859C44.431 30.1039 44.4076 30.1235 44.4256 30.2305C44.4477 30.3613 44.5208 30.478 44.6288 30.5548C44.7369 30.6317 44.8709 30.6625 45.0016 30.6404C45.1323 30.6183 45.2489 30.5451 45.3256 30.437C45.4024 30.3289 45.4332 30.1947 45.4111 30.0639C45.3941 29.9639 45.3668 29.9526 45.3348 29.9403C45.2704 29.9189 45.2027 29.9095 45.135 29.9123C45.0467 29.9137 44.9587 29.9224 44.8719 29.9382V29.9385ZM25.5334 30.0656C25.5225 30.1303 25.5244 30.1966 25.5391 30.2606C25.5537 30.3247 25.5809 30.3852 25.6189 30.4387C25.6569 30.4922 25.7051 30.5378 25.7607 30.5727C25.8163 30.6076 25.8782 30.6311 25.9429 30.6421C26.0076 30.653 26.0739 30.6511 26.1378 30.6364C26.2018 30.6217 26.2622 30.5946 26.3157 30.5565C26.3692 30.5185 26.4147 30.4703 26.4495 30.4146C26.4844 30.359 26.508 30.297 26.5189 30.2322C26.5339 30.1432 26.5539 30.0206 26.0733 29.9403C25.9841 29.924 25.8938 29.9151 25.8032 29.9136C25.5591 29.9116 25.5428 30.0076 25.5334 30.0649V30.0656ZM38.4989 30.1589C39.9283 29.9813 42.9753 29.5589 44.2545 29.0379C45.358 28.6663 46.4871 28.3755 47.6328 28.1679H39.1623C39.012 28.8529 38.7896 29.52 38.4989 30.1582V30.1589ZM26.6901 29.0379C27.9973 29.5696 31.1817 29.9836 32.5802 30.1462C32.2865 29.5132 32.0631 28.8497 31.9141 28.1679H23.3118C24.4574 28.3753 25.5865 28.6659 26.6901 29.0373V29.0379ZM34.8182 28.1903L33.3718 27.5612L33.6982 26.8099L35.1446 27.4389C35.2899 27.5027 35.4477 27.5329 35.6063 27.5272C35.7649 27.5214 35.9201 27.4798 36.0604 27.4056L37.3473 26.7312L37.7273 27.4569L36.4407 28.1313C36.1921 28.2625 35.9171 28.3359 35.6362 28.3461C35.3553 28.3563 35.0757 28.3031 34.8182 28.1903V28.1903ZM35.339 16.6672C32.5796 16.6802 29.9057 17.6268 27.7518 19.3532C25.5979 21.0796 24.0906 23.4843 23.4749 26.1766L22.1761 25.8865C22.85 22.8653 24.5408 20.1677 26.9653 18.2456C29.3897 16.3235 32.4005 15.2938 35.4932 15.329C38.5858 15.3642 41.5725 16.462 43.9527 18.4387C46.3329 20.4154 47.9621 23.1508 48.5673 26.1866L47.2608 26.4465C46.7054 23.6903 45.2151 21.2111 43.0424 19.4289C40.8697 17.6466 38.1482 16.6709 35.339 16.6672Z" fill="#B4B4B4"/>
<path d="M49.1884 44.4719L43.9361 39.2143C42.1172 40.7299 39.9313 41.7389 37.5987 42.1396C35.2661 42.5404 32.8692 42.3187 30.6494 41.4969C28.4297 40.6751 26.4655 39.2823 24.9549 37.4587C23.4443 35.6352 22.4406 33.4453 22.0449 31.1099L23.358 30.8865C23.8335 33.6756 25.2653 36.2116 27.4071 38.0583C29.5489 39.9049 32.2667 40.9467 35.093 41.0043C37.9193 41.062 40.6773 40.1319 42.8925 38.3742C45.1077 36.6164 46.6415 34.1409 47.2301 31.3735L48.5326 31.6509C47.9941 34.1736 46.7398 36.4872 44.9202 38.3142L50.1302 43.5295C50.1921 43.5914 50.2412 43.665 50.2746 43.7458C50.3081 43.8267 50.3254 43.9134 50.3254 44.001C50.3254 44.0885 50.3082 44.1752 50.2747 44.2561C50.2413 44.337 50.1922 44.4105 50.1304 44.4724C50.0685 44.5343 49.9951 44.5834 49.9143 44.6169C49.8335 44.6505 49.7469 44.6677 49.6594 44.6677C49.572 44.6677 49.4853 44.6505 49.4045 44.617C49.3237 44.5835 49.2503 44.5345 49.1884 44.4726V44.4719ZM33.185 31.1459C33.1786 31.1379 33.174 31.1292 33.168 31.1212L33.1583 31.2152C31.2616 31.026 29.377 30.7303 27.5133 30.3296C27.5103 30.3522 27.5073 30.3745 27.504 30.3942C27.4726 30.5894 27.4029 30.7764 27.299 30.9446C27.1951 31.1127 27.059 31.2586 26.8986 31.3739C26.7382 31.4892 26.5566 31.5716 26.3642 31.6164C26.1718 31.6613 25.9725 31.6676 25.7777 31.6351C25.5828 31.6025 25.3964 31.5317 25.229 31.4267C25.0616 31.3218 24.9166 31.1848 24.8023 31.0236C24.6879 30.8624 24.6066 30.6802 24.5629 30.4874C24.5192 30.2946 24.514 30.095 24.5477 29.9002C24.5724 29.7576 24.6211 29.6202 24.6919 29.4939C22.0469 28.8605 17.7094 28.1695 17.6548 28.1605L17.733 27.1669H31.7153C31.4488 25.2462 32.9562 24.1649 34.7099 23.9156L34.9261 20.0823L35.9212 20.0529L36.3655 23.8862L36.2189 23.9032C38.0293 24.1269 39.6262 25.2193 39.3585 27.1659H53.2128L53.2914 28.1596C53.2361 28.1686 48.8933 28.8619 46.249 29.4929C46.322 29.6182 46.3722 29.7555 46.3975 29.8983C46.4334 30.094 46.43 30.2949 46.3875 30.4892C46.345 30.6836 46.2643 30.8676 46.1501 31.0304C46.0358 31.1933 45.8904 31.3318 45.7222 31.4379C45.5539 31.5439 45.3663 31.6154 45.1702 31.6482C44.9742 31.681 44.7735 31.6743 44.58 31.6287C44.3865 31.5831 44.204 31.4994 44.0431 31.3826C43.8822 31.2657 43.7462 31.1179 43.6429 30.9479C43.5396 30.7779 43.4711 30.589 43.4415 30.3922C43.4379 30.3706 43.4415 30.3506 43.4382 30.3293C41.5906 30.7356 39.7221 31.0398 37.8412 31.2405V31.2349C37.3488 31.8715 36.6926 32.3619 35.9429 32.6536C35.826 32.6987 35.7017 32.7213 35.5765 32.7202C34.6916 32.7229 33.6209 31.7146 33.185 31.1459ZM33.0085 25.7792C32.8572 25.9699 32.7523 26.1932 32.702 26.4314C32.6517 26.6696 32.6574 26.9163 32.7187 27.1519C32.9478 28.3566 33.2586 29.6006 33.9773 30.5373C34.4282 31.1246 35.2338 31.7232 35.5758 31.7232C37.2906 31.0502 37.9278 29.4085 38.3567 27.1515C38.4147 26.9238 38.4202 26.6859 38.373 26.4558C38.3257 26.2256 38.2269 26.0093 38.0839 25.8229C37.6447 25.2702 36.7308 24.9022 35.6997 24.8629C35.6381 24.8602 35.5765 24.8592 35.5152 24.8592C34.4379 24.8589 33.4777 25.2112 33.0078 25.7789L33.0085 25.7792ZM44.8719 29.9385C44.7212 29.9504 44.5762 30.0012 44.451 30.0859C44.431 30.1039 44.4076 30.1235 44.4256 30.2305C44.4477 30.3613 44.5208 30.478 44.6288 30.5548C44.7369 30.6317 44.8709 30.6625 45.0016 30.6404C45.1323 30.6183 45.2489 30.5451 45.3256 30.437C45.4024 30.3289 45.4332 30.1947 45.4111 30.0639C45.3941 29.9639 45.3668 29.9526 45.3348 29.9403C45.2704 29.9189 45.2027 29.9095 45.135 29.9123C45.0467 29.9137 44.9587 29.9224 44.8719 29.9382V29.9385ZM25.5334 30.0656C25.5225 30.1303 25.5244 30.1966 25.5391 30.2606C25.5537 30.3247 25.5809 30.3852 25.6189 30.4387C25.6569 30.4922 25.7051 30.5378 25.7607 30.5727C25.8163 30.6076 25.8782 30.6311 25.9429 30.6421C26.0076 30.653 26.0739 30.6511 26.1378 30.6364C26.2018 30.6217 26.2622 30.5946 26.3157 30.5565C26.3692 30.5185 26.4147 30.4703 26.4495 30.4146C26.4844 30.359 26.508 30.297 26.5189 30.2322C26.5339 30.1432 26.5539 30.0206 26.0733 29.9403C25.9841 29.924 25.8938 29.9151 25.8032 29.9136C25.5591 29.9116 25.5428 30.0076 25.5334 30.0649V30.0656ZM38.4989 30.1589C39.9283 29.9813 42.9753 29.5589 44.2545 29.0379C45.358 28.6663 46.4871 28.3755 47.6328 28.1679H39.1623C39.012 28.8529 38.7896 29.52 38.4989 30.1582V30.1589ZM26.6901 29.0379C27.9973 29.5696 31.1817 29.9836 32.5802 30.1462C32.2865 29.5132 32.0631 28.8497 31.9141 28.1679H23.3118C24.4574 28.3753 25.5865 28.6659 26.6901 29.0373V29.0379ZM34.8182 28.1903L33.3718 27.5612L33.6982 26.8099L35.1446 27.4389C35.2899 27.5027 35.4477 27.5329 35.6063 27.5272C35.7649 27.5214 35.9201 27.4798 36.0604 27.4056L37.3473 26.7312L37.7273 27.4569L36.4407 28.1313C36.1921 28.2625 35.9171 28.3359 35.6362 28.3461C35.3553 28.3563 35.0757 28.3031 34.8182 28.1903V28.1903ZM35.339 16.6672C32.5796 16.6802 29.9057 17.6268 27.7518 19.3532C25.5979 21.0796 24.0906 23.4843 23.4749 26.1766L22.1761 25.8865C22.85 22.8653 24.5408 20.1677 26.9653 18.2456C29.3897 16.3235 32.4005 15.2938 35.4932 15.329C38.5858 15.3642 41.5725 16.462 43.9527 18.4387C46.3329 20.4154 47.9621 23.1508 48.5673 26.1866L47.2608 26.4465C46.7054 23.6903 45.2151 21.2111 43.0424 19.4289C40.8697 17.6466 38.1482 16.6709 35.339 16.6672Z" stroke="white" stroke-width="8" mask="url(#path-2-outside-1)"/>
</svg>
