<svg width="23" height="24" viewBox="0 0 23 24" fill="none" xmlns="http://www.w3.org/2000/svg">
<path d="M18.9516 1.05461V1.00024H18.3855C18.3352 0.996012 18.2846 0.996012 18.2343 1.00024H5.35572C4.07903 0.999977 2.85439 1.50664 1.95054 2.4091C1.0467 3.31156 0.537491 4.53607 0.534668 5.81388V22.1576C0.535283 22.3992 0.611021 22.6347 0.751374 22.8314C0.891726 23.028 1.08973 23.1761 1.31795 23.255C1.54616 23.334 1.79327 23.3399 2.02499 23.272C2.25671 23.204 2.46157 23.0656 2.61115 22.8759L8.18986 15.8013L13.8588 22.8939C13.9668 23.0305 14.1043 23.141 14.261 23.2169C14.4177 23.2928 14.5896 23.3323 14.7637 23.3323C14.896 23.3321 15.0272 23.3095 15.152 23.2655C15.3804 23.1881 15.5785 23.0406 15.7183 22.844C15.8581 22.6474 15.9324 22.4116 15.9306 22.1702V7.69662H22.1821V4.86328C22.1814 3.94838 21.8563 3.06343 21.2647 2.36597C20.6732 1.66851 19.8535 1.2038 18.9516 1.05461V1.05461ZM15.9306 4.86328C15.935 4.24699 16.177 3.65612 16.6062 3.21419C17.0354 2.77226 17.6186 2.51344 18.2339 2.49162H18.3738C18.9911 2.51097 19.577 2.76866 20.0087 3.21078C20.4403 3.65289 20.6843 4.24513 20.6894 4.86328V6.20622H15.9303L15.9306 4.86328ZM14.5192 4.07528H14.4376V21.2286L8.18187 13.4002L2.02734 21.2049V5.81258C2.02946 4.93059 2.38105 4.0855 3.00496 3.46265C3.62888 2.8398 4.47418 2.49006 5.35538 2.49024H15.2509C14.8882 2.95509 14.6377 3.49757 14.5189 4.07528H14.5192Z" fill="#B4B4B4"/>
</svg>
