<svg width="374" height="223" viewBox="0 0 374 223" fill="none" xmlns="http://www.w3.org/2000/svg">
<g filter="url(#filter0_d)">
<path d="M361.689 192.567V25.0667C361.689 24.6333 361.389 24.2333 360.99 24.1C354.329 22.0667 349.4 16.1333 348.867 8.93333C348.834 8.4 348.401 8 347.868 8L26.6203 8C26.0875 8 25.6545 8.4 25.6212 8.93333C25.0551 16.3667 19.7598 22.5 12.766 24.3C12.2997 24.4 12 24.8 12 25.2667V192.333C12 192.8 12.2997 193.2 12.7327 193.3C18.7607 194.833 23.4898 199.567 25.0884 205.567C25.1883 206 25.5879 206.3 26.0542 206.3H348.401C348.867 206.3 349.267 206 349.367 205.567C350.865 199.8 355.295 195.2 360.99 193.5C361.389 193.4 361.689 193 361.689 192.567Z" fill="#F5F5F5"/>
<path d="M348.368 8.96449L348.369 8.97024C348.917 16.3778 353.986 22.4816 360.837 24.576C361.035 24.6449 361.189 24.8559 361.189 25.0667V192.567C361.189 192.788 361.03 192.975 360.868 193.015L360.857 193.018L360.847 193.021C354.984 194.771 350.425 199.506 348.883 205.441L348.88 205.454C348.836 205.641 348.655 205.8 348.401 205.8H26.0542C25.7998 205.8 25.6186 205.641 25.5756 205.454L25.5737 205.446L25.5715 205.438C23.9269 199.265 19.0618 194.394 12.8559 192.815L12.856 192.815L12.8452 192.813C12.6595 192.77 12.5 192.589 12.5 192.333V25.2667C12.5 25.0206 12.6496 24.8363 12.8708 24.7889L12.8808 24.7868L12.8906 24.7842C20.0888 22.9316 25.5371 16.6211 26.1198 8.97131L26.1198 8.97131L26.1203 8.96449C26.1368 8.69879 26.3474 8.5 26.6203 8.5H347.868C348.141 8.5 348.352 8.6988 348.368 8.96449Z" stroke="#E0E0E0"/>
</g>
<defs>
<filter id="filter0_d" x="0" y="0" width="373.689" height="222.3" filterUnits="userSpaceOnUse" color-interpolation-filters="sRGB">
<feFlood flood-opacity="0" result="BackgroundImageFix"/>
<feColorMatrix in="SourceAlpha" type="matrix" values="0 0 0 0 0 0 0 0 0 0 0 0 0 0 0 0 0 0 127 0"/>
<feOffset dy="4"/>
<feGaussianBlur stdDeviation="6"/>
<feColorMatrix type="matrix" values="0 0 0 0 0 0 0 0 0 0 0 0 0 0 0 0 0 0 0.08 0"/>
<feBlend mode="normal" in2="BackgroundImageFix" result="effect1_dropShadow"/>
<feBlend mode="normal" in="SourceGraphic" in2="effect1_dropShadow" result="shape"/>
</filter>
</defs>
</svg>
