<svg width="10" height="12" viewBox="0 0 10 12" fill="none" xmlns="http://www.w3.org/2000/svg">
<path d="M2.17308 11.563C1.84567 11.4445 1.53282 11.289 1.24058 11.0996C1.12083 11.0277 1.02448 10.9226 0.963182 10.797C0.901887 10.6714 0.878287 10.5307 0.895228 10.392C0.928532 9.99597 0.945513 9.59597 1.01379 9.2053C1.13349 8.54887 1.49682 7.96206 2.03088 7.56264C2.35392 7.30731 2.68519 7.0622 3.02466 6.82731C3.06325 6.80676 3.10593 6.79507 3.1496 6.79311C3.19327 6.79115 3.23683 6.79897 3.2771 6.81598C3.87301 7.15143 4.54518 7.32764 5.22887 7.32764C5.91256 7.32764 6.58473 7.15143 7.18063 6.81598C7.22111 6.7994 7.26476 6.79205 7.30843 6.79447C7.3521 6.7969 7.39468 6.80902 7.43307 6.82998C7.77111 7.06531 8.09915 7.31331 8.42719 7.56331C9.24946 8.19665 9.50323 9.07764 9.55452 10.0486C9.59515 10.812 9.42996 11.0913 8.70894 11.407C7.94656 11.7104 7.14046 11.8893 6.3214 11.937C5.9534 11.9703 5.58306 11.9833 5.30331 12C4.24399 12.011 3.18896 11.8637 2.17308 11.563ZM5.20372 6.62463C4.39577 6.62282 3.62158 6.30007 3.05123 5.72729C2.48088 5.15452 2.16103 4.37858 2.16193 3.56991C2.16284 2.76123 2.48443 1.98599 3.05606 1.41449C3.62769 0.842992 4.4026 0.521973 5.21055 0.521973C6.01851 0.521973 6.79342 0.842992 7.36505 1.41449C7.93668 1.98599 8.25827 2.76123 8.25917 3.56991C8.26008 4.37858 7.94022 5.15452 7.36987 5.72729C6.79952 6.30007 6.02533 6.62282 5.21738 6.62463H5.20372Z" fill="#EFB5BB"/>
</svg>
