<svg width="23" height="23" viewBox="0 0 23 23" fill="none" xmlns="http://www.w3.org/2000/svg">
<mask id="path-1-inside-1" fill="white">
<path d="M9.35688 22.3332L9.3136 22.3109C9.26864 22.2879 9.22167 22.2662 9.17205 22.2442C9.04788 22.1919 8.92966 22.1266 8.81937 22.0492C8.64264 21.9219 8.49958 21.7534 8.40261 21.5583C8.30564 21.3632 8.25767 21.1474 8.26286 20.9296C8.26286 20.7536 8.26286 20.5742 8.26286 20.4012C8.26286 20.1176 8.26119 19.8242 8.26652 19.5345C8.26852 19.4295 8.25486 19.4219 8.18159 19.3982C7.95021 19.3205 7.72455 19.2267 7.50621 19.1175C7.44859 19.0895 7.44459 19.0906 7.39896 19.1376C7.09157 19.4539 6.78318 19.7615 6.41451 20.1258C6.28148 20.2647 6.12235 20.3759 5.94626 20.453C5.77017 20.5301 5.5806 20.5717 5.38842 20.5752C5.19927 20.5722 5.01258 20.5317 4.83915 20.4561C4.66572 20.3805 4.50898 20.2712 4.37799 20.1346C3.66296 19.4262 2.94592 18.7076 2.24388 17.9986C2.10425 17.8679 1.99309 17.7097 1.91737 17.534C1.84165 17.3584 1.80298 17.1689 1.80382 16.9776C1.80467 16.7862 1.845 16.5972 1.92227 16.4221C1.99954 16.2471 2.11208 16.09 2.25287 15.9606C2.55526 15.6546 2.89796 15.3075 3.23899 14.9745C3.28828 14.9262 3.28628 14.9219 3.25964 14.8666C3.15186 14.6417 3.05658 14.411 2.97423 14.1756C2.95358 14.1159 2.94958 14.1052 2.86499 14.1065C2.43205 14.1132 1.99345 14.1108 1.56882 14.1091H1.44926C1.26372 14.1123 1.07946 14.0779 0.907486 14.0082C0.735513 13.9384 0.579363 13.8346 0.448381 13.7031C0.317398 13.5715 0.21427 13.4148 0.145163 13.2424C0.0760561 13.0701 0.0423829 12.8856 0.0461708 12.6999C0.0445056 11.5889 0.0445056 10.5872 0.0461708 9.63754C0.0438252 9.45077 0.0786309 9.26538 0.148558 9.09221C0.218485 8.91904 0.322142 8.76151 0.453483 8.62883C0.725138 8.36582 1.08965 8.22096 1.46757 8.22583H1.70936C2.0797 8.22583 2.46301 8.22249 2.84168 8.22949C2.95058 8.23149 2.95625 8.21518 2.97856 8.14551C3.05598 7.91367 3.14958 7.68755 3.25865 7.46883C3.28729 7.41016 3.28663 7.40747 3.24001 7.36214C2.95559 7.08547 2.67184 6.79952 2.39808 6.52319L2.28317 6.40787C2.13375 6.27716 2.01383 6.11605 1.93138 5.93538C1.84892 5.75471 1.80582 5.55856 1.80494 5.35994C1.80406 5.16131 1.84543 4.96476 1.92627 4.78336C2.00712 4.60196 2.12561 4.43989 2.27386 4.30785C2.94427 3.63185 3.64164 2.9335 4.34602 2.23216C4.48 2.08904 4.64112 1.97407 4.81998 1.89394C4.99884 1.81382 5.19185 1.77019 5.38775 1.76553H5.38942C5.58479 1.77009 5.77732 1.8134 5.95581 1.89305C6.1343 1.9727 6.2952 2.08706 6.42917 2.22948L6.55672 2.35586C6.82981 2.62619 7.11256 2.90553 7.38398 3.1892C7.44127 3.24886 7.45058 3.25052 7.52152 3.21385C7.72785 3.10644 7.94315 3.0172 8.16495 2.94717C8.24288 2.9235 8.26885 2.9138 8.26485 2.78213C8.25553 2.3928 8.25819 1.99779 8.26052 1.61546V1.40517C8.25903 1.22169 8.29389 1.03969 8.36307 0.869771C8.43225 0.699849 8.53439 0.54536 8.66359 0.41518C8.79278 0.285001 8.94648 0.181764 9.11578 0.111387C9.28509 0.0410103 9.46663 0.00491518 9.64995 0.00518555C10.6401 0.00185221 11.6548 0.00185221 12.7529 0.00518555C12.9347 0.00408525 13.115 0.0389934 13.2833 0.107969C13.4516 0.176945 13.6046 0.278597 13.7334 0.407042C13.8623 0.535487 13.9645 0.688181 14.0341 0.856344C14.1037 1.02451 14.1393 1.20476 14.139 1.38678C14.142 1.82012 14.1446 2.32817 14.1373 2.82551C14.1373 2.90984 14.147 2.9138 14.2069 2.9348C14.4421 3.01721 14.6726 3.11263 14.8973 3.22053C14.9523 3.24686 14.9562 3.24879 15.0049 3.19912C15.3342 2.86079 15.6709 2.52549 15.9897 2.21149C16.1191 2.07078 16.2762 1.95835 16.4512 1.88125C16.6261 1.80414 16.815 1.76404 17.0061 1.76341C17.1972 1.76278 17.3865 1.80163 17.5619 1.87759C17.7373 1.95355 17.8951 2.06496 18.0255 2.20482C18.7499 2.92149 19.4686 3.63816 20.1606 4.33983C20.2986 4.46949 20.4087 4.62605 20.484 4.79988C20.5594 4.9737 20.5984 5.16111 20.5986 5.35058C20.5989 5.54005 20.5603 5.72758 20.4855 5.90161C20.4106 6.07563 20.301 6.23244 20.1633 6.36246C19.8672 6.66446 19.5222 7.01486 19.1755 7.34953C19.1162 7.40686 19.1145 7.41615 19.1508 7.48681C19.2585 7.69319 19.3476 7.90875 19.4173 8.13086C19.4409 8.20853 19.4486 8.23454 19.5821 8.23088C19.9005 8.22288 20.2225 8.22449 20.5339 8.22616H20.8923C21.2057 8.20874 21.5157 8.29812 21.7718 8.47974C22.0278 8.66135 22.2149 8.92447 22.3024 9.22616L22.3074 9.23316C22.3147 9.24349 22.322 9.25419 22.3287 9.26652L22.3586 9.31519V13.0278L22.3284 13.0768C22.3217 13.0875 22.3144 13.0982 22.3071 13.1102L22.3021 13.1172C22.2137 13.4182 22.0264 13.6806 21.7705 13.8618C21.5145 14.0429 21.205 14.1322 20.892 14.1152H20.5439C20.2156 14.1152 19.8755 14.1172 19.5408 14.1118C19.4556 14.1118 19.4519 14.1212 19.4313 14.1805C19.349 14.416 19.2537 14.6467 19.1458 14.8715C19.1182 14.9292 19.1192 14.9332 19.1665 14.9795C19.4266 15.2328 19.6864 15.4939 19.9371 15.7462L20.1233 15.9335C20.2733 16.064 20.3936 16.225 20.4763 16.4058C20.559 16.5866 20.6022 16.783 20.603 16.9818C20.6037 17.1806 20.5619 17.3773 20.4806 17.5587C20.3992 17.7401 20.28 17.902 20.131 18.0336C19.4316 18.7356 18.7355 19.4335 18.0581 20.1085C17.927 20.255 17.7665 20.3722 17.5872 20.4525C17.4078 20.5328 17.2136 20.5745 17.0171 20.5748C16.8206 20.5751 16.6262 20.5339 16.4466 20.4541C16.2671 20.3743 16.1062 20.2576 15.9747 20.1115L15.8225 19.9602C15.553 19.6936 15.2746 19.4165 15.0049 19.1395C14.9599 19.0932 14.9559 19.0926 14.8983 19.1206C14.68 19.2284 14.4551 19.3221 14.2249 19.4012C14.1426 19.4289 14.138 19.4402 14.1396 19.5169C14.1466 19.9139 14.1446 20.3168 14.1433 20.7062C14.1433 20.7893 14.1433 20.8724 14.1433 20.9555C14.1454 21.1736 14.0942 21.389 13.9942 21.5827C13.8941 21.7765 13.7482 21.9428 13.5691 22.0672C13.4623 22.1403 13.3483 22.2022 13.2288 22.2519C13.1808 22.2739 13.1359 22.2942 13.0926 22.3159L13.0496 22.3375L9.35688 22.3332ZM8.01341 17.7665C8.23721 17.8625 8.47967 17.9625 8.79772 18.0908C9.06373 18.1915 9.29226 18.3718 9.45221 18.6072C9.61216 18.8426 9.69573 19.1216 9.69158 19.4062C9.69158 19.6999 9.69158 19.9989 9.69158 20.2872C9.69158 20.4432 9.69158 20.5996 9.69158 20.7559C9.69158 20.8196 9.69158 20.8668 9.69591 20.8972C9.72422 20.8995 9.76753 20.9012 9.82548 20.9012H12.5847C12.6245 20.9018 12.6643 20.9002 12.7039 20.8965C12.7079 20.8532 12.7096 20.8097 12.7089 20.7662C12.7089 20.6116 12.7089 20.4575 12.7089 20.3029C12.7089 20.0052 12.7089 19.6972 12.7106 19.3938C12.709 19.1095 12.7951 18.8317 12.9569 18.598C13.1187 18.3643 13.3486 18.1862 13.6151 18.0878L13.6268 18.0835C13.8619 17.9905 14.105 17.8939 14.3381 17.7912C14.6089 17.6549 14.9166 17.6104 15.2148 17.6645C15.5131 17.7186 15.7856 17.8684 15.9913 18.0912L16.0246 18.1245C16.338 18.4359 16.6621 18.7579 16.9764 19.0802C16.9872 19.0915 16.9989 19.1019 17.0114 19.1112C17.0254 19.1013 17.0384 19.0901 17.0504 19.0778C17.8523 18.2705 18.5021 17.6212 19.0952 17.0339C19.1113 17.0189 19.1255 17.002 19.1375 16.9835C19.124 16.9631 19.108 16.9444 19.0899 16.9278C18.7862 16.6332 18.4571 16.3059 18.0868 15.9262C17.8847 15.7264 17.7485 15.4695 17.6966 15.19C17.6447 14.9104 17.6795 14.6216 17.7964 14.3625C17.9153 14.0835 18.0215 13.8268 18.1214 13.5778C18.2206 13.3109 18.3997 13.0813 18.6343 12.9202C18.8689 12.7591 19.1475 12.6744 19.4319 12.6778C19.673 12.6778 19.9178 12.6778 20.1546 12.6778C20.3842 12.6778 20.614 12.6778 20.844 12.6778C20.8715 12.6781 20.8989 12.6768 20.9263 12.6742C20.9291 12.6466 20.9303 12.6189 20.9299 12.5912C20.9299 11.6338 20.9299 10.6758 20.9299 9.74382C20.9302 9.71666 20.929 9.68955 20.9263 9.66252C20.9096 9.66085 20.883 9.65887 20.8417 9.65853C20.6565 9.65853 20.4684 9.65853 20.2862 9.65853C20.0051 9.65853 19.7144 9.6585 19.4279 9.6565C19.144 9.65763 18.8665 9.57145 18.633 9.40959C18.3996 9.24773 18.2215 9.01797 18.1227 8.75147L18.1118 8.72347C18.0175 8.48747 17.9206 8.24282 17.8177 8.00749C17.6881 7.74164 17.6467 7.44134 17.6995 7.15031C17.7524 6.85927 17.8967 6.5927 18.1114 6.38948L18.185 6.31518C18.4821 6.01518 18.7892 5.70248 19.1002 5.40315C19.1165 5.38818 19.131 5.37144 19.1435 5.35318C19.1305 5.33386 19.1153 5.31602 19.0982 5.30012C18.4451 4.65412 17.7624 3.97118 17.0694 3.26984C17.053 3.25228 17.0346 3.23685 17.0144 3.22386C16.9958 3.23631 16.9788 3.25093 16.9638 3.26748C16.664 3.57815 16.3074 3.9415 15.944 4.28751C15.7504 4.48391 15.5018 4.61687 15.231 4.66877C14.9603 4.72068 14.6801 4.6891 14.4277 4.5782C14.1893 4.48586 13.8762 4.36181 13.5698 4.22281C13.3138 4.12064 13.0948 3.94292 12.9422 3.7132C12.7895 3.48348 12.7104 3.21268 12.7152 2.93683C12.7116 2.6415 12.7122 2.34181 12.7132 2.05247C12.7132 1.87547 12.7132 1.69846 12.7132 1.52179C12.7135 1.49264 12.7123 1.4635 12.7096 1.43447C12.6837 1.43198 12.6577 1.43086 12.6316 1.43113H11.6392C11.0247 1.43113 10.3893 1.43111 9.76419 1.42845C9.74114 1.42747 9.71807 1.42961 9.69559 1.4348C9.69064 1.45789 9.68873 1.4816 9.68992 1.50519C9.69624 1.91219 9.69426 2.32518 9.6926 2.72451V2.92186C9.69686 3.20635 9.61364 3.48528 9.45423 3.72085C9.29481 3.95643 9.06691 4.13724 8.80138 4.23884L8.60157 4.31851C8.42772 4.38818 8.24821 4.45979 8.07537 4.53612C7.86856 4.63223 7.64394 4.68392 7.41596 4.68782C7.2253 4.6838 7.03741 4.64127 6.86359 4.56273C6.68978 4.4842 6.53362 4.37134 6.40451 4.23087L6.30826 4.13549C6.02018 3.84982 5.72247 3.5548 5.43505 3.2578C5.42225 3.24405 5.40808 3.23171 5.39275 3.22085C5.37587 3.23254 5.36024 3.2459 5.34612 3.26081C4.69337 3.91981 4.00565 4.60783 3.30194 5.30549C3.28859 5.31838 3.27655 5.33255 3.26598 5.34781C3.27801 5.36543 3.29198 5.38165 3.30761 5.39615C3.65464 5.73515 3.99366 6.06817 4.32536 6.4165C4.52487 6.61254 4.65945 6.86516 4.71091 7.14022C4.76237 7.41527 4.72824 7.6995 4.61311 7.95451C4.54651 8.12384 4.47523 8.29383 4.40696 8.4585C4.36411 8.56072 4.32159 8.66331 4.27941 8.7662C4.17666 9.03126 3.99522 9.25845 3.75954 9.41716C3.52386 9.57587 3.24526 9.65842 2.96124 9.65381H2.73677C2.34645 9.65548 1.94315 9.65721 1.54551 9.65121C1.52317 9.65023 1.50079 9.65198 1.4789 9.6565C1.47398 9.67971 1.47207 9.70344 1.47323 9.72714C1.47822 10.0695 1.47757 10.4165 1.47623 10.7525C1.47623 10.8901 1.47623 11.0276 1.47623 11.1649C1.47623 11.3022 1.47623 11.4396 1.47623 11.5772C1.47623 11.9128 1.47822 12.2602 1.47323 12.6026C1.47208 12.6267 1.4741 12.6509 1.47922 12.6745C1.5011 12.6791 1.52349 12.681 1.54583 12.6799C1.92583 12.6742 2.31182 12.6755 2.68449 12.6769H2.96159C3.24939 12.6722 3.53153 12.7571 3.76908 12.9198C4.00662 13.0825 4.18785 13.315 4.28774 13.5852C4.39031 13.8449 4.48355 14.0782 4.5848 14.3089C4.71948 14.5805 4.7624 14.8886 4.70708 15.1868C4.65177 15.485 4.5012 15.757 4.27806 15.9622C4.09623 16.1458 3.91174 16.3315 3.7309 16.5108C3.59547 16.646 3.46012 16.7813 3.32491 16.9169C3.29627 16.9452 3.27829 16.9659 3.26663 16.9795C3.27729 16.9925 3.29396 17.0105 3.31894 17.0352C3.992 17.7109 4.66872 18.3885 5.3298 19.0492C5.35811 19.0772 5.37743 19.0949 5.39109 19.1059C5.40441 19.0949 5.42439 19.0775 5.45103 19.0502C5.57581 18.9259 5.70014 18.8013 5.82403 18.6762C6.02885 18.4706 6.24 18.2579 6.45181 18.0509C6.71004 17.7902 7.06115 17.6428 7.42793 17.6412C7.62956 17.6429 7.82874 17.6855 8.01341 17.7665ZM11.1953 15.6495C10.4585 15.6473 9.73376 15.4632 9.08509 15.1136C8.43642 14.7641 7.88389 14.2598 7.47645 13.6454C7.06901 13.0311 6.81922 12.3257 6.74921 11.5916C6.67921 10.8576 6.79115 10.1176 7.07512 9.43718C7.35908 8.75678 7.80632 8.157 8.3772 7.69092C8.94808 7.22483 9.625 6.90684 10.348 6.76513C11.071 6.62342 11.8177 6.66237 12.5221 6.8785C13.2264 7.09462 13.8667 7.48122 14.3861 8.00415C14.801 8.42453 15.1291 8.9227 15.3516 9.47006C15.5742 10.0174 15.6867 10.6033 15.6829 11.1942C15.6832 11.7808 15.5668 12.3616 15.3406 12.9028C15.1143 13.4439 14.7827 13.9346 14.3651 14.3462C13.9487 14.7612 13.4546 15.0899 12.911 15.3135C12.3675 15.5371 11.7852 15.6512 11.1976 15.6492L11.1953 15.6495ZM8.15196 11.1552C8.15036 11.9647 8.46955 12.7419 9.03953 13.3163C9.60952 13.8906 10.3838 14.2153 11.1926 14.2192H11.2036C12.0127 14.2203 12.7892 13.8997 13.3622 13.3278C13.9352 12.756 14.2577 11.9797 14.2589 11.1699C14.26 10.36 13.9397 9.58277 13.3683 9.00928C12.797 8.43579 12.0214 8.11297 11.2122 8.11182H11.2022C10.3951 8.11296 9.62122 8.4338 9.04968 9.00424C8.47813 9.57467 8.15539 10.3473 8.15196 11.1552Z"/>
</mask>
<path d="M9.35688 22.3332L9.3136 22.3109C9.26864 22.2879 9.22167 22.2662 9.17205 22.2442C9.04788 22.1919 8.92966 22.1266 8.81937 22.0492C8.64264 21.9219 8.49958 21.7534 8.40261 21.5583C8.30564 21.3632 8.25767 21.1474 8.26286 20.9296C8.26286 20.7536 8.26286 20.5742 8.26286 20.4012C8.26286 20.1176 8.26119 19.8242 8.26652 19.5345C8.26852 19.4295 8.25486 19.4219 8.18159 19.3982C7.95021 19.3205 7.72455 19.2267 7.50621 19.1175C7.44859 19.0895 7.44459 19.0906 7.39896 19.1376C7.09157 19.4539 6.78318 19.7615 6.41451 20.1258C6.28148 20.2647 6.12235 20.3759 5.94626 20.453C5.77017 20.5301 5.5806 20.5717 5.38842 20.5752C5.19927 20.5722 5.01258 20.5317 4.83915 20.4561C4.66572 20.3805 4.50898 20.2712 4.37799 20.1346C3.66296 19.4262 2.94592 18.7076 2.24388 17.9986C2.10425 17.8679 1.99309 17.7097 1.91737 17.534C1.84165 17.3584 1.80298 17.1689 1.80382 16.9776C1.80467 16.7862 1.845 16.5972 1.92227 16.4221C1.99954 16.2471 2.11208 16.09 2.25287 15.9606C2.55526 15.6546 2.89796 15.3075 3.23899 14.9745C3.28828 14.9262 3.28628 14.9219 3.25964 14.8666C3.15186 14.6417 3.05658 14.411 2.97423 14.1756C2.95358 14.1159 2.94958 14.1052 2.86499 14.1065C2.43205 14.1132 1.99345 14.1108 1.56882 14.1091H1.44926C1.26372 14.1123 1.07946 14.0779 0.907486 14.0082C0.735513 13.9384 0.579363 13.8346 0.448381 13.7031C0.317398 13.5715 0.21427 13.4148 0.145163 13.2424C0.0760561 13.0701 0.0423829 12.8856 0.0461708 12.6999C0.0445056 11.5889 0.0445056 10.5872 0.0461708 9.63754C0.0438252 9.45077 0.0786309 9.26538 0.148558 9.09221C0.218485 8.91904 0.322142 8.76151 0.453483 8.62883C0.725138 8.36582 1.08965 8.22096 1.46757 8.22583H1.70936C2.0797 8.22583 2.46301 8.22249 2.84168 8.22949C2.95058 8.23149 2.95625 8.21518 2.97856 8.14551C3.05598 7.91367 3.14958 7.68755 3.25865 7.46883C3.28729 7.41016 3.28663 7.40747 3.24001 7.36214C2.95559 7.08547 2.67184 6.79952 2.39808 6.52319L2.28317 6.40787C2.13375 6.27716 2.01383 6.11605 1.93138 5.93538C1.84892 5.75471 1.80582 5.55856 1.80494 5.35994C1.80406 5.16131 1.84543 4.96476 1.92627 4.78336C2.00712 4.60196 2.12561 4.43989 2.27386 4.30785C2.94427 3.63185 3.64164 2.9335 4.34602 2.23216C4.48 2.08904 4.64112 1.97407 4.81998 1.89394C4.99884 1.81382 5.19185 1.77019 5.38775 1.76553H5.38942C5.58479 1.77009 5.77732 1.8134 5.95581 1.89305C6.1343 1.9727 6.2952 2.08706 6.42917 2.22948L6.55672 2.35586C6.82981 2.62619 7.11256 2.90553 7.38398 3.1892C7.44127 3.24886 7.45058 3.25052 7.52152 3.21385C7.72785 3.10644 7.94315 3.0172 8.16495 2.94717C8.24288 2.9235 8.26885 2.9138 8.26485 2.78213C8.25553 2.3928 8.25819 1.99779 8.26052 1.61546V1.40517C8.25903 1.22169 8.29389 1.03969 8.36307 0.869771C8.43225 0.699849 8.53439 0.54536 8.66359 0.41518C8.79278 0.285001 8.94648 0.181764 9.11578 0.111387C9.28509 0.0410103 9.46663 0.00491518 9.64995 0.00518555C10.6401 0.00185221 11.6548 0.00185221 12.7529 0.00518555C12.9347 0.00408525 13.115 0.0389934 13.2833 0.107969C13.4516 0.176945 13.6046 0.278597 13.7334 0.407042C13.8623 0.535487 13.9645 0.688181 14.0341 0.856344C14.1037 1.02451 14.1393 1.20476 14.139 1.38678C14.142 1.82012 14.1446 2.32817 14.1373 2.82551C14.1373 2.90984 14.147 2.9138 14.2069 2.9348C14.4421 3.01721 14.6726 3.11263 14.8973 3.22053C14.9523 3.24686 14.9562 3.24879 15.0049 3.19912C15.3342 2.86079 15.6709 2.52549 15.9897 2.21149C16.1191 2.07078 16.2762 1.95835 16.4512 1.88125C16.6261 1.80414 16.815 1.76404 17.0061 1.76341C17.1972 1.76278 17.3865 1.80163 17.5619 1.87759C17.7373 1.95355 17.8951 2.06496 18.0255 2.20482C18.7499 2.92149 19.4686 3.63816 20.1606 4.33983C20.2986 4.46949 20.4087 4.62605 20.484 4.79988C20.5594 4.9737 20.5984 5.16111 20.5986 5.35058C20.5989 5.54005 20.5603 5.72758 20.4855 5.90161C20.4106 6.07563 20.301 6.23244 20.1633 6.36246C19.8672 6.66446 19.5222 7.01486 19.1755 7.34953C19.1162 7.40686 19.1145 7.41615 19.1508 7.48681C19.2585 7.69319 19.3476 7.90875 19.4173 8.13086C19.4409 8.20853 19.4486 8.23454 19.5821 8.23088C19.9005 8.22288 20.2225 8.22449 20.5339 8.22616H20.8923C21.2057 8.20874 21.5157 8.29812 21.7718 8.47974C22.0278 8.66135 22.2149 8.92447 22.3024 9.22616L22.3074 9.23316C22.3147 9.24349 22.322 9.25419 22.3287 9.26652L22.3586 9.31519V13.0278L22.3284 13.0768C22.3217 13.0875 22.3144 13.0982 22.3071 13.1102L22.3021 13.1172C22.2137 13.4182 22.0264 13.6806 21.7705 13.8618C21.5145 14.0429 21.205 14.1322 20.892 14.1152H20.5439C20.2156 14.1152 19.8755 14.1172 19.5408 14.1118C19.4556 14.1118 19.4519 14.1212 19.4313 14.1805C19.349 14.416 19.2537 14.6467 19.1458 14.8715C19.1182 14.9292 19.1192 14.9332 19.1665 14.9795C19.4266 15.2328 19.6864 15.4939 19.9371 15.7462L20.1233 15.9335C20.2733 16.064 20.3936 16.225 20.4763 16.4058C20.559 16.5866 20.6022 16.783 20.603 16.9818C20.6037 17.1806 20.5619 17.3773 20.4806 17.5587C20.3992 17.7401 20.28 17.902 20.131 18.0336C19.4316 18.7356 18.7355 19.4335 18.0581 20.1085C17.927 20.255 17.7665 20.3722 17.5872 20.4525C17.4078 20.5328 17.2136 20.5745 17.0171 20.5748C16.8206 20.5751 16.6262 20.5339 16.4466 20.4541C16.2671 20.3743 16.1062 20.2576 15.9747 20.1115L15.8225 19.9602C15.553 19.6936 15.2746 19.4165 15.0049 19.1395C14.9599 19.0932 14.9559 19.0926 14.8983 19.1206C14.68 19.2284 14.4551 19.3221 14.2249 19.4012C14.1426 19.4289 14.138 19.4402 14.1396 19.5169C14.1466 19.9139 14.1446 20.3168 14.1433 20.7062C14.1433 20.7893 14.1433 20.8724 14.1433 20.9555C14.1454 21.1736 14.0942 21.389 13.9942 21.5827C13.8941 21.7765 13.7482 21.9428 13.5691 22.0672C13.4623 22.1403 13.3483 22.2022 13.2288 22.2519C13.1808 22.2739 13.1359 22.2942 13.0926 22.3159L13.0496 22.3375L9.35688 22.3332ZM8.01341 17.7665C8.23721 17.8625 8.47967 17.9625 8.79772 18.0908C9.06373 18.1915 9.29226 18.3718 9.45221 18.6072C9.61216 18.8426 9.69573 19.1216 9.69158 19.4062C9.69158 19.6999 9.69158 19.9989 9.69158 20.2872C9.69158 20.4432 9.69158 20.5996 9.69158 20.7559C9.69158 20.8196 9.69158 20.8668 9.69591 20.8972C9.72422 20.8995 9.76753 20.9012 9.82548 20.9012H12.5847C12.6245 20.9018 12.6643 20.9002 12.7039 20.8965C12.7079 20.8532 12.7096 20.8097 12.7089 20.7662C12.7089 20.6116 12.7089 20.4575 12.7089 20.3029C12.7089 20.0052 12.7089 19.6972 12.7106 19.3938C12.709 19.1095 12.7951 18.8317 12.9569 18.598C13.1187 18.3643 13.3486 18.1862 13.6151 18.0878L13.6268 18.0835C13.8619 17.9905 14.105 17.8939 14.3381 17.7912C14.6089 17.6549 14.9166 17.6104 15.2148 17.6645C15.5131 17.7186 15.7856 17.8684 15.9913 18.0912L16.0246 18.1245C16.338 18.4359 16.6621 18.7579 16.9764 19.0802C16.9872 19.0915 16.9989 19.1019 17.0114 19.1112C17.0254 19.1013 17.0384 19.0901 17.0504 19.0778C17.8523 18.2705 18.5021 17.6212 19.0952 17.0339C19.1113 17.0189 19.1255 17.002 19.1375 16.9835C19.124 16.9631 19.108 16.9444 19.0899 16.9278C18.7862 16.6332 18.4571 16.3059 18.0868 15.9262C17.8847 15.7264 17.7485 15.4695 17.6966 15.19C17.6447 14.9104 17.6795 14.6216 17.7964 14.3625C17.9153 14.0835 18.0215 13.8268 18.1214 13.5778C18.2206 13.3109 18.3997 13.0813 18.6343 12.9202C18.8689 12.7591 19.1475 12.6744 19.4319 12.6778C19.673 12.6778 19.9178 12.6778 20.1546 12.6778C20.3842 12.6778 20.614 12.6778 20.844 12.6778C20.8715 12.6781 20.8989 12.6768 20.9263 12.6742C20.9291 12.6466 20.9303 12.6189 20.9299 12.5912C20.9299 11.6338 20.9299 10.6758 20.9299 9.74382C20.9302 9.71666 20.929 9.68955 20.9263 9.66252C20.9096 9.66085 20.883 9.65887 20.8417 9.65853C20.6565 9.65853 20.4684 9.65853 20.2862 9.65853C20.0051 9.65853 19.7144 9.6585 19.4279 9.6565C19.144 9.65763 18.8665 9.57145 18.633 9.40959C18.3996 9.24773 18.2215 9.01797 18.1227 8.75147L18.1118 8.72347C18.0175 8.48747 17.9206 8.24282 17.8177 8.00749C17.6881 7.74164 17.6467 7.44134 17.6995 7.15031C17.7524 6.85927 17.8967 6.5927 18.1114 6.38948L18.185 6.31518C18.4821 6.01518 18.7892 5.70248 19.1002 5.40315C19.1165 5.38818 19.131 5.37144 19.1435 5.35318C19.1305 5.33386 19.1153 5.31602 19.0982 5.30012C18.4451 4.65412 17.7624 3.97118 17.0694 3.26984C17.053 3.25228 17.0346 3.23685 17.0144 3.22386C16.9958 3.23631 16.9788 3.25093 16.9638 3.26748C16.664 3.57815 16.3074 3.9415 15.944 4.28751C15.7504 4.48391 15.5018 4.61687 15.231 4.66877C14.9603 4.72068 14.6801 4.6891 14.4277 4.5782C14.1893 4.48586 13.8762 4.36181 13.5698 4.22281C13.3138 4.12064 13.0948 3.94292 12.9422 3.7132C12.7895 3.48348 12.7104 3.21268 12.7152 2.93683C12.7116 2.6415 12.7122 2.34181 12.7132 2.05247C12.7132 1.87547 12.7132 1.69846 12.7132 1.52179C12.7135 1.49264 12.7123 1.4635 12.7096 1.43447C12.6837 1.43198 12.6577 1.43086 12.6316 1.43113H11.6392C11.0247 1.43113 10.3893 1.43111 9.76419 1.42845C9.74114 1.42747 9.71807 1.42961 9.69559 1.4348C9.69064 1.45789 9.68873 1.4816 9.68992 1.50519C9.69624 1.91219 9.69426 2.32518 9.6926 2.72451V2.92186C9.69686 3.20635 9.61364 3.48528 9.45423 3.72085C9.29481 3.95643 9.06691 4.13724 8.80138 4.23884L8.60157 4.31851C8.42772 4.38818 8.24821 4.45979 8.07537 4.53612C7.86856 4.63223 7.64394 4.68392 7.41596 4.68782C7.2253 4.6838 7.03741 4.64127 6.86359 4.56273C6.68978 4.4842 6.53362 4.37134 6.40451 4.23087L6.30826 4.13549C6.02018 3.84982 5.72247 3.5548 5.43505 3.2578C5.42225 3.24405 5.40808 3.23171 5.39275 3.22085C5.37587 3.23254 5.36024 3.2459 5.34612 3.26081C4.69337 3.91981 4.00565 4.60783 3.30194 5.30549C3.28859 5.31838 3.27655 5.33255 3.26598 5.34781C3.27801 5.36543 3.29198 5.38165 3.30761 5.39615C3.65464 5.73515 3.99366 6.06817 4.32536 6.4165C4.52487 6.61254 4.65945 6.86516 4.71091 7.14022C4.76237 7.41527 4.72824 7.6995 4.61311 7.95451C4.54651 8.12384 4.47523 8.29383 4.40696 8.4585C4.36411 8.56072 4.32159 8.66331 4.27941 8.7662C4.17666 9.03126 3.99522 9.25845 3.75954 9.41716C3.52386 9.57587 3.24526 9.65842 2.96124 9.65381H2.73677C2.34645 9.65548 1.94315 9.65721 1.54551 9.65121C1.52317 9.65023 1.50079 9.65198 1.4789 9.6565C1.47398 9.67971 1.47207 9.70344 1.47323 9.72714C1.47822 10.0695 1.47757 10.4165 1.47623 10.7525C1.47623 10.8901 1.47623 11.0276 1.47623 11.1649C1.47623 11.3022 1.47623 11.4396 1.47623 11.5772C1.47623 11.9128 1.47822 12.2602 1.47323 12.6026C1.47208 12.6267 1.4741 12.6509 1.47922 12.6745C1.5011 12.6791 1.52349 12.681 1.54583 12.6799C1.92583 12.6742 2.31182 12.6755 2.68449 12.6769H2.96159C3.24939 12.6722 3.53153 12.7571 3.76908 12.9198C4.00662 13.0825 4.18785 13.315 4.28774 13.5852C4.39031 13.8449 4.48355 14.0782 4.5848 14.3089C4.71948 14.5805 4.7624 14.8886 4.70708 15.1868C4.65177 15.485 4.5012 15.757 4.27806 15.9622C4.09623 16.1458 3.91174 16.3315 3.7309 16.5108C3.59547 16.646 3.46012 16.7813 3.32491 16.9169C3.29627 16.9452 3.27829 16.9659 3.26663 16.9795C3.27729 16.9925 3.29396 17.0105 3.31894 17.0352C3.992 17.7109 4.66872 18.3885 5.3298 19.0492C5.35811 19.0772 5.37743 19.0949 5.39109 19.1059C5.40441 19.0949 5.42439 19.0775 5.45103 19.0502C5.57581 18.9259 5.70014 18.8013 5.82403 18.6762C6.02885 18.4706 6.24 18.2579 6.45181 18.0509C6.71004 17.7902 7.06115 17.6428 7.42793 17.6412C7.62956 17.6429 7.82874 17.6855 8.01341 17.7665ZM11.1953 15.6495C10.4585 15.6473 9.73376 15.4632 9.08509 15.1136C8.43642 14.7641 7.88389 14.2598 7.47645 13.6454C7.06901 13.0311 6.81922 12.3257 6.74921 11.5916C6.67921 10.8576 6.79115 10.1176 7.07512 9.43718C7.35908 8.75678 7.80632 8.157 8.3772 7.69092C8.94808 7.22483 9.625 6.90684 10.348 6.76513C11.071 6.62342 11.8177 6.66237 12.5221 6.8785C13.2264 7.09462 13.8667 7.48122 14.3861 8.00415C14.801 8.42453 15.1291 8.9227 15.3516 9.47006C15.5742 10.0174 15.6867 10.6033 15.6829 11.1942C15.6832 11.7808 15.5668 12.3616 15.3406 12.9028C15.1143 13.4439 14.7827 13.9346 14.3651 14.3462C13.9487 14.7612 13.4546 15.0899 12.911 15.3135C12.3675 15.5371 11.7852 15.6512 11.1976 15.6492L11.1953 15.6495ZM8.15196 11.1552C8.15036 11.9647 8.46955 12.7419 9.03953 13.3163C9.60952 13.8906 10.3838 14.2153 11.1926 14.2192H11.2036C12.0127 14.2203 12.7892 13.8997 13.3622 13.3278C13.9352 12.756 14.2577 11.9797 14.2589 11.1699C14.26 10.36 13.9397 9.58277 13.3683 9.00928C12.797 8.43579 12.0214 8.11297 11.2122 8.11182H11.2022C10.3951 8.11296 9.62122 8.4338 9.04968 9.00424C8.47813 9.57467 8.15539 10.3473 8.15196 11.1552Z" fill="#B4B4B4" stroke="#B4B4B4" stroke-width="2" mask="url(#path-1-inside-1)"/>
</svg>
