<svg width="20" height="24" viewBox="0 0 20 24" fill="none" xmlns="http://www.w3.org/2000/svg">
<mask id="path-1-inside-1" fill="white">
<path d="M18.7787 15.3732C18.6278 15.1462 18.4739 14.9208 18.3204 14.6958L18.1539 14.4525C17.6464 13.731 17.3502 12.882 17.2987 12.0012C17.2903 11.8528 17.285 11.7042 17.28 11.5559C17.2684 11.2225 17.256 10.8752 17.2087 10.5226C17.0908 9.55372 16.7728 8.61993 16.2749 7.78072C15.777 6.94151 15.1101 6.21523 14.3166 5.64791C13.9861 5.4118 13.6413 5.19627 13.2842 5.00256C13.178 4.94223 13.0717 4.88186 12.9665 4.82019L12.9269 4.79854C12.6267 4.64733 12.3148 4.5205 11.9944 4.41923C12.2213 4.07151 12.3431 3.66555 12.3451 3.25021C12.35 2.95472 12.2957 2.66127 12.1856 2.38709C12.0754 2.11291 11.9115 1.86358 11.7035 1.65377C11.4956 1.44397 11.2478 1.27796 10.9748 1.16549C10.7017 1.05302 10.409 0.996375 10.1137 0.998907H10.0967C9.49685 0.992582 8.91848 1.22227 8.48616 1.63855C8.27759 1.84179 8.11204 2.085 7.99938 2.35364C7.88672 2.62229 7.82925 2.91084 7.83041 3.20219C7.82708 3.60814 7.93402 4.00739 8.1398 4.35722C7.74602 4.46647 7.36395 4.61429 6.99914 4.79854L6.95951 4.82019C6.85427 4.88186 6.74803 4.94223 6.64179 5.00256C6.28475 5.19627 5.93996 5.4118 5.60938 5.64791C4.81586 6.21521 4.14895 6.94151 3.65106 7.78072C3.15316 8.61993 2.83516 9.55371 2.71728 10.5226C2.66999 10.8759 2.65767 11.2225 2.64601 11.5559C2.64102 11.7045 2.63569 11.8532 2.62736 12.0012C2.57595 12.882 2.27987 13.731 1.77245 14.4525L1.60593 14.6958C1.45207 14.9212 1.29854 15.1466 1.14734 15.3736C0.883086 15.7571 0.715734 16.199 0.659642 16.6615C0.60355 17.124 0.660392 17.5932 0.825294 18.0288C0.998822 18.4684 1.27438 18.8604 1.62919 19.1724C1.984 19.4843 2.40789 19.7073 2.86582 19.8229C4.25762 20.1977 5.6794 20.4506 7.11504 20.5786C7.00747 20.9951 7.06826 21.4372 7.28422 21.8092C7.51852 22.2082 7.83939 22.5494 8.22313 22.8076C8.60686 23.0659 9.04366 23.2346 9.50125 23.3012C9.64563 23.3221 9.79132 23.3326 9.9372 23.3325C10.5147 23.3395 11.0824 23.1838 11.5757 22.8832C12.0689 22.5826 12.4678 22.1492 12.7267 21.6325C12.8733 21.3004 12.9019 20.9281 12.8076 20.5775C14.2442 20.4496 15.6669 20.1967 17.0595 19.8216C17.5175 19.706 17.9414 19.483 18.2962 19.1711C18.651 18.8591 18.9265 18.4671 19.1001 18.0275C19.2649 17.5921 19.3218 17.1231 19.2658 16.6608C19.2098 16.1985 19.0427 15.7567 18.7787 15.3732ZM9.52024 2.66289C9.67598 2.51658 9.88284 2.4372 10.0964 2.44186H10.1021C10.204 2.44009 10.3054 2.45894 10.3999 2.4972C10.4945 2.53545 10.5804 2.59232 10.6526 2.66451C10.7255 2.741 10.7826 2.8312 10.8205 2.92989C10.8584 3.02859 10.8764 3.13385 10.8734 3.23955C10.8722 3.34057 10.8508 3.4403 10.8103 3.53284C10.7698 3.62538 10.7111 3.70886 10.6376 3.7782C10.5642 3.84754 10.4776 3.90137 10.383 3.93648C10.2883 3.97159 10.1876 3.98725 10.0867 3.98255H10.0847C9.98087 3.98791 9.87703 3.97151 9.77985 3.93445C9.68266 3.89739 9.59426 3.84048 9.5203 3.7673C9.44634 3.69411 9.38844 3.60632 9.3503 3.50948C9.31215 3.41264 9.2946 3.30889 9.29877 3.20488C9.2971 3.10408 9.31603 3.00406 9.3544 2.91085C9.39277 2.81765 9.44977 2.73324 9.5219 2.66289H9.52024ZM11.3813 21.0532C11.2425 21.3035 11.0402 21.5128 10.7948 21.6599C10.5495 21.8071 10.2697 21.8868 9.98369 21.8912C9.6977 21.8956 9.4156 21.8244 9.16584 21.6849C8.91608 21.5454 8.70749 21.3425 8.56109 21.0965C8.54632 21.0729 8.53641 21.0465 8.53193 21.019C8.52745 20.9915 8.5285 20.9633 8.53501 20.9361C8.54152 20.909 8.55337 20.8835 8.56985 20.861C8.58634 20.8385 8.60713 20.8196 8.63103 20.8052C8.65639 20.7888 8.68473 20.7777 8.71442 20.7723C8.74411 20.767 8.77457 20.7676 8.80403 20.774C8.8335 20.7805 8.8614 20.7927 8.88612 20.81C8.91084 20.8273 8.9319 20.8494 8.94808 20.8749C9.0536 21.0494 9.20232 21.1937 9.37985 21.2938C9.55738 21.394 9.75772 21.4466 9.96151 21.4466C10.1653 21.4466 10.3656 21.394 10.5432 21.2938C10.7207 21.1937 10.8694 21.0494 10.9749 20.8749C10.9909 20.8494 11.0118 20.8274 11.0363 20.81C11.0609 20.7926 11.0886 20.7803 11.1179 20.7737C11.1472 20.7671 11.1776 20.7664 11.2072 20.7717C11.2368 20.7769 11.265 20.788 11.2903 20.8042C11.3314 20.8294 11.3628 20.8676 11.3796 20.9127C11.3963 20.9578 11.3975 21.0073 11.3829 21.0532H11.3813ZM17.7253 17.5199C17.6338 17.7451 17.49 17.9453 17.3059 18.104C17.1218 18.2627 16.9027 18.3754 16.6666 18.4326C14.8907 18.9048 13.0674 19.1754 11.2311 19.2392C10.8597 19.2549 10.4634 19.2626 9.98183 19.2629H9.95785C9.47195 19.2629 9.06964 19.2552 8.69231 19.2392C6.85596 19.1754 5.03264 18.9048 3.2568 18.4326C3.02067 18.3754 2.80151 18.2627 2.61743 18.104C2.43334 17.9453 2.2896 17.7451 2.19808 17.5199C2.11601 17.2964 2.08929 17.0563 2.1202 16.8202C2.15111 16.5841 2.23875 16.359 2.37559 16.1642C2.52345 15.9418 2.67532 15.7215 2.82452 15.5008L2.99104 15.2556C3.6415 14.3192 4.02174 13.2216 4.09006 12.0832C4.09939 11.9245 4.10472 11.7656 4.11038 11.6062C4.12137 11.2922 4.13169 10.9955 4.16999 10.7112C4.26465 9.93393 4.51985 9.18484 4.91936 8.51159C5.31887 7.83834 5.85395 7.25568 6.49059 6.80058C6.77405 6.60054 7.0692 6.41764 7.37448 6.25289C7.47938 6.19322 7.58429 6.13354 7.68853 6.07288C8.3851 5.72461 9.15609 5.55183 9.93454 5.56954H9.94819H9.97517H9.98815C10.7657 5.55119 11.5359 5.72402 12.2312 6.07288C12.3354 6.13354 12.4403 6.19322 12.5452 6.25289C12.8505 6.41765 13.1456 6.60055 13.4291 6.80058C14.0657 7.25569 14.6008 7.83835 15.0003 8.51159C15.3998 9.18484 15.655 9.93393 15.7497 10.7112C15.7877 10.9955 15.7983 11.2919 15.8093 11.6062C15.815 11.7656 15.8203 11.9245 15.8296 12.0832C15.8979 13.2216 16.2782 14.3192 16.9287 15.2556L17.0952 15.5008C17.2457 15.7215 17.3949 15.9418 17.5441 16.1642C17.6817 16.3584 17.7702 16.5831 17.802 16.819C17.8338 17.055 17.8081 17.295 17.7269 17.5188L17.7253 17.5199Z"/>
</mask>
<path d="M18.7787 15.3732C18.6278 15.1462 18.4739 14.9208 18.3204 14.6958L18.1539 14.4525C17.6464 13.731 17.3502 12.882 17.2987 12.0012C17.2903 11.8528 17.285 11.7042 17.28 11.5559C17.2684 11.2225 17.256 10.8752 17.2087 10.5226C17.0908 9.55372 16.7728 8.61993 16.2749 7.78072C15.777 6.94151 15.1101 6.21523 14.3166 5.64791C13.9861 5.4118 13.6413 5.19627 13.2842 5.00256C13.178 4.94223 13.0717 4.88186 12.9665 4.82019L12.9269 4.79854C12.6267 4.64733 12.3148 4.5205 11.9944 4.41923C12.2213 4.07151 12.3431 3.66555 12.3451 3.25021C12.35 2.95472 12.2957 2.66127 12.1856 2.38709C12.0754 2.11291 11.9115 1.86358 11.7035 1.65377C11.4956 1.44397 11.2478 1.27796 10.9748 1.16549C10.7017 1.05302 10.409 0.996375 10.1137 0.998907H10.0967C9.49685 0.992582 8.91848 1.22227 8.48616 1.63855C8.27759 1.84179 8.11204 2.085 7.99938 2.35364C7.88672 2.62229 7.82925 2.91084 7.83041 3.20219C7.82708 3.60814 7.93402 4.00739 8.1398 4.35722C7.74602 4.46647 7.36395 4.61429 6.99914 4.79854L6.95951 4.82019C6.85427 4.88186 6.74803 4.94223 6.64179 5.00256C6.28475 5.19627 5.93996 5.4118 5.60938 5.64791C4.81586 6.21521 4.14895 6.94151 3.65106 7.78072C3.15316 8.61993 2.83516 9.55371 2.71728 10.5226C2.66999 10.8759 2.65767 11.2225 2.64601 11.5559C2.64102 11.7045 2.63569 11.8532 2.62736 12.0012C2.57595 12.882 2.27987 13.731 1.77245 14.4525L1.60593 14.6958C1.45207 14.9212 1.29854 15.1466 1.14734 15.3736C0.883086 15.7571 0.715734 16.199 0.659642 16.6615C0.60355 17.124 0.660392 17.5932 0.825294 18.0288C0.998822 18.4684 1.27438 18.8604 1.62919 19.1724C1.984 19.4843 2.40789 19.7073 2.86582 19.8229C4.25762 20.1977 5.6794 20.4506 7.11504 20.5786C7.00747 20.9951 7.06826 21.4372 7.28422 21.8092C7.51852 22.2082 7.83939 22.5494 8.22313 22.8076C8.60686 23.0659 9.04366 23.2346 9.50125 23.3012C9.64563 23.3221 9.79132 23.3326 9.9372 23.3325C10.5147 23.3395 11.0824 23.1838 11.5757 22.8832C12.0689 22.5826 12.4678 22.1492 12.7267 21.6325C12.8733 21.3004 12.9019 20.9281 12.8076 20.5775C14.2442 20.4496 15.6669 20.1967 17.0595 19.8216C17.5175 19.706 17.9414 19.483 18.2962 19.1711C18.651 18.8591 18.9265 18.4671 19.1001 18.0275C19.2649 17.5921 19.3218 17.1231 19.2658 16.6608C19.2098 16.1985 19.0427 15.7567 18.7787 15.3732ZM9.52024 2.66289C9.67598 2.51658 9.88284 2.4372 10.0964 2.44186H10.1021C10.204 2.44009 10.3054 2.45894 10.3999 2.4972C10.4945 2.53545 10.5804 2.59232 10.6526 2.66451C10.7255 2.741 10.7826 2.8312 10.8205 2.92989C10.8584 3.02859 10.8764 3.13385 10.8734 3.23955C10.8722 3.34057 10.8508 3.4403 10.8103 3.53284C10.7698 3.62538 10.7111 3.70886 10.6376 3.7782C10.5642 3.84754 10.4776 3.90137 10.383 3.93648C10.2883 3.97159 10.1876 3.98725 10.0867 3.98255H10.0847C9.98087 3.98791 9.87703 3.97151 9.77985 3.93445C9.68266 3.89739 9.59426 3.84048 9.5203 3.7673C9.44634 3.69411 9.38844 3.60632 9.3503 3.50948C9.31215 3.41264 9.2946 3.30889 9.29877 3.20488C9.2971 3.10408 9.31603 3.00406 9.3544 2.91085C9.39277 2.81765 9.44977 2.73324 9.5219 2.66289H9.52024ZM11.3813 21.0532C11.2425 21.3035 11.0402 21.5128 10.7948 21.6599C10.5495 21.8071 10.2697 21.8868 9.98369 21.8912C9.6977 21.8956 9.4156 21.8244 9.16584 21.6849C8.91608 21.5454 8.70749 21.3425 8.56109 21.0965C8.54632 21.0729 8.53641 21.0465 8.53193 21.019C8.52745 20.9915 8.5285 20.9633 8.53501 20.9361C8.54152 20.909 8.55337 20.8835 8.56985 20.861C8.58634 20.8385 8.60713 20.8196 8.63103 20.8052C8.65639 20.7888 8.68473 20.7777 8.71442 20.7723C8.74411 20.767 8.77457 20.7676 8.80403 20.774C8.8335 20.7805 8.8614 20.7927 8.88612 20.81C8.91084 20.8273 8.9319 20.8494 8.94808 20.8749C9.0536 21.0494 9.20232 21.1937 9.37985 21.2938C9.55738 21.394 9.75772 21.4466 9.96151 21.4466C10.1653 21.4466 10.3656 21.394 10.5432 21.2938C10.7207 21.1937 10.8694 21.0494 10.9749 20.8749C10.9909 20.8494 11.0118 20.8274 11.0363 20.81C11.0609 20.7926 11.0886 20.7803 11.1179 20.7737C11.1472 20.7671 11.1776 20.7664 11.2072 20.7717C11.2368 20.7769 11.265 20.788 11.2903 20.8042C11.3314 20.8294 11.3628 20.8676 11.3796 20.9127C11.3963 20.9578 11.3975 21.0073 11.3829 21.0532H11.3813ZM17.7253 17.5199C17.6338 17.7451 17.49 17.9453 17.3059 18.104C17.1218 18.2627 16.9027 18.3754 16.6666 18.4326C14.8907 18.9048 13.0674 19.1754 11.2311 19.2392C10.8597 19.2549 10.4634 19.2626 9.98183 19.2629H9.95785C9.47195 19.2629 9.06964 19.2552 8.69231 19.2392C6.85596 19.1754 5.03264 18.9048 3.2568 18.4326C3.02067 18.3754 2.80151 18.2627 2.61743 18.104C2.43334 17.9453 2.2896 17.7451 2.19808 17.5199C2.11601 17.2964 2.08929 17.0563 2.1202 16.8202C2.15111 16.5841 2.23875 16.359 2.37559 16.1642C2.52345 15.9418 2.67532 15.7215 2.82452 15.5008L2.99104 15.2556C3.6415 14.3192 4.02174 13.2216 4.09006 12.0832C4.09939 11.9245 4.10472 11.7656 4.11038 11.6062C4.12137 11.2922 4.13169 10.9955 4.16999 10.7112C4.26465 9.93393 4.51985 9.18484 4.91936 8.51159C5.31887 7.83834 5.85395 7.25568 6.49059 6.80058C6.77405 6.60054 7.0692 6.41764 7.37448 6.25289C7.47938 6.19322 7.58429 6.13354 7.68853 6.07288C8.3851 5.72461 9.15609 5.55183 9.93454 5.56954H9.94819H9.97517H9.98815C10.7657 5.55119 11.5359 5.72402 12.2312 6.07288C12.3354 6.13354 12.4403 6.19322 12.5452 6.25289C12.8505 6.41765 13.1456 6.60055 13.4291 6.80058C14.0657 7.25569 14.6008 7.83835 15.0003 8.51159C15.3998 9.18484 15.655 9.93393 15.7497 10.7112C15.7877 10.9955 15.7983 11.2919 15.8093 11.6062C15.815 11.7656 15.8203 11.9245 15.8296 12.0832C15.8979 13.2216 16.2782 14.3192 16.9287 15.2556L17.0952 15.5008C17.2457 15.7215 17.3949 15.9418 17.5441 16.1642C17.6817 16.3584 17.7702 16.5831 17.802 16.819C17.8338 17.055 17.8081 17.295 17.7269 17.5188L17.7253 17.5199Z" fill="#B4B4B4" stroke="#B4B4B4" stroke-width="2" mask="url(#path-1-inside-1)"/>
</svg>
