<svg width="23" height="24" viewBox="0 0 23 24" fill="none" xmlns="http://www.w3.org/2000/svg">
<path d="M22.6512 10.2615C22.5773 9.99273 22.4132 9.75768 22.1864 9.59592C21.9595 9.43416 21.6839 9.35556 21.4059 9.37351C20.963 9.37351 20.5197 9.36551 20.0771 9.37685C19.9953 9.39239 19.9108 9.37517 19.8416 9.32883C19.7724 9.2825 19.7243 9.21079 19.7074 9.1292C19.6404 8.91451 19.5546 8.70618 19.451 8.50657C19.4106 8.44667 19.395 8.37347 19.4075 8.3023C19.4199 8.23113 19.4594 8.16754 19.5176 8.12489C19.8573 7.79689 20.189 7.46056 20.5197 7.12489C20.6411 7.0115 20.7379 6.87428 20.8039 6.72181C20.87 6.56935 20.904 6.40485 20.9038 6.23866C20.9036 6.07247 20.8691 5.90812 20.8027 5.75583C20.7362 5.60354 20.6391 5.46664 20.5174 5.35357C19.7974 4.6249 19.0731 3.90045 18.3447 3.18023C18.231 3.05661 18.0928 2.95805 17.9389 2.89084C17.785 2.82363 17.6189 2.78922 17.451 2.78985C17.2831 2.79047 17.1172 2.82615 16.9639 2.8945C16.8105 2.96286 16.673 3.06244 16.5602 3.1869C16.2245 3.52023 15.8895 3.85357 15.5611 4.19024C15.5217 4.24196 15.4645 4.27708 15.4005 4.28879C15.3366 4.3005 15.2706 4.28795 15.2154 4.25355C14.9935 4.14688 14.7658 4.05265 14.5334 3.97124C14.4666 3.95496 14.4083 3.91432 14.3698 3.85731C14.3313 3.8003 14.3154 3.73099 14.3252 3.66289C14.3326 3.17589 14.3306 2.68887 14.3272 2.20187C14.3271 2.04355 14.2958 1.88679 14.235 1.74061C14.1743 1.59443 14.0853 1.4617 13.9732 1.34999C13.8612 1.23827 13.7281 1.14976 13.5818 1.08957C13.4355 1.02938 13.2788 0.998711 13.1206 0.999237C12.0678 0.996348 11.015 0.996348 9.96211 0.999237C9.80211 0.99838 9.64355 1.02942 9.49569 1.09063C9.34783 1.15183 9.21364 1.24196 9.10098 1.35568C8.98832 1.4694 8.89945 1.6044 8.83955 1.7529C8.77966 1.9014 8.74997 2.06038 8.75219 2.22051C8.74953 2.68718 8.74419 3.15118 8.75518 3.61618C8.77069 3.69802 8.75339 3.78268 8.70702 3.85186C8.66066 3.92104 8.58894 3.96922 8.50739 3.98589C8.29302 4.05318 8.08496 4.13918 7.88561 4.24289C7.82572 4.28331 7.75252 4.29894 7.68136 4.28651C7.61021 4.27408 7.54662 4.23457 7.50395 4.17624C7.1869 3.84624 6.8602 3.5255 6.53482 3.2035C6.42018 3.07334 6.27913 2.96919 6.12106 2.89792C5.963 2.82665 5.79157 2.78994 5.61821 2.79025C5.44485 2.79057 5.27355 2.82787 5.11575 2.89971C4.95795 2.97155 4.81727 3.07626 4.70311 3.20684C3.99796 3.90906 3.29492 4.61354 2.59398 5.3202C2.46187 5.43561 2.35614 5.57812 2.284 5.73809C2.21185 5.89806 2.175 6.07178 2.17592 6.24729C2.17683 6.4228 2.21551 6.59606 2.28932 6.75526C2.36313 6.91447 2.47033 7.05587 2.60364 7.16989C2.92602 7.49489 3.24741 7.82087 3.57545 8.13987C3.62699 8.17956 3.66176 8.2372 3.67292 8.30132C3.68408 8.36545 3.67081 8.43142 3.63572 8.48622C3.52907 8.70039 3.43738 8.92172 3.36131 9.14857C3.34494 9.22284 3.30061 9.2879 3.23754 9.3303C3.17446 9.37269 3.09747 9.38913 3.0226 9.37619C2.55801 9.36753 2.09343 9.37218 1.62851 9.37351C1.4648 9.3683 1.30175 9.3966 1.14932 9.4566C0.996896 9.5166 0.858291 9.60711 0.74199 9.72255C0.62569 9.83799 0.53414 9.97593 0.472922 10.128C0.411703 10.28 0.382101 10.443 0.385943 10.6069C0.383722 11.6465 0.383722 12.6859 0.385943 13.7252C0.382472 13.8872 0.411696 14.0482 0.471844 14.1986C0.531992 14.349 0.621823 14.4858 0.735994 14.6006C0.850164 14.7155 0.986315 14.8062 1.13629 14.8672C1.28627 14.9281 1.447 14.9582 1.60886 14.9555C2.0881 14.9575 2.56734 14.9605 3.04658 14.9532C3.11463 14.9432 3.18393 14.9591 3.24095 14.9975C3.29798 15.036 3.33864 15.0943 3.35499 15.1612C3.43628 15.3939 3.53032 15.6219 3.63672 15.8442C3.67116 15.8993 3.68383 15.9654 3.67225 16.0294C3.66067 16.0933 3.62568 16.1507 3.57411 16.1902C3.23641 16.5202 2.90437 16.8569 2.57266 17.1922C2.44825 17.305 2.34868 17.4426 2.28024 17.596C2.21179 17.7494 2.17598 17.9154 2.1751 18.0835C2.17423 18.2515 2.2083 18.4179 2.27513 18.5721C2.34197 18.7262 2.44013 18.8648 2.56335 18.9789C3.28338 19.7076 4.00729 20.4323 4.73509 21.1532C4.84906 21.2766 4.98743 21.3748 5.1414 21.4417C5.29537 21.5086 5.46157 21.5428 5.62943 21.542C5.79729 21.5411 5.96314 21.5053 6.11643 21.4368C6.26972 21.3684 6.40711 21.2687 6.51984 21.1442C6.85554 20.8109 7.19058 20.4775 7.51895 20.1405C7.55856 20.0889 7.61601 20.054 7.68002 20.0426C7.74404 20.0312 7.81 20.0442 7.86498 20.0789C8.0789 20.1856 8.29988 20.2775 8.52638 20.3539C8.60052 20.3702 8.66557 20.4145 8.70804 20.4774C8.75051 20.5404 8.76713 20.6173 8.75451 20.6922C8.74585 21.1645 8.7545 21.6372 8.75117 22.1095C8.74561 22.2994 8.78692 22.4877 8.87145 22.6578C8.95597 22.8278 9.0811 22.9744 9.23575 23.0845C9.3866 23.1805 9.54512 23.2638 9.70967 23.3336H13.3691C13.5274 23.2672 13.6802 23.1883 13.826 23.0976C13.9824 22.9901 14.1098 22.8456 14.197 22.677C14.2841 22.5083 14.3283 22.3208 14.3256 22.1309C14.3272 21.6439 14.3316 21.1566 14.3229 20.6696C14.3135 20.5978 14.3318 20.5251 14.3739 20.4664C14.4161 20.4076 14.4791 20.3672 14.55 20.3533C14.7761 20.2754 14.997 20.1833 15.2114 20.0775C15.2662 20.0425 15.3321 20.0294 15.3961 20.0406C15.4601 20.0518 15.5175 20.0867 15.5571 20.1382C15.8812 20.4716 16.2126 20.7979 16.5423 21.1259C16.6568 21.2561 16.7979 21.3604 16.9559 21.4317C17.114 21.503 17.2854 21.5398 17.4588 21.5395C17.6322 21.5392 17.8035 21.5019 17.9613 21.4301C18.1191 21.3582 18.2598 21.2535 18.374 21.1229C19.0793 20.4204 19.7828 19.7162 20.4844 19.0102C20.6167 18.895 20.7226 18.7526 20.795 18.5927C20.8673 18.4328 20.9044 18.2592 20.9037 18.0836C20.903 17.9081 20.8644 17.7348 20.7908 17.5755C20.7171 17.4162 20.61 17.2747 20.4768 17.1605C20.1541 16.8362 19.8327 16.5099 19.5046 16.1906C19.453 16.151 19.4179 16.0936 19.4063 16.0295C19.3946 15.9655 19.4073 15.8994 19.4417 15.8442C19.548 15.6219 19.6421 15.3938 19.7234 15.1612C19.74 15.0944 19.7808 15.0363 19.8378 14.9979C19.8949 14.9596 19.9642 14.9439 20.0322 14.9539C20.4894 14.9612 20.947 14.9569 21.4046 14.9565C21.6827 14.9742 21.9583 14.8956 22.1852 14.7338C22.4121 14.572 22.5764 14.337 22.6505 14.0682C22.6622 14.0431 22.6766 14.0195 22.6935 13.9975V10.3339C22.6768 10.3114 22.6625 10.2871 22.6512 10.2615ZM11.5301 16.5282C10.6672 16.5269 9.82409 16.2692 9.10767 15.7878C8.39125 15.3064 7.83373 14.623 7.50576 13.8242C7.17778 13.0254 7.09411 12.147 7.26535 11.3005C7.4366 10.454 7.85505 9.67752 8.46767 9.06931C9.0803 8.4611 9.85954 8.04861 10.7066 7.88409C11.5537 7.71957 12.4305 7.81041 13.226 8.14515C14.0214 8.4799 14.6997 9.04344 15.1748 9.76438C15.6499 10.4853 15.9005 11.3312 15.8948 12.1949C15.8898 13.3486 15.4272 14.453 14.6086 15.2654C13.7901 16.0777 12.6827 16.5313 11.5301 16.5265V16.5282Z" fill="url(#paint0_linear)"/>
<defs>
<linearGradient id="paint0_linear" x1="22.6935" y1="10.9623" x2="2.43647" y2="19.4622" gradientUnits="userSpaceOnUse">
<stop stop-color="#F2404D"/>
<stop offset="1" stop-color="#DE253A"/>
</linearGradient>
</defs>
</svg>
