<svg width="17" height="24" viewBox="0 0 17 24" fill="none" xmlns="http://www.w3.org/2000/svg">
<path d="M8.86177 22.999C6.7613 22.9364 5.0155 22.7727 3.324 22.1773C2.70539 21.947 2.11688 21.6427 1.57124 21.271C1.23589 21.0541 0.967762 20.7478 0.797109 20.3865C0.626456 20.0252 0.560064 19.6234 0.605425 19.2263C0.619746 19.049 0.6324 18.8707 0.645388 18.6931C0.683021 18.1597 0.722323 17.605 0.815241 17.0493C1.0408 15.6958 1.75904 14.4739 2.83146 13.6191C3.36831 13.1747 3.94746 12.7254 4.55326 12.2834C4.64127 12.219 4.74134 12.173 4.84751 12.1481C4.95368 12.1233 5.06375 12.12 5.17118 12.1387C5.2786 12.1573 5.38117 12.1975 5.47275 12.2568C5.56433 12.316 5.64307 12.393 5.70423 12.4833C5.83119 12.6676 5.88171 12.894 5.84518 13.1148C5.80865 13.3356 5.68791 13.5336 5.5084 13.667C4.92992 14.0887 4.37774 14.5174 3.86753 14.94C3.11297 15.535 2.60522 16.3885 2.44213 17.336C2.36287 17.81 2.32823 18.2984 2.29159 18.8157C2.27827 19 2.26528 19.1847 2.24996 19.3691C2.2319 19.4582 2.24156 19.5507 2.27765 19.6341C2.31373 19.7176 2.37452 19.7879 2.45179 19.8357C2.88996 20.1362 3.3623 20.3834 3.85887 20.572C5.34455 21.0947 6.93947 21.2427 8.87342 21.302C9.00464 21.294 9.14685 21.2864 9.29638 21.2787C9.67705 21.2591 10.1087 21.2364 10.5286 21.1944C11.8289 21.1159 13.1071 20.822 14.3113 20.3247C15.2105 19.9121 15.306 19.7487 15.2548 18.7341C15.1635 16.9314 14.6723 15.7644 13.6622 14.9504C13.1816 14.5634 12.6098 14.1087 12.011 13.6714C11.8316 13.5378 11.711 13.3398 11.6745 13.1191C11.638 12.8983 11.6886 12.672 11.8155 12.4877C11.8766 12.3973 11.9554 12.3202 12.047 12.2609C12.1386 12.2017 12.2412 12.1615 12.3487 12.1428C12.4561 12.1242 12.5663 12.1274 12.6725 12.1523C12.7787 12.1772 12.8788 12.2232 12.9668 12.2877C13.5939 12.7457 14.1851 13.2153 14.6803 13.6147C16.52 15.0973 16.8304 17.1964 16.9033 18.648C16.9899 20.3634 16.506 21.1777 14.9847 21.8767C13.6186 22.4522 12.1657 22.7938 10.6865 22.8871C10.2279 22.9324 9.77662 22.9557 9.37798 22.9767C9.22012 22.9847 9.07091 22.9927 8.93436 23.0014L8.89706 23.0034L8.86177 22.999ZM8.71589 12.9304C5.44079 12.9153 2.78483 10.15 2.79515 6.76604C2.78366 5.16601 3.40519 3.6264 4.52401 2.48348C5.64282 1.34057 7.16801 0.687196 8.76652 0.666016H8.77951C12.0599 0.673349 14.7256 3.42837 14.7219 6.8077C14.7271 8.42617 14.0958 9.98168 12.9645 11.138C12.417 11.705 11.761 12.1558 11.0357 12.4636C10.3105 12.7715 9.53068 12.93 8.74288 12.9297L8.71589 12.9304ZM4.44636 6.77133C4.42518 7.92975 4.8632 9.04946 5.66462 9.88551C6.46603 10.7216 7.56562 11.2059 8.7229 11.2327C9.29667 11.2348 9.86495 11.121 10.3937 10.898C10.9224 10.6749 11.4007 10.3472 11.7998 9.93466C12.6174 9.09961 13.0739 7.9762 13.0707 6.80705C13.0872 5.64843 12.6444 4.53042 11.8392 3.69784C11.034 2.86526 9.93202 2.38589 8.77451 2.36467H8.76518C7.60998 2.37935 6.5075 2.85084 5.69836 3.67619C4.88922 4.50154 4.43914 5.61373 4.44636 6.77003V6.77133Z" fill="#B4B4B4"/>
</svg>
