<svg width="63" height="49" viewBox="0 0 63 49" fill="none" xmlns="http://www.w3.org/2000/svg">
<path d="M31.472 1.5C39.4207 1.5 47.044 4.6604 52.665 10.2863C58.286 15.9123 61.444 23.5431 61.444 31.5V47.1666H1.5V31.5C1.5 23.5431 4.65808 15.9123 10.2791 10.2863C15.9 4.6604 23.5234 1.5 31.472 1.5Z" fill="url(#paint0_linear)" stroke="white" stroke-width="3"/>
<mask id="path-2-inside-1" fill="white">
<path d="M45.1887 40.4715L39.9364 35.2139C38.1175 36.7295 35.9316 37.7385 33.599 38.1392C31.2664 38.54 28.8694 38.3183 26.6497 37.4965C24.4299 36.6747 22.4658 35.2819 20.9552 33.4583C19.4446 31.6348 18.4408 29.445 18.0451 27.1095L19.3583 26.8862C19.8337 29.6753 21.2655 32.2113 23.4073 34.058C25.549 35.9046 28.2668 36.9465 31.0931 37.0042C33.9194 37.0619 36.6775 36.1318 38.8927 34.3741C41.1079 32.6164 42.6418 30.1409 43.2304 27.3736L44.5329 27.6508C43.9944 30.1735 42.7401 32.4872 40.9205 34.3141L46.1305 39.5295C46.1941 39.591 46.2449 39.6646 46.2798 39.7459C46.3147 39.8273 46.3331 39.9147 46.3338 40.0033C46.3346 40.0918 46.3178 40.1795 46.2843 40.2615C46.2508 40.3434 46.2013 40.4178 46.1388 40.4804C46.0762 40.543 46.0019 40.5925 45.92 40.6261C45.8382 40.6596 45.7504 40.6765 45.662 40.6757C45.5736 40.6749 45.4862 40.6565 45.4049 40.6216C45.3236 40.5866 45.2501 40.5358 45.1887 40.4722V40.4715ZM29.1852 27.1459C29.1789 27.1379 29.1742 27.1292 29.1683 27.1209L29.1586 27.2155C27.2619 27.0259 25.3773 26.7302 23.5136 26.3299C23.5106 26.3525 23.5076 26.3745 23.5043 26.3949C23.4369 26.7855 23.2178 27.1334 22.8948 27.3628C22.5719 27.5922 22.1713 27.6844 21.7807 27.6191C21.3901 27.5538 21.0412 27.3365 20.8102 27.0145C20.5792 26.6926 20.4849 26.2921 20.5479 25.9008V25.9008C20.5727 25.7582 20.6215 25.6208 20.6921 25.4945C18.0471 24.8628 13.7096 24.1705 13.655 24.1612L13.7333 23.1672H27.7155C27.4491 21.2469 28.9564 20.1652 30.7102 19.9159L30.9264 16.0826L31.9215 16.0532L32.3657 19.8865L32.2192 19.9035C34.0296 20.1272 35.6265 21.2199 35.3588 23.1665H49.2131L49.2917 24.1605C49.2364 24.1692 44.8936 24.8628 42.2493 25.4938C42.3222 25.6192 42.3724 25.7564 42.3978 25.8992C42.4337 26.0949 42.4303 26.2958 42.3878 26.4902C42.3453 26.6846 42.2646 26.8686 42.1504 27.0314C42.0361 27.1943 41.8907 27.3328 41.7225 27.4388C41.5542 27.5449 41.3666 27.6163 41.1705 27.6491C40.9744 27.6819 40.7738 27.6753 40.5803 27.6297C40.3868 27.5841 40.2042 27.5004 40.0434 27.3835C39.8825 27.2666 39.7464 27.1189 39.6432 26.9488C39.5399 26.7788 39.4714 26.5899 39.4418 26.3932C39.4381 26.3712 39.4418 26.3515 39.4385 26.3302C37.5909 26.7365 35.7224 27.0406 33.8414 27.2412V27.2355C33.3493 27.8723 32.693 28.3628 31.9431 28.6542C31.8263 28.6993 31.702 28.722 31.5768 28.7209C30.6919 28.7226 29.6212 27.7142 29.1852 27.1455V27.1459ZM29.0087 21.7792C28.8575 21.9697 28.7526 22.1929 28.7023 22.431C28.6521 22.6691 28.6578 22.9156 28.719 23.1512C28.9481 24.3562 29.2588 25.6002 29.9775 26.5365C30.4285 27.1238 31.2341 27.7225 31.5761 27.7225C33.2909 27.0495 33.928 25.4078 34.357 23.1512C34.415 22.9235 34.4206 22.6856 34.3733 22.4554C34.3261 22.2253 34.2272 22.0089 34.0842 21.8225C33.6449 21.2699 32.7311 20.9018 31.7 20.8622C31.6384 20.8598 31.5768 20.8585 31.5155 20.8585C30.4381 20.8582 29.478 21.2109 29.0081 21.7785L29.0087 21.7792ZM40.8722 25.9385C40.7215 25.9503 40.5764 26.0011 40.4512 26.0859C40.4313 26.1035 40.4079 26.1235 40.4259 26.2305C40.448 26.3613 40.5211 26.478 40.6291 26.5549C40.7371 26.6317 40.8712 26.6624 41.0019 26.6403C41.1326 26.6182 41.2491 26.5451 41.3259 26.437C41.4027 26.3288 41.4335 26.1946 41.4114 26.0638C41.3944 25.9638 41.3671 25.9526 41.3351 25.9399C41.2707 25.9189 41.203 25.9095 41.1353 25.9122C41.047 25.9135 40.959 25.922 40.8722 25.9379V25.9385ZM21.5337 26.0655C21.5116 26.1963 21.5424 26.3306 21.6191 26.4387C21.6959 26.5468 21.8125 26.6199 21.9432 26.642C22.0738 26.6641 22.2079 26.6334 22.316 26.5565C22.424 26.4796 22.4971 26.363 22.5192 26.2322C22.5342 26.1432 22.5541 26.0205 22.0736 25.9402C21.9844 25.924 21.8941 25.915 21.8035 25.9135C21.5593 25.9112 21.543 26.0072 21.5337 26.0649V26.0655ZM34.4992 26.1589C35.9286 25.9812 38.9755 25.5589 40.2547 25.0379C41.3582 24.6661 42.4873 24.3753 43.6331 24.1678H35.1626C35.0122 24.8528 34.7898 25.5201 34.4992 26.1582V26.1589ZM22.6903 25.0379C23.9975 25.5695 27.182 25.9835 28.5804 26.1459C28.2867 25.5128 28.0634 24.8494 27.9144 24.1675H19.312C20.4577 24.3748 21.5868 24.6654 22.6903 25.0369V25.0379ZM30.8185 24.1902L29.3721 23.5612L29.6984 22.8095L31.1448 23.4388C31.2901 23.5027 31.448 23.5329 31.6066 23.5271C31.7652 23.5214 31.9204 23.4798 32.0607 23.4055L33.3475 22.7312L33.7275 23.4572L32.441 24.1315C32.1924 24.2628 31.9174 24.3363 31.6365 24.3465C31.3555 24.3567 31.076 24.3034 30.8185 24.1905V24.1902ZM31.3393 12.6669C28.5799 12.6799 25.906 13.6265 23.7521 15.353C21.5982 17.0794 20.0909 19.4843 19.4752 22.1765L18.1763 21.8865C18.8503 18.8653 20.5411 16.1676 22.9655 14.2456C25.39 12.3235 28.4008 11.2938 31.4935 11.329C34.5861 11.3642 37.5728 12.462 39.953 14.4387C42.3332 16.4154 43.9624 19.1508 44.5676 22.1866L43.2611 22.4466C42.7058 19.6903 41.2155 17.2109 39.0428 15.4286C36.8701 13.6463 34.1485 12.6706 31.3393 12.6669V12.6669Z"/>
</mask>
<path d="M45.1887 40.4715L39.9364 35.2139C38.1175 36.7295 35.9316 37.7385 33.599 38.1392C31.2664 38.54 28.8694 38.3183 26.6497 37.4965C24.4299 36.6747 22.4658 35.2819 20.9552 33.4583C19.4446 31.6348 18.4408 29.445 18.0451 27.1095L19.3583 26.8862C19.8337 29.6753 21.2655 32.2113 23.4073 34.058C25.549 35.9046 28.2668 36.9465 31.0931 37.0042C33.9194 37.0619 36.6775 36.1318 38.8927 34.3741C41.1079 32.6164 42.6418 30.1409 43.2304 27.3736L44.5329 27.6508C43.9944 30.1735 42.7401 32.4872 40.9205 34.3141L46.1305 39.5295C46.1941 39.591 46.2449 39.6646 46.2798 39.7459C46.3147 39.8273 46.3331 39.9147 46.3338 40.0033C46.3346 40.0918 46.3178 40.1795 46.2843 40.2615C46.2508 40.3434 46.2013 40.4178 46.1388 40.4804C46.0762 40.543 46.0019 40.5925 45.92 40.6261C45.8382 40.6596 45.7504 40.6765 45.662 40.6757C45.5736 40.6749 45.4862 40.6565 45.4049 40.6216C45.3236 40.5866 45.2501 40.5358 45.1887 40.4722V40.4715ZM29.1852 27.1459C29.1789 27.1379 29.1742 27.1292 29.1683 27.1209L29.1586 27.2155C27.2619 27.0259 25.3773 26.7302 23.5136 26.3299C23.5106 26.3525 23.5076 26.3745 23.5043 26.3949C23.4369 26.7855 23.2178 27.1334 22.8948 27.3628C22.5719 27.5922 22.1713 27.6844 21.7807 27.6191C21.3901 27.5538 21.0412 27.3365 20.8102 27.0145C20.5792 26.6926 20.4849 26.2921 20.5479 25.9008V25.9008C20.5727 25.7582 20.6215 25.6208 20.6921 25.4945C18.0471 24.8628 13.7096 24.1705 13.655 24.1612L13.7333 23.1672H27.7155C27.4491 21.2469 28.9564 20.1652 30.7102 19.9159L30.9264 16.0826L31.9215 16.0532L32.3657 19.8865L32.2192 19.9035C34.0296 20.1272 35.6265 21.2199 35.3588 23.1665H49.2131L49.2917 24.1605C49.2364 24.1692 44.8936 24.8628 42.2493 25.4938C42.3222 25.6192 42.3724 25.7564 42.3978 25.8992C42.4337 26.0949 42.4303 26.2958 42.3878 26.4902C42.3453 26.6846 42.2646 26.8686 42.1504 27.0314C42.0361 27.1943 41.8907 27.3328 41.7225 27.4388C41.5542 27.5449 41.3666 27.6163 41.1705 27.6491C40.9744 27.6819 40.7738 27.6753 40.5803 27.6297C40.3868 27.5841 40.2042 27.5004 40.0434 27.3835C39.8825 27.2666 39.7464 27.1189 39.6432 26.9488C39.5399 26.7788 39.4714 26.5899 39.4418 26.3932C39.4381 26.3712 39.4418 26.3515 39.4385 26.3302C37.5909 26.7365 35.7224 27.0406 33.8414 27.2412V27.2355C33.3493 27.8723 32.693 28.3628 31.9431 28.6542C31.8263 28.6993 31.702 28.722 31.5768 28.7209C30.6919 28.7226 29.6212 27.7142 29.1852 27.1455V27.1459ZM29.0087 21.7792C28.8575 21.9697 28.7526 22.1929 28.7023 22.431C28.6521 22.6691 28.6578 22.9156 28.719 23.1512C28.9481 24.3562 29.2588 25.6002 29.9775 26.5365C30.4285 27.1238 31.2341 27.7225 31.5761 27.7225C33.2909 27.0495 33.928 25.4078 34.357 23.1512C34.415 22.9235 34.4206 22.6856 34.3733 22.4554C34.3261 22.2253 34.2272 22.0089 34.0842 21.8225C33.6449 21.2699 32.7311 20.9018 31.7 20.8622C31.6384 20.8598 31.5768 20.8585 31.5155 20.8585C30.4381 20.8582 29.478 21.2109 29.0081 21.7785L29.0087 21.7792ZM40.8722 25.9385C40.7215 25.9503 40.5764 26.0011 40.4512 26.0859C40.4313 26.1035 40.4079 26.1235 40.4259 26.2305C40.448 26.3613 40.5211 26.478 40.6291 26.5549C40.7371 26.6317 40.8712 26.6624 41.0019 26.6403C41.1326 26.6182 41.2491 26.5451 41.3259 26.437C41.4027 26.3288 41.4335 26.1946 41.4114 26.0638C41.3944 25.9638 41.3671 25.9526 41.3351 25.9399C41.2707 25.9189 41.203 25.9095 41.1353 25.9122C41.047 25.9135 40.959 25.922 40.8722 25.9379V25.9385ZM21.5337 26.0655C21.5116 26.1963 21.5424 26.3306 21.6191 26.4387C21.6959 26.5468 21.8125 26.6199 21.9432 26.642C22.0738 26.6641 22.2079 26.6334 22.316 26.5565C22.424 26.4796 22.4971 26.363 22.5192 26.2322C22.5342 26.1432 22.5541 26.0205 22.0736 25.9402C21.9844 25.924 21.8941 25.915 21.8035 25.9135C21.5593 25.9112 21.543 26.0072 21.5337 26.0649V26.0655ZM34.4992 26.1589C35.9286 25.9812 38.9755 25.5589 40.2547 25.0379C41.3582 24.6661 42.4873 24.3753 43.6331 24.1678H35.1626C35.0122 24.8528 34.7898 25.5201 34.4992 26.1582V26.1589ZM22.6903 25.0379C23.9975 25.5695 27.182 25.9835 28.5804 26.1459C28.2867 25.5128 28.0634 24.8494 27.9144 24.1675H19.312C20.4577 24.3748 21.5868 24.6654 22.6903 25.0369V25.0379ZM30.8185 24.1902L29.3721 23.5612L29.6984 22.8095L31.1448 23.4388C31.2901 23.5027 31.448 23.5329 31.6066 23.5271C31.7652 23.5214 31.9204 23.4798 32.0607 23.4055L33.3475 22.7312L33.7275 23.4572L32.441 24.1315C32.1924 24.2628 31.9174 24.3363 31.6365 24.3465C31.3555 24.3567 31.076 24.3034 30.8185 24.1905V24.1902ZM31.3393 12.6669C28.5799 12.6799 25.906 13.6265 23.7521 15.353C21.5982 17.0794 20.0909 19.4843 19.4752 22.1765L18.1763 21.8865C18.8503 18.8653 20.5411 16.1676 22.9655 14.2456C25.39 12.3235 28.4008 11.2938 31.4935 11.329C34.5861 11.3642 37.5728 12.462 39.953 14.4387C42.3332 16.4154 43.9624 19.1508 44.5676 22.1866L43.2611 22.4466C42.7058 19.6903 41.2155 17.2109 39.0428 15.4286C36.8701 13.6463 34.1485 12.6706 31.3393 12.6669V12.6669Z" fill="white" stroke="white" stroke-width="6" mask="url(#path-2-inside-1)"/>
<defs>
<linearGradient id="paint0_linear" x1="62.944" y1="21.7122" x2="11.049" y2="49.91" gradientUnits="userSpaceOnUse">
<stop stop-color="#F2404D"/>
<stop offset="1" stop-color="#DE253A"/>
</linearGradient>
</defs>
</svg>
