<svg width="10" height="13" viewBox="0 0 10 13" fill="none" xmlns="http://www.w3.org/2000/svg">
<path d="M9.24318 10.3589C9.20471 9.59585 9.03684 8.49323 8.0506 7.71614C7.78481 7.50612 7.46656 7.26109 7.13082 7.01957C7.08186 6.98456 7.0294 6.96006 6.97344 6.94956C6.91749 6.93556 6.85803 6.93556 6.80208 6.94606C6.74612 6.95656 6.69016 6.97756 6.6412 7.00907C6.6377 7.00907 6.6377 7.01257 6.63421 7.01257C6.63421 7.01257 5.06043 8.1712 3.11595 7.00907L3.11245 7.00557C3.06349 6.97406 3.00753 6.95306 2.95157 6.94256C2.89562 6.93206 2.83616 6.93556 2.78021 6.94606C2.72425 6.96006 2.66829 6.98456 2.62283 7.01607C2.29758 7.24709 1.98632 7.48512 1.69955 7.71614C1.12949 8.16069 0.741293 8.80477 0.618888 9.51885C0.569926 9.80938 0.548943 10.1034 0.527959 10.3834C0.520964 10.478 0.51397 10.569 0.506975 10.6635C0.482494 10.8735 0.520964 11.087 0.611894 11.276C0.702823 11.4651 0.846211 11.6261 1.02457 11.7381C1.31834 11.9341 1.6331 12.0951 1.96534 12.2141C2.87114 12.5257 3.80841 12.6132 4.93453 12.6447L4.95551 12.6482H4.9765C5.04994 12.6447 5.13038 12.6412 5.21431 12.6342C5.42765 12.6237 5.66896 12.6097 5.91726 12.5887C6.70765 12.5397 7.48754 12.3612 8.22197 12.0566C9.03334 11.6891 9.29214 11.2585 9.24318 10.3589Z" fill="#B4B4B4"/>
<path d="M4.85764 7.20151H4.87163C5.27731 7.20151 5.67949 7.121 6.05369 6.96698C6.42789 6.80946 6.77062 6.58194 7.05389 6.29491C7.48755 5.86086 7.78131 5.3113 7.90372 4.70923C8.02612 4.10717 7.96667 3.4876 7.73585 2.92054C7.50503 2.35347 7.10985 1.86692 6.60625 1.52388C6.09915 1.17384 5.50113 0.988324 4.88912 0.981323H4.88212C4.07077 0.995325 3.29788 1.32786 2.72784 1.90893C2.15779 2.48649 1.83605 3.26707 1.83255 4.07916C1.82905 4.89125 2.1438 5.67184 2.71035 6.2564C3.2734 6.84097 4.04629 7.18051 4.85764 7.20151Z" fill="#B4B4B4"/>
</svg>
