<svg width="12" height="9" viewBox="0 0 12 9" fill="none" xmlns="http://www.w3.org/2000/svg">
<path d="M4.02994 8.99994L0.280268 4.68361C0.220986 4.61574 0.175771 4.53675 0.147207 4.45125C0.118643 4.36575 0.107304 4.27542 0.113871 4.18551C0.120438 4.09559 0.144779 4.00788 0.185463 3.92745C0.226146 3.84702 0.28237 3.77546 0.350884 3.71694C0.489175 3.59824 0.668698 3.53903 0.850399 3.55221C1.0321 3.56538 1.20125 3.64987 1.32101 3.78727L4.10288 6.98993L10.5944 0.531596C10.7238 0.403274 10.8986 0.331299 11.0807 0.331299C11.2628 0.331299 11.4375 0.403274 11.5669 0.531596C11.6306 0.59492 11.6811 0.670244 11.7156 0.753194C11.7501 0.836145 11.7679 0.925088 11.7679 1.01493C11.7679 1.10478 11.7501 1.19374 11.7156 1.27669C11.6811 1.35964 11.6306 1.43495 11.5669 1.49827L4.02994 8.99994Z" fill="#cacaca"/>
</svg>
