<svg width="1" height="25" viewBox="0 0 1 25" fill="none" xmlns="http://www.w3.org/2000/svg">
<path d="M0 24.8062V24.5156C0 24.4642 0.0526857 24.4149 0.146454 24.3785C0.240222 24.3422 0.367392 24.3218 0.5 24.3218C0.632608 24.3218 0.759778 24.3422 0.853546 24.3785C0.947314 24.4149 1 24.4642 1 24.5156V24.8062C1 24.8576 0.947314 24.9069 0.853546 24.9433C0.759778 24.9796 0.632608 25 0.5 25C0.367392 25 0.240222 24.9796 0.146454 24.9433C0.0526857 24.9069 0 24.8576 0 24.8062ZM0 22.3672V21.781C0 21.7296 0.0526857 21.6803 0.146454 21.644C0.240222 21.6077 0.367392 21.5872 0.5 21.5872C0.632608 21.5872 0.759778 21.6077 0.853546 21.644C0.947314 21.6803 1 21.7296 1 21.781V22.3672C1 22.4186 0.947314 22.4679 0.853546 22.5042C0.759778 22.5405 0.632608 22.561 0.5 22.561C0.367392 22.561 0.240222 22.5405 0.146454 22.5042C0.0526857 22.4679 0 22.4186 0 22.3672ZM0 19.6319V19.0459C0 18.9945 0.0526857 18.9452 0.146454 18.9089C0.240222 18.8725 0.367392 18.8521 0.5 18.8521C0.632608 18.8521 0.759778 18.8725 0.853546 18.9089C0.947314 18.9452 1 18.9945 1 19.0459V19.6319C1 19.6833 0.947314 19.7326 0.853546 19.7689C0.759778 19.8052 0.632608 19.8256 0.5 19.8256C0.367392 19.8256 0.240222 19.8052 0.146454 19.7689C0.0526857 19.7326 0 19.6833 0 19.6319ZM0 16.8966V16.3104C0 16.259 0.0526857 16.2097 0.146454 16.1734C0.240222 16.137 0.367392 16.1166 0.5 16.1166C0.632608 16.1166 0.759778 16.137 0.853546 16.1734C0.947314 16.2097 1 16.259 1 16.3104V16.8966C1 16.9479 0.947314 16.9972 0.853546 17.0336C0.759778 17.0699 0.632608 17.0903 0.5 17.0903C0.367392 17.0903 0.240222 17.0699 0.146454 17.0336C0.0526857 16.9972 0 16.9479 0 16.8966ZM0 14.1612V13.5751C0 13.5237 0.0526857 13.4744 0.146454 13.438C0.240222 13.4017 0.367392 13.3813 0.5 13.3813C0.632608 13.3813 0.759778 13.4017 0.853546 13.438C0.947314 13.4744 1 13.5237 1 13.5751V14.1612C1 14.2126 0.947314 14.2619 0.853546 14.2982C0.759778 14.3346 0.632608 14.355 0.5 14.355C0.367392 14.355 0.240222 14.3346 0.146454 14.2982C0.0526857 14.2619 0 14.2126 0 14.1612ZM0 11.4259V10.8397C0 10.7883 0.0526857 10.7391 0.146454 10.7027C0.240222 10.6664 0.367392 10.646 0.5 10.646C0.632608 10.646 0.759778 10.6664 0.853546 10.7027C0.947314 10.7391 1 10.7883 1 10.8397V11.4259C1 11.4773 0.947314 11.5266 0.853546 11.5629C0.759778 11.5993 0.632608 11.6197 0.5 11.6197C0.367392 11.6197 0.240222 11.5993 0.146454 11.5629C0.0526857 11.5266 0 11.4773 0 11.4259ZM0 8.6904V8.10442C0 8.05302 0.0526857 8.00375 0.146454 7.96741C0.240222 7.93107 0.367392 7.91064 0.5 7.91064C0.632608 7.91064 0.759778 7.93107 0.853546 7.96741C0.947314 8.00375 1 8.05302 1 8.10442V8.6904C1 8.74179 0.947314 8.79106 0.853546 8.8274C0.759778 8.86374 0.632608 8.88417 0.5 8.88417C0.367392 8.88417 0.240222 8.86374 0.146454 8.8274C0.0526857 8.79106 0 8.74179 0 8.6904ZM0 5.95506V5.36891C0 5.31752 0.0526857 5.26823 0.146454 5.23189C0.240222 5.19555 0.367392 5.17514 0.5 5.17514C0.632608 5.17514 0.759778 5.19555 0.853546 5.23189C0.947314 5.26823 1 5.31752 1 5.36891V5.95506C1 6.00646 0.947314 6.05575 0.853546 6.09209C0.759778 6.12843 0.632608 6.14884 0.5 6.14884C0.367392 6.14884 0.240222 6.12843 0.146454 6.09209C0.0526857 6.05575 0 6.00646 0 5.95506ZM0 3.21975V2.63358C0 2.58218 0.0526857 2.53291 0.146454 2.49657C0.240222 2.46023 0.367392 2.4398 0.5 2.4398C0.632608 2.4398 0.759778 2.46023 0.853546 2.49657C0.947314 2.53291 1 2.58218 1 2.63358V3.21975C1 3.27114 0.947314 3.32044 0.853546 3.35678C0.759778 3.39312 0.632608 3.41352 0.5 3.41352C0.367392 3.41352 0.240222 3.39312 0.146454 3.35678C0.0526857 3.32044 0 3.27114 0 3.21975ZM0 0.484436V0.193774C0 0.142382 0.0526857 0.093086 0.146454 0.0567462C0.240222 0.0204064 0.367392 0 0.5 0C0.632608 0 0.759778 0.0204064 0.853546 0.0567462C0.947314 0.093086 1 0.142382 1 0.193774V0.484436C1 0.535828 0.947314 0.585125 0.853546 0.621464C0.759778 0.657804 0.632608 0.678211 0.5 0.678211C0.367392 0.678211 0.240222 0.657804 0.146454 0.621464C0.0526857 0.585125 0 0.535828 0 0.484436Z" fill="#757575"/>
</svg>
