<svg width="27" height="28" viewBox="0 0 27 28" fill="none" xmlns="http://www.w3.org/2000/svg">
<path d="M22.4661 0.727017V0.664349H21.7943C21.7348 0.65941 21.675 0.65941 21.6155 0.664349H6.36037C4.85157 0.660802 3.40297 1.25639 2.33234 2.32047C1.26172 3.38455 0.656495 4.83022 0.649443 6.34035V25.6157C0.647566 25.9015 0.736171 26.1806 0.902555 26.413C1.06894 26.6453 1.30455 26.819 1.57562 26.909C1.84552 27.0047 2.13866 27.0131 2.41357 26.933C2.68849 26.8528 2.93128 26.6882 3.10759 26.4623L9.71638 18.1187L16.4321 26.4853C16.5604 26.6466 16.7234 26.7768 16.9089 26.8663C17.0945 26.9558 17.2978 27.0021 17.5038 27.002C17.6604 27.0019 17.8159 26.9754 17.9637 26.9237C18.2338 26.8329 18.4683 26.6592 18.6339 26.4272C18.7995 26.1952 18.8877 25.9168 18.8859 25.6317V8.56168H26.2933V5.21869C26.2906 4.13751 25.9043 3.09244 25.2033 2.2698C24.5024 1.44716 23.5323 0.900404 22.4661 0.727017ZM18.8876 5.21869C18.8943 4.49034 19.1819 3.79274 19.6902 3.27156C20.1986 2.75037 20.8885 2.44589 21.6158 2.42168H21.7823C22.512 2.44292 23.2051 2.746 23.7164 3.26742C24.2278 3.78883 24.5176 4.48811 24.5252 5.21869V6.80235H18.8876V5.21869ZM17.2157 4.28935H17.1191V24.5194L9.70806 15.2887L2.41787 24.4934V6.34035C2.42272 5.29784 2.84052 4.29983 3.57963 3.56525C4.31873 2.83068 5.31878 2.41954 6.36037 2.42202H18.0833C17.6539 2.96903 17.3569 3.60819 17.2157 4.28935Z" fill="white"/>
</svg>
